<svg width="2346" height="1275" xmlns="http://www.w3.org/2000/svg" xmlns:xlink="http://www.w3.org/1999/xlink" xml:space="preserve" overflow="hidden"><g transform="matrix(1 0 0 1 0 -572)"><g><path d="M1813.67 1405.6C1794.64 1380.69 1761.68 1337.55 1704.98 1324.58 1598.16 1300.13 1506.37 1405.49 1497.71 1415.72 1411.27 1517.83 1397.89 1694.44 1485.07 1780.31 1529.75 1824.32 1590.47 1834.28 1616.51 1838.54 1647.1 1843.56 1718.26 1855.22 1778.28 1813.22 1810.51 1790.68 1825.97 1762.15 1836.42 1742.33 1885.43 1649.39 1891.79 1507.83 1813.67 1405.6ZM1680.99 1792.75C1618.36 1799.23 1559.02 1740.37 1534.64 1685.25 1506.91 1621.34 1516.93 1547.28 1560.66 1493.07 1569.7 1482.08 1617.79 1423.7 1684.24 1431.17 1749.59 1438.52 1788.51 1504.6 1801.31 1548.44 1830.31 1647.71 1769.41 1783.6 1680.99 1792.75Z" fill="#F2DA69" fill-rule="evenodd" fill-opacity="1"/><path d="M1285.99 1806 1252.79 1806 1237 1678 1286 1678 1285.99 1806Z" fill="#FFB6B6" fill-rule="evenodd" fill-opacity="1"/><path d="M1284.67 1794.78 1249.56 1780.33 1248.56 1779.91 1229.18 1794.78C1206.39 1794.78 1187.92 1813.48 1187.92 1836.55L1187.92 1837.91 1293.92 1837.91 1293.92 1794.78Z" fill="#2F2E41" fill-rule="evenodd" fill-opacity="1"/><path d="M1698 1551.78 1690.61 1584 1564 1570.56 1574.9 1523 1698 1551.78Z" fill="#FFB6B6" fill-rule="evenodd" fill-opacity="1"/><path d="M1689.43 1540.91 1687.53 1549.1 1687.33 1549.95 1665.58 1580.94 1664.92 1581.86 1674.84 1604.07C1669.7 1626.29 1683.52 1648.46 1705.69 1653.61 1705.7 1653.61 1705.71 1653.61 1705.72 1653.61L1707.01 1653.91 1730.92 1550.55Z" fill="#2F2E41" fill-rule="evenodd" fill-opacity="1"/><path d="M1263.48 1120.91 1445.07 1127.29 1446.33 1125.44C1446.33 1125.44 1461.82 1161.7 1461.82 1192.77 1461.82 1203.1 1454.66 1270.68 1458.3 1283.47 1458.75 1285.06 1455.64 1288.95 1456.66 1296.36 1457.32 1301.16 1460.98 1297.47 1461.82 1304.13 1462.42 1308.91 1455.98 1311.55 1456.66 1317.08 1457.39 1323.12 1466.25 1342.69 1467.05 1349.41 1475.54 1420.95 1461.72 1439.54 1461.72 1439.54 1461.72 1439.54 1617.03 1504.82 1626.63 1506.8 1642.76 1510.13 1653.64 1539.54 1644.71 1545.65 1640.45 1548.56 1626.29 1602.8 1626.29 1602.8 1623.27 1603.35 1613.82 1598.59 1619.84 1587.35 1620.95 1585.28 1614.34 1590.55 1613.24 1588.07 1612.08 1585.43 1595.53 1597 1594.19 1594.07 1582.17 1567.8 1431.84 1531.4 1414.36 1512.71 1388.53 1485.09 1372.17 1449.92 1367.67 1412.32L1352.69 1274.34 1338.95 1336.88 1327.58 1348.15 1330.7 1374.44 1330.16 1399.95 1301.76 1506.12C1301.76 1506.12 1297.51 1704.41 1304.34 1710.71 1308.05 1714.12 1323.77 1756.12 1294.02 1759.91L1239.96 1755.73C1239.96 1755.73 1232.68 1740.33 1236.32 1734.85 1239.96 1729.37 1239.75 1730.87 1235.3 1721.9 1230.86 1712.93 1232.68 1697.74 1232.68 1697.74 1225.6 1626.33 1222.81 1554.56 1224.31 1482.82 1227.02 1364.98 1243.45 1229.6 1243.45 1226.85 1243.58 1224.03 1243.06 1221.21 1241.93 1218.63L1241.93 1211.19 1248.91 1184.84Z" fill="#2F2E41" fill-rule="evenodd" fill-opacity="1"/><path d="M1460.92 1164.1C1415.09 1172.06 1384.36 1169.03 1365.45 1140.8 1340.77 1109.28 1295.9 1146.5 1258.05 1160.34L1253.56 1155.47 1245.92 1147.21 1252.94 1139.24 1245.92 1123.86 1251.77 1104.88 1259.26 1103.51 1257.25 1087.17 1254.1 1077.62 1263.33 1067.45 1271.18 1042.05 1265.53 988.896C1257.79 916.04 1272.78 842.573 1308.41 778.62L1329.85 759.306 1338.76 751.282 1350.7 728.911 1363.32 730.387 1397.49 734.349 1398.65 737.145 1407.03 757.442 1437.5 790.275C1446.21 799.672 1450.49 812.373 1449.22 825.143L1448.34 833.998 1447.7 840.366 1444.65 871.02 1432.24 996.25 1431.31 1002.9 1421.33 1074.9C1437.56 1090.64 1438.55 1087.21 1445.44 1114.91 1446.21 1117.99 1455.19 1124.85 1455.76 1127.86 1456.56 1132.1 1460.92 1164.1 1460.92 1164.1Z" fill="#3F3D56" fill-rule="evenodd" fill-opacity="1"/><path d="M1428 656C1428 689.137 1401.36 716 1368.5 716 1335.64 716 1309 689.137 1309 656 1309 622.863 1335.64 596 1368.5 596 1401.36 596 1428 622.863 1428 656Z" fill="#FFB6B6" fill-rule="evenodd" fill-opacity="1"/><path d="M1430.21 611.126C1422.18 602.501 1409.89 599.224 1398.59 602.695 1391.27 581.864 1368.35 570.88 1347.4 578.158 1339.61 580.865 1332.85 585.89 1328.03 592.551 1324.04 590.768 1319.4 591.191 1315.8 593.666 1312.29 596.151 1309.46 599.471 1307.57 603.322 1297.65 622.066 1298.9 644.717 1310.82 662.275 1308.49 657.594 1315.04 665.655 1321.43 663.54 1326.92 662.112 1349.46 647.741 1355.09 648.467 1360.71 649.194 1362.54 644.683 1368.04 643.317 1373.43 641.603 1387.19 663.756 1389.95 678.412 1390.47 681.191 1391.74 684.641 1394.58 684.706 1398.08 684.785 1399.13 679.8 1402.08 677.93 1404.97 676.467 1408.51 677.544 1410.08 680.367 1411.48 683.196 1411.42 686.526 1409.91 689.305 1408.41 692.025 1406.46 694.488 1404.17 696.593L1405.69 697.426C1408.8 699.638 1413.05 699.353 1415.82 696.743 1421.51 699.297 1436.99 684.904 1434.93 676.194 1439.26 665.52 1441.62 654.163 1441.91 642.662 1442.15 631.061 1437.97 619.798 1430.21 611.126Z" fill="#2F2E41" fill-rule="evenodd" fill-opacity="1"/><path d="M972.553 811.539C980.856 819.268 993.912 818.866 1001.72 810.639 1002.55 809.761 1003.3 808.815 1003.97 807.806L1130.92 837.912 1118.25 802.309 996.815 778.548C986.828 772.988 974.183 776.509 968.576 786.405 963.882 794.688 965.525 805.076 972.553 811.539Z" fill="#FFB8B8" fill-rule="evenodd" fill-opacity="1"/><path d="M1351.95 789.622 1341.77 784.296 1295.32 783.565 1293.62 783.549 1293.53 783.555 1257.91 783.01 1085.95 780.311 1079.03 786.362 1068.4 780.034 1056.35 773.91 1045.29 779.671 1035.83 779.523 1034.39 785.885 1034.38 785.907 1034.33 786.09 1027.93 813.843 1027.92 813.865 1028 820.411 1039.12 832.426 1045.02 836.961 1057.27 842.387 1065.75 832.265 1075.69 842.617 1116.45 850.14C1184.6 868.957 1247.34 878.015 1295.5 860.62L1301.55 860.34 1349.35 858.057C1362.71 857.436 1374.39 848.816 1378.95 836.21L1378.96 836.188C1380.47 832.001 1381.12 827.549 1380.86 823.103 1380.65 819.02 1379.67 815.009 1377.97 811.292 1374.92 804.526 1369.71 798.97 1363.15 795.505Z" fill="#3F3D56" fill-rule="evenodd" fill-opacity="1"/><path d="M2060.05 1766.37C2066.24 1766.6 2071.44 1761.76 2071.67 1755.57 2071.79 1752.26 2070.44 1749.07 2068 1746.85 2067.7 1745.72 2067.49 1744.92 2067.2 1743.8 2073.14 1728.25 2090.56 1720.46 2106.11 1726.42 2113.73 1729.34 2119.85 1735.22 2123.05 1742.74 2136.64 1773.74 2154.14 1805.8 2145.91 1840.17 2201.28 1719.8 2180.64 1570.92 2096.16 1469.24 2072.96 1456.73 2054.04 1434.31 2048.92 1408.11 2060.38 1411.87 2074.53 1402.44 2065.83 1390.48 2062.06 1385.91 2058.26 1381.38 2054.49 1376.81 2097.45 1330.16 2149.84 1402.35 2102.67 1465.21 2118.48 1484.67 2132.22 1505.72 2143.65 1528.04 2140.83 1504.25 2143.7 1480.14 2152.01 1457.69 2160.45 1436.75 2176.47 1419.03 2190.56 1400.87 2207.69 1378.74 2243.47 1388.53 2246.07 1416.39 2230.12 1421.8 2228.26 1444.95 2246.59 1447.94 2242.29 1499.84 2208.89 1547.82 2162.48 1571.01 2180.15 1619.19 2187.37 1670.6 2183.63 1721.79 2191.3 1661.93 2255.29 1646.81 2299.89 1622.62 2307.96 1617.33 2318.78 1619.59 2324.06 1627.67 2326.46 1631.32 2327.39 1635.75 2326.69 1640.06 2320.52 1642.64 2314.63 1645.82 2309.1 1649.57 2302.16 1654.33 2300.39 1663.83 2305.16 1670.77 2307.75 1674.55 2311.89 1676.96 2316.45 1677.34 2294.38 1733.51 2236.32 1771.65 2176.32 1772.01 2170.8 1797.13 2162.68 1821.62 2152.09 1845.06L2063.04 1845.91C2062.71 1844.92 2062.42 1843.9 2062.12 1842.92 2070.37 1843.36 2078.64 1842.78 2086.75 1841.21 2064.69 1815.58 2047.7 1802.56 2060.05 1766.37Z" fill="#F2F2F2" fill-rule="evenodd" fill-opacity="1"/><path d="M271.781 1514.54C265.592 1514.76 260.393 1509.94 260.167 1503.75 260.047 1500.46 261.391 1497.27 263.842 1495.05 264.135 1493.93 264.346 1493.13 264.638 1492.01 258.691 1476.49 241.27 1468.72 225.732 1474.66 218.107 1477.58 211.993 1483.45 208.787 1490.95 195.202 1521.89 177.693 1553.88 185.922 1588.18 130.558 1468.06 151.191 1319.49 235.672 1218.02 258.876 1205.54 277.798 1183.16 282.918 1157.01 271.46 1160.77 257.306 1151.35 266.007 1139.42 269.774 1134.86 273.578 1130.34 277.345 1125.78 234.392 1079.22 181.995 1151.26 229.165 1214 213.355 1233.41 199.62 1254.43 188.181 1276.69 191.001 1252.96 188.137 1228.9 179.827 1206.49 171.384 1185.59 155.361 1167.92 141.273 1149.79 124.145 1127.7 88.3663 1137.48 85.767 1165.27 101.718 1170.68 103.578 1193.77 85.2447 1196.76 89.5431 1248.56 122.949 1296.44 169.364 1319.58 151.682 1367.66 144.467 1418.96 148.202 1470.05 140.54 1410.31 76.5471 1395.22 31.9447 1371.08 23.8796 1365.81 13.0548 1368.06 7.77138 1376.12 5.37691 1379.77 4.44209 1384.18 5.14718 1388.49 11.3116 1391.06 17.2022 1394.24 22.7374 1397.97 29.6792 1402.73 31.4444 1412.2 26.6804 1419.14 24.0938 1422.9 19.9493 1425.31 15.3897 1425.69 37.455 1481.75 95.5125 1519.8 155.512 1520.16 161.037 1545.23 169.159 1569.67 179.745 1593.07L268.795 1593.91C269.123 1592.93 269.421 1591.91 269.717 1590.92 261.47 1591.36 253.2 1590.79 245.09 1589.22 267.143 1563.65 284.136 1550.65 271.784 1514.54Z" fill="#F2F2F2" fill-rule="evenodd" fill-opacity="1"/><path d="M249.497 1509.07C416.769 1481.98 520.078 1758.37 627.962 1740.97 825.684 1709.09 743.73 717.433 898.295 708.998 1030.05 701.81 1199.07 1139.41 1338.66 1401.95 1412.03 1539.94 1451.92 1638.09 1451.92 1638.09 1451.92 1638.09 1390.87 1934.6 1304.05 1817.57 1180.04 1650.38 1086.79 1064.92 1018.01 1091.64 912.697 1132.55 1031.49 1635.94 778.575 1791.22 557.67 1926.85 126.179 1734.14 125.918 1613.42 125.821 1567.06 189.298 1518.82 249.497 1509.07Z" fill="#F2DA69" fill-rule="evenodd" fill-opacity="1"/><path d="M1053.44 1453.05C1019.35 1460.8 974.584 1484.78 977.013 1506.88 979.618 1530.56 1036.5 1552.51 1082.11 1538.54 1119.53 1527.09 1153.58 1490.17 1145.8 1468.88 1137.77 1446.9 1086.6 1445.5 1053.44 1453.05Z" fill="#F2DA69" fill-rule="evenodd" fill-opacity="1"/><path d="M1947.74 1372.73C1958.72 1354.09 1974.44 1326.48 1962.91 1306.91 1947.17 1280.2 1898.37 1244.58 1868 1279.33 1844.92 1305.73 1850.1 1316.29 1850.41 1357.29 1851.25 1469.22 1787.97 1708.24 1854.11 1821.99 1866.49 1843.28 1934.92 1839.06 1962.04 1841.71 1992.09 1844.64 2024.7 1815.39 2022.84 1781.53 2021.18 1751.21 1992.72 1742.37 1964.29 1722.43 1862.01 1650.7 1890.83 1469.2 1947.74 1372.73Z" fill="#F2DA69" fill-rule="evenodd" fill-opacity="1"/><path d="M654.45 731.623C653.758 739.897 653.088 748.171 652.438 756.444 651.941 766.135 650.584 775.762 648.383 785.215 647.881 787.838 646.749 790.301 645.083 792.392 642.129 795.745 647.598 815.364 643.543 817.244 639.426 819.2 635.004 820.441 630.468 820.911 630.28 819.532 630.029 818.153 629.746 816.805 629.714 816.649 629.683 816.523 629.651 816.367 628.366 810.249 625.993 804.41 622.642 799.13 623.431 805.388 622.734 811.744 620.6 817.683 620.254 818.655 619.845 819.626 619.405 820.598 601.584 817.965 586.152 805.962 573.989 806.087 566.6 781.382 561.395 756.075 558.431 730.463 557.646 723.632 557.205 716.047 561.417 710.625 565.157 705.799 571.537 704.044 577.509 702.759 597.018 698.556 616.957 696.651 636.911 697.086L602.37 689.063C612.069 688.518 621.797 689.436 631.223 691.79 640.495 694.579 649.263 700.69 652.846 709.685 655.581 716.549 655.015 724.258 654.45 731.623Z" fill="#2F2E41" fill-rule="evenodd" fill-opacity="1"/><path d="M459.994 1778 426.795 1778 411 1650 460 1650 459.994 1778Z" fill="#FFB6B6" fill-rule="evenodd" fill-opacity="1"/><path d="M359.015 1826.78C359.047 1834.56 365.35 1840.86 373.149 1840.91L436.103 1840.91 438.054 1836.88 446.959 1818.54 450.408 1836.88 451.173 1840.91 474.917 1840.91 474.579 1836.85 468.247 1761.07 459.965 1760.56 424.176 1758.45 415.384 1757.91 415.384 1780.54C408.711 1787.62 356.356 1814.39 359.015 1826.78Z" fill="#2F2E41" fill-rule="evenodd" fill-opacity="1"/><path d="M849 1741.58 820.072 1758 743 1654.22 785.696 1630 849 1741.58Z" fill="#FFB6B6" fill-rule="evenodd" fill-opacity="1"/><path d="M786.302 1833.76C790.114 1840.53 798.647 1842.91 805.373 1839.08L808.644 1837.22 808.672 1837.22 859.533 1808.11 857.91 1783.34 872.506 1800.7 883.272 1794.52 892.919 1789 884.392 1776.43 848.126 1722.91 840.744 1726.57 808.894 1742.33 801.12 1746.19 812.168 1765.83C809.901 1775.3 777.969 1824.29 786.302 1833.76Z" fill="#2F2E41" fill-rule="evenodd" fill-opacity="1"/><path d="M624.761 1147.48C663.717 1148.88 657.737 1241.34 669.898 1321.75 680.747 1393.5 712.485 1454.08 701.871 1456.66L806.918 1652.77C765.84 1690.99 717.641 1716.33 657.398 1719.91 592.02 1659.73 574.094 1521.25 559.085 1377.95L542.699 1503.79 564.546 1703.5 467.899 1726.91 401.05 1722.13C344.391 1493.19 451.585 1234.28 497.732 1135.91Z" fill="#2F2E41" fill-rule="evenodd" fill-opacity="1"/><path d="M665.611 1099.51 683.263 1046.43 695.875 1028.74 700.918 978.196C700.918 841.714 670.541 864.442 670.541 864.442L630.914 816.441 585.83 815.029 550.205 813.911 520.584 863.197C494.03 872.589 474.437 895.391 469.114 923.104L460.918 965.787 491.581 1059.07 490.229 1052.14C475.795 1078.84 479.464 1082.86 491.418 1102.91L492.01 1110.15C493.143 1123.5 502.649 1134.64 515.638 1137.84 643.338 1169.73 656.609 1225.52 673.028 1202.49 676.842 1197.13 660.651 1133.26 666.175 1133.81 681.302 1135.33 665.611 1099.51 665.611 1099.51Z" fill="#E6E6E6" fill-rule="evenodd" fill-opacity="1"/><path d="M753.523 1297.49C743.475 1288.34 742.826 1272.89 752.077 1262.95 752.973 1261.99 753.946 1261.1 754.986 1260.29L722.917 1142.67 753.657 1125.91 790.71 1265.88C798.323 1277.07 795.319 1292.23 784.002 1299.76 774.532 1306.05 761.931 1305.11 753.523 1297.49Z" fill="#FFB6B6" fill-rule="evenodd" fill-opacity="1"/><path d="M666.41 860.911C666.41 860.911 722.771 878.106 727.728 908.123 732.689 938.14 741.35 964.622 739.112 976.899 736.874 989.18 764.833 1071.36 759.383 1080.82 753.933 1090.26 768.591 1092.31 763.53 1107.81 758.469 1123.3 755.647 1126.52 758.859 1129.34 762.067 1132.17 775.918 1193.62 775.918 1193.62L733.69 1205.91 655.918 1012.87Z" fill="#E6E6E6" fill-rule="evenodd" fill-opacity="1"/><path d="M443.736 1297.49C453.646 1288.34 454.285 1272.89 445.163 1262.95 444.282 1261.99 443.322 1261.1 442.294 1260.29L473.918 1142.67 443.608 1125.91 407.065 1265.88C399.56 1277.07 402.522 1292.23 413.679 1299.76 423.018 1306.05 435.445 1305.11 443.736 1297.49Z" fill="#FFB6B6" fill-rule="evenodd" fill-opacity="1"/><path d="M531.427 860.911C531.427 860.911 475.065 878.106 470.105 908.123 465.147 938.14 456.483 964.622 458.721 976.899 460.963 989.18 433.003 1071.36 438.45 1080.82 443.9 1090.26 429.242 1092.31 434.303 1107.81 439.364 1123.3 442.186 1126.52 438.978 1129.34 435.766 1132.17 421.918 1193.62 421.918 1193.62L464.143 1205.91 541.918 1012.87Z" fill="#E6E6E6" fill-rule="evenodd" fill-opacity="1"/><path d="M648 736.5C648 775.436 616.436 807 577.5 807 538.564 807 507 775.436 507 736.5 507 697.564 538.564 666 577.5 666 616.436 666 648 697.564 648 736.5Z" fill="#FFB6B6" fill-rule="evenodd" fill-opacity="1"/><path d="M648.829 847.732C622.339 824.203 667.504 756.995 632.226 712.144L627.989 708.978C624.797 715.047 619.609 719.835 613.3 722.537 611.985 716.424 609.772 710.533 606.74 705.062 607.503 711.84 606.894 718.703 604.951 725.243 602.974 725.494 601.561 725.208 601.059 724.318 601.687 729.763 585.021 732.469 588.505 723.998 588.53 723.913 588.561 723.829 588.599 723.747 584.299 732.397 575.448 736.422 567.758 741.226 560.068 745.997 552.253 753.97 553.007 763.867 553.634 771.874 559.755 777.856 565.906 781.841 572.058 785.863 578.963 788.995 583.42 795.225 590.921 805.693 589.164 821.033 585.366 833.777 583.825 837.909 580.353 841.019 576.075 842.107 574.823 835.244 572.46 828.632 569.076 822.528 569.867 829.617 569.171 836.793 567.036 843.602 557.793 844.007 548.785 840.612 542.115 834.203L546.855 855.205C539.228 853.604 531.538 855.419 523.786 856.808 523.585 854.431 523.262 852.067 522.813 849.725 521.592 842.681 519.194 835.893 515.719 829.648 516.689 838.329 515.424 847.114 512.047 855.171 511.671 856.096 511.262 857.021 510.823 857.911 498.896 857.058 487.001 850.114 489.261 832.068 490.256 826.278 492.669 820.823 496.291 816.192 502.443 807.577 471.088 798.36 473.003 787.964 475.858 772.552 504.452 758.917 502.192 743.364 500.183 729.265 500.575 697.447 508.343 686.48 519.564 670.635 507.116 637.858 586.873 656.471 616.542 663.396 626.827 634.325 671.553 723.101 679.221 738.322 651.34 733.09 667.724 765.717 684.108 798.344 637.185 824.203 648.829 847.732Z" fill="#2F2E41" fill-rule="evenodd" fill-opacity="1"/><path d="M3.91787 1842.4C3.90849 1840.47 6.23776 1838.91 9.11687 1838.9L2339.69 1838.9C2342.58 1838.9 2344.92 1840.47 2344.92 1842.4 2344.92 1844.34 2342.58 1845.9 2339.69 1845.9L9.14826 1845.9C6.26915 1845.91 3.92437 1844.35 3.91787 1842.42Z" fill="#CCCCCC" fill-rule="evenodd" fill-opacity="1"/><path d="M1201.65 1170.71C1212.44 1166.97 1218.15 1155.17 1214.41 1144.37 1214.01 1143.22 1213.51 1142.11 1212.91 1141.05L1298.92 1042.37 1261.12 1036.91 1183.37 1133.66C1173.75 1139.92 1171.02 1152.81 1177.28 1162.45 1182.52 1170.51 1192.6 1173.92 1201.65 1170.71Z" fill="#FFB8B8" fill-rule="evenodd" fill-opacity="1"/><path d="M1239.36 1115.54 1251.51 1102.09 1263.23 1101.08 1264.03 1100.08 1267.09 1096.15 1268.27 1085.22 1277.27 1083.11 1297.34 1057.38 1300.4 1052.26 1384.64 953.471 1401.83 924.746 1404.53 918.911 1412.94 900.742 1411.83 854.92C1415.55 846.926 1415.92 837.769 1412.86 829.498 1412.38 828.172 1411.81 826.877 1411.16 825.623L1410.69 824.731C1409.45 822.537 1407.98 820.492 1406.29 818.631L1406.26 818.588C1403.28 815.31 1399.65 812.686 1395.62 810.879 1392.47 809.437 1389.11 808.503 1385.67 808.114 1377.74 807.231 1369.75 809.245 1363.18 813.789L1352.84 820.966 1343.45 827.528 1321.97 867.216 1320.56 869.802 1320.51 869.868 1254.36 992.012 1234.43 1028.84 1231.39 1034.44 1231.11 1050.8 1221.52 1052.62 1210.19 1061.13 1209.05 1075.62 1203.73 1098.98 1202.92 1100.3 1207.88 1103.25 1208.36 1103.53 1209.26 1104.33 1221.89 1115.21 1229.55 1121.82 1229.8 1122.03 1231.79 1123.91Z" fill="#3F3D56" fill-rule="evenodd" fill-opacity="1"/><path d="M509.982 694.784C510.137 694.845 510.274 694.905 510.432 694.965 510.727 695.102 511.034 695.217 511.347 695.309 513.339 696.059 515.415 696.548 517.528 696.764 518.427 696.862 519.333 696.913 520.239 696.91 521.403 696.913 522.563 696.837 523.714 696.678 524.992 696.519 526.261 696.255 527.499 695.89 528.089 695.728 528.669 695.537 529.237 695.315 537.102 692.455 543.199 685.983 545.709 677.834L545.709 677.815C545.842 677.421 545.954 677.02 546.044 676.617 546.624 674.367 546.919 672.051 546.919 669.725L546.919 669.687C546.934 664.012 545.209 658.481 541.982 653.867 540.04 651.046 537.794 650.573 539.054 647.348 543.072 637.053 526.631 628.637 516.922 633.165 516.575 633.13 516.221 633.114 515.871 633.12 509.333 633.104 506.91 642.989 503.013 648.552L503.125 648.59C505.74 649.527 507.118 652.457 506.203 655.135 505.691 656.632 504.531 657.801 503.063 658.306 500.469 659.174 497.848 659.936 495.198 660.6 486.464 671.165 496.476 702.066 509.982 694.784Z" fill="#2F2E41" fill-rule="evenodd" fill-opacity="1"/><path d="M541.882 651.755C542.621 670.816 531.823 688.47 514.442 696.621 510.992 698.172 507.986 693.091 511.461 691.527 526.999 684.419 536.669 668.703 535.952 651.739 535.753 647.954 541.684 647.979 541.882 651.755Z" fill="#F2DA69" fill-rule="evenodd" fill-opacity="1"/></g></g></svg>