<svg width="1861" height="1224" xmlns="http://www.w3.org/2000/svg" xmlns:xlink="http://www.w3.org/1999/xlink" xml:space="preserve" overflow="hidden"><g transform="translate(-806 -476)"><g><path d="M1069.26 543.627C1060.52 575.936 1030.57 595.946 1030.57 595.946 1030.57 595.946 1014.8 563.573 1023.54 531.264 1032.28 498.955 1062.23 478.945 1062.23 478.945 1062.23 478.945 1078 511.319 1069.26 543.627Z" fill="#CCCCCC" fill-rule="evenodd" fill-opacity="1"/><path d="M989.539 543.627C998.283 575.936 1028.23 595.946 1028.23 595.946 1028.23 595.946 1044 563.573 1035.26 531.264 1026.52 498.955 996.568 478.945 996.568 478.945 996.568 478.945 980.796 511.319 989.539 543.627Z" fill="#CCCCCC" fill-rule="evenodd" fill-opacity="1"/><path d="M1001.94 537.092C1025.96 560.288 1028.9 595.946 1028.9 595.946 1028.9 595.946 992.882 593.996 968.858 570.8 944.833 547.603 941.899 511.946 941.899 511.946 941.899 511.946 977.916 513.896 1001.94 537.092Z" fill="#3F3D56" fill-rule="evenodd" fill-opacity="1"/><path d="M1055.86 537.092C1031.83 560.288 1028.9 595.946 1028.9 595.946 1028.9 595.946 1064.92 593.996 1088.94 570.8 1112.96 547.603 1115.9 511.946 1115.9 511.946 1115.9 511.946 1079.88 513.896 1055.86 537.092Z" fill="#3F3D56" fill-rule="evenodd" fill-opacity="1"/><path d="M2616.26 1321.63C2607.52 1353.94 2577.57 1373.95 2577.57 1373.95 2577.57 1373.95 2561.8 1341.57 2570.54 1309.26 2579.28 1276.96 2609.23 1256.95 2609.23 1256.95 2609.23 1256.95 2625 1289.32 2616.26 1321.63Z" fill="#CCCCCC" fill-rule="evenodd" fill-opacity="1"/><path d="M2537.54 1321.63C2546.28 1353.94 2576.23 1373.95 2576.23 1373.95 2576.23 1373.95 2592 1341.57 2583.26 1309.26 2574.52 1276.96 2544.57 1256.95 2544.57 1256.95 2544.57 1256.95 2528.8 1289.32 2537.54 1321.63Z" fill="#CCCCCC" fill-rule="evenodd" fill-opacity="1"/><path d="M2549.94 1315.09C2573.96 1338.29 2576.9 1373.95 2576.9 1373.95 2576.9 1373.95 2540.88 1372 2516.86 1348.8 2492.83 1325.6 2489.9 1289.95 2489.9 1289.95 2489.9 1289.95 2525.92 1291.9 2549.94 1315.09Z" fill="#3F3D56" fill-rule="evenodd" fill-opacity="1"/><path d="M2603.86 1315.09C2579.83 1338.29 2576.9 1373.95 2576.9 1373.95 2576.9 1373.95 2612.92 1372 2636.94 1348.8 2660.96 1325.6 2663.9 1289.95 2663.9 1289.95 2663.9 1289.95 2627.88 1291.9 2603.86 1315.09Z" fill="#3F3D56" fill-rule="evenodd" fill-opacity="1"/><path d="M1778.9 1598.99 1778.9 1334.9C1778.91 1327.2 1785.09 1320.95 1792.72 1320.95L1824.09 1320.95C1831.71 1320.95 1837.89 1327.2 1837.9 1334.9L1837.9 1598.99C1837.89 1606.69 1831.71 1612.94 1824.09 1612.95L1792.72 1612.95C1785.09 1612.94 1778.91 1606.69 1778.9 1598.99Z" fill="#2F2E41" fill-rule="evenodd" fill-opacity="1"/><path d="M1715.9 1598.99 1715.9 1334.9C1715.91 1327.2 1722.19 1320.95 1729.95 1320.95L1761.85 1320.95C1769.61 1320.95 1775.89 1327.2 1775.9 1334.9L1775.9 1598.99C1775.89 1606.69 1769.61 1612.94 1761.85 1612.95L1729.95 1612.95C1722.19 1612.94 1715.91 1606.69 1715.9 1598.99Z" fill="#2F2E41" fill-rule="evenodd" fill-opacity="1"/><path d="M1841.12 1248C1848.24 1248 1854 1248 1854 1248L1854 1418C1854 1418 1848.24 1418 1841.12 1418L1712.88 1418C1705.76 1418 1700 1418 1700 1418L1700 1248C1700 1248 1705.76 1248 1712.88 1248Z" fill="#2F2E41" fill-rule="evenodd" fill-opacity="1"/><path d="M1561.45 832.817C1561.45 832.817 1496.58 862.898 1441.69 882.848 1407.62 806.087 1358.55 808.959 1358.55 808.959L1328.8 829.409 1334.17 860.082 1332.7 910.231 1324.9 936.523 1336.1 938.543 1342.42 939.688 1343.38 938.827C1341.8 945.071 1341.16 951.514 1341.48 957.945L1622.9 914.127C1622.9 914.127 1613.14 868.847 1561.45 832.817Z" fill="#E6E6E6" fill-rule="evenodd" fill-opacity="1"/><path d="M1478.62 1227.53C1474.39 1221.81 1470.96 1217.18 1470.96 1217.18L1703.98 1044.97C1703.98 1044.97 1707.4 1049.6 1711.63 1055.32L1730.46 1080.8C1734.69 1086.52 1738.11 1091.15 1738.11 1091.15L1505.1 1263.36C1505.1 1263.36 1501.67 1258.73 1497.44 1253.01Z" fill="#F2DA69" fill-rule="evenodd" fill-opacity="1"/><path d="M1840.27 1046.56C1846.55 1043.22 1851.64 1040.52 1851.64 1040.52L1987.47 1296.46C1987.47 1296.46 1982.37 1299.16 1976.09 1302.5L1948.11 1317.34C1941.83 1320.68 1936.74 1323.38 1936.74 1323.38L1800.91 1067.44C1800.91 1067.44 1806.01 1064.74 1812.29 1061.41Z" fill="#F2DA69" fill-rule="evenodd" fill-opacity="1"/><path d="M1918.93 1149.82 1873.31 1180.11C1866.34 1183.82 1857.98 1181.73 1854.66 1175.45L1804.27 1080.36C1800.94 1074.08 1803.89 1065.99 1810.87 1062.28L1841.92 1045.78C1848.89 1042.07 1857.24 1044.16 1860.57 1050.44L1925.53 1131.74C1928.86 1138.02 1925.91 1146.12 1918.93 1149.82Z" fill="#CCCCCC" fill-rule="evenodd" fill-opacity="1"/><path d="M1607.39 1122.27 1637.1 1161.87C1641.97 1167.07 1650.12 1167.33 1655.31 1162.44L1733.83 1088.48C1739.02 1083.6 1739.28 1075.42 1734.41 1070.21L1712.72 1047.03C1707.86 1041.82 1699.7 1041.56 1694.52 1046.45L1607.96 1104C1602.78 1108.88 1602.52 1117.06 1607.39 1122.27Z" fill="#CCCCCC" fill-rule="evenodd" fill-opacity="1"/><path d="M1849.1 1043C1856.22 1043 1862 1043 1862 1043L1862 1374C1862 1374 1856.22 1374 1849.1 1374L1704.9 1374C1697.78 1374 1692 1374 1692 1374L1692 1043C1692 1043 1697.78 1043 1704.9 1043Z" fill="#CCCCCC" fill-rule="evenodd" fill-opacity="1"/><path d="M1891 908C1891 971.513 1839.51 1023 1776 1023 1712.49 1023 1661 971.513 1661 908 1661 844.487 1712.49 793 1776 793 1839.51 793 1891 844.487 1891 908Z" fill="#F2DA69" fill-rule="evenodd" fill-opacity="1"/><path d="M1789.78 945.946C1782.62 945.747 1773.71 945.5 1766.85 940.537 1762.72 937.422 1760.18 932.656 1759.93 927.516 1759.67 923.858 1761.16 920.294 1763.95 917.884 1767.53 914.886 1772.77 914.178 1778.41 915.823L1772.57 873.528 1776.86 872.946 1783.72 922.668 1780.14 921.041C1775.99 919.153 1770.29 918.194 1766.75 921.159 1764.99 922.729 1764.06 925.024 1764.25 927.365 1764.46 931.189 1766.35 934.733 1769.41 937.074 1774.74 940.935 1781.84 941.436 1789.9 941.657Z" fill="#2F2E41" fill-rule="evenodd" fill-opacity="1"/><path d="M1728 877 1752 877 1752 882 1728 882Z" fill="#2F2E41" fill-rule="evenodd" fill-opacity="1"/><path d="M1801 877 1825 877 1825 882 1801 882Z" fill="#2F2E41" fill-rule="evenodd" fill-opacity="1"/><path d="M1700.15 818.237C1681.52 816.107 1667.1 798.204 1665.52 780.039 1663.63 758.428 1676.18 737.903 1693.39 725.777 1711.38 713.095 1733.81 707.799 1755.5 706.633 1797.83 704.52 1839.42 718.275 1872.2 745.221 1888.46 758.767 1903.64 776.022 1909.39 796.865 1914.39 814.965 1910.33 835.471 1895.81 848.148 1888.56 854.429 1879.01 857.377 1869.49 856.279 1858.23 855.106 1847.84 849.167 1838.85 842.607 1821.36 829.848 1807 812.072 1785.68 805.404 1770.06 800.515 1749.78 804.819 1740.23 818.996 1738.06 822.241 1736.66 825.937 1736.12 829.806 1735.71 831.519 1736.7 833.256 1738.37 833.781 1740.09 834.244 1741.85 833.238 1742.33 831.524 1744.84 813.668 1766.73 807.005 1782.08 811.083 1804.48 817.029 1819.51 837.075 1837.88 849.811 1847.54 856.507 1858.52 861.861 1870.37 862.822 1880.58 863.625 1890.72 860.502 1898.72 854.084 1914.42 841.651 1920.42 820.266 1916.95 801.013 1912.93 778.717 1897.97 759.608 1881.56 744.814 1848.28 715.138 1805.09 699.129 1760.58 699.977 1737.87 700.5 1714.18 705.203 1694.63 717.241 1675.65 728.918 1660.99 748.454 1659.07 771.162 1657.39 791.15 1668.08 812.056 1686.42 820.813 1690.75 822.869 1695.39 824.183 1700.15 824.7 1704.26 825.17 1704.23 818.704 1700.15 818.237Z" fill="#2F2E41" fill-rule="evenodd" fill-opacity="1"/><path d="M1342.68 936.105 1356.08 931.711C1357.51 928.905 1354.88 930.705 1356.14 927.977 1390.04 854.205 1358.71 808.945 1358.71 808.945L1334.47 825.967C1334.41 825.828 1334.36 825.683 1334.3 825.542 1334.3 825.542 1329.99 815.779 1323.29 823.101 1323.29 823.101 1344.35 875.332 1320.9 940.253L1348.18 952.946 1358.71 940.253 1358.95 939.033 1340.1 937.286Z" fill="#CCCCCC" fill-rule="evenodd" fill-opacity="1"/><path d="M1730.9 1208.91C1621.4 1184.58 1519.44 1234.95 1519.44 1234.95L1519.16 1234.7 1478.56 1198.45 1319.9 939.577 1358.59 939.821C1466.15 875.589 1617.5 884.348 1617.5 884.348 1682.72 958.311 1730.9 1208.91 1730.9 1208.91Z" fill="#3F3D56" fill-rule="evenodd" fill-opacity="1"/><path d="M1519.9 1234.95 1479.14 1198.71 1319.9 939.946 1358.73 940.189C1358.73 940.189 1513.51 1143.74 1519.9 1234.95Z" fill="#000000" fill-rule="evenodd" fill-opacity="0.101961"/><path d="M1585.65 976.183C1592.11 997.253 1570.48 1022.58 1537.33 1032.74 1504.18 1042.91 1472.07 1034.07 1465.61 1013 1459.15 991.933 1480.78 966.61 1513.93 956.443 1547.08 946.275 1579.19 955.114 1585.65 976.183Z" fill="#F2DA69" fill-rule="evenodd" fill-opacity="1"/><path d="M1531 1611 2029 1611 2029 1616 1531 1616Z" fill="#3F3D56" fill-rule="evenodd" fill-opacity="1"/><path d="M938.259 1647.63C929.516 1679.94 899.568 1699.95 899.568 1699.95 899.568 1699.95 883.796 1667.57 892.54 1635.26 901.282 1602.95 931.23 1582.95 931.23 1582.95 931.23 1582.95 947.002 1615.32 938.259 1647.63Z" fill="#CCCCCC" fill-rule="evenodd" fill-opacity="1"/><path d="M859.54 1647.63C868.283 1679.94 898.23 1699.95 898.23 1699.95 898.23 1699.95 914.002 1667.57 905.259 1635.26 896.516 1602.95 866.568 1582.95 866.568 1582.95 866.568 1582.95 850.796 1615.32 859.54 1647.63Z" fill="#CCCCCC" fill-rule="evenodd" fill-opacity="1"/><path d="M871.94 1641.09C895.965 1664.29 898.899 1699.95 898.899 1699.95 898.899 1699.95 862.882 1698 838.858 1674.8 814.834 1651.6 811.899 1615.95 811.899 1615.95 811.899 1615.95 847.916 1617.9 871.94 1641.09Z" fill="#3F3D56" fill-rule="evenodd" fill-opacity="1"/><path d="M925.858 1641.09C901.833 1664.29 898.899 1699.95 898.899 1699.95 898.899 1699.95 934.916 1698 958.94 1674.8 982.965 1651.6 985.899 1615.95 985.899 1615.95 985.899 1615.95 949.882 1617.9 925.858 1641.09Z" fill="#3F3D56" fill-rule="evenodd" fill-opacity="1"/></g></g></svg>