<svg width="28" height="27" viewBox="0 0 28 27" fill="none" xmlns="http://www.w3.org/2000/svg">
<path d="M4.53375 2.15833L6.7425 0L20.0338 13.2198C20.6279 13.8108 20.925 14.5431 20.925 15.4167C20.925 16.2903 20.6279 17.0226 20.0338 17.6135L12.6713 24.9365C12.0771 25.5274 11.3408 25.8229 10.4625 25.8229C9.58417 25.8229 8.84792 25.5274 8.25375 24.9365L0.89125 17.6135C0.297083 17.0226 0 16.2903 0 15.4167C0 14.5431 0.297083 13.8108 0.89125 13.2198L8.25375 5.85833L4.53375 2.15833ZM10.4625 8.05521L3.06125 15.4167H17.8638L10.4625 8.05521ZM24.4125 26.2083C23.56 26.2083 22.8302 25.9064 22.2231 25.3026C21.616 24.6988 21.3125 23.9729 21.3125 23.125C21.3125 22.5854 21.474 22.0073 21.7969 21.3906C22.1198 20.774 22.475 20.1958 22.8625 19.6562C23.095 19.3479 23.3404 19.0267 23.5988 18.6927C23.8571 18.3587 24.1283 18.0375 24.4125 17.7292C24.6967 18.0375 24.9679 18.3587 25.2262 18.6927C25.4846 19.0267 25.73 19.3479 25.9625 19.6562C26.35 20.1958 26.7052 20.774 27.0281 21.3906C27.351 22.0073 27.5125 22.5854 27.5125 23.125C27.5125 23.9729 27.209 24.6988 26.6019 25.3026C25.9948 25.9064 25.265 26.2083 24.4125 26.2083Z" fill="#1A1A1A"/>
</svg>
