<svg width="293" height="130" viewBox="0 0 293 130" fill="none" xmlns="http://www.w3.org/2000/svg">
<rect y="4" width="287" height="126" rx="8" fill="#FFE266"/>
<path d="M5 43H291V115C291 119.418 287.418 123 283 123H13C8.58173 123 5 119.418 5 115V43Z" fill="#FFFCF2"/>
<path d="M32.692 29.018C32.452 28.982 32.272 28.916 32.152 28.82C32.032 28.724 31.942 28.616 31.882 28.496C31.822 28.376 31.786 28.28 31.774 28.208C31.774 28.124 31.774 28.082 31.774 28.082C31.822 27.026 31.96 25.946 32.188 24.842C32.416 23.738 32.692 22.622 33.016 21.494C33.268 20.774 33.508 20.162 33.736 19.658C33.976 19.142 34.21 18.722 34.438 18.398C34.666 18.062 34.9 17.816 35.14 17.66C35.392 17.504 35.656 17.426 35.932 17.426C36.136 17.39 36.346 17.438 36.562 17.57C36.778 17.69 36.994 17.882 37.21 18.146C37.426 18.41 37.63 18.74 37.822 19.136C38.026 19.52 38.194 19.958 38.326 20.45C38.446 20.786 38.584 21.242 38.74 21.818C38.908 22.394 39.07 23.042 39.226 23.762C39.394 24.47 39.544 25.22 39.676 26.012C39.82 26.804 39.928 27.59 40 28.37C40 28.37 39.994 28.406 39.982 28.478C39.982 28.538 39.958 28.616 39.91 28.712C39.862 28.796 39.784 28.874 39.676 28.946C39.568 29.006 39.412 29.036 39.208 29.036C39.004 29.036 38.836 29.006 38.704 28.946C38.572 28.874 38.47 28.79 38.398 28.694C38.326 28.586 38.272 28.496 38.236 28.424C38.212 28.352 38.2 28.316 38.2 28.316C38.02 27.224 37.846 26.204 37.678 25.256C37.51 24.296 37.324 23.45 37.12 22.718C36.952 22.046 36.778 21.452 36.598 20.936C36.418 20.42 36.226 19.946 36.022 19.514C35.842 19.79 35.662 20.108 35.482 20.468C35.314 20.816 35.158 21.176 35.014 21.548C34.882 21.92 34.768 22.292 34.672 22.664C34.528 23.24 34.396 23.774 34.276 24.266C34.156 24.746 34.054 25.208 33.97 25.652C33.898 26.096 33.832 26.546 33.772 27.002C33.712 27.446 33.67 27.92 33.646 28.424C33.646 28.424 33.634 28.46 33.61 28.532C33.586 28.604 33.544 28.682 33.484 28.766C33.424 28.85 33.328 28.922 33.196 28.982C33.076 29.03 32.908 29.042 32.692 29.018ZM33.034 27.344L33.214 26.102C33.778 25.97 34.336 25.868 34.888 25.796C35.452 25.724 36.028 25.688 36.616 25.688C37.204 25.676 37.816 25.694 38.452 25.742L38.632 27.236C38.212 27.164 37.756 27.11 37.264 27.074C36.772 27.038 36.268 27.026 35.752 27.038C35.248 27.038 34.762 27.068 34.294 27.128C33.826 27.176 33.406 27.248 33.034 27.344ZM46.1694 28.964C45.4614 28.964 44.8434 28.85 44.3154 28.622C43.7994 28.382 43.3734 28.064 43.0374 27.668C42.7014 27.26 42.4494 26.792 42.2814 26.264C42.1254 25.736 42.0474 25.172 42.0474 24.572C42.0474 23.912 42.1494 23.3 42.3534 22.736C42.5694 22.172 42.8694 21.686 43.2534 21.278C43.6374 20.87 44.0994 20.558 44.6394 20.342C45.1794 20.114 45.7734 20 46.4214 20C47.0454 20.012 47.6154 20.114 48.1314 20.306C48.6594 20.498 49.1154 20.786 49.4994 21.17C49.8834 21.542 50.1834 22.01 50.3994 22.574C50.6154 23.138 50.7234 23.798 50.7234 24.554C50.7234 25.154 50.6034 25.724 50.3634 26.264C50.1234 26.792 49.7934 27.26 49.3734 27.668C48.9534 28.064 48.4674 28.382 47.9154 28.622C47.3634 28.85 46.7814 28.964 46.1694 28.964ZM42.2274 28.982C42.0234 28.982 41.8614 28.946 41.7414 28.874C41.6214 28.79 41.5314 28.7 41.4714 28.604C41.4114 28.496 41.3694 28.406 41.3454 28.334C41.3334 28.25 41.3274 28.208 41.3274 28.208C41.2794 27.692 41.2374 27.098 41.2014 26.426C41.1774 25.754 41.1594 25.046 41.1474 24.302C41.1474 23.558 41.1534 22.808 41.1654 22.052C41.1774 21.296 41.2014 20.564 41.2374 19.856C41.2734 19.148 41.3154 18.5 41.3634 17.912C41.3634 17.912 41.3694 17.882 41.3814 17.822C41.4054 17.75 41.4414 17.672 41.4894 17.588C41.5494 17.504 41.6394 17.432 41.7594 17.372C41.8794 17.312 42.0354 17.294 42.2274 17.318C42.4314 17.33 42.5934 17.384 42.7134 17.48C42.8334 17.564 42.9234 17.666 42.9834 17.786C43.0434 17.894 43.0794 17.99 43.0914 18.074C43.1154 18.158 43.1274 18.2 43.1274 18.2C43.0794 18.68 43.0374 19.256 43.0014 19.928C42.9774 20.588 42.9534 21.296 42.9294 22.052C42.9054 22.808 42.8934 23.576 42.8934 24.356C42.8934 25.124 42.8934 25.868 42.8934 26.588C42.9054 27.308 42.9294 27.962 42.9654 28.55C42.9654 28.55 42.9474 28.586 42.9114 28.658C42.8874 28.73 42.8214 28.802 42.7134 28.874C42.6054 28.946 42.4434 28.982 42.2274 28.982ZM46.0074 27.344C46.4034 27.344 46.7694 27.26 47.1054 27.092C47.4534 26.912 47.7594 26.678 48.0234 26.39C48.2994 26.102 48.5154 25.772 48.6714 25.4C48.8274 25.016 48.9054 24.626 48.9054 24.23C48.9054 23.558 48.7854 23.018 48.5454 22.61C48.3174 22.19 48.0114 21.884 47.6274 21.692C47.2554 21.5 46.8414 21.404 46.3854 21.404C46.0254 21.404 45.6774 21.494 45.3414 21.674C45.0174 21.854 44.7234 22.1 44.4594 22.412C44.2074 22.724 44.0034 23.078 43.8474 23.474C43.7034 23.858 43.6314 24.254 43.6314 24.662C43.6314 25.166 43.7274 25.622 43.9194 26.03C44.1114 26.438 44.3874 26.762 44.7474 27.002C45.1074 27.23 45.5274 27.344 46.0074 27.344ZM56.3328 28.964C55.7088 28.964 55.1328 28.85 54.6048 28.622C54.0888 28.394 53.6448 28.088 53.2728 27.704C52.9008 27.308 52.6128 26.846 52.4088 26.318C52.2048 25.79 52.1028 25.226 52.1028 24.626C52.1028 24.026 52.2108 23.45 52.4268 22.898C52.6548 22.334 52.9728 21.836 53.3808 21.404C53.7888 20.972 54.2628 20.63 54.8028 20.378C55.3428 20.126 55.9248 20 56.5488 20C57.1728 20 57.7548 20.09 58.2948 20.27C58.8348 20.45 59.3028 20.726 59.6988 21.098C60.1068 21.458 60.4188 21.926 60.6348 22.502C60.8628 23.066 60.9768 23.732 60.9768 24.5C60.9768 25.1 60.8568 25.67 60.6168 26.21C60.3768 26.75 60.0348 27.224 59.5908 27.632C59.1588 28.04 58.6608 28.364 58.0968 28.604C57.5448 28.844 56.9568 28.964 56.3328 28.964ZM56.3148 27.362C56.6988 27.362 57.0588 27.284 57.3948 27.128C57.7428 26.96 58.0488 26.738 58.3128 26.462C58.5768 26.186 58.7868 25.874 58.9428 25.526C59.0988 25.166 59.1768 24.788 59.1768 24.392C59.1768 23.72 59.0628 23.168 58.8348 22.736C58.6188 22.304 58.3188 21.986 57.9348 21.782C57.5508 21.566 57.1068 21.458 56.6028 21.458C56.2308 21.458 55.8828 21.554 55.5588 21.746C55.2348 21.926 54.9468 22.172 54.6948 22.484C54.4548 22.784 54.2628 23.126 54.1188 23.51C53.9748 23.894 53.9028 24.284 53.9028 24.68C53.9028 25.196 53.9988 25.658 54.1908 26.066C54.3948 26.474 54.6768 26.792 55.0368 27.02C55.4088 27.248 55.8348 27.362 56.3148 27.362ZM65.0597 28.82C64.7597 28.688 64.4657 28.52 64.1777 28.316C63.9017 28.1 63.6437 27.848 63.4037 27.56C63.1637 27.272 62.9477 26.93 62.7557 26.534C62.5757 26.138 62.4317 25.688 62.3237 25.184C62.2037 24.536 62.1497 23.876 62.1617 23.204C62.1737 22.532 62.2397 21.812 62.3597 21.044C62.3597 21.044 62.3657 21.002 62.3777 20.918C62.4017 20.834 62.4497 20.744 62.5217 20.648C62.5937 20.552 62.6957 20.474 62.8277 20.414C62.9717 20.354 63.1637 20.354 63.4037 20.414C63.6077 20.462 63.7637 20.546 63.8717 20.666C63.9797 20.774 64.0517 20.888 64.0877 21.008C64.1237 21.128 64.1417 21.23 64.1417 21.314C64.1537 21.398 64.1597 21.44 64.1597 21.44C64.0277 22.46 63.9797 23.39 64.0157 24.23C64.0517 25.058 64.2017 25.712 64.4657 26.192C64.6457 26.516 64.8437 26.78 65.0597 26.984C65.2877 27.176 65.5277 27.308 65.7797 27.38C66.0317 27.44 66.2777 27.452 66.5177 27.416C66.7697 27.38 67.0097 27.296 67.2377 27.164C67.5857 26.948 67.8557 26.66 68.0477 26.3C68.2397 25.928 68.3717 25.526 68.4437 25.094C68.5277 24.65 68.5517 24.218 68.5157 23.798C68.4797 23.402 68.4197 23.006 68.3357 22.61C68.2637 22.202 68.1917 21.836 68.1197 21.512C68.0477 21.188 67.9937 20.942 67.9577 20.774C67.9577 20.774 67.9577 20.744 67.9577 20.684C67.9697 20.624 67.9937 20.558 68.0297 20.486C68.0657 20.402 68.1257 20.33 68.2097 20.27C68.3057 20.198 68.4437 20.15 68.6237 20.126C68.8037 20.102 68.9597 20.132 69.0917 20.216C69.2357 20.288 69.3437 20.366 69.4157 20.45C69.4997 20.522 69.5417 20.558 69.5417 20.558C69.7457 20.882 69.9317 21.278 70.0997 21.746C70.2677 22.214 70.3997 22.712 70.4957 23.24C70.5917 23.888 70.6217 24.47 70.5857 24.986C70.5497 25.49 70.4537 25.952 70.2977 26.372C70.1537 26.78 69.9497 27.17 69.6857 27.542C69.4457 27.854 69.1517 28.124 68.8037 28.352C68.4557 28.58 68.0717 28.754 67.6517 28.874C67.2437 28.994 66.8177 29.048 66.3737 29.036C65.9417 29.036 65.5037 28.964 65.0597 28.82ZM74.8675 29C74.6755 29 74.5135 28.964 74.3815 28.892C74.2495 28.808 74.1475 28.718 74.0755 28.622C74.0155 28.514 73.9675 28.424 73.9315 28.352C73.9075 28.28 73.8955 28.244 73.8955 28.244C73.8475 27.728 73.8055 27.134 73.7695 26.462C73.7335 25.778 73.7095 25.064 73.6975 24.32C73.6975 23.564 73.7035 22.808 73.7155 22.052C73.7275 21.296 73.7515 20.564 73.7875 19.856C73.8235 19.148 73.8655 18.5 73.9135 17.912C73.9135 17.912 73.9195 17.882 73.9315 17.822C73.9555 17.75 73.9975 17.672 74.0575 17.588C74.1175 17.504 74.2015 17.432 74.3095 17.372C74.4295 17.312 74.5855 17.294 74.7775 17.318C74.9935 17.33 75.1555 17.378 75.2635 17.462C75.3835 17.546 75.4675 17.642 75.5155 17.75C75.5755 17.858 75.6115 17.954 75.6235 18.038C75.6475 18.122 75.6595 18.164 75.6595 18.164C75.6235 18.632 75.5935 19.19 75.5695 19.838C75.5575 20.486 75.5455 21.182 75.5335 21.926C75.5215 22.658 75.5155 23.402 75.5155 24.158C75.5155 24.914 75.5275 25.652 75.5515 26.372C75.5755 27.08 75.6055 27.728 75.6415 28.316C75.6415 28.316 75.6295 28.352 75.6055 28.424C75.5935 28.484 75.5635 28.562 75.5155 28.658C75.4795 28.742 75.4075 28.82 75.2995 28.892C75.1915 28.964 75.0475 29 74.8675 29ZM77.3335 21.818C76.3855 21.806 75.4855 21.794 74.6335 21.782C73.7815 21.758 73.0255 21.74 72.3655 21.728C72.3655 21.728 72.3175 21.722 72.2215 21.71C72.1375 21.698 72.0355 21.668 71.9155 21.62C71.7955 21.572 71.6875 21.506 71.5915 21.422C71.4955 21.326 71.4415 21.194 71.4295 21.026C71.4175 20.882 71.4355 20.768 71.4835 20.684C71.5315 20.6 71.5975 20.54 71.6815 20.504C71.7655 20.456 71.8315 20.426 71.8795 20.414C71.9395 20.39 71.9695 20.378 71.9695 20.378C72.0655 20.366 72.2455 20.354 72.5095 20.342C72.7735 20.33 73.0915 20.324 73.4635 20.324C73.8355 20.312 74.2315 20.306 74.6515 20.306C75.0835 20.294 75.5155 20.288 75.9475 20.288C76.3795 20.288 76.7875 20.288 77.1715 20.288C77.1715 20.288 77.2015 20.294 77.2615 20.306C77.3335 20.318 77.4175 20.342 77.5135 20.378C77.6095 20.402 77.7055 20.444 77.8015 20.504C77.8975 20.564 77.9755 20.642 78.0355 20.738C78.0955 20.834 78.1255 20.96 78.1255 21.116C78.1135 21.296 78.0655 21.44 77.9815 21.548C77.8975 21.644 77.8075 21.71 77.7115 21.746C77.6155 21.782 77.5255 21.806 77.4415 21.818C77.3695 21.818 77.3335 21.818 77.3335 21.818Z" fill="#433DC3"/>
<path d="M35.046 66.986C34.8687 66.986 34.724 66.9487 34.612 66.874C34.5 66.7993 34.4113 66.7153 34.346 66.622C34.29 66.5287 34.2527 66.4493 34.234 66.384C34.2153 66.3093 34.206 66.272 34.206 66.272C34.15 65.768 34.108 65.2033 34.08 64.578C34.0613 63.9527 34.052 63.304 34.052 62.632C34.0613 61.9507 34.08 61.2833 34.108 60.63C34.136 59.9767 34.1733 59.3653 34.22 58.796C34.22 58.796 34.2247 58.768 34.234 58.712C34.2527 58.6467 34.2807 58.5767 34.318 58.502C34.3647 58.418 34.4393 58.348 34.542 58.292C34.6447 58.2267 34.7847 58.194 34.962 58.194C35.1953 58.2033 35.368 58.2453 35.48 58.32C35.6013 58.3947 35.6853 58.4833 35.732 58.586C35.7787 58.6887 35.8067 58.782 35.816 58.866C35.8253 58.9407 35.83 58.978 35.83 58.978C35.7927 59.3513 35.7647 59.776 35.746 60.252C35.7273 60.728 35.7133 61.2273 35.704 61.75C35.704 62.2727 35.7087 62.8047 35.718 63.346C35.7273 63.8873 35.7367 64.4147 35.746 64.928C35.7647 65.4413 35.788 65.922 35.816 66.37C35.816 66.37 35.8113 66.4027 35.802 66.468C35.7927 66.524 35.7647 66.594 35.718 66.678C35.6713 66.762 35.592 66.8367 35.48 66.902C35.3773 66.958 35.2327 66.986 35.046 66.986ZM37.65 59.482C37.2767 59.4353 36.8707 59.398 36.432 59.37C36.0027 59.342 35.564 59.328 35.116 59.328C34.668 59.3187 34.2247 59.3187 33.786 59.328C33.3473 59.3373 32.932 59.3513 32.54 59.37C32.54 59.37 32.512 59.37 32.456 59.37C32.4 59.37 32.3253 59.3653 32.232 59.356C32.1387 59.3373 32.0453 59.3093 31.952 59.272C31.8587 59.2347 31.7793 59.1787 31.714 59.104C31.6487 59.02 31.602 58.9173 31.574 58.796C31.5553 58.6653 31.5693 58.558 31.616 58.474C31.6627 58.39 31.7233 58.3247 31.798 58.278C31.8727 58.222 31.952 58.1847 32.036 58.166C32.12 58.138 32.19 58.1193 32.246 58.11C32.302 58.1007 32.33 58.096 32.33 58.096C33.198 58.0027 34.0613 57.942 34.92 57.914C35.788 57.886 36.6467 57.928 37.496 58.04C37.496 58.04 37.524 58.0493 37.58 58.068C37.6453 58.0773 37.72 58.1007 37.804 58.138C37.8973 58.1753 37.986 58.2267 38.07 58.292C38.154 58.3573 38.224 58.4413 38.28 58.544C38.3453 58.6373 38.3733 58.7493 38.364 58.88C38.364 59.0387 38.3267 59.16 38.252 59.244C38.1773 59.328 38.0933 59.3887 38 59.426C37.9067 59.454 37.8227 59.4727 37.748 59.482C37.6827 59.482 37.65 59.482 37.65 59.482ZM45.1975 66.846C45.0202 66.8087 44.8849 66.7433 44.7915 66.65C44.6982 66.5567 44.6282 66.4633 44.5815 66.37C44.5442 66.2767 44.5209 66.1973 44.5115 66.132C44.5022 66.0667 44.4975 66.034 44.4975 66.034C44.5535 65.6047 44.6002 65.222 44.6375 64.886C44.6749 64.5407 44.6935 64.2187 44.6935 63.92C44.6935 63.612 44.6562 63.3087 44.5815 63.01C44.4509 62.562 44.2829 62.2213 44.0775 61.988C43.8815 61.7453 43.6622 61.6193 43.4195 61.61C43.0929 61.6753 42.8035 61.8107 42.5515 62.016C42.3089 62.212 42.0942 62.4547 41.9075 62.744C41.7209 63.0333 41.5575 63.332 41.4175 63.64C41.2775 63.948 41.1609 64.242 41.0675 64.522C40.9742 64.802 40.8902 65.0353 40.8155 65.222C40.7409 65.39 40.6755 65.4833 40.6195 65.502C40.5635 65.5207 40.5169 65.4927 40.4795 65.418C40.4422 65.334 40.4142 65.2313 40.3955 65.11C40.3769 64.9887 40.3629 64.872 40.3535 64.76C40.3442 64.648 40.3349 64.564 40.3255 64.508C40.3255 64.452 40.3209 64.4613 40.3115 64.536L39.8775 63.458L40.3395 62.562C40.5449 62.1327 40.7735 61.7687 41.0255 61.47C41.2775 61.1713 41.5389 60.9287 41.8095 60.742C42.0802 60.546 42.3509 60.406 42.6215 60.322C42.8922 60.2287 43.1489 60.1773 43.3915 60.168C43.8582 60.2053 44.2829 60.35 44.6655 60.602C45.0482 60.8447 45.3749 61.1667 45.6455 61.568C45.9162 61.9693 46.1169 62.422 46.2475 62.926C46.3689 63.5047 46.4109 64.0833 46.3735 64.662C46.3455 65.2313 46.2709 65.8333 46.1495 66.468C46.1495 66.468 46.1309 66.496 46.0935 66.552C46.0655 66.5987 46.0142 66.6547 45.9395 66.72C45.8649 66.776 45.7669 66.8227 45.6455 66.86C45.5242 66.888 45.3749 66.8833 45.1975 66.846ZM40.2835 67C40.0969 67 39.9429 66.9673 39.8215 66.902C39.7095 66.8273 39.6209 66.7433 39.5555 66.65C39.4902 66.5473 39.4435 66.4633 39.4155 66.398C39.3875 66.3233 39.3735 66.286 39.3735 66.286C39.3362 65.8847 39.3035 65.432 39.2755 64.928C39.2569 64.4147 39.2429 63.878 39.2335 63.318C39.2242 62.7487 39.2242 62.1793 39.2335 61.61C39.2522 61.0313 39.2755 60.476 39.3035 59.944C39.3315 59.4027 39.3642 58.9033 39.4015 58.446C39.4015 58.446 39.4062 58.418 39.4155 58.362C39.4342 58.2967 39.4715 58.2267 39.5275 58.152C39.5835 58.0773 39.6629 58.0167 39.7655 57.97C39.8682 57.914 40.0082 57.8907 40.1855 57.9C40.3722 57.9187 40.5169 57.97 40.6195 58.054C40.7315 58.1287 40.8109 58.2173 40.8575 58.32C40.9135 58.4133 40.9509 58.4973 40.9695 58.572C40.9882 58.6373 40.9975 58.67 40.9975 58.67C40.9695 59.034 40.9462 59.4633 40.9275 59.958C40.9182 60.4433 40.9089 60.966 40.8995 61.526C40.8902 62.0767 40.8855 62.6367 40.8855 63.206C40.8949 63.7753 40.9042 64.3307 40.9135 64.872C40.9229 65.4133 40.9415 65.9127 40.9695 66.37C40.9695 66.37 40.9649 66.4027 40.9555 66.468C40.9462 66.5333 40.9182 66.608 40.8715 66.692C40.8342 66.7667 40.7689 66.8367 40.6755 66.902C40.5822 66.9673 40.4515 67 40.2835 67ZM48.3652 66.986C48.2066 66.9767 48.0712 66.944 47.9592 66.888C47.8566 66.8227 47.7726 66.748 47.7072 66.664C47.6419 66.58 47.5952 66.51 47.5672 66.454C47.5486 66.398 47.5392 66.37 47.5392 66.37C47.4832 65.866 47.4412 65.3853 47.4132 64.928C47.3946 64.4707 47.3852 64.018 47.3852 63.57C47.3852 63.1127 47.3946 62.6413 47.4132 62.156C47.4412 61.6707 47.4786 61.148 47.5252 60.588C47.5252 60.588 47.5299 60.56 47.5392 60.504C47.5579 60.4387 47.5906 60.3687 47.6372 60.294C47.6839 60.2193 47.7586 60.154 47.8612 60.098C47.9732 60.042 48.1179 60.014 48.2952 60.014C48.4912 60.0233 48.6406 60.0653 48.7432 60.14C48.8552 60.2147 48.9392 60.3033 48.9952 60.406C49.0512 60.5087 49.0839 60.5973 49.0932 60.672C49.1119 60.7467 49.1212 60.784 49.1212 60.784C49.0932 61.2413 49.0699 61.6893 49.0512 62.128C49.0326 62.5573 49.0232 62.996 49.0232 63.444C49.0232 63.8827 49.0279 64.3447 49.0372 64.83C49.0559 65.306 49.0839 65.8193 49.1212 66.37C49.1212 66.37 49.1119 66.4027 49.0932 66.468C49.0839 66.5333 49.0559 66.608 49.0092 66.692C48.9626 66.776 48.8879 66.8507 48.7852 66.916C48.6826 66.972 48.5426 66.9953 48.3652 66.986ZM48.3652 59.454C48.0852 59.4633 47.8659 59.384 47.7072 59.216C47.5486 59.0387 47.4692 58.8333 47.4692 58.6C47.4692 58.2827 47.5439 58.054 47.6932 57.914C47.8519 57.774 48.0759 57.704 48.3652 57.704C48.6452 57.704 48.8646 57.7927 49.0232 57.97C49.1819 58.1473 49.2612 58.3573 49.2612 58.6C49.2612 58.7493 49.2332 58.8893 49.1772 59.02C49.1306 59.1507 49.0419 59.258 48.9112 59.342C48.7806 59.4167 48.5986 59.454 48.3652 59.454ZM52.9476 65.81C53.4796 65.81 53.797 65.74 53.8996 65.6C54.0116 65.4507 53.937 65.236 53.6756 64.956C53.5636 64.8347 53.4096 64.704 53.2136 64.564C53.0176 64.424 52.803 64.2747 52.5696 64.116C52.3456 63.948 52.1263 63.766 51.9116 63.57C51.7063 63.374 51.5243 63.1593 51.3656 62.926C51.2163 62.6927 51.1183 62.4313 51.0716 62.142C51.0063 61.7407 51.067 61.3813 51.2536 61.064C51.4403 60.7467 51.739 60.4947 52.1496 60.308C52.5696 60.1213 53.0876 60.0327 53.7036 60.042C54.329 60.0513 55.043 60.1913 55.8456 60.462C55.8456 60.462 55.8643 60.476 55.9016 60.504C55.9483 60.5227 55.9903 60.56 56.0276 60.616C56.0743 60.672 56.1116 60.742 56.1396 60.826C56.177 60.9007 56.1863 60.9893 56.1676 61.092C56.149 61.176 56.1116 61.2413 56.0556 61.288C56.009 61.3347 55.953 61.372 55.8876 61.4C55.8316 61.4187 55.7803 61.4327 55.7336 61.442C55.6963 61.442 55.6776 61.442 55.6776 61.442C55.6776 61.442 55.631 61.4373 55.5376 61.428C55.4536 61.4187 55.337 61.414 55.1876 61.414C55.0383 61.4047 54.8703 61.4 54.6836 61.4C54.497 61.3907 54.3056 61.3953 54.1096 61.414C53.923 61.4233 53.741 61.442 53.5636 61.47C53.3956 61.498 53.2463 61.5447 53.1156 61.61C52.9476 61.7033 52.8263 61.806 52.7516 61.918C52.6863 62.0207 52.6723 62.142 52.7096 62.282C52.7563 62.4127 52.8636 62.562 53.0316 62.73C53.209 62.8887 53.461 63.066 53.7876 63.262C54.2543 63.542 54.6416 63.8453 54.9496 64.172C55.2576 64.4987 55.463 64.83 55.5656 65.166C55.6776 65.4927 55.6636 65.8193 55.5236 66.146C55.421 66.3793 55.2296 66.566 54.9496 66.706C54.6696 66.846 54.3336 66.9393 53.9416 66.986C53.559 67.0327 53.153 67.028 52.7236 66.972C52.2943 66.9067 51.8743 66.7853 51.4636 66.608C51.0623 66.4307 50.7123 66.188 50.4136 65.88C50.4136 65.88 50.3996 65.8613 50.3716 65.824C50.3436 65.7867 50.3156 65.74 50.2876 65.684C50.2596 65.6187 50.2456 65.5487 50.2456 65.474C50.255 65.3993 50.2923 65.3247 50.3576 65.25C50.423 65.1847 50.4976 65.1427 50.5816 65.124C50.6656 65.1053 50.745 65.1053 50.8196 65.124C50.8943 65.1333 50.955 65.1473 51.0016 65.166C51.0576 65.1847 51.0856 65.194 51.0856 65.194C51.0856 65.194 51.137 65.2267 51.2396 65.292C51.3423 65.348 51.4776 65.4227 51.6456 65.516C51.823 65.6 52.0236 65.6747 52.2476 65.74C52.4716 65.796 52.705 65.8193 52.9476 65.81ZM62.211 66.986C62.0524 66.9767 61.917 66.944 61.805 66.888C61.7024 66.8227 61.6184 66.748 61.553 66.664C61.4877 66.58 61.441 66.51 61.413 66.454C61.3944 66.398 61.385 66.37 61.385 66.37C61.329 65.866 61.287 65.3853 61.259 64.928C61.2404 64.4707 61.231 64.018 61.231 63.57C61.231 63.1127 61.2404 62.6413 61.259 62.156C61.287 61.6707 61.3244 61.148 61.371 60.588C61.371 60.588 61.3757 60.56 61.385 60.504C61.4037 60.4387 61.4364 60.3687 61.483 60.294C61.5297 60.2193 61.6044 60.154 61.707 60.098C61.819 60.042 61.9637 60.014 62.141 60.014C62.337 60.0233 62.4864 60.0653 62.589 60.14C62.701 60.2147 62.785 60.3033 62.841 60.406C62.897 60.5087 62.9297 60.5973 62.939 60.672C62.9577 60.7467 62.967 60.784 62.967 60.784C62.939 61.2413 62.9157 61.6893 62.897 62.128C62.8784 62.5573 62.869 62.996 62.869 63.444C62.869 63.8827 62.8737 64.3447 62.883 64.83C62.9017 65.306 62.9297 65.8193 62.967 66.37C62.967 66.37 62.9577 66.4027 62.939 66.468C62.9297 66.5333 62.9017 66.608 62.855 66.692C62.8084 66.776 62.7337 66.8507 62.631 66.916C62.5284 66.972 62.3884 66.9953 62.211 66.986ZM62.211 59.454C61.931 59.4633 61.7117 59.384 61.553 59.216C61.3944 59.0387 61.315 58.8333 61.315 58.6C61.315 58.2827 61.3897 58.054 61.539 57.914C61.6977 57.774 61.9217 57.704 62.211 57.704C62.491 57.704 62.7104 57.7927 62.869 57.97C63.0277 58.1473 63.107 58.3573 63.107 58.6C63.107 58.7493 63.079 58.8893 63.023 59.02C62.9764 59.1507 62.8877 59.258 62.757 59.342C62.6264 59.4167 62.4444 59.454 62.211 59.454ZM66.7934 65.81C67.3254 65.81 67.6427 65.74 67.7454 65.6C67.8574 65.4507 67.7827 65.236 67.5214 64.956C67.4094 64.8347 67.2554 64.704 67.0594 64.564C66.8634 64.424 66.6487 64.2747 66.4154 64.116C66.1914 63.948 65.9721 63.766 65.7574 63.57C65.5521 63.374 65.3701 63.1593 65.2114 62.926C65.0621 62.6927 64.9641 62.4313 64.9174 62.142C64.8521 61.7407 64.9127 61.3813 65.0994 61.064C65.2861 60.7467 65.5847 60.4947 65.9954 60.308C66.4154 60.1213 66.9334 60.0327 67.5494 60.042C68.1747 60.0513 68.8887 60.1913 69.6914 60.462C69.6914 60.462 69.7101 60.476 69.7474 60.504C69.7941 60.5227 69.8361 60.56 69.8734 60.616C69.9201 60.672 69.9574 60.742 69.9854 60.826C70.0227 60.9007 70.0321 60.9893 70.0134 61.092C69.9947 61.176 69.9574 61.2413 69.9014 61.288C69.8547 61.3347 69.7987 61.372 69.7334 61.4C69.6774 61.4187 69.6261 61.4327 69.5794 61.442C69.5421 61.442 69.5234 61.442 69.5234 61.442C69.5234 61.442 69.4767 61.4373 69.3834 61.428C69.2994 61.4187 69.1827 61.414 69.0334 61.414C68.8841 61.4047 68.7161 61.4 68.5294 61.4C68.3427 61.3907 68.1514 61.3953 67.9554 61.414C67.7687 61.4233 67.5867 61.442 67.4094 61.47C67.2414 61.498 67.0921 61.5447 66.9614 61.61C66.7934 61.7033 66.6721 61.806 66.5974 61.918C66.5321 62.0207 66.5181 62.142 66.5554 62.282C66.6021 62.4127 66.7094 62.562 66.8774 62.73C67.0547 62.8887 67.3067 63.066 67.6334 63.262C68.1001 63.542 68.4874 63.8453 68.7954 64.172C69.1034 64.4987 69.3087 64.83 69.4114 65.166C69.5234 65.4927 69.5094 65.8193 69.3694 66.146C69.2667 66.3793 69.0754 66.566 68.7954 66.706C68.5154 66.846 68.1794 66.9393 67.7874 66.986C67.4047 67.0327 66.9987 67.028 66.5694 66.972C66.1401 66.9067 65.7201 66.7853 65.3094 66.608C64.9081 66.4307 64.5581 66.188 64.2594 65.88C64.2594 65.88 64.2454 65.8613 64.2174 65.824C64.1894 65.7867 64.1614 65.74 64.1334 65.684C64.1054 65.6187 64.0914 65.5487 64.0914 65.474C64.1007 65.3993 64.1381 65.3247 64.2034 65.25C64.2687 65.1847 64.3434 65.1427 64.4274 65.124C64.5114 65.1053 64.5907 65.1053 64.6654 65.124C64.7401 65.1333 64.8007 65.1473 64.8474 65.166C64.9034 65.1847 64.9314 65.194 64.9314 65.194C64.9314 65.194 64.9827 65.2267 65.0854 65.292C65.1881 65.348 65.3234 65.4227 65.4914 65.516C65.6687 65.6 65.8694 65.6747 66.0934 65.74C66.3174 65.796 66.5507 65.8193 66.7934 65.81ZM78.4088 66.972C77.9235 66.9813 77.4755 66.902 77.0648 66.734C76.6635 66.5567 76.3135 66.314 76.0148 66.006C75.7161 65.6887 75.4828 65.3247 75.3148 64.914C75.1561 64.5033 75.0768 64.0647 75.0768 63.598C75.0768 63.094 75.1655 62.6227 75.3428 62.184C75.5295 61.7453 75.7815 61.3673 76.0988 61.05C76.4161 60.7233 76.7848 60.4713 77.2048 60.294C77.6341 60.1073 78.0915 60.0093 78.5768 60C79.2768 60 79.8788 60.126 80.3828 60.378C80.8868 60.6207 81.2695 61.0033 81.5308 61.526C81.8015 62.0393 81.9368 62.6973 81.9368 63.5C81.9368 63.9667 81.8575 64.41 81.6988 64.83C81.5401 65.2407 81.3115 65.6047 81.0128 65.922C80.7141 66.2393 80.3455 66.4913 79.9068 66.678C79.4681 66.8647 78.9688 66.9627 78.4088 66.972ZM78.4788 65.502C78.7401 65.502 78.9875 65.446 79.2208 65.334C79.4635 65.2127 79.6781 65.054 79.8648 64.858C80.0515 64.662 80.1961 64.438 80.2988 64.186C80.4108 63.9247 80.4668 63.6493 80.4668 63.36C80.4668 62.884 80.3875 62.492 80.2288 62.184C80.0795 61.876 79.8695 61.6473 79.5988 61.498C79.3375 61.3487 79.0295 61.274 78.6748 61.274C78.4228 61.274 78.1801 61.3393 77.9468 61.47C77.7135 61.6007 77.5081 61.778 77.3308 62.002C77.1628 62.226 77.0275 62.4733 76.9248 62.744C76.8315 63.0147 76.7848 63.2947 76.7848 63.584C76.7848 63.948 76.8548 64.2793 76.9948 64.578C77.1348 64.8673 77.3308 65.096 77.5828 65.264C77.8348 65.4227 78.1335 65.502 78.4788 65.502ZM81.9088 66.986C81.7315 66.986 81.5868 66.958 81.4748 66.902C81.3628 66.8367 81.2788 66.776 81.2228 66.72C81.1668 66.6547 81.1388 66.622 81.1388 66.622C81.0735 65.9407 81.0221 65.264 80.9848 64.592C80.9475 63.92 80.9335 63.234 80.9428 62.534C80.9615 61.834 81.0035 61.106 81.0688 60.35C81.0688 60.35 81.0921 60.322 81.1388 60.266C81.1855 60.2007 81.2648 60.14 81.3768 60.084C81.4888 60.028 81.6428 60.0047 81.8388 60.014C82.0348 60.0327 82.1841 60.0887 82.2868 60.182C82.3988 60.266 82.4735 60.3687 82.5108 60.49C82.5481 60.602 82.5715 60.7 82.5808 60.784C82.5901 60.868 82.5948 60.91 82.5948 60.91C82.5575 61.386 82.5248 61.8293 82.4968 62.24C82.4781 62.6507 82.4688 63.066 82.4688 63.486C82.4781 63.8967 82.4921 64.3353 82.5108 64.802C82.5295 65.2687 82.5528 65.7867 82.5808 66.356C82.5808 66.356 82.5761 66.3887 82.5668 66.454C82.5575 66.5193 82.5295 66.594 82.4828 66.678C82.4455 66.7527 82.3801 66.8227 82.2868 66.888C82.2028 66.9533 82.0768 66.986 81.9088 66.986ZM88.4878 67.014C88.2732 66.986 88.1052 66.9253 87.9838 66.832C87.8718 66.7387 87.7878 66.6407 87.7318 66.538C87.6852 66.426 87.6572 66.3327 87.6478 66.258C87.6478 66.1833 87.6478 66.146 87.6478 66.146C87.6758 65.3433 87.7785 64.5267 87.9558 63.696C88.1425 62.856 88.3618 62.0113 88.6138 61.162C88.8285 60.546 89.0338 60.0373 89.2298 59.636C89.4258 59.2347 89.6172 58.9127 89.8038 58.67C89.9998 58.4273 90.1958 58.2547 90.3918 58.152C90.5878 58.0493 90.7932 57.998 91.0078 57.998C91.1665 57.97 91.3345 58.0073 91.5118 58.11C91.6892 58.2033 91.8712 58.3527 92.0578 58.558C92.2445 58.754 92.4172 59.006 92.5758 59.314C92.7345 59.6127 92.8652 59.9533 92.9678 60.336C93.0612 60.5973 93.1732 60.9473 93.3038 61.386C93.4345 61.8247 93.5605 62.3193 93.6818 62.87C93.8125 63.4113 93.9292 63.9853 94.0318 64.592C94.1438 65.1987 94.2278 65.8053 94.2838 66.412C94.2838 66.412 94.2792 66.4447 94.2698 66.51C94.2698 66.5753 94.2465 66.65 94.1998 66.734C94.1625 66.8087 94.0925 66.8787 93.9898 66.944C93.8965 67.0093 93.7565 67.042 93.5698 67.042C93.3832 67.042 93.2292 67.0093 93.1078 66.944C92.9865 66.8787 92.8932 66.7993 92.8278 66.706C92.7625 66.6127 92.7158 66.5333 92.6878 66.468C92.6598 66.3933 92.6458 66.356 92.6458 66.356C92.5152 65.572 92.3892 64.8487 92.2678 64.186C92.1465 63.514 92.0205 62.926 91.8898 62.422C91.7592 61.9087 91.6238 61.456 91.4838 61.064C91.3532 60.6627 91.2132 60.2893 91.0638 59.944C90.9425 60.1587 90.8165 60.4013 90.6858 60.672C90.5645 60.9427 90.4478 61.2227 90.3358 61.512C90.2332 61.8013 90.1445 62.086 90.0698 62.366C89.9672 62.7953 89.8738 63.1827 89.7898 63.528C89.7152 63.864 89.6498 64.186 89.5938 64.494C89.5378 64.802 89.4912 65.1147 89.4538 65.432C89.4165 65.7493 89.3838 66.0947 89.3558 66.468C89.3558 66.468 89.3465 66.5007 89.3278 66.566C89.3092 66.6313 89.2672 66.706 89.2018 66.79C89.1458 66.8647 89.0618 66.9253 88.9498 66.972C88.8378 67.0187 88.6838 67.0327 88.4878 67.014ZM88.7538 65.726L88.9078 64.592C89.3465 64.4893 89.7805 64.41 90.2098 64.354C90.6392 64.298 91.0778 64.2653 91.5258 64.256C91.9832 64.2467 92.4545 64.2607 92.9398 64.298L93.1078 65.656C92.7812 65.6 92.4265 65.558 92.0438 65.53C91.6612 65.4927 91.2692 65.4787 90.8678 65.488C90.4758 65.488 90.0978 65.5067 89.7338 65.544C89.3698 65.5813 89.0432 65.642 88.7538 65.726ZM98.4333 67.126C97.668 67.0793 97.052 66.916 96.5853 66.636C96.1186 66.3467 95.7733 65.964 95.5493 65.488C95.3253 65.0027 95.19 64.4567 95.1433 63.85C95.106 63.3647 95.1573 62.898 95.2973 62.45C95.4466 61.9927 95.6706 61.5867 95.9693 61.232C96.2773 60.868 96.6506 60.5833 97.0893 60.378C97.528 60.1633 98.0273 60.0607 98.5873 60.07C99.0633 60.07 99.4646 60.1307 99.7913 60.252C100.127 60.3733 100.403 60.5227 100.617 60.7C100.832 60.868 100.995 61.0407 101.107 61.218C101.229 61.386 101.313 61.526 101.359 61.638C101.406 61.75 101.429 61.806 101.429 61.806C101.429 61.806 101.425 61.8387 101.415 61.904C101.415 61.9693 101.397 62.0533 101.359 62.156C101.322 62.2493 101.243 62.3333 101.121 62.408C101.009 62.4733 100.883 62.5153 100.743 62.534C100.603 62.5527 100.473 62.548 100.351 62.52C100.23 62.492 100.146 62.45 100.099 62.394C100.09 62.394 100.057 62.3567 100.001 62.282C99.9546 62.2073 99.88 62.1233 99.7773 62.03C99.684 61.9367 99.5533 61.8527 99.3853 61.778C99.2266 61.7033 99.0306 61.6707 98.7973 61.68C98.5266 61.6893 98.27 61.736 98.0273 61.82C97.794 61.904 97.5886 62.03 97.4113 62.198C97.2433 62.3567 97.1126 62.562 97.0193 62.814C96.926 63.0567 96.884 63.346 96.8933 63.682C96.9026 64.102 96.9773 64.4427 97.1173 64.704C97.2573 64.956 97.4486 65.1427 97.6913 65.264C97.934 65.3853 98.214 65.4647 98.5313 65.502C98.774 65.5207 99.0026 65.5067 99.2173 65.46C99.432 65.404 99.6233 65.334 99.7913 65.25C99.9593 65.166 100.095 65.0913 100.197 65.026C100.309 64.9607 100.375 64.928 100.393 64.928C100.552 64.872 100.697 64.8533 100.827 64.872C100.967 64.8907 101.093 64.9327 101.205 64.998C101.327 65.0633 101.425 65.1473 101.499 65.25C101.593 65.3713 101.639 65.488 101.639 65.6C101.649 65.712 101.639 65.8007 101.611 65.866C101.593 65.9313 101.583 65.964 101.583 65.964C101.583 65.964 101.527 66.0293 101.415 66.16C101.303 66.2813 101.121 66.426 100.869 66.594C100.627 66.7527 100.305 66.888 99.9033 67C99.502 67.112 99.012 67.154 98.4333 67.126ZM105.669 67.126C104.904 67.0793 104.288 66.916 103.821 66.636C103.354 66.3467 103.009 65.964 102.785 65.488C102.561 65.0027 102.426 64.4567 102.379 63.85C102.342 63.3647 102.393 62.898 102.533 62.45C102.682 61.9927 102.906 61.5867 103.205 61.232C103.513 60.868 103.886 60.5833 104.325 60.378C104.764 60.1633 105.263 60.0607 105.823 60.07C106.299 60.07 106.7 60.1307 107.027 60.252C107.363 60.3733 107.638 60.5227 107.853 60.7C108.068 60.868 108.231 61.0407 108.343 61.218C108.464 61.386 108.548 61.526 108.595 61.638C108.642 61.75 108.665 61.806 108.665 61.806C108.665 61.806 108.66 61.8387 108.651 61.904C108.651 61.9693 108.632 62.0533 108.595 62.156C108.558 62.2493 108.478 62.3333 108.357 62.408C108.245 62.4733 108.119 62.5153 107.979 62.534C107.839 62.5527 107.708 62.548 107.587 62.52C107.466 62.492 107.382 62.45 107.335 62.394C107.326 62.394 107.293 62.3567 107.237 62.282C107.19 62.2073 107.116 62.1233 107.013 62.03C106.92 61.9367 106.789 61.8527 106.621 61.778C106.462 61.7033 106.266 61.6707 106.033 61.68C105.762 61.6893 105.506 61.736 105.263 61.82C105.03 61.904 104.824 62.03 104.647 62.198C104.479 62.3567 104.348 62.562 104.255 62.814C104.162 63.0567 104.12 63.346 104.129 63.682C104.138 64.102 104.213 64.4427 104.353 64.704C104.493 64.956 104.684 65.1427 104.927 65.264C105.17 65.3853 105.45 65.4647 105.767 65.502C106.01 65.5207 106.238 65.5067 106.453 65.46C106.668 65.404 106.859 65.334 107.027 65.25C107.195 65.166 107.33 65.0913 107.433 65.026C107.545 64.9607 107.61 64.928 107.629 64.928C107.788 64.872 107.932 64.8533 108.063 64.872C108.203 64.8907 108.329 64.9327 108.441 64.998C108.562 65.0633 108.66 65.1473 108.735 65.25C108.828 65.3713 108.875 65.488 108.875 65.6C108.884 65.712 108.875 65.8007 108.847 65.866C108.828 65.9313 108.819 65.964 108.819 65.964C108.819 65.964 108.763 66.0293 108.651 66.16C108.539 66.2813 108.357 66.426 108.105 66.594C107.862 66.7527 107.54 66.888 107.139 67C106.738 67.112 106.248 67.154 105.669 67.126ZM112.989 66.972C112.494 66.972 112.037 66.888 111.617 66.72C111.206 66.5427 110.851 66.3 110.553 65.992C110.254 65.684 110.021 65.3247 109.853 64.914C109.685 64.5033 109.601 64.0647 109.601 63.598C109.601 63.1313 109.689 62.6833 109.867 62.254C110.044 61.8153 110.291 61.428 110.609 61.092C110.926 60.756 111.299 60.49 111.729 60.294C112.158 60.098 112.62 60 113.115 60C113.619 60 114.085 60.07 114.515 60.21C114.944 60.35 115.317 60.5647 115.635 60.854C115.961 61.134 116.213 61.498 116.391 61.946C116.577 62.3847 116.671 62.9027 116.671 63.5C116.671 63.9667 116.573 64.41 116.377 64.83C116.19 65.25 115.924 65.6233 115.579 65.95C115.243 66.2673 114.851 66.5193 114.403 66.706C113.964 66.8833 113.493 66.972 112.989 66.972ZM112.975 65.516C113.245 65.516 113.502 65.46 113.745 65.348C113.987 65.236 114.202 65.082 114.389 64.886C114.575 64.69 114.72 64.466 114.823 64.214C114.935 63.962 114.991 63.696 114.991 63.416C114.991 62.94 114.911 62.548 114.753 62.24C114.603 61.932 114.393 61.708 114.123 61.568C113.852 61.4187 113.539 61.344 113.185 61.344C112.923 61.344 112.676 61.4093 112.443 61.54C112.209 61.6707 112.004 61.848 111.827 62.072C111.659 62.2867 111.523 62.5293 111.421 62.8C111.327 63.0613 111.281 63.332 111.281 63.612C111.281 63.9853 111.351 64.3167 111.491 64.606C111.631 64.886 111.827 65.11 112.079 65.278C112.34 65.4367 112.639 65.516 112.975 65.516ZM118.567 65.6C118.427 65.6187 118.315 65.586 118.231 65.502C118.147 65.418 118.086 65.32 118.049 65.208C118.011 65.096 117.988 64.9933 117.979 64.9C117.969 64.8067 117.965 64.76 117.965 64.76C117.918 64.5733 117.885 64.4287 117.867 64.326C117.848 64.214 117.839 64.116 117.839 64.032C117.848 63.948 117.853 63.8547 117.853 63.752C117.862 63.64 117.871 63.486 117.881 63.29C117.918 62.7393 118.03 62.254 118.217 61.834C118.413 61.414 118.679 61.064 119.015 60.784C119.351 60.504 119.738 60.2987 120.177 60.168C120.615 60.0747 121.012 60.0467 121.367 60.084C121.731 60.112 122.053 60.1913 122.333 60.322C122.622 60.4433 122.869 60.5973 123.075 60.784C123.075 60.784 123.093 60.8073 123.131 60.854C123.177 60.8913 123.224 60.9473 123.271 61.022C123.317 61.0967 123.35 61.1807 123.369 61.274C123.397 61.358 123.397 61.4513 123.369 61.554C123.35 61.6473 123.28 61.7453 123.159 61.848C123.056 61.9413 122.935 61.988 122.795 61.988C122.655 61.9787 122.519 61.9507 122.389 61.904C122.267 61.8573 122.165 61.8107 122.081 61.764C121.997 61.7173 121.955 61.694 121.955 61.694C121.759 61.5633 121.53 61.5027 121.269 61.512C121.017 61.512 120.755 61.5773 120.485 61.708C120.158 61.8667 119.897 62.086 119.701 62.366C119.505 62.6367 119.379 62.9633 119.323 63.346C119.304 63.57 119.285 63.7567 119.267 63.906C119.257 64.0553 119.248 64.186 119.239 64.298C119.229 64.41 119.225 64.5267 119.225 64.648C119.234 64.7693 119.243 64.9233 119.253 65.11C119.253 65.11 119.234 65.1473 119.197 65.222C119.169 65.2967 119.103 65.3713 119.001 65.446C118.907 65.5207 118.763 65.572 118.567 65.6ZM118.651 66.986C118.492 66.9767 118.357 66.944 118.245 66.888C118.142 66.8227 118.058 66.748 117.993 66.664C117.927 66.58 117.881 66.51 117.853 66.454C117.834 66.398 117.825 66.37 117.825 66.37C117.769 65.866 117.727 65.3853 117.699 64.928C117.68 64.4707 117.671 64.018 117.671 63.57C117.671 63.1127 117.68 62.6413 117.699 62.156C117.727 61.6707 117.764 61.148 117.811 60.588C117.811 60.588 117.815 60.56 117.825 60.504C117.843 60.4387 117.876 60.3687 117.923 60.294C117.969 60.2193 118.044 60.154 118.147 60.098C118.259 60.042 118.403 60.014 118.581 60.014C118.777 60.0233 118.926 60.0653 119.029 60.14C119.141 60.2147 119.225 60.3033 119.281 60.406C119.337 60.5087 119.369 60.5973 119.379 60.672C119.397 60.7467 119.407 60.784 119.407 60.784C119.379 61.2413 119.355 61.6893 119.337 62.128C119.318 62.5573 119.309 62.996 119.309 63.444C119.309 63.8827 119.313 64.3447 119.323 64.83C119.341 65.306 119.369 65.8193 119.407 66.37C119.407 66.37 119.397 66.4027 119.379 66.468C119.369 66.5333 119.341 66.608 119.295 66.692C119.248 66.776 119.173 66.8507 119.071 66.916C118.968 66.972 118.828 66.9953 118.651 66.986ZM127.172 66.972C126.687 66.9813 126.239 66.902 125.828 66.734C125.427 66.5567 125.077 66.314 124.778 66.006C124.479 65.6887 124.246 65.3247 124.078 64.914C123.919 64.5033 123.84 64.0647 123.84 63.598C123.84 63.094 123.929 62.6227 124.106 62.184C124.293 61.7453 124.545 61.3673 124.862 61.05C125.179 60.7233 125.548 60.4713 125.968 60.294C126.397 60.1073 126.855 60.0093 127.34 60C128.04 60 128.642 60.126 129.146 60.378C129.65 60.6207 130.033 61.0033 130.294 61.526C130.565 62.0393 130.7 62.6973 130.7 63.5C130.7 63.9667 130.621 64.41 130.462 64.83C130.303 65.2407 130.075 65.6047 129.776 65.922C129.477 66.2393 129.109 66.4913 128.67 66.678C128.231 66.8647 127.732 66.9627 127.172 66.972ZM127.242 65.502C127.503 65.502 127.751 65.446 127.984 65.334C128.227 65.2127 128.441 65.054 128.628 64.858C128.815 64.662 128.959 64.438 129.062 64.186C129.174 63.9247 129.23 63.6493 129.23 63.36C129.23 62.884 129.151 62.492 128.992 62.184C128.843 61.876 128.633 61.6473 128.362 61.498C128.101 61.3487 127.793 61.274 127.438 61.274C127.186 61.274 126.943 61.3393 126.71 61.47C126.477 61.6007 126.271 61.778 126.094 62.002C125.926 62.226 125.791 62.4733 125.688 62.744C125.595 63.0147 125.548 63.2947 125.548 63.584C125.548 63.948 125.618 64.2793 125.758 64.578C125.898 64.8673 126.094 65.096 126.346 65.264C126.598 65.4227 126.897 65.502 127.242 65.502ZM130.63 67C130.453 67 130.303 66.9673 130.182 66.902C130.07 66.8273 129.977 66.7433 129.902 66.65C129.837 66.5473 129.79 66.4633 129.762 66.398C129.743 66.3233 129.734 66.286 129.734 66.286C129.687 65.8847 129.65 65.432 129.622 64.928C129.603 64.4147 129.589 63.878 129.58 63.318C129.58 62.7487 129.585 62.1793 129.594 61.61C129.613 61.0313 129.636 60.476 129.664 59.944C129.692 59.4027 129.725 58.9033 129.762 58.446C129.762 58.446 129.767 58.418 129.776 58.362C129.795 58.2967 129.832 58.2267 129.888 58.152C129.944 58.0773 130.023 58.0167 130.126 57.97C130.229 57.914 130.369 57.8907 130.546 57.9C130.733 57.9187 130.877 57.97 130.98 58.054C131.092 58.1287 131.171 58.2173 131.218 58.32C131.274 58.4133 131.311 58.4973 131.33 58.572C131.349 58.6373 131.358 58.67 131.358 58.67C131.33 59.034 131.307 59.4633 131.288 59.958C131.279 60.4433 131.269 60.966 131.26 61.526C131.251 62.0767 131.246 62.6367 131.246 63.206C131.246 63.7753 131.251 64.3307 131.26 64.872C131.279 65.4133 131.302 65.9127 131.33 66.37C131.33 66.37 131.325 66.4027 131.316 66.468C131.307 66.5333 131.279 66.608 131.232 66.692C131.195 66.7667 131.125 66.8367 131.022 66.902C130.929 66.9673 130.798 67 130.63 67ZM133.478 66.986C133.319 66.9767 133.184 66.944 133.072 66.888C132.969 66.8227 132.885 66.748 132.82 66.664C132.754 66.58 132.708 66.51 132.68 66.454C132.661 66.398 132.652 66.37 132.652 66.37C132.596 65.866 132.554 65.3853 132.526 64.928C132.507 64.4707 132.498 64.018 132.498 63.57C132.498 63.1127 132.507 62.6413 132.526 62.156C132.554 61.6707 132.591 61.148 132.638 60.588C132.638 60.588 132.642 60.56 132.652 60.504C132.67 60.4387 132.703 60.3687 132.75 60.294C132.796 60.2193 132.871 60.154 132.974 60.098C133.086 60.042 133.23 60.014 133.408 60.014C133.604 60.0233 133.753 60.0653 133.856 60.14C133.968 60.2147 134.052 60.3033 134.108 60.406C134.164 60.5087 134.196 60.5973 134.206 60.672C134.224 60.7467 134.234 60.784 134.234 60.784C134.206 61.2413 134.182 61.6893 134.164 62.128C134.145 62.5573 134.136 62.996 134.136 63.444C134.136 63.8827 134.14 64.3447 134.15 64.83C134.168 65.306 134.196 65.8193 134.234 66.37C134.234 66.37 134.224 66.4027 134.206 66.468C134.196 66.5333 134.168 66.608 134.122 66.692C134.075 66.776 134 66.8507 133.898 66.916C133.795 66.972 133.655 66.9953 133.478 66.986ZM133.478 59.454C133.198 59.4633 132.978 59.384 132.82 59.216C132.661 59.0387 132.582 58.8333 132.582 58.6C132.582 58.2827 132.656 58.054 132.806 57.914C132.964 57.774 133.188 57.704 133.478 57.704C133.758 57.704 133.977 57.7927 134.136 57.97C134.294 58.1473 134.374 58.3573 134.374 58.6C134.374 58.7493 134.346 58.8893 134.29 59.02C134.243 59.1507 134.154 59.258 134.024 59.342C133.893 59.4167 133.711 59.454 133.478 59.454ZM138.746 66.972C138.251 66.972 137.794 66.888 137.374 66.72C136.963 66.5427 136.609 66.3 136.31 65.992C136.011 65.684 135.778 65.3247 135.61 64.914C135.442 64.5033 135.358 64.0647 135.358 63.598C135.358 63.1313 135.447 62.6833 135.624 62.254C135.801 61.8153 136.049 61.428 136.366 61.092C136.683 60.756 137.057 60.49 137.486 60.294C137.915 60.098 138.377 60 138.872 60C139.376 60 139.843 60.07 140.272 60.21C140.701 60.35 141.075 60.5647 141.392 60.854C141.719 61.134 141.971 61.498 142.148 61.946C142.335 62.3847 142.428 62.9027 142.428 63.5C142.428 63.9667 142.33 64.41 142.134 64.83C141.947 65.25 141.681 65.6233 141.336 65.95C141 66.2673 140.608 66.5193 140.16 66.706C139.721 66.8833 139.25 66.972 138.746 66.972ZM138.732 65.516C139.003 65.516 139.259 65.46 139.502 65.348C139.745 65.236 139.959 65.082 140.146 64.886C140.333 64.69 140.477 64.466 140.58 64.214C140.692 63.962 140.748 63.696 140.748 63.416C140.748 62.94 140.669 62.548 140.51 62.24C140.361 61.932 140.151 61.708 139.88 61.568C139.609 61.4187 139.297 61.344 138.942 61.344C138.681 61.344 138.433 61.4093 138.2 61.54C137.967 61.6707 137.761 61.848 137.584 62.072C137.416 62.2867 137.281 62.5293 137.178 62.8C137.085 63.0613 137.038 63.332 137.038 63.612C137.038 63.9853 137.108 64.3167 137.248 64.606C137.388 64.886 137.584 65.11 137.836 65.278C138.097 65.4367 138.396 65.516 138.732 65.516ZM149.112 66.762C148.925 66.7153 148.785 66.6407 148.692 66.538C148.599 66.4353 148.533 66.328 148.496 66.216C148.468 66.104 148.449 66.0107 148.44 65.936C148.44 65.852 148.44 65.81 148.44 65.81C148.533 65.082 148.571 64.4147 148.552 63.808C148.533 63.192 148.421 62.7113 148.216 62.366C148.048 62.0487 147.843 61.8247 147.6 61.694C147.357 61.554 147.101 61.498 146.83 61.526C146.569 61.554 146.307 61.6567 146.046 61.834C145.757 62.0393 145.533 62.2913 145.374 62.59C145.225 62.8793 145.122 63.1827 145.066 63.5C145.01 63.808 144.977 64.1067 144.968 64.396C144.968 64.676 144.968 64.9233 144.968 65.138C144.968 65.3433 144.973 65.5253 144.982 65.684C144.991 65.8427 144.996 65.9827 144.996 66.104C144.996 66.104 144.996 66.1273 144.996 66.174C144.996 66.2207 144.982 66.2767 144.954 66.342C144.926 66.4073 144.875 66.468 144.8 66.524C144.725 66.58 144.613 66.6127 144.464 66.622C144.333 66.6313 144.217 66.6033 144.114 66.538C144.011 66.4727 143.927 66.4073 143.862 66.342C143.806 66.2673 143.778 66.23 143.778 66.23C143.685 66.0713 143.633 65.9173 143.624 65.768C143.615 65.6187 143.615 65.446 143.624 65.25C143.633 65.054 143.619 64.816 143.582 64.536C143.554 64.1907 143.54 63.878 143.54 63.598C143.549 63.318 143.573 63.0613 143.61 62.828C143.647 62.5947 143.708 62.3707 143.792 62.156C143.876 61.9413 143.993 61.7267 144.142 61.512C144.329 61.2693 144.562 61.0453 144.842 60.84C145.122 60.6253 145.43 60.4527 145.766 60.322C146.102 60.1913 146.447 60.1167 146.802 60.098C147.166 60.07 147.521 60.112 147.866 60.224C148.09 60.3173 148.314 60.4387 148.538 60.588C148.771 60.7373 148.986 60.924 149.182 61.148C149.387 61.372 149.569 61.6427 149.728 61.96C149.887 62.2773 150.017 62.646 150.12 63.066C150.213 63.5513 150.255 64.0413 150.246 64.536C150.237 65.0307 150.185 65.5813 150.092 66.188C150.092 66.188 150.083 66.2253 150.064 66.3C150.045 66.3747 150.003 66.4587 149.938 66.552C149.882 66.6453 149.789 66.72 149.658 66.776C149.527 66.8227 149.345 66.818 149.112 66.762ZM144.408 66.986C144.249 66.9767 144.114 66.944 144.002 66.888C143.899 66.8227 143.815 66.748 143.75 66.664C143.685 66.58 143.638 66.51 143.61 66.454C143.591 66.398 143.582 66.37 143.582 66.37C143.526 65.866 143.484 65.3853 143.456 64.928C143.437 64.4707 143.428 64.018 143.428 63.57C143.428 63.1127 143.437 62.6413 143.456 62.156C143.484 61.6707 143.521 61.148 143.568 60.588C143.568 60.588 143.573 60.56 143.582 60.504C143.601 60.4387 143.633 60.3687 143.68 60.294C143.727 60.2193 143.801 60.154 143.904 60.098C144.016 60.042 144.161 60.014 144.338 60.014C144.534 60.0233 144.683 60.0653 144.786 60.14C144.898 60.2147 144.982 60.3033 145.038 60.406C145.094 60.5087 145.127 60.5973 145.136 60.672C145.155 60.7467 145.164 60.784 145.164 60.784C145.136 61.2413 145.113 61.6893 145.094 62.128C145.075 62.5573 145.066 62.996 145.066 63.444C145.066 63.8827 145.071 64.3447 145.08 64.83C145.099 65.306 145.127 65.8193 145.164 66.37C145.164 66.37 145.155 66.4027 145.136 66.468C145.127 66.5333 145.099 66.608 145.052 66.692C145.005 66.776 144.931 66.8507 144.828 66.916C144.725 66.972 144.585 66.9953 144.408 66.986ZM158.592 67.126C157.826 67.0793 157.21 66.916 156.744 66.636C156.277 66.3467 155.932 65.964 155.708 65.488C155.484 65.0027 155.348 64.4567 155.302 63.85C155.264 63.3647 155.316 62.898 155.456 62.45C155.605 61.9927 155.829 61.5867 156.128 61.232C156.436 60.868 156.809 60.5833 157.248 60.378C157.686 60.1633 158.186 60.0607 158.746 60.07C159.222 60.07 159.623 60.1307 159.95 60.252C160.286 60.3733 160.561 60.5227 160.776 60.7C160.99 60.868 161.154 61.0407 161.266 61.218C161.387 61.386 161.471 61.526 161.518 61.638C161.564 61.75 161.588 61.806 161.588 61.806C161.588 61.806 161.583 61.8387 161.574 61.904C161.574 61.9693 161.555 62.0533 161.518 62.156C161.48 62.2493 161.401 62.3333 161.28 62.408C161.168 62.4733 161.042 62.5153 160.902 62.534C160.762 62.5527 160.631 62.548 160.51 62.52C160.388 62.492 160.304 62.45 160.258 62.394C160.248 62.394 160.216 62.3567 160.16 62.282C160.113 62.2073 160.038 62.1233 159.936 62.03C159.842 61.9367 159.712 61.8527 159.544 61.778C159.385 61.7033 159.189 61.6707 158.956 61.68C158.685 61.6893 158.428 61.736 158.186 61.82C157.952 61.904 157.747 62.03 157.57 62.198C157.402 62.3567 157.271 62.562 157.178 62.814C157.084 63.0567 157.042 63.346 157.052 63.682C157.061 64.102 157.136 64.4427 157.276 64.704C157.416 64.956 157.607 65.1427 157.85 65.264C158.092 65.3853 158.372 65.4647 158.69 65.502C158.932 65.5207 159.161 65.5067 159.376 65.46C159.59 65.404 159.782 65.334 159.95 65.25C160.118 65.166 160.253 65.0913 160.356 65.026C160.468 64.9607 160.533 64.928 160.552 64.928C160.71 64.872 160.855 64.8533 160.986 64.872C161.126 64.8907 161.252 64.9327 161.364 64.998C161.485 65.0633 161.583 65.1473 161.658 65.25C161.751 65.3713 161.798 65.488 161.798 65.6C161.807 65.712 161.798 65.8007 161.77 65.866C161.751 65.9313 161.742 65.964 161.742 65.964C161.742 65.964 161.686 66.0293 161.574 66.16C161.462 66.2813 161.28 66.426 161.028 66.594C160.785 66.7527 160.463 66.888 160.062 67C159.66 67.112 159.17 67.154 158.592 67.126ZM165.911 66.972C165.417 66.972 164.959 66.888 164.539 66.72C164.129 66.5427 163.774 66.3 163.475 65.992C163.177 65.684 162.943 65.3247 162.775 64.914C162.607 64.5033 162.523 64.0647 162.523 63.598C162.523 63.1313 162.612 62.6833 162.789 62.254C162.967 61.8153 163.214 61.428 163.531 61.092C163.849 60.756 164.222 60.49 164.651 60.294C165.081 60.098 165.543 60 166.037 60C166.541 60 167.008 60.07 167.437 60.21C167.867 60.35 168.24 60.5647 168.557 60.854C168.884 61.134 169.136 61.498 169.313 61.946C169.5 62.3847 169.593 62.9027 169.593 63.5C169.593 63.9667 169.495 64.41 169.299 64.83C169.113 65.25 168.847 65.6233 168.501 65.95C168.165 66.2673 167.773 66.5193 167.325 66.706C166.887 66.8833 166.415 66.972 165.911 66.972ZM165.897 65.516C166.168 65.516 166.425 65.46 166.667 65.348C166.91 65.236 167.125 65.082 167.311 64.886C167.498 64.69 167.643 64.466 167.745 64.214C167.857 63.962 167.913 63.696 167.913 63.416C167.913 62.94 167.834 62.548 167.675 62.24C167.526 61.932 167.316 61.708 167.045 61.568C166.775 61.4187 166.462 61.344 166.107 61.344C165.846 61.344 165.599 61.4093 165.365 61.54C165.132 61.6707 164.927 61.848 164.749 62.072C164.581 62.2867 164.446 62.5293 164.343 62.8C164.25 63.0613 164.203 63.332 164.203 63.612C164.203 63.9853 164.273 64.3167 164.413 64.606C164.553 64.886 164.749 65.11 165.001 65.278C165.263 65.4367 165.561 65.516 165.897 65.516ZM176.277 66.762C176.091 66.7153 175.951 66.6407 175.857 66.538C175.764 66.4353 175.699 66.328 175.661 66.216C175.633 66.104 175.615 66.0107 175.605 65.936C175.605 65.852 175.605 65.81 175.605 65.81C175.699 65.082 175.736 64.4147 175.717 63.808C175.699 63.192 175.587 62.7113 175.381 62.366C175.213 62.0487 175.008 61.8247 174.765 61.694C174.523 61.554 174.266 61.498 173.995 61.526C173.734 61.554 173.473 61.6567 173.211 61.834C172.922 62.0393 172.698 62.2913 172.539 62.59C172.39 62.8793 172.287 63.1827 172.231 63.5C172.175 63.808 172.143 64.1067 172.133 64.396C172.133 64.676 172.133 64.9233 172.133 65.138C172.133 65.3433 172.138 65.5253 172.147 65.684C172.157 65.8427 172.161 65.9827 172.161 66.104C172.161 66.104 172.161 66.1273 172.161 66.174C172.161 66.2207 172.147 66.2767 172.119 66.342C172.091 66.4073 172.04 66.468 171.965 66.524C171.891 66.58 171.779 66.6127 171.629 66.622C171.499 66.6313 171.382 66.6033 171.279 66.538C171.177 66.4727 171.093 66.4073 171.027 66.342C170.971 66.2673 170.943 66.23 170.943 66.23C170.85 66.0713 170.799 65.9173 170.789 65.768C170.78 65.6187 170.78 65.446 170.789 65.25C170.799 65.054 170.785 64.816 170.747 64.536C170.719 64.1907 170.705 63.878 170.705 63.598C170.715 63.318 170.738 63.0613 170.775 62.828C170.813 62.5947 170.873 62.3707 170.957 62.156C171.041 61.9413 171.158 61.7267 171.307 61.512C171.494 61.2693 171.727 61.0453 172.007 60.84C172.287 60.6253 172.595 60.4527 172.931 60.322C173.267 60.1913 173.613 60.1167 173.967 60.098C174.331 60.07 174.686 60.112 175.031 60.224C175.255 60.3173 175.479 60.4387 175.703 60.588C175.937 60.7373 176.151 60.924 176.347 61.148C176.553 61.372 176.735 61.6427 176.893 61.96C177.052 62.2773 177.183 62.646 177.285 63.066C177.379 63.5513 177.421 64.0413 177.411 64.536C177.402 65.0307 177.351 65.5813 177.257 66.188C177.257 66.188 177.248 66.2253 177.229 66.3C177.211 66.3747 177.169 66.4587 177.103 66.552C177.047 66.6453 176.954 66.72 176.823 66.776C176.693 66.8227 176.511 66.818 176.277 66.762ZM171.573 66.986C171.415 66.9767 171.279 66.944 171.167 66.888C171.065 66.8227 170.981 66.748 170.915 66.664C170.85 66.58 170.803 66.51 170.775 66.454C170.757 66.398 170.747 66.37 170.747 66.37C170.691 65.866 170.649 65.3853 170.621 64.928C170.603 64.4707 170.593 64.018 170.593 63.57C170.593 63.1127 170.603 62.6413 170.621 62.156C170.649 61.6707 170.687 61.148 170.733 60.588C170.733 60.588 170.738 60.56 170.747 60.504C170.766 60.4387 170.799 60.3687 170.845 60.294C170.892 60.2193 170.967 60.154 171.069 60.098C171.181 60.042 171.326 60.014 171.503 60.014C171.699 60.0233 171.849 60.0653 171.951 60.14C172.063 60.2147 172.147 60.3033 172.203 60.406C172.259 60.5087 172.292 60.5973 172.301 60.672C172.32 60.7467 172.329 60.784 172.329 60.784C172.301 61.2413 172.278 61.6893 172.259 62.128C172.241 62.5573 172.231 62.996 172.231 63.444C172.231 63.8827 172.236 64.3447 172.245 64.83C172.264 65.306 172.292 65.8193 172.329 66.37C172.329 66.37 172.32 66.4027 172.301 66.468C172.292 66.5333 172.264 66.608 172.217 66.692C172.171 66.776 172.096 66.8507 171.993 66.916C171.891 66.972 171.751 66.9953 171.573 66.986ZM181.387 66.762C181.201 66.7153 181.061 66.6407 180.967 66.538C180.874 66.4353 180.809 66.328 180.771 66.216C180.743 66.104 180.725 66.0107 180.715 65.936C180.715 65.852 180.715 65.81 180.715 65.81C180.809 65.082 180.846 64.4147 180.827 63.808C180.809 63.192 180.697 62.7113 180.491 62.366C180.323 62.0487 180.118 61.8247 179.875 61.694C179.633 61.554 179.376 61.498 179.105 61.526C178.844 61.554 178.583 61.6567 178.321 61.834C178.032 62.0393 177.808 62.2913 177.649 62.59C177.5 62.8793 177.397 63.1827 177.341 63.5C177.285 63.808 177.253 64.1067 177.243 64.396C177.243 64.676 177.239 64.9047 177.229 65.082C177.229 65.2593 177.225 65.4133 177.215 65.544C177.206 65.6653 177.197 65.796 177.187 65.936C177.187 65.936 177.183 65.964 177.173 66.02C177.173 66.076 177.159 66.1413 177.131 66.216C177.113 66.2907 177.066 66.3607 176.991 66.426C176.926 66.482 176.823 66.5147 176.683 66.524C176.543 66.5333 176.422 66.5053 176.319 66.44C176.226 66.3747 176.156 66.3093 176.109 66.244C176.063 66.1787 176.039 66.146 176.039 66.146C175.983 66.0247 175.946 65.8893 175.927 65.74C175.918 65.5813 175.913 65.404 175.913 65.208C175.923 65.0027 175.923 64.774 175.913 64.522C175.885 64.1767 175.867 63.8687 175.857 63.598C175.857 63.318 175.871 63.0613 175.899 62.828C175.927 62.5947 175.983 62.3707 176.067 62.156C176.151 61.9413 176.268 61.7267 176.417 61.512C176.604 61.2693 176.837 61.0453 177.117 60.84C177.397 60.6253 177.705 60.4527 178.041 60.322C178.377 60.1913 178.723 60.1167 179.077 60.098C179.441 60.07 179.796 60.112 180.141 60.224C180.365 60.3173 180.589 60.4387 180.813 60.588C181.047 60.7373 181.261 60.924 181.457 61.148C181.663 61.372 181.845 61.6427 182.003 61.96C182.162 62.2773 182.293 62.646 182.395 63.066C182.489 63.5513 182.531 64.0413 182.521 64.536C182.512 65.0307 182.461 65.5813 182.367 66.188C182.367 66.188 182.358 66.2253 182.339 66.3C182.321 66.3747 182.279 66.4587 182.213 66.552C182.157 66.6453 182.064 66.72 181.933 66.776C181.803 66.8227 181.621 66.818 181.387 66.762ZM187.808 66.972C187.229 66.972 186.73 66.8833 186.31 66.706C185.89 66.5193 185.549 66.272 185.288 65.964C185.036 65.6467 184.845 65.2827 184.714 64.872C184.593 64.452 184.532 64.0087 184.532 63.542C184.532 63.01 184.611 62.5247 184.77 62.086C184.929 61.6473 185.157 61.274 185.456 60.966C185.755 60.658 186.114 60.42 186.534 60.252C186.963 60.084 187.444 60 187.976 60C188.461 60.0093 188.909 60.0933 189.32 60.252C189.731 60.4013 190.09 60.6253 190.398 60.924C190.715 61.2227 190.958 61.5913 191.126 62.03C191.303 62.4687 191.392 62.9773 191.392 63.556C191.392 64.0227 191.299 64.4613 191.112 64.872C190.925 65.2827 190.664 65.6467 190.328 65.964C190.001 66.2813 189.619 66.5287 189.18 66.706C188.751 66.8833 188.293 66.972 187.808 66.972ZM184.84 69.982C184.653 69.982 184.499 69.9447 184.378 69.87C184.266 69.8047 184.177 69.7253 184.112 69.632C184.047 69.5387 184 69.4547 183.972 69.38C183.953 69.3147 183.944 69.282 183.944 69.282C183.907 68.8807 183.874 68.3953 183.846 67.826C183.818 67.2567 183.799 66.65 183.79 66.006C183.781 65.362 183.781 64.7133 183.79 64.06C183.799 63.3973 183.813 62.772 183.832 62.184C183.86 61.5867 183.893 61.064 183.93 60.616C183.93 60.616 183.939 60.588 183.958 60.532C183.977 60.4667 184.009 60.3967 184.056 60.322C184.112 60.2473 184.191 60.182 184.294 60.126C184.406 60.07 184.551 60.0513 184.728 60.07C184.915 60.0793 185.059 60.126 185.162 60.21C185.274 60.2847 185.353 60.3733 185.4 60.476C185.456 60.5693 185.489 60.6533 185.498 60.728C185.517 60.8027 185.526 60.84 185.526 60.84C185.507 61.204 185.489 61.6613 185.47 62.212C185.461 62.7533 185.451 63.3413 185.442 63.976C185.442 64.6107 185.442 65.2547 185.442 65.908C185.451 66.5613 185.461 67.1867 185.47 67.784C185.489 68.3813 185.512 68.9087 185.54 69.366C185.54 69.366 185.535 69.394 185.526 69.45C185.517 69.5153 185.489 69.59 185.442 69.674C185.395 69.758 185.325 69.828 185.232 69.884C185.139 69.9493 185.008 69.982 184.84 69.982ZM187.654 65.488C187.925 65.488 188.181 65.4273 188.424 65.306C188.676 65.1753 188.895 65.0073 189.082 64.802C189.269 64.5873 189.418 64.3493 189.53 64.088C189.642 63.8173 189.698 63.5373 189.698 63.248C189.698 62.7813 189.614 62.4033 189.446 62.114C189.278 61.8247 189.063 61.6147 188.802 61.484C188.541 61.344 188.256 61.274 187.948 61.274C187.696 61.274 187.449 61.3393 187.206 61.47C186.973 61.6007 186.763 61.778 186.576 62.002C186.389 62.226 186.24 62.478 186.128 62.758C186.025 63.0287 185.974 63.3087 185.974 63.598C185.974 63.9527 186.039 64.2747 186.17 64.564C186.31 64.8533 186.506 65.082 186.758 65.25C187.019 65.4087 187.318 65.488 187.654 65.488ZM195.767 66.972C195.272 66.972 194.815 66.888 194.395 66.72C193.984 66.5427 193.63 66.3 193.331 65.992C193.032 65.684 192.799 65.3247 192.631 64.914C192.463 64.5033 192.379 64.0647 192.379 63.598C192.379 63.1313 192.468 62.6833 192.645 62.254C192.822 61.8153 193.07 61.428 193.387 61.092C193.704 60.756 194.078 60.49 194.507 60.294C194.936 60.098 195.398 60 195.893 60C196.397 60 196.864 60.07 197.293 60.21C197.722 60.35 198.096 60.5647 198.413 60.854C198.74 61.134 198.992 61.498 199.169 61.946C199.356 62.3847 199.449 62.9027 199.449 63.5C199.449 63.9667 199.351 64.41 199.155 64.83C198.968 65.25 198.702 65.6233 198.357 65.95C198.021 66.2673 197.629 66.5193 197.181 66.706C196.742 66.8833 196.271 66.972 195.767 66.972ZM195.753 65.516C196.024 65.516 196.28 65.46 196.523 65.348C196.766 65.236 196.98 65.082 197.167 64.886C197.354 64.69 197.498 64.466 197.601 64.214C197.713 63.962 197.769 63.696 197.769 63.416C197.769 62.94 197.69 62.548 197.531 62.24C197.382 61.932 197.172 61.708 196.901 61.568C196.63 61.4187 196.318 61.344 195.963 61.344C195.702 61.344 195.454 61.4093 195.221 61.54C194.988 61.6707 194.782 61.848 194.605 62.072C194.437 62.2867 194.302 62.5293 194.199 62.8C194.106 63.0613 194.059 63.332 194.059 63.612C194.059 63.9853 194.129 64.3167 194.269 64.606C194.409 64.886 194.605 65.11 194.857 65.278C195.118 65.4367 195.417 65.516 195.753 65.516ZM206.133 66.762C205.946 66.7153 205.806 66.6407 205.713 66.538C205.62 66.4353 205.554 66.328 205.517 66.216C205.489 66.104 205.47 66.0107 205.461 65.936C205.461 65.852 205.461 65.81 205.461 65.81C205.554 65.082 205.592 64.4147 205.573 63.808C205.554 63.192 205.442 62.7113 205.237 62.366C205.069 62.0487 204.864 61.8247 204.621 61.694C204.378 61.554 204.122 61.498 203.851 61.526C203.59 61.554 203.328 61.6567 203.067 61.834C202.778 62.0393 202.554 62.2913 202.395 62.59C202.246 62.8793 202.143 63.1827 202.087 63.5C202.031 63.808 201.998 64.1067 201.989 64.396C201.989 64.676 201.989 64.9233 201.989 65.138C201.989 65.3433 201.994 65.5253 202.003 65.684C202.012 65.8427 202.017 65.9827 202.017 66.104C202.017 66.104 202.017 66.1273 202.017 66.174C202.017 66.2207 202.003 66.2767 201.975 66.342C201.947 66.4073 201.896 66.468 201.821 66.524C201.746 66.58 201.634 66.6127 201.485 66.622C201.354 66.6313 201.238 66.6033 201.135 66.538C201.032 66.4727 200.948 66.4073 200.883 66.342C200.827 66.2673 200.799 66.23 200.799 66.23C200.706 66.0713 200.654 65.9173 200.645 65.768C200.636 65.6187 200.636 65.446 200.645 65.25C200.654 65.054 200.64 64.816 200.603 64.536C200.575 64.1907 200.561 63.878 200.561 63.598C200.57 63.318 200.594 63.0613 200.631 62.828C200.668 62.5947 200.729 62.3707 200.813 62.156C200.897 61.9413 201.014 61.7267 201.163 61.512C201.35 61.2693 201.583 61.0453 201.863 60.84C202.143 60.6253 202.451 60.4527 202.787 60.322C203.123 60.1913 203.468 60.1167 203.823 60.098C204.187 60.07 204.542 60.112 204.887 60.224C205.111 60.3173 205.335 60.4387 205.559 60.588C205.792 60.7373 206.007 60.924 206.203 61.148C206.408 61.372 206.59 61.6427 206.749 61.96C206.908 62.2773 207.038 62.646 207.141 63.066C207.234 63.5513 207.276 64.0413 207.267 64.536C207.258 65.0307 207.206 65.5813 207.113 66.188C207.113 66.188 207.104 66.2253 207.085 66.3C207.066 66.3747 207.024 66.4587 206.959 66.552C206.903 66.6453 206.81 66.72 206.679 66.776C206.548 66.8227 206.366 66.818 206.133 66.762ZM201.429 66.986C201.27 66.9767 201.135 66.944 201.023 66.888C200.92 66.8227 200.836 66.748 200.771 66.664C200.706 66.58 200.659 66.51 200.631 66.454C200.612 66.398 200.603 66.37 200.603 66.37C200.547 65.866 200.505 65.3853 200.477 64.928C200.458 64.4707 200.449 64.018 200.449 63.57C200.449 63.1127 200.458 62.6413 200.477 62.156C200.505 61.6707 200.542 61.148 200.589 60.588C200.589 60.588 200.594 60.56 200.603 60.504C200.622 60.4387 200.654 60.3687 200.701 60.294C200.748 60.2193 200.822 60.154 200.925 60.098C201.037 60.042 201.182 60.014 201.359 60.014C201.555 60.0233 201.704 60.0653 201.807 60.14C201.919 60.2147 202.003 60.3033 202.059 60.406C202.115 60.5087 202.148 60.5973 202.157 60.672C202.176 60.7467 202.185 60.784 202.185 60.784C202.157 61.2413 202.134 61.6893 202.115 62.128C202.096 62.5573 202.087 62.996 202.087 63.444C202.087 63.8827 202.092 64.3447 202.101 64.83C202.12 65.306 202.148 65.8193 202.185 66.37C202.185 66.37 202.176 66.4027 202.157 66.468C202.148 66.5333 202.12 66.608 202.073 66.692C202.026 66.776 201.952 66.8507 201.849 66.916C201.746 66.972 201.606 66.9953 201.429 66.986ZM211.171 67.14C210.555 67.028 210.055 66.8507 209.673 66.608C209.299 66.3653 209.01 66.076 208.805 65.74C208.599 65.404 208.459 65.0493 208.385 64.676C208.319 64.2933 208.282 63.9153 208.273 63.542C208.273 63.1033 208.352 62.6693 208.511 62.24C208.679 61.8107 208.921 61.4233 209.239 61.078C209.556 60.7327 209.934 60.462 210.373 60.266C210.821 60.07 211.315 59.9907 211.857 60.028C212.407 60.0653 212.855 60.1727 213.201 60.35C213.555 60.518 213.831 60.7327 214.027 60.994C214.223 61.246 214.358 61.5167 214.433 61.806C214.517 62.086 214.563 62.352 214.573 62.604C214.573 63.0613 214.451 63.4533 214.209 63.78C213.966 64.1067 213.583 64.3307 213.061 64.452C212.911 64.4893 212.729 64.5127 212.515 64.522C212.3 64.5313 212.067 64.536 211.815 64.536C211.572 64.536 211.329 64.5313 211.087 64.522C210.853 64.5127 210.639 64.5033 210.443 64.494C210.256 64.4847 210.102 64.4753 209.981 64.466C209.859 64.4567 209.799 64.452 209.799 64.452C209.827 64.676 209.901 64.8953 210.023 65.11C210.153 65.3247 210.34 65.5067 210.583 65.656C210.835 65.796 211.147 65.8753 211.521 65.894C211.875 65.9033 212.193 65.8987 212.473 65.88C212.762 65.852 213.009 65.824 213.215 65.796C213.42 65.768 213.574 65.74 213.677 65.712C213.789 65.684 213.845 65.67 213.845 65.67C213.845 65.67 213.868 65.67 213.915 65.67C213.971 65.67 214.041 65.6747 214.125 65.684C214.209 65.6933 214.293 65.7213 214.377 65.768C214.461 65.8147 214.531 65.894 214.587 66.006C214.652 66.1087 214.68 66.202 214.671 66.286C214.661 66.37 214.633 66.44 214.587 66.496C214.549 66.552 214.512 66.594 214.475 66.622C214.437 66.65 214.419 66.664 214.419 66.664C214.419 66.664 214.321 66.7013 214.125 66.776C213.929 66.8507 213.667 66.9253 213.341 67C213.023 67.084 212.673 67.1447 212.291 67.182C211.917 67.2193 211.544 67.2053 211.171 67.14ZM209.813 63.444L212.291 63.416C212.291 63.416 212.319 63.4113 212.375 63.402C212.44 63.3927 212.519 63.374 212.613 63.346C212.706 63.318 212.795 63.2713 212.879 63.206C212.972 63.1407 213.047 63.052 213.103 62.94C213.159 62.828 213.187 62.6833 213.187 62.506C213.187 62.2167 213.135 61.974 213.033 61.778C212.93 61.582 212.762 61.442 212.529 61.358C212.295 61.2647 211.969 61.232 211.549 61.26C211.259 61.2787 211.003 61.372 210.779 61.54C210.555 61.6987 210.363 61.8947 210.205 62.128C210.055 62.3613 209.948 62.5993 209.883 62.842C209.817 63.0753 209.794 63.276 209.813 63.444ZM221.384 66.762C221.197 66.7153 221.057 66.6407 220.964 66.538C220.87 66.4353 220.805 66.328 220.768 66.216C220.74 66.104 220.721 66.0107 220.712 65.936C220.712 65.852 220.712 65.81 220.712 65.81C220.805 65.082 220.842 64.4147 220.824 63.808C220.805 63.192 220.693 62.7113 220.488 62.366C220.32 62.0487 220.114 61.8247 219.872 61.694C219.629 61.554 219.372 61.498 219.102 61.526C218.84 61.554 218.579 61.6567 218.318 61.834C218.028 62.0393 217.804 62.2913 217.646 62.59C217.496 62.8793 217.394 63.1827 217.338 63.5C217.282 63.808 217.249 64.1067 217.24 64.396C217.24 64.676 217.24 64.9233 217.24 65.138C217.24 65.3433 217.244 65.5253 217.254 65.684C217.263 65.8427 217.268 65.9827 217.268 66.104C217.268 66.104 217.268 66.1273 217.268 66.174C217.268 66.2207 217.254 66.2767 217.226 66.342C217.198 66.4073 217.146 66.468 217.072 66.524C216.997 66.58 216.885 66.6127 216.736 66.622C216.605 66.6313 216.488 66.6033 216.386 66.538C216.283 66.4727 216.199 66.4073 216.134 66.342C216.078 66.2673 216.05 66.23 216.05 66.23C215.956 66.0713 215.905 65.9173 215.896 65.768C215.886 65.6187 215.886 65.446 215.896 65.25C215.905 65.054 215.891 64.816 215.854 64.536C215.826 64.1907 215.812 63.878 215.812 63.598C215.821 63.318 215.844 63.0613 215.882 62.828C215.919 62.5947 215.98 62.3707 216.064 62.156C216.148 61.9413 216.264 61.7267 216.414 61.512C216.6 61.2693 216.834 61.0453 217.114 60.84C217.394 60.6253 217.702 60.4527 218.038 60.322C218.374 60.1913 218.719 60.1167 219.074 60.098C219.438 60.07 219.792 60.112 220.138 60.224C220.362 60.3173 220.586 60.4387 220.81 60.588C221.043 60.7373 221.258 60.924 221.454 61.148C221.659 61.372 221.841 61.6427 222 61.96C222.158 62.2773 222.289 62.646 222.392 63.066C222.485 63.5513 222.527 64.0413 222.518 64.536C222.508 65.0307 222.457 65.5813 222.364 66.188C222.364 66.188 222.354 66.2253 222.336 66.3C222.317 66.3747 222.275 66.4587 222.21 66.552C222.154 66.6453 222.06 66.72 221.93 66.776C221.799 66.8227 221.617 66.818 221.384 66.762ZM216.68 66.986C216.521 66.9767 216.386 66.944 216.274 66.888C216.171 66.8227 216.087 66.748 216.022 66.664C215.956 66.58 215.91 66.51 215.882 66.454C215.863 66.398 215.854 66.37 215.854 66.37C215.798 65.866 215.756 65.3853 215.728 64.928C215.709 64.4707 215.7 64.018 215.7 63.57C215.7 63.1127 215.709 62.6413 215.728 62.156C215.756 61.6707 215.793 61.148 215.84 60.588C215.84 60.588 215.844 60.56 215.854 60.504C215.872 60.4387 215.905 60.3687 215.952 60.294C215.998 60.2193 216.073 60.154 216.176 60.098C216.288 60.042 216.432 60.014 216.61 60.014C216.806 60.0233 216.955 60.0653 217.058 60.14C217.17 60.2147 217.254 60.3033 217.31 60.406C217.366 60.5087 217.398 60.5973 217.408 60.672C217.426 60.7467 217.436 60.784 217.436 60.784C217.408 61.2413 217.384 61.6893 217.366 62.128C217.347 62.5573 217.338 62.996 217.338 63.444C217.338 63.8827 217.342 64.3447 217.352 64.83C217.37 65.306 217.398 65.8193 217.436 66.37C217.436 66.37 217.426 66.4027 217.408 66.468C217.398 66.5333 217.37 66.608 217.324 66.692C217.277 66.776 217.202 66.8507 217.1 66.916C216.997 66.972 216.857 66.9953 216.68 66.986ZM225.379 67C225.202 67 225.053 66.9673 224.931 66.902C224.819 66.8273 224.731 66.7433 224.665 66.65C224.6 66.5567 224.553 66.4727 224.525 66.398C224.497 66.3233 224.483 66.286 224.483 66.286C224.446 65.8847 224.413 65.432 224.385 64.928C224.367 64.4147 224.353 63.878 224.343 63.318C224.334 62.7487 224.334 62.1793 224.343 61.61C224.362 61.0313 224.385 60.476 224.413 59.944C224.441 59.4027 224.474 58.9033 224.511 58.446C224.511 58.446 224.516 58.418 224.525 58.362C224.544 58.2967 224.581 58.2267 224.637 58.152C224.693 58.0773 224.773 58.0167 224.875 57.97C224.978 57.914 225.118 57.8907 225.295 57.9C225.482 57.9187 225.627 57.97 225.729 58.054C225.841 58.1287 225.921 58.2173 225.967 58.32C226.023 58.4133 226.061 58.4973 226.079 58.572C226.098 58.6373 226.107 58.67 226.107 58.67C226.079 59.034 226.056 59.4633 226.037 59.958C226.028 60.4433 226.019 60.966 226.009 61.526C226 62.0767 225.995 62.6367 225.995 63.206C225.995 63.7753 226 64.3307 226.009 64.872C226.028 65.4133 226.051 65.9127 226.079 66.37C226.079 66.37 226.07 66.4027 226.051 66.468C226.042 66.5333 226.014 66.608 225.967 66.692C225.93 66.776 225.865 66.8507 225.771 66.916C225.678 66.972 225.547 67 225.379 67ZM227.311 61.596C226.574 61.5867 225.874 61.5773 225.211 61.568C224.558 61.5493 223.975 61.5353 223.461 61.526C223.461 61.526 223.419 61.5213 223.335 61.512C223.251 61.4933 223.153 61.4653 223.041 61.428C222.939 61.3813 222.841 61.316 222.747 61.232C222.663 61.148 222.617 61.0313 222.607 60.882C222.589 60.7513 222.603 60.6487 222.649 60.574C222.705 60.49 222.771 60.4293 222.845 60.392C222.92 60.3453 222.985 60.3173 223.041 60.308C223.097 60.2893 223.125 60.28 223.125 60.28C223.2 60.2613 223.335 60.252 223.531 60.252C223.737 60.2427 223.984 60.2333 224.273 60.224C224.563 60.2147 224.875 60.21 225.211 60.21C225.547 60.2007 225.883 60.196 226.219 60.196C226.555 60.196 226.873 60.196 227.171 60.196C227.171 60.196 227.199 60.2007 227.255 60.21C227.321 60.2193 227.395 60.238 227.479 60.266C227.573 60.2847 227.661 60.322 227.745 60.378C227.839 60.434 227.913 60.5087 227.969 60.602C228.025 60.6953 228.053 60.812 228.053 60.952C228.044 61.12 228.002 61.2507 227.927 61.344C227.853 61.4373 227.769 61.5027 227.675 61.54C227.582 61.568 227.498 61.5867 227.423 61.596C227.349 61.596 227.311 61.596 227.311 61.596ZM230.247 67.028C230.07 67.028 229.911 66.9907 229.771 66.916C229.631 66.8413 229.519 66.7433 229.435 66.622C229.351 66.5007 229.309 66.3653 229.309 66.216C229.309 66.0667 229.351 65.9313 229.435 65.81C229.519 65.6887 229.631 65.5953 229.771 65.53C229.911 65.4553 230.065 65.418 230.233 65.418C230.42 65.418 230.583 65.4553 230.723 65.53C230.863 65.5953 230.975 65.6887 231.059 65.81C231.143 65.9313 231.185 66.0667 231.185 66.216C231.185 66.5053 231.092 66.7153 230.905 66.846C230.728 66.9673 230.509 67.028 230.247 67.028Z" fill="#494949"/>
<line x1="5" y1="42" x2="293" y2="42" stroke="#433DC3" stroke-width="2"/>
<line x1="5" y1="81" x2="293" y2="81" stroke="#433DC3" stroke-width="2"/>
<path d="M268.644 26.6271C267.849 27.7751 266.151 27.7751 265.356 26.6271L261.381 20.889C260.462 19.5626 261.411 17.75 263.025 17.75L270.975 17.75C272.589 17.75 273.538 19.5626 272.619 20.889L268.644 26.6271Z" fill="#433DC3"/>
<path d="M4 85H288V118C288 121.314 285.314 124 282 124H10C6.68629 124 4 121.314 4 118V85Z" fill="#FFE266"/>
<path d="M36.202 107.928C35.602 107.964 35.056 107.952 34.564 107.892C34.084 107.82 33.676 107.73 33.34 107.622C33.004 107.514 32.746 107.418 32.566 107.334C32.386 107.238 32.296 107.19 32.296 107.19C32.296 107.19 32.272 107.178 32.224 107.154C32.176 107.118 32.116 107.07 32.044 107.01C31.984 106.95 31.924 106.878 31.864 106.794C31.816 106.71 31.786 106.614 31.774 106.506C31.774 106.398 31.804 106.29 31.864 106.182C31.936 106.05 32.02 105.96 32.116 105.912C32.212 105.852 32.308 105.822 32.404 105.822C32.5 105.81 32.578 105.816 32.638 105.84C32.71 105.852 32.746 105.858 32.746 105.858C33.214 106.05 33.7 106.188 34.204 106.272C34.708 106.356 35.182 106.386 35.626 106.362C36.07 106.326 36.442 106.224 36.742 106.056C37.054 105.888 37.246 105.642 37.318 105.318C37.378 105.018 37.336 104.754 37.192 104.526C37.06 104.286 36.856 104.07 36.58 103.878C36.304 103.686 35.986 103.512 35.626 103.356C35.278 103.188 34.93 103.032 34.582 102.888C34.354 102.792 34.108 102.66 33.844 102.492C33.58 102.324 33.328 102.12 33.088 101.88C32.86 101.64 32.662 101.376 32.494 101.088C32.326 100.788 32.218 100.47 32.17 100.134C32.122 99.786 32.152 99.42 32.26 99.036C32.38 98.652 32.614 98.256 32.962 97.848C33.31 97.428 33.676 97.11 34.06 96.894C34.456 96.666 34.852 96.504 35.248 96.408C35.644 96.312 36.016 96.264 36.364 96.264C36.724 96.264 37.042 96.288 37.318 96.336C37.606 96.384 37.828 96.432 37.984 96.48C38.152 96.528 38.236 96.552 38.236 96.552C38.236 96.552 38.266 96.564 38.326 96.588C38.398 96.612 38.482 96.654 38.578 96.714C38.674 96.774 38.77 96.846 38.866 96.93C38.962 97.002 39.034 97.098 39.082 97.218C39.13 97.326 39.142 97.452 39.118 97.596C39.082 97.752 39.01 97.872 38.902 97.956C38.806 98.028 38.698 98.07 38.578 98.082C38.47 98.094 38.374 98.1 38.29 98.1C38.206 98.088 38.164 98.082 38.164 98.082C37.564 97.902 37 97.86 36.472 97.956C35.944 98.04 35.482 98.214 35.086 98.478C34.702 98.742 34.408 99.048 34.204 99.396C34.012 99.732 33.964 100.056 34.06 100.368C34.132 100.632 34.3 100.866 34.564 101.07C34.84 101.262 35.164 101.448 35.536 101.628C35.92 101.796 36.316 101.976 36.724 102.168C37.132 102.348 37.51 102.558 37.858 102.798C38.206 103.026 38.482 103.302 38.686 103.626C38.962 104.07 39.124 104.496 39.172 104.904C39.22 105.312 39.178 105.696 39.046 106.056C38.914 106.404 38.71 106.71 38.434 106.974C38.158 107.238 37.828 107.454 37.444 107.622C37.06 107.79 36.646 107.892 36.202 107.928ZM44.2753 108.18C43.4833 108.048 42.8413 107.826 42.3493 107.514C41.8693 107.19 41.4973 106.818 41.2333 106.398C40.9813 105.966 40.8073 105.504 40.7113 105.012C40.6273 104.52 40.5853 104.034 40.5853 103.554C40.5733 103.014 40.6693 102.474 40.8733 101.934C41.0893 101.382 41.3953 100.878 41.7913 100.422C42.1993 99.966 42.6853 99.612 43.2493 99.36C43.8253 99.108 44.4613 99.006 45.1573 99.054C45.8653 99.102 46.4413 99.24 46.8853 99.468C47.3293 99.684 47.6713 99.954 47.9113 100.278C48.1633 100.602 48.3313 100.944 48.4153 101.304C48.5113 101.664 48.5653 102.006 48.5773 102.33C48.5653 102.93 48.4033 103.434 48.0913 103.842C47.7913 104.238 47.3173 104.508 46.6693 104.652C46.4773 104.688 46.2313 104.718 45.9313 104.742C45.6433 104.754 45.3313 104.76 44.9953 104.76C44.6713 104.76 44.3473 104.754 44.0233 104.742C43.7113 104.73 43.4173 104.718 43.1413 104.706C42.8773 104.694 42.6613 104.688 42.4933 104.688C42.3373 104.676 42.2593 104.67 42.2593 104.67C42.2953 105.006 42.4033 105.336 42.5833 105.66C42.7633 105.972 43.0213 106.23 43.3573 106.434C43.7053 106.638 44.1373 106.758 44.6533 106.794C45.0973 106.806 45.5113 106.8 45.8953 106.776C46.2793 106.752 46.6153 106.716 46.9033 106.668C47.2033 106.62 47.4313 106.578 47.5873 106.542C47.7433 106.506 47.8213 106.488 47.8213 106.488C47.8213 106.488 47.8513 106.488 47.9113 106.488C47.9833 106.476 48.0613 106.476 48.1453 106.488C48.2413 106.5 48.3373 106.536 48.4333 106.596C48.5293 106.644 48.6073 106.734 48.6673 106.866C48.7393 106.986 48.7633 107.094 48.7393 107.19C48.7273 107.274 48.6973 107.352 48.6493 107.424C48.6013 107.484 48.5533 107.532 48.5053 107.568C48.4693 107.592 48.4513 107.604 48.4513 107.604C48.4513 107.604 48.3253 107.646 48.0733 107.73C47.8213 107.814 47.4853 107.904 47.0653 108C46.6573 108.108 46.2073 108.186 45.7153 108.234C45.2233 108.282 44.7433 108.264 44.2753 108.18ZM42.2593 103.554L45.7873 103.518C45.7873 103.518 45.8293 103.512 45.9133 103.5C45.9973 103.476 46.0993 103.446 46.2193 103.41C46.3513 103.374 46.4773 103.308 46.5973 103.212C46.7293 103.116 46.8373 102.99 46.9213 102.834C47.0053 102.666 47.0473 102.456 47.0473 102.204C47.0473 101.784 46.9753 101.436 46.8313 101.16C46.6873 100.884 46.4473 100.686 46.1113 100.566C45.7753 100.434 45.3073 100.386 44.7073 100.422C44.2873 100.446 43.9153 100.578 43.5913 100.818C43.2793 101.046 43.0153 101.328 42.7993 101.664C42.5953 102 42.4453 102.342 42.3493 102.69C42.2533 103.026 42.2233 103.314 42.2593 103.554ZM51.16 105.948C51.004 105.96 50.878 105.924 50.782 105.84C50.698 105.756 50.632 105.66 50.584 105.552C50.548 105.432 50.518 105.324 50.494 105.228C50.482 105.132 50.476 105.084 50.476 105.084C50.44 104.88 50.41 104.724 50.386 104.616C50.362 104.496 50.35 104.388 50.35 104.292C50.35 104.184 50.35 104.052 50.35 103.896C50.362 103.74 50.374 103.524 50.386 103.248C50.434 102.54 50.572 101.916 50.8 101.376C51.04 100.836 51.37 100.386 51.79 100.026C52.21 99.666 52.708 99.402 53.284 99.234C53.788 99.114 54.256 99.072 54.688 99.108C55.12 99.144 55.51 99.24 55.858 99.396C56.218 99.54 56.536 99.732 56.812 99.972C56.812 99.972 56.836 99.996 56.884 100.044C56.932 100.092 56.98 100.158 57.028 100.242C57.088 100.326 57.13 100.422 57.154 100.53C57.19 100.626 57.19 100.728 57.154 100.836C57.13 100.944 57.058 101.052 56.938 101.16C56.806 101.268 56.662 101.322 56.506 101.322C56.35 101.31 56.2 101.274 56.056 101.214C55.912 101.154 55.792 101.1 55.696 101.052C55.612 100.992 55.57 100.962 55.57 100.962C55.294 100.77 54.982 100.674 54.634 100.674C54.298 100.662 53.956 100.74 53.608 100.908C53.116 101.124 52.732 101.436 52.456 101.844C52.192 102.24 52.024 102.714 51.952 103.266C51.928 103.566 51.904 103.812 51.88 104.004C51.868 104.184 51.856 104.34 51.844 104.472C51.844 104.592 51.844 104.718 51.844 104.85C51.844 104.982 51.85 105.156 51.862 105.372C51.862 105.372 51.85 105.414 51.826 105.498C51.802 105.582 51.736 105.672 51.628 105.768C51.532 105.852 51.376 105.912 51.16 105.948ZM51.232 107.982C51.064 107.97 50.92 107.934 50.8 107.874C50.692 107.802 50.602 107.724 50.53 107.64C50.458 107.544 50.404 107.466 50.368 107.406C50.344 107.346 50.332 107.316 50.332 107.316C50.26 106.668 50.206 106.038 50.17 105.426C50.146 104.814 50.134 104.208 50.134 103.608C50.134 102.996 50.152 102.366 50.188 101.718C50.224 101.07 50.272 100.386 50.332 99.666C50.332 99.666 50.338 99.636 50.35 99.576C50.362 99.504 50.392 99.426 50.44 99.342C50.5 99.258 50.584 99.186 50.692 99.126C50.812 99.054 50.974 99.024 51.178 99.036C51.382 99.036 51.544 99.078 51.664 99.162C51.784 99.246 51.868 99.348 51.916 99.468C51.976 99.576 52.012 99.672 52.024 99.756C52.048 99.84 52.06 99.882 52.06 99.882C52.024 100.482 51.994 101.07 51.97 101.646C51.946 102.222 51.934 102.81 51.934 103.41C51.934 104.01 51.94 104.634 51.952 105.282C51.976 105.918 52.012 106.59 52.06 107.298C52.06 107.298 52.054 107.334 52.042 107.406C52.03 107.478 51.994 107.562 51.934 107.658C51.886 107.742 51.808 107.82 51.7 107.892C51.592 107.964 51.436 107.994 51.232 107.982ZM61.7011 107.982C61.5331 107.97 61.3531 107.934 61.1611 107.874C60.9811 107.814 60.8011 107.718 60.6211 107.586C60.4411 107.442 60.2731 107.262 60.1171 107.046C59.9611 106.83 59.8291 106.566 59.7211 106.254L58.1191 100.26C58.1191 100.26 58.1131 100.224 58.1011 100.152C58.1011 100.068 58.1131 99.972 58.1371 99.864C58.1611 99.756 58.2151 99.66 58.2991 99.576C58.3951 99.48 58.5391 99.42 58.7311 99.396C58.9231 99.36 59.0851 99.372 59.2171 99.432C59.3611 99.48 59.4751 99.546 59.5591 99.63C59.6551 99.714 59.7271 99.792 59.7751 99.864C59.8231 99.924 59.8471 99.954 59.8471 99.954L60.8011 103.536C60.9691 104.196 61.1251 104.748 61.2691 105.192C61.4131 105.624 61.5451 105.906 61.6651 106.038C61.7971 106.026 61.9771 105.84 62.2051 105.48C62.4331 105.108 62.6911 104.562 62.9791 103.842C63.1591 103.338 63.3091 102.864 63.4291 102.42C63.5611 101.964 63.6631 101.538 63.7351 101.142C63.8191 100.746 63.8791 100.368 63.9151 100.008C63.9151 100.008 63.9211 99.972 63.9331 99.9C63.9571 99.816 63.9991 99.726 64.0591 99.63C64.1191 99.534 64.2091 99.456 64.3291 99.396C64.4611 99.324 64.6411 99.3 64.8691 99.324C65.0971 99.348 65.2651 99.414 65.3731 99.522C65.4931 99.618 65.5771 99.726 65.6251 99.846C65.6731 99.966 65.6971 100.074 65.6971 100.17C65.6971 100.254 65.6971 100.296 65.6971 100.296C65.6851 100.668 65.6431 101.046 65.5711 101.43C65.5111 101.814 65.4331 102.192 65.3371 102.564C65.2411 102.936 65.1391 103.296 65.0311 103.644C64.9231 103.98 64.8091 104.292 64.6891 104.58C64.3771 105.42 64.0471 106.098 63.6991 106.614C63.3631 107.118 63.0211 107.484 62.6731 107.712C62.3371 107.928 62.0131 108.018 61.7011 107.982ZM68.1154 107.982C67.9474 107.97 67.8034 107.934 67.6834 107.874C67.5754 107.802 67.4854 107.724 67.4134 107.64C67.3414 107.544 67.2874 107.466 67.2514 107.406C67.2274 107.346 67.2154 107.316 67.2154 107.316C67.1434 106.668 67.0894 106.038 67.0534 105.426C67.0294 104.814 67.0174 104.208 67.0174 103.608C67.0174 102.996 67.0354 102.366 67.0714 101.718C67.1074 101.07 67.1554 100.386 67.2154 99.666C67.2154 99.666 67.2214 99.636 67.2334 99.576C67.2454 99.504 67.2754 99.426 67.3234 99.342C67.3834 99.258 67.4674 99.186 67.5754 99.126C67.6954 99.054 67.8574 99.024 68.0614 99.036C68.2654 99.036 68.4274 99.078 68.5474 99.162C68.6674 99.246 68.7514 99.348 68.7994 99.468C68.8594 99.576 68.8954 99.672 68.9074 99.756C68.9314 99.84 68.9434 99.882 68.9434 99.882C68.9074 100.482 68.8774 101.07 68.8534 101.646C68.8294 102.222 68.8174 102.81 68.8174 103.41C68.8174 104.01 68.8234 104.634 68.8354 105.282C68.8594 105.918 68.8954 106.59 68.9434 107.298C68.9434 107.298 68.9374 107.334 68.9254 107.406C68.9134 107.478 68.8774 107.562 68.8174 107.658C68.7694 107.742 68.6914 107.82 68.5834 107.892C68.4754 107.964 68.3194 107.994 68.1154 107.982ZM68.1334 98.19C67.8094 98.19 67.5574 98.094 67.3774 97.902C67.2094 97.71 67.1254 97.476 67.1254 97.2C67.1254 96.852 67.2094 96.6 67.3774 96.444C67.5574 96.276 67.8094 96.192 68.1334 96.192C68.4574 96.192 68.7034 96.294 68.8714 96.498C69.0394 96.69 69.1234 96.924 69.1234 97.2C69.1234 97.38 69.0934 97.548 69.0334 97.704C68.9854 97.848 68.8894 97.962 68.7454 98.046C68.6014 98.13 68.3974 98.178 68.1334 98.19ZM74.7501 108.162C73.7661 108.102 72.9741 107.892 72.3741 107.532C71.7741 107.16 71.3301 106.668 71.0421 106.056C70.7541 105.432 70.5801 104.73 70.5201 103.95C70.4721 103.326 70.5381 102.726 70.7181 102.15C70.9101 101.562 71.1981 101.04 71.5821 100.584C71.9781 100.116 72.4581 99.75 73.0221 99.486C73.5861 99.21 74.2281 99.078 74.9481 99.09C75.5481 99.09 76.0521 99.168 76.4601 99.324C76.8801 99.468 77.2281 99.654 77.5041 99.882C77.7801 100.098 77.9901 100.314 78.1341 100.53C78.2901 100.746 78.3981 100.932 78.4581 101.088C78.5181 101.232 78.5481 101.304 78.5481 101.304C78.5481 101.304 78.5481 101.34 78.5481 101.412C78.5481 101.484 78.5241 101.574 78.4761 101.682C78.4401 101.778 78.3501 101.868 78.2061 101.952C78.0741 102.036 77.9301 102.084 77.7741 102.096C77.6181 102.108 77.4741 102.096 77.3421 102.06C77.2101 102.024 77.1141 101.976 77.0541 101.916C77.0541 101.916 77.0181 101.862 76.9461 101.754C76.8861 101.646 76.7841 101.526 76.6401 101.394C76.5081 101.262 76.3221 101.142 76.0821 101.034C75.8541 100.926 75.5721 100.872 75.2361 100.872C74.8521 100.884 74.4861 100.944 74.1381 101.052C73.7901 101.16 73.4841 101.334 73.2201 101.574C72.9561 101.802 72.7521 102.096 72.6081 102.456C72.4641 102.816 72.4101 103.248 72.4461 103.752C72.4581 104.364 72.5661 104.856 72.7701 105.228C72.9741 105.588 73.2501 105.858 73.5981 106.038C73.9581 106.206 74.3721 106.314 74.8401 106.362C75.2001 106.386 75.5361 106.362 75.8481 106.29C76.1601 106.218 76.4361 106.122 76.6761 106.002C76.9161 105.882 77.1021 105.78 77.2341 105.696C77.3781 105.6 77.4621 105.546 77.4861 105.534C77.6421 105.486 77.7921 105.468 77.9361 105.48C78.0801 105.492 78.2121 105.534 78.3321 105.606C78.4641 105.666 78.5781 105.756 78.6741 105.876C78.7821 106.008 78.8361 106.134 78.8361 106.254C78.8481 106.374 78.8421 106.476 78.8181 106.56C78.7941 106.632 78.7821 106.668 78.7821 106.668C78.7821 106.668 78.7101 106.752 78.5661 106.92C78.4221 107.076 78.1881 107.262 77.8641 107.478C77.5521 107.682 77.1381 107.856 76.6221 108C76.1181 108.144 75.4941 108.198 74.7501 108.162ZM83.478 108.18C82.686 108.048 82.044 107.826 81.552 107.514C81.072 107.19 80.7 106.818 80.436 106.398C80.184 105.966 80.01 105.504 79.914 105.012C79.83 104.52 79.788 104.034 79.788 103.554C79.776 103.014 79.872 102.474 80.076 101.934C80.292 101.382 80.598 100.878 80.994 100.422C81.402 99.966 81.888 99.612 82.452 99.36C83.028 99.108 83.664 99.006 84.36 99.054C85.068 99.102 85.644 99.24 86.088 99.468C86.532 99.684 86.874 99.954 87.114 100.278C87.366 100.602 87.534 100.944 87.618 101.304C87.714 101.664 87.768 102.006 87.78 102.33C87.768 102.93 87.606 103.434 87.294 103.842C86.994 104.238 86.52 104.508 85.872 104.652C85.68 104.688 85.434 104.718 85.134 104.742C84.846 104.754 84.534 104.76 84.198 104.76C83.874 104.76 83.55 104.754 83.226 104.742C82.914 104.73 82.62 104.718 82.344 104.706C82.08 104.694 81.864 104.688 81.696 104.688C81.54 104.676 81.462 104.67 81.462 104.67C81.498 105.006 81.606 105.336 81.786 105.66C81.966 105.972 82.224 106.23 82.56 106.434C82.908 106.638 83.34 106.758 83.856 106.794C84.3 106.806 84.714 106.8 85.098 106.776C85.482 106.752 85.818 106.716 86.106 106.668C86.406 106.62 86.634 106.578 86.79 106.542C86.946 106.506 87.024 106.488 87.024 106.488C87.024 106.488 87.054 106.488 87.114 106.488C87.186 106.476 87.264 106.476 87.348 106.488C87.444 106.5 87.54 106.536 87.636 106.596C87.732 106.644 87.81 106.734 87.87 106.866C87.942 106.986 87.966 107.094 87.942 107.19C87.93 107.274 87.9 107.352 87.852 107.424C87.804 107.484 87.756 107.532 87.708 107.568C87.672 107.592 87.654 107.604 87.654 107.604C87.654 107.604 87.528 107.646 87.276 107.73C87.024 107.814 86.688 107.904 86.268 108C85.86 108.108 85.41 108.186 84.918 108.234C84.426 108.282 83.946 108.264 83.478 108.18ZM81.462 103.554L84.99 103.518C84.99 103.518 85.032 103.512 85.116 103.5C85.2 103.476 85.302 103.446 85.422 103.41C85.554 103.374 85.68 103.308 85.8 103.212C85.932 103.116 86.04 102.99 86.124 102.834C86.208 102.666 86.25 102.456 86.25 102.204C86.25 101.784 86.178 101.436 86.034 101.16C85.89 100.884 85.65 100.686 85.314 100.566C84.978 100.434 84.51 100.386 83.91 100.422C83.49 100.446 83.118 100.578 82.794 100.818C82.482 101.046 82.218 101.328 82.002 101.664C81.798 102 81.648 102.342 81.552 102.69C81.456 103.026 81.426 103.314 81.462 103.554Z" fill="#433DC3"/>
<path d="M268.644 105.627C267.849 106.775 266.151 106.775 265.356 105.627L261.381 99.889C260.462 98.5626 261.411 96.75 263.025 96.75L270.975 96.75C272.589 96.75 273.538 98.5626 272.619 99.889L268.644 105.627Z" fill="#433DC3"/>
<rect x="6" y="1" width="286" height="121" rx="7" stroke="#433DC3" stroke-width="2"/>
</svg>
