<svg width="135" height="51" viewBox="0 0 135 51" fill="none" xmlns="http://www.w3.org/2000/svg">
<rect y="3.97403" width="130.982" height="47.026" rx="8" fill="#FFE266"/>
<rect x="4.67908" y="1" width="129.321" height="44.92" rx="7" fill="#FFFCF2" stroke="#433DC3" stroke-width="2"/>
<path d="M39.513 30.76C38.793 30.8533 38.0864 30.9267 37.393 30.98C36.713 31.0333 36.0864 31.04 35.513 31C34.953 30.9733 34.4864 30.8933 34.113 30.76C33.7397 30.6133 33.513 30.3933 33.433 30.1C33.3797 29.5267 33.333 28.8733 33.293 28.14C33.2664 27.3933 33.2464 26.6133 33.233 25.8C33.233 24.9867 33.2397 24.1667 33.253 23.34C33.2664 22.5 33.293 21.6933 33.333 20.92C33.373 20.1467 33.4197 19.44 33.473 18.8C33.4864 18.68 33.5264 18.56 33.593 18.44C33.6597 18.32 33.7664 18.22 33.913 18.14C34.0597 18.06 34.2597 18.02 34.513 18.02L38.893 18.04C39.4797 18.12 40.0197 18.28 40.513 18.52C41.0064 18.7467 41.433 19.04 41.793 19.4C42.153 19.76 42.4197 20.1667 42.593 20.62C42.7264 21.0067 42.7797 21.3867 42.753 21.76C42.7264 22.12 42.6264 22.46 42.453 22.78C42.2797 23.0867 42.0397 23.3667 41.733 23.62C41.4397 23.8733 41.093 24.0867 40.693 24.26C41.1064 24.4467 41.4664 24.7067 41.773 25.04C42.0797 25.36 42.3264 25.72 42.513 26.12C42.6997 26.5067 42.8064 26.9133 42.833 27.34C42.8197 27.8867 42.693 28.3867 42.453 28.84C42.213 29.28 41.853 29.66 41.373 29.98C40.893 30.3 40.273 30.56 39.513 30.76ZM35.353 29.26C35.993 29.26 36.5997 29.2533 37.173 29.24C37.7597 29.2133 38.2864 29.1533 38.753 29.06C39.2197 28.9533 39.6064 28.8 39.913 28.6C40.6597 28.04 40.913 27.4067 40.673 26.7C40.553 26.3267 40.3597 26.0333 40.093 25.82C39.8264 25.6067 39.5197 25.4467 39.173 25.34C38.8397 25.2333 38.4864 25.1667 38.113 25.14L35.253 25.18C35.2397 25.86 35.2397 26.54 35.253 27.22C35.2797 27.9 35.313 28.58 35.353 29.26ZM35.293 23.16C35.9464 23.2 36.5864 23.2067 37.213 23.18C37.853 23.14 38.493 23.06 39.133 22.94C39.5864 22.78 39.9464 22.5733 40.213 22.32C40.493 22.0667 40.6397 21.74 40.653 21.34C40.613 20.9 40.4264 20.5333 40.093 20.24C39.7597 19.9467 39.253 19.74 38.573 19.62C38.3864 19.5933 38.1264 19.5733 37.793 19.56C37.4597 19.5467 37.0864 19.54 36.673 19.54C36.273 19.5267 35.8597 19.52 35.433 19.52L35.293 23.16ZM50.1816 31.06C49.035 30.98 48.0683 30.66 47.2816 30.1C46.495 29.5267 45.8883 28.7067 45.4616 27.64C45.035 26.5733 44.795 25.2533 44.7416 23.68V18.68C44.7416 18.68 44.7483 18.6467 44.7616 18.58C44.7883 18.5133 44.8216 18.44 44.8616 18.36C44.915 18.2667 45.0016 18.1867 45.1216 18.12C45.2416 18.0533 45.4016 18.02 45.6016 18.02C45.8683 18.02 46.075 18.0667 46.2216 18.16C46.3816 18.24 46.5016 18.34 46.5816 18.46C46.6616 18.58 46.715 18.6867 46.7416 18.78C46.7683 18.86 46.7816 18.9 46.7816 18.9L46.8616 23.58C46.8483 24.7133 46.955 25.6933 47.1816 26.52C47.4083 27.3333 47.7616 27.9667 48.2416 28.42C48.735 28.8733 49.355 29.1467 50.1016 29.24C50.7283 29.1467 51.2616 28.9 51.7016 28.5C52.155 28.0867 52.495 27.4533 52.7216 26.6C52.9616 25.7467 53.075 24.62 53.0616 23.22L53.0016 18.96C53.0016 18.96 53.0016 18.92 53.0016 18.84C53.0016 18.76 53.0216 18.6733 53.0616 18.58C53.115 18.4867 53.2016 18.4 53.3216 18.32C53.4416 18.24 53.615 18.2 53.8416 18.2C54.0683 18.2 54.255 18.24 54.4016 18.32C54.5616 18.3867 54.6816 18.48 54.7616 18.6C54.855 18.7067 54.9216 18.82 54.9616 18.94C55.015 19.0467 55.0483 19.14 55.0616 19.22C55.075 19.3 55.0816 19.34 55.0816 19.34L55.1816 23.44C55.2083 24.4667 55.1483 25.4333 55.0016 26.34C54.855 27.2333 54.595 28.0333 54.2216 28.74C53.8616 29.4333 53.3483 29.9867 52.6816 30.4C52.0283 30.8 51.195 31.02 50.1816 31.06ZM61.539 31C61.3257 31 61.1523 30.96 61.019 30.88C60.8857 30.7867 60.779 30.6867 60.699 30.58C60.6323 30.46 60.5857 30.36 60.559 30.28C60.5323 30.1867 60.519 30.14 60.519 30.14C60.439 29.42 60.379 28.6 60.339 27.68C60.3123 26.7467 60.299 25.78 60.299 24.78C60.3123 23.78 60.339 22.8 60.379 21.84C60.419 20.8667 60.4723 19.9733 60.539 19.16C60.539 19.16 60.5457 19.1267 60.559 19.06C60.5723 18.98 60.6057 18.8933 60.659 18.8C60.7123 18.7067 60.799 18.62 60.919 18.54C61.0523 18.46 61.2323 18.42 61.459 18.42C61.7257 18.4333 61.9257 18.4867 62.059 18.58C62.2057 18.6733 62.3057 18.7867 62.359 18.92C62.4257 19.04 62.459 19.1467 62.459 19.24C62.4723 19.3333 62.479 19.38 62.479 19.38C62.4257 19.9133 62.3857 20.5333 62.359 21.24C62.3457 21.9333 62.3323 22.6733 62.319 23.46C62.319 24.2333 62.319 25.02 62.319 25.82C62.3323 26.6067 62.3523 27.38 62.379 28.14C62.4057 28.9 62.4323 29.6 62.459 30.24C62.459 30.24 62.4523 30.28 62.439 30.36C62.439 30.44 62.4057 30.5333 62.339 30.64C62.2857 30.7333 62.1923 30.82 62.059 30.9C61.939 30.9667 61.7657 31 61.539 31ZM65.199 19.98C64.6523 19.9 64.0723 19.8467 63.459 19.82C62.859 19.78 62.239 19.7533 61.599 19.74C60.9723 19.7267 60.3457 19.7333 59.719 19.76C59.1057 19.7733 58.5123 19.8 57.939 19.84C57.939 19.84 57.899 19.84 57.819 19.84C57.7523 19.84 57.659 19.8333 57.539 19.82C57.4323 19.8067 57.319 19.78 57.199 19.74C57.0923 19.6867 56.9923 19.6133 56.899 19.52C56.819 19.4267 56.7657 19.3067 56.739 19.16C56.7123 19 56.7257 18.8667 56.779 18.76C56.8323 18.6533 56.9057 18.5667 56.999 18.5C57.1057 18.4333 57.2057 18.3867 57.299 18.36C57.4057 18.3333 57.4923 18.32 57.559 18.32C57.6257 18.3067 57.659 18.3 57.659 18.3C58.899 18.1533 60.1323 18.0667 61.359 18.04C62.599 18.0133 63.8257 18.0733 65.039 18.22C65.039 18.22 65.0723 18.2333 65.139 18.26C65.219 18.2733 65.3123 18.3067 65.419 18.36C65.5257 18.4 65.6323 18.46 65.739 18.54C65.8457 18.62 65.9323 18.72 65.999 18.84C66.0657 18.96 66.099 19.1 66.099 19.26C66.0857 19.4467 66.0323 19.5933 65.939 19.7C65.8457 19.7933 65.739 19.86 65.619 19.9C65.5123 19.94 65.4123 19.9667 65.319 19.98C65.239 19.98 65.199 19.98 65.199 19.98ZM72.8327 31C72.6194 31 72.4461 30.96 72.3127 30.88C72.1794 30.7867 72.0727 30.6867 71.9927 30.58C71.9261 30.46 71.8794 30.36 71.8527 30.28C71.8261 30.1867 71.8127 30.14 71.8127 30.14C71.7327 29.42 71.6727 28.6 71.6327 27.68C71.6061 26.7467 71.5927 25.78 71.5927 24.78C71.6061 23.78 71.6327 22.8 71.6727 21.84C71.7127 20.8667 71.7661 19.9733 71.8327 19.16C71.8327 19.16 71.8394 19.1267 71.8527 19.06C71.8661 18.98 71.8994 18.8933 71.9527 18.8C72.0061 18.7067 72.0927 18.62 72.2127 18.54C72.3461 18.46 72.5261 18.42 72.7527 18.42C73.0194 18.4333 73.2194 18.4867 73.3527 18.58C73.4994 18.6733 73.5994 18.7867 73.6527 18.92C73.7194 19.04 73.7527 19.1467 73.7527 19.24C73.7661 19.3333 73.7727 19.38 73.7727 19.38C73.7194 19.9133 73.6794 20.5333 73.6527 21.24C73.6394 21.9333 73.6261 22.6733 73.6127 23.46C73.6127 24.2333 73.6127 25.02 73.6127 25.82C73.6261 26.6067 73.6461 27.38 73.6727 28.14C73.6994 28.9 73.7261 29.6 73.7527 30.24C73.7527 30.24 73.7461 30.28 73.7327 30.36C73.7327 30.44 73.6994 30.5333 73.6327 30.64C73.5794 30.7333 73.4861 30.82 73.3527 30.9C73.2327 30.9667 73.0594 31 72.8327 31ZM76.4927 19.98C75.9461 19.9 75.3661 19.8467 74.7527 19.82C74.1527 19.78 73.5327 19.7533 72.8927 19.74C72.2661 19.7267 71.6394 19.7333 71.0127 19.76C70.3994 19.7733 69.8061 19.8 69.2327 19.84C69.2327 19.84 69.1927 19.84 69.1127 19.84C69.0461 19.84 68.9527 19.8333 68.8327 19.82C68.7261 19.8067 68.6127 19.78 68.4927 19.74C68.3861 19.6867 68.2861 19.6133 68.1927 19.52C68.1127 19.4267 68.0594 19.3067 68.0327 19.16C68.0061 19 68.0194 18.8667 68.0727 18.76C68.1261 18.6533 68.1994 18.5667 68.2927 18.5C68.3994 18.4333 68.4994 18.3867 68.5927 18.36C68.6994 18.3333 68.7861 18.32 68.8527 18.32C68.9194 18.3067 68.9527 18.3 68.9527 18.3C70.1927 18.1533 71.4261 18.0667 72.6527 18.04C73.8927 18.0133 75.1194 18.0733 76.3327 18.22C76.3327 18.22 76.3661 18.2333 76.4327 18.26C76.5127 18.2733 76.6061 18.3067 76.7127 18.36C76.8194 18.4 76.9261 18.46 77.0327 18.54C77.1394 18.62 77.2261 18.72 77.2927 18.84C77.3594 18.96 77.3927 19.1 77.3927 19.26C77.3794 19.4467 77.3261 19.5933 77.2327 19.7C77.1394 19.7933 77.0327 19.86 76.9127 19.9C76.8061 19.94 76.7061 19.9667 76.6127 19.98C76.5327 19.98 76.4927 19.98 76.4927 19.98ZM83.4002 31.14C82.5602 31.14 81.7936 30.9867 81.1002 30.68C80.4069 30.3733 79.8136 29.9467 79.3202 29.4C78.8269 28.84 78.4536 28.1867 78.2002 27.44C77.9602 26.68 77.8669 25.8467 77.9202 24.94C77.9602 24.0333 78.1402 23.16 78.4602 22.32C78.7936 21.48 79.2402 20.7267 79.8002 20.06C80.3602 19.3933 81.0069 18.8667 81.7402 18.48C82.4869 18.08 83.3002 17.88 84.1802 17.88C84.8469 17.88 85.5269 17.9533 86.2202 18.1C86.9136 18.2467 87.5669 18.4867 88.1802 18.82C88.8069 19.14 89.3602 19.5733 89.8402 20.12C90.3202 20.6533 90.6869 21.3067 90.9402 22.08C91.1936 22.8533 91.2936 23.76 91.2402 24.8C91.2002 25.6533 91.0136 26.42 90.6802 27.1C90.3469 27.7667 89.9069 28.3533 89.3602 28.86C88.8269 29.3667 88.2202 29.7933 87.5402 30.14C86.8736 30.4733 86.1802 30.7267 85.4602 30.9C84.7536 31.06 84.0669 31.14 83.4002 31.14ZM83.8002 29.2C84.2669 29.2 84.7402 29.14 85.2202 29.02C85.7002 28.8867 86.1536 28.7 86.5802 28.46C87.0202 28.2067 87.4202 27.8933 87.7802 27.52C88.1402 27.1333 88.4269 26.6867 88.6402 26.18C88.8669 25.6733 88.9936 25.1 89.0202 24.46C89.0736 23.5933 88.9736 22.86 88.7202 22.26C88.4802 21.66 88.1336 21.1867 87.6802 20.84C87.2402 20.48 86.7402 20.22 86.1802 20.06C85.6336 19.8867 85.0669 19.8 84.4802 19.8C83.9069 19.8 83.3602 19.9333 82.8402 20.2C82.3336 20.4667 81.8802 20.8333 81.4802 21.3C81.0802 21.7667 80.7602 22.3067 80.5202 22.92C80.2936 23.52 80.1602 24.16 80.1202 24.84C80.0802 25.7467 80.2069 26.5267 80.5002 27.18C80.7936 27.8333 81.2269 28.3333 81.8002 28.68C82.3736 29.0267 83.0402 29.2 83.8002 29.2ZM93.9682 31C93.7682 30.9867 93.6015 30.94 93.4682 30.86C93.3349 30.78 93.2282 30.6867 93.1482 30.58C93.0815 30.4733 93.0349 30.3867 93.0082 30.32C92.9815 30.24 92.9682 30.2 92.9682 30.2C92.8882 29.48 92.8349 28.6933 92.8082 27.84C92.7815 26.9867 92.7682 26.1133 92.7682 25.22C92.7682 24.3267 92.7815 23.4467 92.8082 22.58C92.8482 21.7 92.8949 20.8733 92.9482 20.1C92.9482 20.1 92.9549 20.0467 92.9682 19.94C92.9949 19.8333 93.0615 19.7267 93.1682 19.62C93.2749 19.5 93.4482 19.4133 93.6882 19.36C93.8215 19.3333 93.9482 19.34 94.0682 19.38C94.2015 19.4067 94.3149 19.4467 94.4082 19.5C94.5015 19.5533 94.5549 19.5933 94.5682 19.62C95.1949 20.3667 95.8415 21.16 96.5082 22C97.1882 22.84 97.8749 23.7067 98.5682 24.6C99.2615 25.4933 99.9615 26.4067 100.668 27.34C100.642 26.7133 100.622 26.04 100.608 25.32C100.595 24.6 100.595 23.86 100.608 23.1C100.622 22.34 100.648 21.5933 100.688 20.86C100.728 20.1133 100.775 19.4 100.828 18.72C100.828 18.72 100.835 18.6867 100.848 18.62C100.862 18.5533 100.895 18.48 100.948 18.4C101.015 18.3067 101.108 18.2267 101.228 18.16C101.362 18.08 101.535 18.0467 101.748 18.06C101.962 18.06 102.135 18.1 102.268 18.18C102.402 18.26 102.502 18.3533 102.568 18.46C102.648 18.5667 102.702 18.68 102.728 18.8C102.755 18.9067 102.768 19 102.768 19.08C102.768 19.1467 102.768 19.18 102.768 19.18C102.715 19.7267 102.675 20.3533 102.648 21.06C102.622 21.7533 102.602 22.5 102.588 23.3C102.588 24.0867 102.588 24.8867 102.588 25.7C102.602 26.5133 102.615 27.3067 102.628 28.08C102.655 28.8533 102.688 29.5667 102.728 30.22C102.728 30.22 102.722 30.26 102.708 30.34C102.708 30.4067 102.682 30.4933 102.628 30.6C102.575 30.6933 102.495 30.78 102.388 30.86C102.295 30.9267 102.155 30.9733 101.968 31C101.768 31.0133 101.588 30.98 101.428 30.9C101.268 30.8067 101.142 30.7067 101.048 30.6C100.968 30.4933 100.928 30.44 100.928 30.44C100.928 30.44 100.842 30.34 100.668 30.14C100.495 29.9267 100.262 29.64 99.9682 29.28C99.6749 28.92 99.3415 28.5067 98.9682 28.04C98.5949 27.5733 98.2082 27.0933 97.8082 26.6C97.4215 26.0933 97.0349 25.5933 96.6482 25.1C96.2615 24.6067 95.9082 24.1533 95.5882 23.74C95.2815 23.3133 95.0215 22.9467 94.8082 22.64C94.7815 23.3733 94.7682 24.16 94.7682 25C94.7682 25.84 94.7749 26.7067 94.7882 27.6C94.8149 28.48 94.8482 29.36 94.8882 30.24C94.8882 30.24 94.8815 30.28 94.8682 30.36C94.8549 30.44 94.8149 30.5333 94.7482 30.64C94.6949 30.7333 94.6015 30.82 94.4682 30.9C94.3482 30.98 94.1815 31.0133 93.9682 31Z" fill="#433DC3"/>
</svg>
