<svg width="293" height="49" viewBox="0 0 293 49" fill="none" xmlns="http://www.w3.org/2000/svg">
<rect y="5" width="287" height="44" rx="8" fill="#FFE266"/>
<rect x="6" y="1" width="286" height="43" rx="7" fill="#FFFCF2" stroke="#433DC3" stroke-width="2"/>
<path d="M267.667 30C267.208 30 266.816 29.8368 266.49 29.5104C266.163 29.184 266 28.7917 266 28.3333V16.6667C266 16.2083 266.163 15.816 266.49 15.4896C266.816 15.1632 267.208 15 267.667 15H273.5V16.6667H267.667V28.3333H273.5V30H267.667ZM276.833 26.6667L275.688 25.4583L277.813 23.3333H271V21.6667H277.813L275.688 19.5417L276.833 18.3333L281 22.5L276.833 26.6667Z" fill="#433DC3"/>
<path d="M20.8999 15.8763L30.7398 10.2798L33.4666 16.7667L34.8301 20.0101L36.1935 23.2535L35.7101 26.1917L31.288 28.85H28.9507L20.8999 15.8763Z" fill="white"/>
<path d="M32.9833 32.7167L30.5666 28.6084L35.6416 26.1917L37.575 29.8167L32.9833 32.7167Z" fill="white"/>
<path d="M38.3 30.3C38.4933 31.2667 36.9306 32.9583 36.125 33.6833L47 32.2333C47 31.0733 46.0333 30.4611 45.55 30.3H38.3Z" fill="white"/>
<path d="M31.91 32.4324C32.0041 32.6097 32.2238 32.6762 32.4 32.5825L35.0477 31.1745C35.2239 31.0807 35.291 30.8608 35.1975 30.6844L33.8528 28.1556L35.1711 27.4547L36.5157 29.9829C36.9968 30.8885 36.6538 32.0114 35.7487 32.493L33.101 33.9009C32.1957 34.382 31.073 34.0386 30.5915 33.1339L29.2465 30.6051L30.5651 29.9041L31.91 32.4324Z" fill="#433DC3"/>
<path d="M29.4052 10L29.7248 10.7474L35.3315 23.8477C35.9466 25.2893 35.3576 26.9607 33.9744 27.697L30.1175 29.7481C28.7332 30.4832 27.0182 30.0366 26.1676 28.7207L18.0001 16.0654L29.4052 10ZM27.4222 27.9105C27.8514 28.5749 28.7181 28.8007 29.4164 28.4292L33.2732 26.3777C33.9712 26.0074 34.2696 25.1615 33.958 24.4345L33.1179 22.4716L26.2642 26.1161L27.4222 27.9105ZM24.2314 22.966L31.643 19.025L29.3846 13.7484L21.1192 18.1437L24.2314 22.966ZM29.0901 13.0593L28.6714 12.0826L20.1363 16.6206L20.7127 17.5134L29.0901 13.0593Z" fill="#433DC3"/>
<path d="M37.9992 31.3431C40.1785 31.3431 42.8719 31.3431 44.6799 31.3431C47.1526 31.3431 47.0073 34.3978 44.9709 34.3978C43.3503 34.3978 37.8059 34.3978 34.955 34.3978L36.3636 33.6486C37.2751 33.1636 37.8493 32.2926 37.9992 31.3431Z" fill="#433DC3"/>
<rect x="86" y="9" width="64" height="27" rx="8" fill="#FFE266"/>
<path d="M98.664 27C98.4933 27 98.3547 26.968 98.248 26.904C98.1413 26.8293 98.056 26.7493 97.992 26.664C97.9387 26.568 97.9013 26.488 97.88 26.424C97.8587 26.3493 97.848 26.312 97.848 26.312C97.8053 25.8533 97.768 25.3307 97.736 24.744C97.7147 24.1467 97.6987 23.5173 97.688 22.856C97.688 22.1947 97.6933 21.5333 97.704 20.872C97.7147 20.2 97.736 19.5547 97.768 18.936C97.8 18.3067 97.8373 17.736 97.88 17.224C97.88 17.224 97.8853 17.1973 97.896 17.144C97.9067 17.08 97.9333 17.0107 97.976 16.936C98.0187 16.8507 98.088 16.7813 98.184 16.728C98.2907 16.664 98.4293 16.632 98.6 16.632C98.7813 16.6427 98.9253 16.68 99.032 16.744C99.1387 16.7973 99.2187 16.872 99.272 16.968C99.336 17.0533 99.3787 17.1387 99.4 17.224C99.4213 17.3093 99.432 17.384 99.432 17.448C99.432 17.5013 99.432 17.528 99.432 17.528C99.3893 17.9653 99.3573 18.472 99.336 19.048C99.3147 19.6133 99.2987 20.216 99.288 20.856C99.288 21.496 99.288 22.1467 99.288 22.808C99.2987 23.4587 99.3093 24.0933 99.32 24.712C99.3413 25.32 99.368 25.88 99.4 26.392C99.4 26.392 99.3947 26.424 99.384 26.488C99.3733 26.552 99.3467 26.6267 99.304 26.712C99.2613 26.7867 99.1867 26.856 99.08 26.92C98.984 26.9733 98.8453 27 98.664 27ZM98.36 23.416L98.6 21.976L104.552 21.544L104.584 23.032L98.36 23.416ZM104.936 27C104.765 27 104.621 26.968 104.504 26.904C104.397 26.8293 104.317 26.7493 104.264 26.664C104.211 26.568 104.173 26.488 104.152 26.424C104.131 26.3493 104.12 26.312 104.12 26.312C104.067 25.8533 104.029 25.3307 104.008 24.744C103.987 24.1467 103.971 23.5173 103.96 22.856C103.949 22.1947 103.949 21.5333 103.96 20.872C103.981 20.2 104.008 19.5547 104.04 18.936C104.072 18.3067 104.109 17.736 104.152 17.224C104.152 17.224 104.157 17.1973 104.168 17.144C104.179 17.08 104.205 17.0107 104.248 16.936C104.291 16.8507 104.36 16.7813 104.456 16.728C104.563 16.664 104.701 16.632 104.872 16.632C105.053 16.6427 105.197 16.68 105.304 16.744C105.411 16.7973 105.491 16.872 105.544 16.968C105.597 17.0533 105.635 17.1387 105.656 17.224C105.688 17.3093 105.704 17.384 105.704 17.448C105.704 17.5013 105.704 17.528 105.704 17.528C105.661 17.9653 105.629 18.472 105.608 19.048C105.587 19.6133 105.571 20.216 105.56 20.856C105.56 21.496 105.56 22.1467 105.56 22.808C105.571 23.4587 105.581 24.0933 105.592 24.712C105.613 25.32 105.64 25.88 105.672 26.392C105.672 26.392 105.667 26.424 105.656 26.488C105.645 26.552 105.613 26.6267 105.56 26.712C105.517 26.7867 105.448 26.856 105.352 26.92C105.256 26.9733 105.117 27 104.936 27ZM110.686 26.968C110.131 26.968 109.619 26.8667 109.15 26.664C108.691 26.4613 108.297 26.1893 107.966 25.848C107.635 25.496 107.379 25.0853 107.198 24.616C107.017 24.1467 106.926 23.6453 106.926 23.112C106.926 22.5787 107.022 22.0667 107.214 21.576C107.417 21.0747 107.699 20.632 108.062 20.248C108.425 19.864 108.846 19.56 109.326 19.336C109.806 19.112 110.323 19 110.878 19C111.433 19 111.95 19.08 112.43 19.24C112.91 19.4 113.326 19.6453 113.678 19.976C114.041 20.296 114.318 20.712 114.51 21.224C114.713 21.7253 114.814 22.3173 114.814 23C114.814 23.5333 114.707 24.04 114.494 24.52C114.281 25 113.977 25.4213 113.582 25.784C113.198 26.1467 112.755 26.4347 112.254 26.648C111.763 26.8613 111.241 26.968 110.686 26.968ZM110.67 25.544C111.011 25.544 111.331 25.4747 111.63 25.336C111.939 25.1867 112.211 24.9893 112.446 24.744C112.681 24.4987 112.867 24.2213 113.006 23.912C113.145 23.592 113.214 23.256 113.214 22.904C113.214 22.3067 113.113 21.816 112.91 21.432C112.718 21.048 112.451 20.7653 112.11 20.584C111.769 20.392 111.374 20.296 110.926 20.296C110.595 20.296 110.286 20.3813 109.998 20.552C109.71 20.712 109.454 20.9307 109.23 21.208C109.017 21.4747 108.846 21.7787 108.718 22.12C108.59 22.4613 108.526 22.808 108.526 23.16C108.526 23.6187 108.611 24.0293 108.782 24.392C108.963 24.7547 109.214 25.0373 109.534 25.24C109.865 25.4427 110.243 25.544 110.67 25.544ZM122.439 26.696C122.258 26.6427 122.119 26.568 122.023 26.472C121.927 26.376 121.863 26.28 121.831 26.184C121.799 26.0773 121.778 25.9867 121.767 25.912C121.767 25.8267 121.767 25.784 121.767 25.784C121.885 24.888 121.927 24.072 121.895 23.336C121.874 22.5893 121.746 22.008 121.511 21.592C121.298 21.1973 121.047 20.9147 120.759 20.744C120.471 20.5627 120.173 20.4827 119.863 20.504C119.554 20.5147 119.245 20.616 118.935 20.808C118.573 21.0427 118.29 21.3307 118.087 21.672C117.885 22.0133 117.741 22.376 117.655 22.76C117.581 23.144 117.538 23.5173 117.527 23.88C117.538 24.2213 117.543 24.5307 117.543 24.808C117.543 25.0853 117.549 25.3307 117.559 25.544C117.57 25.7573 117.581 25.9333 117.591 26.072C117.591 26.072 117.586 26.0933 117.575 26.136C117.575 26.1787 117.565 26.232 117.543 26.296C117.522 26.36 117.474 26.4187 117.399 26.472C117.335 26.5253 117.229 26.5573 117.079 26.568C116.951 26.5787 116.839 26.552 116.743 26.488C116.647 26.424 116.567 26.36 116.503 26.296C116.45 26.232 116.423 26.2 116.423 26.2C116.306 26.008 116.242 25.8213 116.231 25.64C116.231 25.4587 116.237 25.256 116.247 25.032C116.269 24.808 116.253 24.536 116.199 24.216C116.178 23.8213 116.167 23.464 116.167 23.144C116.178 22.8133 116.205 22.504 116.247 22.216C116.29 21.9173 116.359 21.64 116.455 21.384C116.551 21.128 116.685 20.8773 116.855 20.632C117.069 20.3547 117.33 20.104 117.639 19.88C117.949 19.656 118.285 19.4747 118.647 19.336C119.021 19.1973 119.405 19.1173 119.799 19.096C120.194 19.0747 120.589 19.128 120.983 19.256C121.25 19.3733 121.506 19.528 121.751 19.72C122.007 19.9013 122.242 20.12 122.455 20.376C122.669 20.632 122.855 20.936 123.015 21.288C123.175 21.6293 123.309 22.0293 123.415 22.488C123.522 23.0533 123.57 23.6293 123.559 24.216C123.549 24.8027 123.49 25.4427 123.383 26.136C123.383 26.136 123.373 26.1733 123.351 26.248C123.33 26.3227 123.287 26.4027 123.223 26.488C123.17 26.5733 123.079 26.6427 122.951 26.696C122.823 26.7387 122.653 26.7387 122.439 26.696ZM117.015 26.984C116.866 26.9733 116.738 26.9413 116.631 26.888C116.535 26.824 116.455 26.7547 116.391 26.68C116.327 26.5947 116.279 26.5253 116.247 26.472C116.226 26.4187 116.215 26.392 116.215 26.392C116.151 25.816 116.103 25.256 116.071 24.712C116.05 24.168 116.039 23.6293 116.039 23.096C116.039 22.552 116.055 21.992 116.087 21.416C116.119 20.84 116.162 20.232 116.215 19.592C116.215 19.592 116.221 19.5653 116.231 19.512C116.242 19.448 116.269 19.3787 116.311 19.304C116.365 19.2293 116.439 19.1653 116.535 19.112C116.642 19.048 116.786 19.0213 116.967 19.032C117.149 19.032 117.293 19.0693 117.399 19.144C117.506 19.2187 117.581 19.3093 117.623 19.416C117.677 19.512 117.709 19.5973 117.719 19.672C117.741 19.7467 117.751 19.784 117.751 19.784C117.719 20.3173 117.693 20.84 117.671 21.352C117.65 21.864 117.639 22.3867 117.639 22.92C117.639 23.4533 117.645 24.008 117.655 24.584C117.677 25.1493 117.709 25.7467 117.751 26.376C117.751 26.376 117.746 26.408 117.735 26.472C117.725 26.536 117.693 26.6107 117.639 26.696C117.597 26.7707 117.527 26.84 117.431 26.904C117.335 26.968 117.197 26.9947 117.015 26.984ZM128.263 26.696C128.082 26.6427 127.943 26.568 127.847 26.472C127.751 26.376 127.687 26.28 127.655 26.184C127.623 26.0773 127.602 25.9867 127.591 25.912C127.591 25.8267 127.591 25.784 127.591 25.784C127.709 24.888 127.751 24.072 127.719 23.336C127.698 22.5893 127.565 22.008 127.319 21.592C127.106 21.1973 126.855 20.9147 126.567 20.744C126.29 20.5627 125.997 20.4827 125.687 20.504C125.378 20.5147 125.069 20.616 124.759 20.808C124.397 21.0427 124.114 21.3307 123.911 21.672C123.709 22.0133 123.565 22.376 123.479 22.76C123.394 23.144 123.351 23.5173 123.351 23.88C123.362 24.2213 123.362 24.5093 123.351 24.744C123.341 24.968 123.33 25.16 123.319 25.32C123.309 25.48 123.293 25.6453 123.271 25.816C123.271 25.816 123.271 25.848 123.271 25.912C123.271 25.9653 123.261 26.0293 123.239 26.104C123.218 26.1787 123.175 26.248 123.111 26.312C123.047 26.376 122.951 26.4133 122.823 26.424C122.685 26.4347 122.567 26.4133 122.471 26.36C122.386 26.296 122.322 26.232 122.279 26.168C122.237 26.104 122.215 26.072 122.215 26.072C122.162 25.9333 122.13 25.7733 122.119 25.592C122.109 25.4107 122.103 25.2027 122.103 24.968C122.103 24.7333 122.103 24.4773 122.103 24.2C122.082 23.816 122.066 23.4587 122.055 23.128C122.055 22.7973 122.071 22.488 122.103 22.2C122.135 21.912 122.194 21.64 122.279 21.384C122.375 21.128 122.509 20.8773 122.679 20.632C122.893 20.3547 123.154 20.104 123.463 19.88C123.773 19.656 124.109 19.4747 124.471 19.336C124.834 19.1973 125.213 19.1173 125.607 19.096C126.013 19.0747 126.413 19.128 126.807 19.256C127.074 19.3733 127.33 19.528 127.575 19.72C127.821 19.9013 128.05 20.12 128.263 20.376C128.487 20.632 128.679 20.936 128.839 21.288C128.999 21.6293 129.127 22.0293 129.223 22.488C129.341 23.0533 129.389 23.6293 129.367 24.216C129.357 24.8027 129.298 25.4427 129.191 26.136C129.191 26.136 129.181 26.1733 129.159 26.248C129.149 26.3227 129.111 26.4027 129.047 26.488C128.983 26.5733 128.887 26.6427 128.759 26.696C128.642 26.7387 128.477 26.7387 128.263 26.696ZM133.886 27.16C133.182 27.0427 132.611 26.8453 132.174 26.568C131.747 26.28 131.417 25.9493 131.182 25.576C130.958 25.192 130.803 24.7813 130.718 24.344C130.643 23.9067 130.606 23.4747 130.606 23.048C130.595 22.568 130.681 22.088 130.862 21.608C131.054 21.1173 131.326 20.6693 131.678 20.264C132.041 19.8587 132.473 19.544 132.974 19.32C133.486 19.096 134.051 19.0053 134.67 19.048C135.299 19.0907 135.811 19.2133 136.206 19.416C136.601 19.608 136.905 19.848 137.118 20.136C137.342 20.424 137.491 20.728 137.566 21.048C137.651 21.368 137.699 21.672 137.71 21.96C137.699 22.4933 137.555 22.9413 137.278 23.304C137.011 23.656 136.59 23.896 136.014 24.024C135.843 24.056 135.625 24.0827 135.358 24.104C135.102 24.1147 134.825 24.12 134.526 24.12C134.238 24.12 133.95 24.1147 133.662 24.104C133.385 24.0933 133.123 24.0827 132.878 24.072C132.643 24.0613 132.451 24.056 132.302 24.056C132.163 24.0453 132.094 24.04 132.094 24.04C132.126 24.3387 132.222 24.632 132.382 24.92C132.542 25.1973 132.771 25.4267 133.07 25.608C133.379 25.7893 133.763 25.896 134.222 25.928C134.617 25.9387 134.985 25.9333 135.326 25.912C135.667 25.8907 135.966 25.8587 136.222 25.816C136.489 25.7733 136.691 25.736 136.83 25.704C136.969 25.672 137.038 25.656 137.038 25.656C137.038 25.656 137.065 25.656 137.118 25.656C137.182 25.6453 137.251 25.6453 137.326 25.656C137.411 25.6667 137.497 25.6987 137.582 25.752C137.667 25.7947 137.737 25.8747 137.79 25.992C137.854 26.0987 137.875 26.1947 137.854 26.28C137.843 26.3547 137.817 26.424 137.774 26.488C137.731 26.5413 137.689 26.584 137.646 26.616C137.614 26.6373 137.598 26.648 137.598 26.648C137.598 26.648 137.486 26.6853 137.262 26.76C137.038 26.8347 136.739 26.9147 136.366 27C136.003 27.096 135.603 27.1653 135.166 27.208C134.729 27.2507 134.302 27.2347 133.886 27.16ZM132.094 23.048L135.23 23.016C135.23 23.016 135.267 23.0107 135.342 23C135.417 22.9787 135.507 22.952 135.614 22.92C135.731 22.888 135.843 22.8293 135.95 22.744C136.067 22.6587 136.163 22.5467 136.238 22.408C136.313 22.2587 136.35 22.072 136.35 21.848C136.35 21.4747 136.286 21.1653 136.158 20.92C136.03 20.6747 135.817 20.4987 135.518 20.392C135.219 20.2747 134.803 20.232 134.27 20.264C133.897 20.2853 133.566 20.4027 133.278 20.616C133.001 20.8187 132.766 21.0693 132.574 21.368C132.393 21.6667 132.259 21.9707 132.174 22.28C132.089 22.5787 132.062 22.8347 132.094 23.048Z" fill="#433DC3"/>
<path d="M164.624 26.936C164.091 26.968 163.605 26.9573 163.168 26.904C162.741 26.84 162.379 26.76 162.08 26.664C161.781 26.568 161.552 26.4827 161.392 26.408C161.232 26.3227 161.152 26.28 161.152 26.28C161.152 26.28 161.131 26.2693 161.088 26.248C161.045 26.216 160.992 26.1733 160.928 26.12C160.875 26.0667 160.821 26.0027 160.768 25.928C160.725 25.8533 160.699 25.768 160.688 25.672C160.688 25.576 160.715 25.48 160.768 25.384C160.832 25.2667 160.907 25.1867 160.992 25.144C161.077 25.0907 161.163 25.064 161.248 25.064C161.333 25.0533 161.403 25.0587 161.456 25.08C161.52 25.0907 161.552 25.096 161.552 25.096C161.968 25.2667 162.4 25.3893 162.848 25.464C163.296 25.5387 163.717 25.5653 164.112 25.544C164.507 25.512 164.837 25.4213 165.104 25.272C165.381 25.1227 165.552 24.904 165.616 24.616C165.669 24.3493 165.632 24.1147 165.504 23.912C165.387 23.6987 165.205 23.5067 164.96 23.336C164.715 23.1653 164.432 23.0107 164.112 22.872C163.803 22.7227 163.493 22.584 163.184 22.456C162.981 22.3707 162.763 22.2533 162.528 22.104C162.293 21.9547 162.069 21.7733 161.856 21.56C161.653 21.3467 161.477 21.112 161.328 20.856C161.179 20.5893 161.083 20.3067 161.04 20.008C160.997 19.6987 161.024 19.3733 161.12 19.032C161.227 18.6907 161.435 18.3387 161.744 17.976C162.053 17.6027 162.379 17.32 162.72 17.128C163.072 16.9253 163.424 16.7813 163.776 16.696C164.128 16.6107 164.459 16.568 164.768 16.568C165.088 16.568 165.371 16.5893 165.616 16.632C165.872 16.6747 166.069 16.7173 166.208 16.76C166.357 16.8027 166.432 16.824 166.432 16.824C166.432 16.824 166.459 16.8347 166.512 16.856C166.576 16.8773 166.651 16.9147 166.736 16.968C166.821 17.0213 166.907 17.0853 166.992 17.16C167.077 17.224 167.141 17.3093 167.184 17.416C167.227 17.512 167.237 17.624 167.216 17.752C167.184 17.8907 167.12 17.9973 167.024 18.072C166.939 18.136 166.843 18.1733 166.736 18.184C166.64 18.1947 166.555 18.2 166.48 18.2C166.405 18.1893 166.368 18.184 166.368 18.184C165.835 18.024 165.333 17.9867 164.864 18.072C164.395 18.1467 163.984 18.3013 163.632 18.536C163.291 18.7707 163.029 19.0427 162.848 19.352C162.677 19.6507 162.635 19.9387 162.72 20.216C162.784 20.4507 162.933 20.6587 163.168 20.84C163.413 21.0107 163.701 21.176 164.032 21.336C164.373 21.4853 164.725 21.6453 165.088 21.816C165.451 21.976 165.787 22.1627 166.096 22.376C166.405 22.5787 166.651 22.824 166.832 23.112C167.077 23.5067 167.221 23.8853 167.264 24.248C167.307 24.6107 167.269 24.952 167.152 25.272C167.035 25.5813 166.853 25.8533 166.608 26.088C166.363 26.3227 166.069 26.5147 165.728 26.664C165.387 26.8133 165.019 26.904 164.624 26.936ZM171.8 27.16C171.096 27.0427 170.526 26.8453 170.088 26.568C169.662 26.28 169.331 25.9493 169.096 25.576C168.872 25.192 168.718 24.7813 168.632 24.344C168.558 23.9067 168.52 23.4747 168.52 23.048C168.51 22.568 168.595 22.088 168.776 21.608C168.968 21.1173 169.24 20.6693 169.592 20.264C169.955 19.8587 170.387 19.544 170.888 19.32C171.4 19.096 171.966 19.0053 172.584 19.048C173.214 19.0907 173.726 19.2133 174.12 19.416C174.515 19.608 174.819 19.848 175.032 20.136C175.256 20.424 175.406 20.728 175.48 21.048C175.566 21.368 175.614 21.672 175.624 21.96C175.614 22.4933 175.47 22.9413 175.192 23.304C174.926 23.656 174.504 23.896 173.928 24.024C173.758 24.056 173.539 24.0827 173.272 24.104C173.016 24.1147 172.739 24.12 172.44 24.12C172.152 24.12 171.864 24.1147 171.576 24.104C171.299 24.0933 171.038 24.0827 170.792 24.072C170.558 24.0613 170.366 24.056 170.216 24.056C170.078 24.0453 170.008 24.04 170.008 24.04C170.04 24.3387 170.136 24.632 170.296 24.92C170.456 25.1973 170.686 25.4267 170.984 25.608C171.294 25.7893 171.678 25.896 172.136 25.928C172.531 25.9387 172.899 25.9333 173.24 25.912C173.582 25.8907 173.88 25.8587 174.136 25.816C174.403 25.7733 174.606 25.736 174.744 25.704C174.883 25.672 174.952 25.656 174.952 25.656C174.952 25.656 174.979 25.656 175.032 25.656C175.096 25.6453 175.166 25.6453 175.24 25.656C175.326 25.6667 175.411 25.6987 175.496 25.752C175.582 25.7947 175.651 25.8747 175.704 25.992C175.768 26.0987 175.79 26.1947 175.768 26.28C175.758 26.3547 175.731 26.424 175.688 26.488C175.646 26.5413 175.603 26.584 175.56 26.616C175.528 26.6373 175.512 26.648 175.512 26.648C175.512 26.648 175.4 26.6853 175.176 26.76C174.952 26.8347 174.654 26.9147 174.28 27C173.918 27.096 173.518 27.1653 173.08 27.208C172.643 27.2507 172.216 27.2347 171.8 27.16ZM170.008 23.048L173.144 23.016C173.144 23.016 173.182 23.0107 173.256 23C173.331 22.9787 173.422 22.952 173.528 22.92C173.646 22.888 173.758 22.8293 173.864 22.744C173.982 22.6587 174.078 22.5467 174.152 22.408C174.227 22.2587 174.264 22.072 174.264 21.848C174.264 21.4747 174.2 21.1653 174.072 20.92C173.944 20.6747 173.731 20.4987 173.432 20.392C173.134 20.2747 172.718 20.232 172.184 20.264C171.811 20.2853 171.48 20.4027 171.192 20.616C170.915 20.8187 170.68 21.0693 170.488 21.368C170.307 21.6667 170.174 21.9707 170.088 22.28C170.003 22.5787 169.976 22.8347 170.008 23.048ZM177.92 25.176C177.781 25.1867 177.669 25.1547 177.584 25.08C177.509 25.0053 177.451 24.92 177.408 24.824C177.376 24.7173 177.349 24.6213 177.328 24.536C177.317 24.4507 177.312 24.408 177.312 24.408C177.28 24.2267 177.253 24.088 177.232 23.992C177.211 23.8853 177.2 23.7893 177.2 23.704C177.2 23.608 177.2 23.4907 177.2 23.352C177.211 23.2133 177.221 23.0213 177.232 22.776C177.275 22.1467 177.397 21.592 177.6 21.112C177.813 20.632 178.107 20.232 178.48 19.912C178.853 19.592 179.296 19.3573 179.808 19.208C180.256 19.1013 180.672 19.064 181.056 19.096C181.44 19.128 181.787 19.2133 182.096 19.352C182.416 19.48 182.699 19.6507 182.944 19.864C182.944 19.864 182.965 19.8853 183.008 19.928C183.051 19.9707 183.093 20.0293 183.136 20.104C183.189 20.1787 183.227 20.264 183.248 20.36C183.28 20.4453 183.28 20.536 183.248 20.632C183.227 20.728 183.163 20.824 183.056 20.92C182.939 21.016 182.811 21.064 182.672 21.064C182.533 21.0533 182.4 21.0213 182.272 20.968C182.144 20.9147 182.037 20.8667 181.952 20.824C181.877 20.7707 181.84 20.744 181.84 20.744C181.595 20.5733 181.317 20.488 181.008 20.488C180.709 20.4773 180.405 20.5467 180.096 20.696C179.659 20.888 179.317 21.1653 179.072 21.528C178.837 21.88 178.688 22.3013 178.624 22.792C178.603 23.0587 178.581 23.2773 178.56 23.448C178.549 23.608 178.539 23.7467 178.528 23.864C178.528 23.9707 178.528 24.0827 178.528 24.2C178.528 24.3173 178.533 24.472 178.544 24.664C178.544 24.664 178.533 24.7013 178.512 24.776C178.491 24.8507 178.432 24.9307 178.336 25.016C178.251 25.0907 178.112 25.144 177.92 25.176ZM177.984 26.984C177.835 26.9733 177.707 26.9413 177.6 26.888C177.504 26.824 177.424 26.7547 177.36 26.68C177.296 26.5947 177.248 26.5253 177.216 26.472C177.195 26.4187 177.184 26.392 177.184 26.392C177.12 25.816 177.072 25.256 177.04 24.712C177.019 24.168 177.008 23.6293 177.008 23.096C177.008 22.552 177.024 21.992 177.056 21.416C177.088 20.84 177.131 20.232 177.184 19.592C177.184 19.592 177.189 19.5653 177.2 19.512C177.211 19.448 177.237 19.3787 177.28 19.304C177.333 19.2293 177.408 19.1653 177.504 19.112C177.611 19.048 177.755 19.0213 177.936 19.032C178.117 19.032 178.261 19.0693 178.368 19.144C178.475 19.2187 178.549 19.3093 178.592 19.416C178.645 19.512 178.677 19.5973 178.688 19.672C178.709 19.7467 178.72 19.784 178.72 19.784C178.688 20.3173 178.661 20.84 178.64 21.352C178.619 21.864 178.608 22.3867 178.608 22.92C178.608 23.4533 178.613 24.008 178.624 24.584C178.645 25.1493 178.677 25.7467 178.72 26.376C178.72 26.376 178.715 26.408 178.704 26.472C178.693 26.536 178.661 26.6107 178.608 26.696C178.565 26.7707 178.496 26.84 178.4 26.904C178.304 26.968 178.165 26.9947 177.984 26.984ZM187.29 26.984C187.141 26.9733 186.981 26.9413 186.81 26.888C186.65 26.8347 186.49 26.7493 186.33 26.632C186.17 26.504 186.021 26.344 185.882 26.152C185.743 25.96 185.626 25.7253 185.53 25.448L184.106 20.12C184.106 20.12 184.101 20.088 184.09 20.024C184.09 19.9493 184.101 19.864 184.122 19.768C184.143 19.672 184.191 19.5867 184.266 19.512C184.351 19.4267 184.479 19.3733 184.65 19.352C184.821 19.32 184.965 19.3307 185.082 19.384C185.21 19.4267 185.311 19.4853 185.386 19.56C185.471 19.6347 185.535 19.704 185.578 19.768C185.621 19.8213 185.642 19.848 185.642 19.848L186.49 23.032C186.639 23.6187 186.778 24.1093 186.906 24.504C187.034 24.888 187.151 25.1387 187.258 25.256C187.375 25.2453 187.535 25.08 187.738 24.76C187.941 24.4293 188.17 23.944 188.426 23.304C188.586 22.856 188.719 22.4347 188.826 22.04C188.943 21.6347 189.034 21.256 189.098 20.904C189.173 20.552 189.226 20.216 189.258 19.896C189.258 19.896 189.263 19.864 189.274 19.8C189.295 19.7253 189.333 19.6453 189.386 19.56C189.439 19.4747 189.519 19.4053 189.626 19.352C189.743 19.288 189.903 19.2667 190.106 19.288C190.309 19.3093 190.458 19.368 190.554 19.464C190.661 19.5493 190.735 19.6453 190.778 19.752C190.821 19.8587 190.842 19.9547 190.842 20.04C190.842 20.1147 190.842 20.152 190.842 20.152C190.831 20.4827 190.794 20.8187 190.73 21.16C190.677 21.5013 190.607 21.8373 190.522 22.168C190.437 22.4987 190.346 22.8187 190.25 23.128C190.154 23.4267 190.053 23.704 189.946 23.96C189.669 24.7067 189.375 25.3093 189.066 25.768C188.767 26.216 188.463 26.5413 188.154 26.744C187.855 26.936 187.567 27.016 187.29 26.984ZM192.991 26.984C192.842 26.9733 192.714 26.9413 192.607 26.888C192.511 26.824 192.431 26.7547 192.367 26.68C192.303 26.5947 192.255 26.5253 192.223 26.472C192.202 26.4187 192.191 26.392 192.191 26.392C192.127 25.816 192.079 25.256 192.047 24.712C192.026 24.168 192.015 23.6293 192.015 23.096C192.015 22.552 192.031 21.992 192.063 21.416C192.095 20.84 192.138 20.232 192.191 19.592C192.191 19.592 192.197 19.5653 192.207 19.512C192.218 19.448 192.245 19.3787 192.287 19.304C192.341 19.2293 192.415 19.1653 192.511 19.112C192.618 19.048 192.762 19.0213 192.943 19.032C193.125 19.032 193.269 19.0693 193.375 19.144C193.482 19.2187 193.557 19.3093 193.599 19.416C193.653 19.512 193.685 19.5973 193.695 19.672C193.717 19.7467 193.727 19.784 193.727 19.784C193.695 20.3173 193.669 20.84 193.647 21.352C193.626 21.864 193.615 22.3867 193.615 22.92C193.615 23.4533 193.621 24.008 193.631 24.584C193.653 25.1493 193.685 25.7467 193.727 26.376C193.727 26.376 193.722 26.408 193.711 26.472C193.701 26.536 193.669 26.6107 193.615 26.696C193.573 26.7707 193.503 26.84 193.407 26.904C193.311 26.968 193.173 26.9947 192.991 26.984ZM193.007 18.28C192.719 18.28 192.495 18.1947 192.335 18.024C192.186 17.8533 192.111 17.6453 192.111 17.4C192.111 17.0907 192.186 16.8667 192.335 16.728C192.495 16.5787 192.719 16.504 193.007 16.504C193.295 16.504 193.514 16.5947 193.663 16.776C193.813 16.9467 193.887 17.1547 193.887 17.4C193.887 17.56 193.861 17.7093 193.807 17.848C193.765 17.976 193.679 18.0773 193.551 18.152C193.423 18.2267 193.242 18.2693 193.007 18.28ZM198.889 27.144C198.014 27.0907 197.31 26.904 196.777 26.584C196.244 26.2533 195.849 25.816 195.593 25.272C195.337 24.7173 195.182 24.0933 195.129 23.4C195.086 22.8453 195.145 22.312 195.305 21.8C195.476 21.2773 195.732 20.8133 196.073 20.408C196.425 19.992 196.852 19.6667 197.353 19.432C197.854 19.1867 198.425 19.0693 199.065 19.08C199.598 19.08 200.046 19.1493 200.409 19.288C200.782 19.416 201.092 19.5813 201.337 19.784C201.582 19.976 201.769 20.168 201.897 20.36C202.036 20.552 202.132 20.7173 202.185 20.856C202.238 20.984 202.265 21.048 202.265 21.048C202.265 21.048 202.265 21.08 202.265 21.144C202.265 21.208 202.244 21.288 202.201 21.384C202.169 21.4693 202.089 21.5493 201.961 21.624C201.844 21.6987 201.716 21.7413 201.577 21.752C201.438 21.7627 201.31 21.752 201.193 21.72C201.076 21.688 200.99 21.6453 200.937 21.592C200.937 21.592 200.905 21.544 200.841 21.448C200.788 21.352 200.697 21.2453 200.569 21.128C200.452 21.0107 200.286 20.904 200.073 20.808C199.87 20.712 199.62 20.664 199.321 20.664C198.98 20.6747 198.654 20.728 198.345 20.824C198.036 20.92 197.764 21.0747 197.529 21.288C197.294 21.4907 197.113 21.752 196.985 22.072C196.857 22.392 196.809 22.776 196.841 23.224C196.852 23.768 196.948 24.2053 197.129 24.536C197.31 24.856 197.556 25.096 197.865 25.256C198.185 25.4053 198.553 25.5013 198.969 25.544C199.289 25.5653 199.588 25.544 199.865 25.48C200.142 25.416 200.388 25.3307 200.601 25.224C200.814 25.1173 200.98 25.0267 201.097 24.952C201.225 24.8667 201.3 24.8187 201.321 24.808C201.46 24.7653 201.593 24.7493 201.721 24.76C201.849 24.7707 201.966 24.808 202.073 24.872C202.19 24.9253 202.292 25.0053 202.377 25.112C202.473 25.2293 202.521 25.3413 202.521 25.448C202.532 25.5547 202.526 25.6453 202.505 25.72C202.484 25.784 202.473 25.816 202.473 25.816C202.473 25.816 202.409 25.8907 202.281 26.04C202.153 26.1787 201.945 26.344 201.657 26.536C201.38 26.7173 201.012 26.872 200.553 27C200.105 27.128 199.55 27.176 198.889 27.144ZM206.647 27.16C205.943 27.0427 205.372 26.8453 204.935 26.568C204.508 26.28 204.178 25.9493 203.943 25.576C203.719 25.192 203.564 24.7813 203.479 24.344C203.404 23.9067 203.367 23.4747 203.367 23.048C203.356 22.568 203.442 22.088 203.623 21.608C203.815 21.1173 204.087 20.6693 204.439 20.264C204.802 19.8587 205.234 19.544 205.735 19.32C206.247 19.096 206.812 19.0053 207.431 19.048C208.06 19.0907 208.572 19.2133 208.967 19.416C209.362 19.608 209.666 19.848 209.879 20.136C210.103 20.424 210.252 20.728 210.327 21.048C210.412 21.368 210.46 21.672 210.471 21.96C210.46 22.4933 210.316 22.9413 210.039 23.304C209.772 23.656 209.351 23.896 208.775 24.024C208.604 24.056 208.386 24.0827 208.119 24.104C207.863 24.1147 207.586 24.12 207.287 24.12C206.999 24.12 206.711 24.1147 206.423 24.104C206.146 24.0933 205.884 24.0827 205.639 24.072C205.404 24.0613 205.212 24.056 205.063 24.056C204.924 24.0453 204.855 24.04 204.855 24.04C204.887 24.3387 204.983 24.632 205.143 24.92C205.303 25.1973 205.532 25.4267 205.831 25.608C206.14 25.7893 206.524 25.896 206.983 25.928C207.378 25.9387 207.746 25.9333 208.087 25.912C208.428 25.8907 208.727 25.8587 208.983 25.816C209.25 25.7733 209.452 25.736 209.591 25.704C209.73 25.672 209.799 25.656 209.799 25.656C209.799 25.656 209.826 25.656 209.879 25.656C209.943 25.6453 210.012 25.6453 210.087 25.656C210.172 25.6667 210.258 25.6987 210.343 25.752C210.428 25.7947 210.498 25.8747 210.551 25.992C210.615 26.0987 210.636 26.1947 210.615 26.28C210.604 26.3547 210.578 26.424 210.535 26.488C210.492 26.5413 210.45 26.584 210.407 26.616C210.375 26.6373 210.359 26.648 210.359 26.648C210.359 26.648 210.247 26.6853 210.023 26.76C209.799 26.8347 209.5 26.9147 209.127 27C208.764 27.096 208.364 27.1653 207.927 27.208C207.49 27.2507 207.063 27.2347 206.647 27.16ZM204.855 23.048L207.991 23.016C207.991 23.016 208.028 23.0107 208.103 23C208.178 22.9787 208.268 22.952 208.375 22.92C208.492 22.888 208.604 22.8293 208.711 22.744C208.828 22.6587 208.924 22.5467 208.999 22.408C209.074 22.2587 209.111 22.072 209.111 21.848C209.111 21.4747 209.047 21.1653 208.919 20.92C208.791 20.6747 208.578 20.4987 208.279 20.392C207.98 20.2747 207.564 20.232 207.031 20.264C206.658 20.2853 206.327 20.4027 206.039 20.616C205.762 20.8187 205.527 21.0693 205.335 21.368C205.154 21.6667 205.02 21.9707 204.935 22.28C204.85 22.5787 204.823 22.8347 204.855 23.048Z" fill="#433DC3"/>
</svg>
