<svg width="1920" height="665" xmlns="http://www.w3.org/2000/svg" xmlns:xlink="http://www.w3.org/1999/xlink" xml:space="preserve" overflow="hidden"><g transform="translate(-1242 -907)"><g><path d="M1424.69 1438.12C1390.6 1438.12 1366.61 1429.11 1352.74 1411.11 1338.92 1393.12 1332.03 1367.29 1332.03 1333.59L1332.03 1318.56C1332.03 1315.67 1332.41 1313.82 1333.23 1313.01 1334.02 1312.22 1335.74 1311.81 1338.35 1311.81L1372.15 1311.81C1377.6 1311.81 1381.36 1312.33 1383.48 1313.33 1385.58 1314.29 1386.65 1317.96 1386.65 1324.33 1386.65 1340.09 1390.63 1350.79 1398.64 1356.45 1406.7 1362.06 1418.61 1365.03 1434.39 1365.38 1452.41 1365.38 1465.49 1360.81 1473.64 1351.66 1481.84 1342.46 1485.96 1332.71 1485.96 1322.48 1485.96 1313.5 1483.29 1305.55 1478 1298.63 1472.69 1291.66 1465.85 1288.18 1457.51 1288.18 1446.6 1288.18 1435.65 1289.02 1424.69 1290.68 1413.79 1292.29 1403.65 1293.08 1394.28 1293.08 1382.99 1293.08 1372.72 1291.64 1363.43 1288.72 1354.1 1285.84 1346.64 1280.2 1340.97 1271.85 1335.35 1263.52 1332.38 1251.46 1332.03 1235.7 1332.03 1200.64 1335.08 1172.43 1341.19 1151.09 1347.29 1129.75 1358.68 1114.26 1375.42 1104.6 1392.21 1094.96 1416.52 1090.12 1448.35 1090.12 1481.84 1090.12 1505.5 1099.32 1519.32 1117.66 1533.11 1135.96 1540.03 1161.82 1540.03 1195.19L1540.03 1219.8C1540.03 1223.01 1539.7 1225 1539.05 1225.79 1538.45 1226.6 1536.7 1226.85 1533.82 1226.55L1500.02 1224.59C1492.88 1223.94 1488.6 1222.82 1487.16 1221.21 1485.77 1219.64 1485.09 1214.79 1485.09 1206.73 1485.09 1197.75 1483.7 1191.33 1480.94 1187.46 1478.16 1183.62 1473.34 1181.23 1466.44 1180.27 1459.52 1179.35 1449.66 1178.86 1436.79 1178.86L1431.45 1178.86C1421.48 1178.86 1413.05 1179.68 1406.16 1181.25 1399.24 1182.86 1394 1187.02 1390.46 1193.78 1386.89 1200.53 1384.96 1211.93 1384.68 1227.97 1384.68 1238.28 1387.74 1245.14 1393.84 1248.55 1399.95 1251.89 1407.63 1253.55 1416.95 1253.55 1425.37 1253.55 1434.72 1252.85 1444.97 1251.38 1455.27 1249.93 1465.27 1249.2 1474.95 1249.2 1486.2 1249.2 1496.81 1250.8 1506.78 1253.99 1516.73 1257.2 1524.77 1262.67 1530.87 1270.43 1536.98 1278.14 1540.03 1288.56 1540.03 1301.68 1540.03 1327.11 1538.5 1348.58 1535.45 1366.14 1532.4 1383.65 1526.76 1397.69 1518.55 1408.28 1510.32 1418.9 1498.66 1426.49 1483.56 1431.15 1468.43 1435.78 1448.81 1438.12 1424.69 1438.12Z" fill="#FFE266" fill-rule="evenodd" fill-opacity="1"/><path d="M1645.85 1434.12C1625.66 1434.12 1609.43 1432.59 1597.22 1429.54 1585.07 1426.49 1575.76 1420.8 1569.33 1412.44 1562.95 1404.1 1558.64 1392.28 1556.41 1377.03 1554.16 1361.78 1553.05 1341.93 1553.05 1317.44 1553.05 1298.13 1555.27 1283.02 1559.78 1272.12 1564.25 1261.18 1570.9 1253.22 1579.75 1248.27 1588.57 1243.25 1599.39 1240.04 1612.2 1238.57 1625.01 1237.13 1639.58 1236.39 1655.94 1236.39L1679.49 1236.39C1684.54 1236.39 1689.26 1235.93 1693.61 1234.97 1697.95 1234.05 1700.12 1231 1700.12 1225.82 1700.12 1221.33 1699.85 1216.35 1699.36 1210.9 1698.92 1205.4 1697.32 1200.17 1694.58 1195.21 1691.81 1190.2 1687.47 1186.03 1681.56 1182.68 1675.7 1179.28 1667.15 1177.56 1655.94 1177.56 1653.69 1177.56 1648.94 1177.67 1641.72 1177.89 1634.48 1178.05 1626.31 1178.19 1617.19 1178.33 1608.08 1178.49 1599.23 1178.65 1590.71 1178.87 1582.24 1179.03 1575.35 1179.17 1570.09 1179.31 1564.8 1179.47 1562.33 1179.53 1562.71 1179.53 1558.5 1179.53 1556.22 1178.41 1555.87 1176.15 1555.57 1173.91 1555.27 1168.6 1555 1160.24L1553.59 1109.15C1553.59 1107.49 1553.48 1105.96 1553.26 1104.57 1553.1 1103.13 1553.05 1101.91 1553.05 1100.87 1553.05 1096.38 1555.27 1094.12 1559.78 1094.12L1654.97 1101.42C1691.79 1104.33 1718.92 1119.69 1736.37 1147.5 1753.79 1175.25 1762.69 1216.13 1763.07 1270.16L1764.05 1406.66C1764.05 1418.59 1763.72 1425.73 1763.07 1428.12 1762.42 1430.52 1760.82 1431.72 1758.29 1431.72L1702.94 1434.12 1702.51 1434.12C1702.21 1434.12 1701.56 1433.84 1700.55 1433.35 1699.6 1432.92 1699.14 1432.05 1699.14 1430.74L1699.14 1396.1C1696.24 1399.96 1693.01 1404.92 1689.48 1411.02 1686.01 1417.12 1680.96 1422.51 1674.39 1427.14 1667.8 1431.77 1658.28 1434.12 1645.85 1434.12ZM1648.67 1352.63C1658 1352.63 1665.77 1350.31 1672.01 1345.66 1678.22 1341.03 1683.32 1335.31 1687.31 1328.55 1691.35 1321.8 1694.39 1315.05 1696.43 1308.29 1698.52 1301.54 1699.95 1295.84 1700.77 1291.19 1701.64 1286.56 1702.07 1284.22 1702.07 1284.22 1702.07 1280.95 1700.93 1278.77 1698.71 1277.68 1696.45 1276.54 1694.69 1275.94 1693.39 1275.94L1683.73 1275.94C1661.37 1275.94 1645.12 1277 1634.99 1279.1 1624.93 1281.22 1618.52 1284.43 1615.78 1288.79 1613.01 1293.09 1611.66 1298.92 1611.66 1306.33L1611.66 1319.4C1611.66 1330.02 1613.31 1337.65 1616.65 1342.28 1620.04 1346.94 1624.63 1349.85 1630.44 1351 1636.21 1352.09 1642.29 1352.63 1648.67 1352.63Z" fill="#FFE266" fill-rule="evenodd" fill-opacity="1"/><path d="M1892.57 1255.75C1918.33 1255.75 1939.57 1257.01 1956.33 1259.46 1973.06 1261.86 1986.08 1266.2 1995.41 1272.44 2004.8 1278.72 2011.4 1287.25 2015.28 1298.08 2019.13 1308.85 2021.06 1322.78 2021.06 1339.85 2021.06 1350.76 2018.94 1361.73 2014.73 1372.69 2010.58 1383.6 2003.93 1393.69 1994.75 1402.9 1985.58 1412.07 1973.25 1419.46 1957.75 1425.05 1942.3 1430.72 1923.46 1433.55 1901.19 1433.55 1884.82 1433.55 1871.72 1431.1 1861.89 1426.25 1852.07 1421.45 1844.7 1416.65 1839.84 1411.85 1835.04 1406.99 1831.81 1404.54 1830.23 1404.54 1829.19 1404.54 1828.54 1405.93 1828.27 1408.68 1827.97 1411.38 1827.83 1418.37 1827.83 1429.63 1827.83 1437.04 1825.78 1441.46 1821.72 1442.94 1817.7 1444.38 1811.02 1445.12 1801.63 1445.12L1785.69 1445.12C1783.42 1445.12 1782.03 1444.79 1781.54 1444.14 1781.1 1443.48 1780.89 1441.68 1780.89 1438.79L1780.89 1320.55C1780.89 1317.93 1781.21 1316.29 1781.87 1315.64 1782.52 1314.98 1784.43 1314.66 1787.65 1314.66L1817.13 1314.66C1831.6 1314.66 1841.42 1315.8 1846.61 1318.04 1851.77 1320.3 1854.36 1326.6 1854.36 1336.91 1854.36 1349.78 1858.21 1357.74 1865.93 1360.8 1873.71 1363.85 1884.85 1365.38 1899.34 1365.38 1908.64 1365.38 1916.42 1362.52 1922.7 1356.76 1929.03 1350.95 1932.2 1343.07 1932.2 1333.09 1932.2 1318.26 1928.41 1308.44 1920.84 1303.64 1913.26 1298.79 1900.27 1296.33 1881.87 1296.33 1875.76 1296.33 1868.33 1295.95 1859.6 1295.13 1850.92 1294.34 1841.75 1292.35 1832.09 1289.13 1822.48 1285.94 1813.45 1280.9 1805.01 1273.97 1796.63 1266.99 1789.86 1257.58 1784.71 1245.72 1779.6 1233.8 1777.06 1218.5 1777.06 1199.8 1777.06 1164.02 1785.17 1137.57 1801.41 1120.39 1817.7 1103.15 1840.99 1094.53 1871.28 1094.53 1890.63 1094.53 1906.49 1096.88 1918.88 1101.52 1931.24 1106.18 1940.74 1111.5 1947.37 1117.44 1953.98 1123.41 1958.65 1128.73 1961.35 1133.37 1964.1 1138.03 1965.5 1140.35 1965.5 1140.35 1965.5 1140.08 1965.09 1137.73 1964.3 1133.37 1963.48 1129 1963.09 1121.53 1963.09 1110.9L1963.64 1099.77C1963.64 1095.35 1966.18 1093.12 1971.28 1093.12L2009.06 1093.12C2011.89 1093.12 2013.7 1093.44 2014.51 1094.1 2015.39 1094.7 2015.82 1096.28 2015.82 1098.9L2015.82 1214.3C2015.82 1218.45 2015.55 1221.18 2015.06 1222.49 2014.54 1223.79 2013.48 1224.45 2011.89 1224.45 2012.55 1224.45 2010.75 1224.39 2006.55 1224.23 2002.4 1224.01 1997.4 1223.77 1991.59 1223.47 1985.83 1223.11 1980.45 1222.78 1975.43 1222.49 1970.41 1222.21 1967.08 1222.05 1965.5 1222.05 1953.54 1221.39 1945.19 1220.6 1940.39 1219.65 1935.58 1218.64 1932.66 1216.92 1931.65 1214.52 1930.7 1212.12 1930.07 1208.36 1929.8 1203.18 1929.14 1193.22 1925.02 1186.79 1917.46 1183.87 1909.87 1180.98 1897.07 1179.51 1879.03 1179.51 1864.54 1179.51 1853.65 1182.67 1846.39 1189 1839.1 1195.27 1835.47 1202.58 1835.47 1210.92 1835.47 1217.99 1837.79 1224.97 1842.46 1231.87 1847.18 1238.79 1853.81 1244.49 1862.33 1248.99 1870.84 1253.52 1880.91 1255.75 1892.57 1255.75Z" fill="#FFE266" fill-rule="evenodd" fill-opacity="1"/><path d="M2151.12 1255.75C2176.78 1255.75 2197.92 1257.01 2214.61 1259.46 2231.27 1261.86 2244.24 1266.2 2253.53 1272.44 2262.89 1278.72 2269.46 1287.25 2273.32 1298.08 2277.16 1308.85 2279.09 1322.78 2279.09 1339.85 2279.09 1350.76 2276.97 1361.73 2272.78 1372.69 2268.65 1383.6 2262.02 1393.69 2252.88 1402.9 2243.75 1412.07 2231.46 1419.46 2216.02 1425.05 2200.64 1430.72 2181.88 1433.55 2159.71 1433.55 2143.4 1433.55 2130.35 1431.1 2120.56 1426.25 2110.78 1421.45 2103.44 1416.65 2098.6 1411.85 2093.82 1406.99 2090.61 1404.54 2089.03 1404.54 2088 1404.54 2087.35 1405.93 2087.08 1408.68 2086.78 1411.38 2086.64 1418.37 2086.64 1429.63 2086.64 1437.04 2084.6 1441.46 2080.55 1442.94 2076.56 1444.38 2069.9 1445.12 2060.55 1445.12L2044.67 1445.12C2042.42 1445.12 2041.03 1444.79 2040.54 1444.14 2040.11 1443.48 2039.89 1441.68 2039.89 1438.79L2039.89 1320.55C2039.89 1317.93 2040.22 1316.29 2040.87 1315.64 2041.52 1314.98 2043.42 1314.66 2046.63 1314.66L2075.99 1314.66C2090.39 1314.66 2100.18 1315.8 2105.34 1318.04 2110.48 1320.3 2113.06 1326.6 2113.06 1336.91 2113.06 1349.78 2116.89 1357.74 2124.59 1360.8 2132.33 1363.85 2143.42 1365.38 2157.86 1365.38 2167.13 1365.38 2174.87 1362.52 2181.12 1356.76 2187.43 1350.95 2190.58 1343.07 2190.58 1333.09 2190.58 1318.26 2186.8 1308.44 2179.28 1303.64 2171.72 1298.79 2158.78 1296.33 2140.46 1296.33 2134.37 1296.33 2126.98 1295.95 2118.28 1295.13 2109.64 1294.34 2100.5 1292.35 2090.88 1289.13 2081.31 1285.94 2072.32 1280.9 2063.92 1273.97 2055.57 1266.99 2048.83 1257.58 2043.7 1245.72 2038.61 1233.8 2036.08 1218.5 2036.08 1199.8 2036.08 1164.02 2044.16 1137.57 2060.33 1120.39 2076.56 1103.15 2099.74 1094.53 2129.91 1094.53 2149.19 1094.53 2164.98 1096.88 2177.32 1101.52 2189.63 1106.18 2199.09 1111.5 2205.7 1117.44 2212.27 1123.41 2216.92 1128.73 2219.61 1133.37 2222.36 1138.03 2223.74 1140.35 2223.74 1140.35 2223.74 1140.08 2223.34 1137.73 2222.55 1133.37 2221.73 1129 2221.35 1121.53 2221.35 1110.9L2221.9 1099.77C2221.9 1095.35 2224.42 1093.12 2229.51 1093.12L2267.13 1093.12C2269.95 1093.12 2271.75 1093.44 2272.56 1094.1 2273.43 1094.7 2273.87 1096.28 2273.87 1098.9L2273.87 1214.3C2273.87 1218.45 2273.59 1221.18 2273.11 1222.49 2272.59 1223.79 2271.53 1224.45 2269.95 1224.45 2270.6 1224.45 2268.81 1224.39 2264.62 1224.23 2260.49 1224.01 2255.52 1223.77 2249.73 1223.47 2243.99 1223.11 2238.64 1222.78 2233.64 1222.49 2228.64 1222.21 2225.32 1222.05 2223.74 1222.05 2211.84 1221.39 2203.52 1220.6 2198.74 1219.65 2193.95 1218.64 2191.05 1216.92 2190.04 1214.52 2189.09 1212.12 2188.46 1208.36 2188.19 1203.18 2187.54 1193.22 2183.43 1186.79 2175.91 1183.87 2168.35 1180.98 2155.6 1179.51 2137.63 1179.51 2123.2 1179.51 2112.36 1182.67 2105.13 1189 2097.87 1195.27 2094.25 1202.58 2094.25 1210.92 2094.25 1217.99 2096.56 1224.97 2101.21 1231.87 2105.91 1238.79 2112.52 1244.49 2121 1248.99 2129.48 1253.52 2139.51 1255.75 2151.12 1255.75Z" fill="#FFE266" fill-rule="evenodd" fill-opacity="1"/><path d="M2374.89 1154.11 2308.65 1153.13C2304.51 1153.13 2301.7 1152.34 2300.25 1150.73 2298.78 1149.15 2298.07 1146.27 2298.07 1142.13L2297.52 1105.96 2297.52 1096.7C2297.52 1093.87 2298.23 1091.58 2299.71 1089.84 2301.15 1088.04 2303.99 1087.12 2308.22 1087.12L2369.98 1088.53C2373.25 1088.53 2375.9 1088.94 2377.94 1089.73 2380.04 1090.55 2381.11 1092.73 2381.11 1096.27L2381.11 1143.54C2381.11 1146.46 2380.7 1148.96 2379.91 1151.06 2379.09 1153.1 2377.42 1154.11 2374.89 1154.11ZM2369.98 1424.16 2310.62 1426.12 2303.31 1426.12C2300.09 1426.12 2298.1 1425.46 2297.31 1424.16 2296.49 1422.93 2296.11 1419.88 2296.11 1415.01L2296.11 1412.61C2296.11 1395.62 2296.49 1378.7 2297.31 1361.85 2298.1 1344.93 2298.51 1327.94 2298.51 1310.86 2298.51 1290.98 2298.31 1270.97 2297.96 1250.84 2297.66 1230.74 2297.2 1210.86 2296.54 1191.26 2296.54 1187.12 2296.92 1184.12 2297.74 1182.21 2298.62 1180.25 2301.29 1179.27 2305.82 1179.27L2369.54 1179.27C2374.7 1179.27 2377.89 1180.42 2379.14 1182.65 2380.45 1184.83 2381.11 1188.37 2381.11 1193.22L2381.11 1417.95C2381.11 1421.16 2380.51 1422.93 2379.36 1423.28 2378.27 1423.58 2375.13 1423.86 2369.98 1424.16Z" fill="#FFE266" fill-rule="evenodd" fill-opacity="1"/><path d="M2464.85 1432.12 2419.29 1432.12C2416.03 1432.12 2413.76 1431.71 2412.46 1430.92 2411.21 1430.1 2410.61 1427.76 2410.61 1423.85 2411.26 1412.04 2411.72 1398.82 2412.02 1384.24 2412.37 1369.6 2412.56 1353.93 2412.56 1337.23 2412.56 1313.45 2412.37 1288.64 2412.02 1262.8 2411.72 1236.9 2411.43 1211.6 2411.15 1186.84 2407.9 1186.19 2405.08 1185.32 2402.69 1184.23 2400.31 1183.09 2399.11 1181.7 2399.11 1180.1L2399.11 1111.76C2399.11 1108.22 2399.49 1106.05 2400.31 1105.23 2401.09 1104.44 2403.07 1104.03 2406.27 1104.03 2416.52 1104.03 2425.63 1103.98 2433.61 1103.82 2441.63 1103.6 2450.77 1103.35 2461.05 1103.05 2471.3 1102.78 2484.37 1102.37 2500.21 1101.86 2516.05 1101.37 2536.9 1100.77 2562.8 1100.12L2564.75 1100.12C2566.32 1100.12 2567.27 1100.44 2567.57 1101.1 2567.92 1101.75 2568.11 1103.38 2568.11 1105.99L2568.11 1184.01C2568.11 1184.31 2567.63 1184.64 2566.7 1184.99 2565.75 1185.29 2563.34 1185.43 2559.44 1185.43 2556.24 1185.43 2553.2 1185.37 2550.32 1185.21 2547.42 1185.08 2543.65 1184.99 2539.04 1184.99 2534.41 1184.99 2527.76 1184.94 2519.08 1184.78 2510.46 1184.56 2498.8 1184.45 2484.05 1184.45 2478.62 1184.45 2474.61 1184.86 2472.01 1185.65 2469.46 1186.46 2467.8 1188.69 2467.02 1192.39 2466.2 1196.09 2465.82 1202.13 2465.82 1210.46L2465.82 1239.84C2465.82 1244.35 2466.15 1247.1 2466.8 1248.11 2467.45 1249.06 2468.89 1249.52 2471.14 1249.52 2484.59 1249.52 2495.27 1249.47 2503.25 1249.3 2511.27 1249.09 2518 1248.98 2523.42 1248.98 2545.17 1248.98 2556.07 1250.61 2556.07 1253.87 2556.07 1254.17 2555.99 1254.64 2555.86 1255.29 2555.69 1255.94 2555.64 1256.59 2555.64 1257.25L2557.59 1301.54C2557.59 1305.75 2557.32 1308.17 2556.83 1308.83 2556.32 1309.43 2554.8 1309.7 2552.28 1309.7L2488.39 1309.26C2484.54 1309.26 2482.04 1309.34 2480.9 1309.48 2479.82 1309.64 2478.68 1309.7 2477.54 1309.7 2476.45 1309.7 2473.99 1309.89 2470.16 1310.24 2467.61 1310.24 2466.09 1310.57 2465.61 1311.22 2465.09 1311.82 2464.85 1314.35 2464.85 1318.84L2468.75 1425.37C2468.75 1427.9 2468.56 1429.64 2468.21 1430.59 2467.91 1431.6 2466.8 1432.12 2464.85 1432.12Z" fill="#FFE266" fill-rule="evenodd" fill-opacity="1"/><path d="M2725.43 1423.12 2687.83 1423.12C2682.96 1423.12 2679.39 1422.52 2677.15 1421.27 2674.89 1419.96 2673.78 1416.75 2673.78 1411.58 2673.78 1398.73 2674.02 1385.01 2674.54 1370.43 2675.03 1355.78 2675.44 1340.38 2675.74 1324.27 2653.86 1324.27 2636.56 1321.95 2623.87 1317.3 2611.14 1312.67 2601.8 1305.7 2595.86 1296.4 2589.97 1287.03 2586.19 1275.33 2584.53 1261.23 2582.92 1247.08 2582.13 1230.53 2582.13 1211.59L2582.13 1094.45C2582.13 1091.84 2582.51 1090.48 2583.33 1090.31 2584.12 1090.18 2586.62 1090.1 2590.85 1090.1L2662.77 1089.12C2663.99 1089.12 2664.62 1089.44 2664.62 1090.1 2664.62 1090.75 2664.79 1092.68 2665.17 1095.87L2660.81 1224.55C2660.81 1231.02 2661.27 1238.02 2662.22 1245.56 2663.15 1253.12 2665.55 1259.55 2669.42 1264.83 2673.34 1270.13 2679.8 1272.77 2688.81 1272.77 2702.9 1272.77 2713.14 1272.12 2719.54 1270.81 2726 1269.51 2730.12 1266.54 2731.86 1261.89 2733.66 1257.26 2734.58 1249.77 2734.58 1239.46 2734.58 1235.98 2734.5 1232.25 2734.37 1228.25 2734.2 1224.19 2734.15 1219.76 2734.15 1214.96 2734.15 1213.96 2733.96 1209.06 2733.6 1200.27 2733.3 1191.42 2732.84 1181.05 2732.19 1169.13 2731.53 1157.24 2730.93 1145.67 2730.44 1134.4 2730.01 1123.16 2729.79 1114.48 2729.79 1108.39 2729.79 1100.06 2731.86 1095.87 2736 1095.87 2740.85 1095.59 2745.7 1095.43 2750.49 1095.43 2755.34 1095.43 2759.87 1095.43 2764.01 1095.43 2776.21 1095.43 2784.96 1095.76 2790.27 1096.41 2795.64 1097.01 2798.93 1097.8 2800.19 1098.81 2801.49 1099.76 2802.15 1100.87 2802.15 1102.18L2803.13 1164.78C2803.13 1168.34 2802.8 1170.44 2802.15 1171.09 2801.49 1171.75 2799.7 1172.07 2796.81 1172.07L2787.22 1172.51C2786.18 1196.89 2785.37 1218.2 2784.71 1236.41 2784.11 1254.56 2782.04 1269.72 2778.5 1281.92 2774.93 1294.11 2768.64 1303.53 2759.65 1310.11 2750.63 1316.73 2737.31 1320.65 2719.65 1321.87L2733.17 1414.95C2733.17 1418.82 2732.76 1421.13 2731.97 1421.92 2731.15 1422.74 2728.97 1423.12 2725.43 1423.12Z" fill="#FFE266" fill-rule="evenodd" fill-opacity="1"/><path d="M2926.49 1431.12C2903.7 1431.12 2885.17 1428.45 2870.89 1423.16 2856.59 1417.88 2845.49 1408.46 2837.6 1394.95 2829.77 1381.45 2824.38 1362.44 2821.5 1337.88 2818.59 1313.26 2817.15 1281.51 2817.15 1242.56L2817.15 1111.85C2817.15 1108.96 2817.36 1107.22 2817.8 1106.62 2818.29 1105.97 2819.68 1105.64 2821.93 1105.64L2902.45 1104.12C2904.02 1104.12 2904.89 1104.72 2905.06 1105.86 2905.19 1106.95 2905.27 1109.75 2905.27 1114.25L2900.49 1302.36C2900.19 1309.42 2900.52 1317.45 2901.47 1326.44 2902.39 1335.45 2904 1344.06 2906.25 1352.25 2908.48 1360.48 2911.48 1367.29 2915.18 1372.73 2918.88 1378.18 2923.44 1380.9 2928.88 1380.9 2941.42 1380.9 2951.22 1380.36 2958.26 1379.27 2965.36 1378.12 2970.66 1374.88 2974.15 1369.57 2977.68 1364.29 2979.94 1355.85 2980.89 1344.3 2981.9 1332.76 2982.41 1316.69 2982.41 1296.05 2982.41 1294.82 2982.22 1289.57 2981.87 1280.25 2981.57 1270.89 2981.25 1259.23 2980.89 1245.29 2980.59 1231.29 2980.18 1216.48 2979.69 1200.84 2979.26 1185.24 2978.85 1170.4 2978.5 1156.29 2978.2 1142.13 2977.87 1130.23 2977.52 1120.57 2977.22 1110.93 2977.08 1105.29 2977.08 1103.68 2977.08 1098.54 2977.41 1095.49 2978.06 1094.53 2978.72 1093.61 2979.97 1093.12 2981.87 1093.12L2984.81 1093.12C2993.13 1093.12 3001.4 1093.39 3009.62 1093.88 3017.8 1094.31 3025.55 1094.53 3032.9 1094.53 3036.16 1094.53 3038.26 1095.02 3039.21 1095.95 3040.13 1096.9 3040.62 1099.16 3040.62 1102.7L3042.15 1172.63C3042.15 1178.08 3041.71 1181.32 3040.84 1182.33 3040.02 1183.28 3038.23 1183.91 3035.4 1184.18L3028.11 1184.72 3027.13 1248.77C3026.48 1282.92 3024.96 1311.16 3022.56 1333.52 3020.17 1355.82 3016.47 1373.58 3011.46 1386.78 3006.51 1399.94 3000.18 1409.66 2992.42 1415.98 2984.73 1422.24 2975.4 1426.27 2964.46 1428.18 2953.58 1430.14 2940.91 1431.12 2926.49 1431.12Z" fill="#FFE266" fill-rule="evenodd" fill-opacity="1"/><path d="M3135.95 1154.11 3069.71 1153.13C3065.57 1153.13 3062.76 1152.34 3061.31 1150.73 3059.84 1149.15 3059.13 1146.27 3059.13 1142.13L3058.58 1105.96 3058.58 1096.7C3058.58 1093.87 3059.29 1091.58 3060.77 1089.84 3062.21 1088.04 3065.05 1087.12 3069.28 1087.12L3131.04 1088.53C3134.31 1088.53 3136.96 1088.94 3139 1089.73 3141.1 1090.55 3142.17 1092.73 3142.17 1096.27L3142.17 1143.54C3142.17 1146.46 3141.76 1148.96 3140.97 1151.06 3140.15 1153.1 3138.48 1154.11 3135.95 1154.11ZM3131.04 1424.16 3071.68 1426.12 3064.37 1426.12C3061.15 1426.12 3059.16 1425.46 3058.37 1424.16 3057.55 1422.93 3057.17 1419.88 3057.17 1415.01L3057.17 1412.61C3057.17 1395.62 3057.55 1378.7 3058.37 1361.85 3059.16 1344.93 3059.57 1327.94 3059.57 1310.86 3059.57 1290.98 3059.38 1270.97 3059.02 1250.84 3058.72 1230.74 3058.26 1210.86 3057.6 1191.26 3057.6 1187.12 3057.98 1184.12 3058.8 1182.21 3059.68 1180.25 3062.35 1179.27 3066.88 1179.27L3130.6 1179.27C3135.76 1179.27 3138.95 1180.42 3140.2 1182.65 3141.51 1184.83 3142.17 1188.37 3142.17 1193.22L3142.17 1417.95C3142.17 1421.16 3141.57 1422.93 3140.42 1423.28 3139.33 1423.58 3136.19 1423.86 3131.04 1424.16Z" fill="#FFE266" fill-rule="evenodd" fill-opacity="1"/><path d="M1439.97 1426.3C1405.96 1426.3 1382.04 1417.34 1368.22 1399.35 1354.42 1381.29 1347.51 1355.37 1347.51 1321.59L1347.51 1306.63C1347.51 1303.74 1347.92 1301.88 1348.71 1301.09 1349.47 1300.3 1351.16 1299.92 1353.77 1299.92L1387.51 1299.92C1392.92 1299.92 1396.65 1300.39 1398.69 1301.34 1400.82 1302.27 1401.88 1305.97 1401.88 1312.4 1401.88 1328.18 1405.88 1338.92 1413.88 1344.56 1421.93 1350.14 1433.88 1353.09 1449.63 1353.39 1467.59 1353.39 1480.65 1348.83 1488.79 1339.73 1497.03 1330.55 1501.14 1320.8 1501.14 1310.52 1501.14 1301.48 1498.48 1293.52 1493.14 1286.6 1487.89 1279.7 1481.12 1276.24 1472.79 1276.24 1461.82 1276.24 1450.88 1277.06 1439.97 1278.72 1429.09 1280.28 1418.97 1281.07 1409.63 1281.07 1398.42 1281.07 1388.14 1279.62 1378.8 1276.71 1369.47 1273.82 1361.99 1268.18 1356.35 1259.87 1350.78 1251.47 1347.84 1239.4 1347.51 1223.71 1347.51 1188.58 1350.53 1160.35 1356.57 1138.99 1362.69 1117.57 1374.09 1102.04 1390.8 1092.47 1407.51 1082.8 1431.78 1077.98 1463.62 1077.98 1497.03 1077.98 1520.65 1087.16 1534.45 1105.55 1548.25 1123.84 1555.16 1149.72 1555.16 1183.19L1555.16 1207.68C1555.16 1210.9 1554.83 1212.94 1554.2 1213.82 1553.58 1214.58 1551.81 1214.82 1548.93 1214.52L1515.16 1212.51C1508.08 1211.88 1503.81 1210.79 1502.34 1209.21 1500.93 1207.57 1500.22 1202.72 1500.22 1194.71 1500.22 1185.69 1498.83 1179.26 1496.08 1175.39 1493.36 1171.55 1488.52 1169.15 1481.63 1168.23 1474.72 1167.19 1464.84 1166.67 1451.97 1166.67L1446.69 1166.67C1436.73 1166.67 1428.3 1167.52 1421.39 1169.15 1414.5 1170.73 1409.28 1174.9 1405.74 1181.63 1402.23 1188.39 1400.3 1199.84 1399.97 1215.91 1399.97 1226.21 1403.05 1233.05 1409.17 1236.43 1415.29 1239.81 1422.99 1241.5 1432.33 1241.5 1440.65 1241.5 1449.93 1240.79 1460.22 1239.37 1470.48 1237.88 1480.44 1237.14 1490.1 1237.14 1501.31 1237.14 1511.89 1238.75 1521.85 1241.96 1531.81 1245.18 1539.86 1250.68 1545.96 1258.45 1552.08 1266.16 1555.16 1276.6 1555.16 1289.79 1555.16 1315.15 1553.61 1336.63 1550.56 1354.23 1547.51 1371.72 1541.85 1385.78 1533.63 1396.39 1525.47 1407.01 1513.82 1414.61 1498.69 1419.25 1483.62 1423.96 1464.05 1426.3 1439.97 1426.3ZM1661.12 1421.97C1640.87 1421.97 1624.63 1420.42 1612.41 1417.37 1600.25 1414.32 1590.97 1408.62 1584.52 1400.28 1578.1 1391.89 1573.74 1380.06 1571.46 1364.83 1569.28 1349.52 1568.16 1329.65 1568.16 1305.21 1568.16 1285.89 1570.4 1270.79 1574.89 1259.87 1579.35 1248.94 1586.02 1241.01 1594.89 1236.08 1603.73 1231.04 1614.56 1227.82 1627.35 1226.4 1640.19 1224.91 1654.83 1224.17 1671.21 1224.17L1694.86 1224.17C1699.97 1224.17 1704.68 1223.71 1708.98 1222.75 1713.36 1221.74 1715.57 1218.67 1715.57 1213.57 1715.57 1209.02 1715.32 1204.03 1714.86 1198.61 1714.4 1193.11 1712.79 1187.9 1710.04 1182.94 1707.29 1177.93 1702.94 1173.7 1696.98 1170.33 1691.1 1166.95 1682.51 1165.28 1671.21 1165.28 1669.04 1165.28 1664.27 1165.34 1656.98 1165.5 1649.77 1165.67 1641.58 1165.83 1632.41 1165.97 1623.29 1166.13 1614.48 1166.29 1605.93 1166.46 1597.47 1166.62 1590.56 1166.76 1585.23 1166.92 1579.89 1167.08 1577.42 1167.16 1577.82 1167.16 1573.58 1167.16 1571.32 1166.05 1570.99 1163.87 1570.7 1161.58 1570.37 1156.29 1570.04 1147.95L1568.65 1096.7C1568.65 1095.14 1568.57 1093.65 1568.41 1092.23 1568.25 1090.73 1568.16 1089.53 1568.16 1088.58 1568.16 1084.03 1570.4 1081.74 1574.89 1081.74L1670.29 1089.04C1707.21 1091.96 1734.42 1107.32 1751.92 1135.12 1769.42 1162.91 1778.34 1203.84 1778.75 1257.85L1779.68 1394.5C1779.68 1406.36 1779.32 1413.52 1778.62 1415.95 1777.99 1418.37 1776.44 1419.6 1773.91 1419.6L1718.51 1421.97 1717.93 1421.97C1717.61 1421.97 1716.98 1421.73 1716.03 1421.26 1715.1 1420.77 1714.64 1419.87 1714.64 1418.54L1714.64 1383.9C1711.73 1387.75 1708.52 1392.73 1704.98 1398.86 1701.44 1404.91 1696.38 1410.25 1689.8 1414.89 1683.21 1419.6 1673.66 1421.97 1661.12 1421.97ZM1664.06 1340.44C1673.39 1340.44 1681.14 1338.13 1687.35 1333.49 1693.61 1328.78 1698.75 1323.06 1702.75 1316.3 1706.83 1309.54 1709.88 1302.78 1711.92 1296.03 1714.04 1289.27 1715.49 1283.57 1716.27 1278.94 1717.06 1274.23 1717.44 1271.88 1717.44 1271.88 1717.44 1268.67 1716.33 1266.49 1714.04 1265.4 1711.84 1264.31 1710.12 1263.76 1708.87 1263.76L1699.21 1263.76C1676.71 1263.76 1660.41 1264.83 1650.29 1266.92 1640.16 1268.97 1633.74 1272.16 1630.99 1276.49 1628.25 1280.79 1626.89 1286.68 1626.89 1294.15L1626.89 1307.12C1626.89 1317.72 1628.55 1325.37 1631.92 1330.09 1635.29 1334.72 1639.89 1337.61 1645.69 1338.78 1651.48 1339.9 1657.61 1340.44 1664.06 1340.44ZM1907.84 1243.49C1933.47 1243.49 1954.64 1244.72 1971.35 1247.14 1988.06 1249.51 2001.09 1253.82 2010.4 1260.11 2019.73 1266.38 2026.34 1274.91 2030.18 1285.67 2034.02 1296.43 2035.95 1310.33 2035.95 1327.36 2035.95 1338.37 2033.86 1349.33 2029.69 1360.23 2025.56 1371.15 2018.89 1381.21 2009.72 1390.39 2000.52 1399.57 1988.22 1406.96 1972.77 1412.54 1957.39 1418.18 1938.62 1421.02 1916.41 1421.02 1900.11 1421.02 1887.05 1418.59 1877.26 1413.72 1867.43 1408.92 1860.11 1404.12 1855.24 1399.35 1850.48 1394.48 1847.24 1392.02 1845.61 1392.02 1844.66 1392.02 1844.03 1393.41 1843.73 1396.17 1843.4 1398.92 1843.24 1405.89 1843.24 1417.12 1843.24 1424.51 1841.2 1428.92 1837.15 1430.31 1833.15 1431.81 1826.51 1432.57 1817.25 1432.57L1801.25 1432.57C1799.05 1432.57 1797.69 1432.24 1797.15 1431.62 1796.66 1430.99 1796.44 1429.22 1796.44 1426.3L1796.44 1308.04C1796.44 1305.54 1796.74 1303.96 1797.36 1303.33 1798.07 1302.62 1800.03 1302.27 1803.27 1302.27L1832.66 1302.27C1847.11 1302.27 1856.85 1303.41 1861.96 1305.7 1867.13 1307.96 1869.72 1314.26 1869.72 1324.53 1869.72 1337.42 1873.55 1345.4 1881.26 1348.45 1889.01 1351.42 1900.11 1352.92 1914.53 1352.92 1923.87 1352.92 1931.68 1350.06 1937.94 1344.34 1944.22 1338.51 1947.35 1330.63 1947.35 1320.66 1947.35 1305.89 1943.57 1296.11 1935.95 1291.31 1928.41 1286.46 1915.51 1284.01 1897.26 1284.01 1891.13 1284.01 1883.73 1283.63 1875.02 1282.84 1866.4 1281.97 1857.26 1279.92 1847.6 1276.71 1837.96 1273.49 1828.93 1268.42 1820.55 1261.5 1812.25 1254.61 1805.5 1245.21 1800.3 1233.35 1795.21 1221.42 1792.66 1206.1 1792.66 1187.41 1792.66 1151.77 1800.74 1125.34 1816.9 1108.14 1833.15 1090.95 1856.36 1082.34 1886.53 1082.34 1905.83 1082.34 1921.66 1084.65 1934.07 1089.29 1946.45 1093.92 1955.95 1099.23 1962.53 1105.2 1969.12 1111.17 1973.75 1116.51 1976.41 1121.22 1979.16 1125.85 1980.52 1128.17 1980.52 1128.17 1980.52 1127.84 1980.14 1125.53 1979.35 1121.22 1978.56 1116.81 1978.18 1109.31 1978.18 1098.71L1978.64 1087.65C1978.64 1083.07 1981.2 1080.81 1986.29 1080.81L2023.95 1080.81C2026.83 1080.81 2028.68 1081.17 2029.47 1081.87 2030.26 1082.5 2030.64 1084.05 2030.64 1086.59L2030.64 1201.91C2030.64 1206.16 2030.4 1208.91 2029.94 1210.16 2029.47 1211.42 2028.41 1212.04 2026.75 1212.04 2027.46 1212.04 2025.69 1211.96 2021.47 1211.8 2017.31 1211.64 2012.33 1211.42 2006.54 1211.09 2000.79 1210.79 1995.43 1210.46 1990.43 1210.16 1985.47 1209.84 1982.18 1209.67 1980.52 1209.67 1968.68 1209.05 1960.33 1208.26 1955.49 1207.33 1950.7 1206.29 1947.79 1204.6 1946.78 1202.26 1945.83 1199.84 1945.2 1196.02 1944.9 1190.84 1944.25 1180.87 1940.14 1174.41 1932.55 1171.52 1925.01 1168.61 1912.28 1167.16 1894.32 1167.16 1879.87 1167.16 1869.01 1170.3 1861.72 1176.59 1854.51 1182.86 1850.89 1190.22 1850.89 1198.61 1850.89 1205.67 1853.2 1212.67 1857.83 1219.56 1862.53 1226.49 1869.12 1232.21 1877.61 1236.79 1886.15 1241.25 1896.22 1243.49 1907.84 1243.49ZM2166.54 1243.49C2192.2 1243.49 2213.37 1244.72 2230.07 1247.14 2246.78 1249.51 2259.79 1253.82 2269.12 1260.11 2278.46 1266.38 2285.04 1274.91 2288.88 1285.67 2292.74 1296.43 2294.65 1310.33 2294.65 1327.36 2294.65 1338.37 2292.58 1349.33 2288.41 1360.23 2284.25 1371.15 2277.58 1381.21 2268.41 1390.39 2259.24 1399.57 2246.92 1406.96 2231.49 1412.54 2216.11 1418.18 2197.34 1421.02 2175.14 1421.02 2158.81 1421.02 2145.77 1418.59 2135.95 1413.72 2126.16 1408.92 2118.84 1404.12 2113.96 1399.35 2109.18 1394.48 2105.96 1392.02 2104.3 1392.02 2103.38 1392.02 2102.75 1393.41 2102.43 1396.17 2102.13 1398.92 2101.96 1405.89 2101.96 1417.12 2101.96 1424.51 2099.92 1428.92 2095.84 1430.31 2091.84 1431.81 2085.23 1432.57 2075.98 1432.57L2059.98 1432.57C2057.77 1432.57 2056.39 1432.24 2055.84 1431.62 2055.38 1430.99 2055.13 1429.22 2055.13 1426.3L2055.13 1308.04C2055.13 1305.54 2055.46 1303.96 2056.09 1303.33 2056.79 1302.62 2058.75 1302.27 2061.96 1302.27L2091.38 1302.27C2105.8 1302.27 2115.57 1303.41 2120.66 1305.7 2125.86 1307.96 2128.44 1314.26 2128.44 1324.53 2128.44 1337.42 2132.28 1345.4 2139.95 1348.45 2147.73 1351.42 2158.81 1352.92 2173.26 1352.92 2182.59 1352.92 2190.37 1350.06 2196.66 1344.34 2202.94 1338.51 2206.07 1330.63 2206.07 1320.66 2206.07 1305.89 2202.26 1296.11 2194.67 1291.31 2187.14 1286.46 2174.24 1284.01 2155.95 1284.01 2149.83 1284.01 2142.43 1283.63 2133.72 1282.84 2125.09 1281.97 2115.95 1279.92 2106.32 1276.71 2096.66 1273.49 2087.65 1268.42 2079.27 1261.5 2070.94 1254.61 2064.2 1245.21 2059.02 1233.35 2053.94 1221.42 2051.38 1206.1 2051.38 1187.41 2051.38 1151.77 2059.46 1125.34 2075.62 1108.14 2091.84 1090.95 2115.05 1082.34 2145.26 1082.34 2164.55 1082.34 2180.39 1084.65 2192.77 1089.29 2205.18 1093.92 2214.65 1099.23 2221.26 1105.2 2227.84 1111.17 2232.47 1116.51 2235.14 1121.22 2237.88 1125.85 2239.24 1128.17 2239.24 1128.17 2239.24 1127.84 2238.86 1125.53 2238.07 1121.22 2237.28 1116.81 2236.9 1109.31 2236.9 1098.71L2237.37 1087.65C2237.37 1083.07 2239.92 1080.81 2245.01 1080.81L2282.65 1080.81C2285.56 1080.81 2287.41 1081.17 2288.17 1081.87 2288.96 1082.5 2289.37 1084.05 2289.37 1086.59L2289.37 1201.91C2289.37 1206.16 2289.12 1208.91 2288.66 1210.16 2288.17 1211.42 2287.14 1212.04 2285.48 1212.04 2286.18 1212.04 2284.41 1211.96 2280.17 1211.8 2276.03 1211.64 2271.05 1211.42 2265.23 1211.09 2259.52 1210.79 2254.16 1210.46 2249.12 1210.16 2244.2 1209.84 2240.9 1209.67 2239.24 1209.67 2227.41 1209.05 2219.05 1208.26 2214.18 1207.33 2209.39 1206.29 2206.51 1204.6 2205.48 1202.26 2204.55 1199.84 2203.92 1196.02 2203.6 1190.84 2202.97 1180.87 2198.86 1174.41 2191.24 1171.52 2183.73 1168.61 2170.97 1167.16 2153.01 1167.16 2138.59 1167.16 2127.73 1170.3 2120.44 1176.59 2113.23 1182.86 2109.61 1190.22 2109.61 1198.61 2109.61 1205.67 2111.92 1212.67 2116.55 1219.56 2121.26 1226.49 2127.84 1232.21 2136.3 1236.79 2144.85 1241.25 2154.94 1243.49 2166.54 1243.49ZM2390.08 1141.6 2324.09 1140.65C2319.84 1140.65 2316.99 1139.86 2315.49 1138.31 2314.1 1136.65 2313.39 1133.73 2313.39 1129.59L2312.9 1093.4 2312.9 1084.22C2312.9 1081.33 2313.61 1079.01 2315.03 1077.27 2316.52 1075.47 2319.35 1074.57 2323.49 1074.57L2385.26 1075.99C2388.47 1075.99 2391.11 1076.4 2393.15 1077.27 2395.27 1078.06 2396.31 1080.21 2396.31 1083.75L2396.31 1130.98C2396.31 1133.89 2395.9 1136.4 2395.03 1138.53 2394.24 1140.57 2392.61 1141.6 2390.08 1141.6ZM2385.26 1411.84 2325.97 1413.72 2318.67 1413.72C2315.46 1413.72 2313.48 1413.09 2312.69 1411.84 2311.9 1410.58 2311.52 1407.5 2311.52 1402.65L2311.52 1400.28C2311.52 1383.25 2311.9 1366.27 2312.69 1349.41 2313.48 1332.51 2313.86 1315.54 2313.86 1298.51 2313.86 1278.56 2313.69 1258.53 2313.39 1238.42 2313.07 1218.31 2312.61 1198.45 2311.98 1178.83 2311.98 1174.58 2312.36 1171.52 2313.15 1169.62 2314.02 1167.65 2316.69 1166.67 2321.15 1166.67L2384.8 1166.67C2389.89 1166.67 2393.07 1167.82 2394.32 1170.11 2395.65 1172.37 2396.31 1175.91 2396.31 1180.71L2396.31 1405.59C2396.31 1408.81 2395.74 1410.58 2394.57 1410.88 2393.45 1411.21 2390.35 1411.51 2385.26 1411.84ZM2480.17 1420.06 2434.4 1420.06C2431.19 1420.06 2428.93 1419.66 2427.6 1418.78 2426.32 1417.99 2425.69 1415.68 2425.69 1411.84 2426.32 1399.98 2426.81 1386.74 2427.11 1372.13 2427.44 1357.45 2427.6 1341.75 2427.6 1325.02 2427.6 1301.2 2427.44 1276.35 2427.11 1250.44 2426.81 1224.52 2426.48 1199.21 2426.18 1174.47 2422.97 1173.84 2420.14 1172.97 2417.69 1171.88 2415.35 1170.68 2414.18 1169.32 2414.18 1167.74L2414.18 1099.18C2414.18 1095.66 2414.57 1093.48 2415.35 1092.69 2416.14 1091.85 2418.13 1091.41 2421.34 1091.41 2431.63 1091.41 2440.77 1091.33 2448.77 1091.17 2456.85 1091.03 2466.02 1090.78 2476.28 1090.46 2486.57 1090.16 2499.63 1089.75 2515.46 1089.29 2531.38 1088.82 2552.36 1088.28 2578.4 1087.65L2580.39 1087.65C2581.97 1087.65 2582.89 1087.95 2583.22 1088.58 2583.55 1089.2 2583.68 1090.81 2583.68 1093.4L2583.68 1171.52C2583.68 1171.82 2583.22 1172.18 2582.27 1172.59 2581.34 1172.89 2578.95 1173.05 2575.11 1173.05 2571.9 1173.05 2568.82 1172.97 2565.94 1172.81 2563.03 1172.59 2559.22 1172.45 2554.51 1172.45 2549.89 1172.45 2543.22 1172.37 2534.51 1172.23 2525.89 1172.07 2514.21 1171.99 2499.46 1171.99 2493.97 1171.99 2489.94 1172.42 2487.36 1173.27 2484.77 1174.06 2483.08 1176.29 2482.29 1180 2481.5 1183.68 2481.12 1189.73 2481.12 1198.15L2481.12 1227.47C2481.12 1232.02 2481.42 1234.77 2482.05 1235.72 2482.67 1236.65 2484.14 1237.14 2486.4 1237.14 2499.9 1237.14 2510.65 1237.06 2518.65 1236.9 2526.7 1236.73 2533.45 1236.65 2538.87 1236.65 2560.74 1236.65 2571.68 1238.26 2571.68 1241.5 2571.68 1241.8 2571.6 1242.32 2571.46 1243.03 2571.3 1243.65 2571.22 1244.28 2571.22 1244.91L2573.1 1289.32C2573.1 1293.46 2572.88 1295.86 2572.39 1296.49 2571.93 1297.14 2570.4 1297.44 2567.82 1297.44L2503.71 1296.98C2499.84 1296.98 2497.4 1297.06 2496.28 1297.2 2495.19 1297.36 2494.05 1297.44 2492.88 1297.44 2491.79 1297.44 2489.31 1297.61 2485.48 1297.91 2482.87 1297.91 2481.34 1298.26 2480.88 1298.97 2480.42 1299.6 2480.17 1302.16 2480.17 1306.63L2483.93 1413.25C2483.93 1415.84 2483.79 1417.61 2483.46 1418.54 2483.14 1419.57 2482.05 1420.06 2480.17 1420.06ZM2740.77 1411.34 2703.25 1411.34C2698.38 1411.34 2694.81 1410.72 2692.53 1409.46 2690.35 1408.13 2689.23 1404.91 2689.23 1399.82 2689.23 1386.93 2689.48 1373.2 2689.94 1358.59 2690.43 1343.9 2690.81 1328.51 2691.11 1312.4 2669.32 1312.4 2652.06 1310.09 2639.36 1305.45 2626.65 1300.82 2617.32 1293.82 2611.36 1284.47 2605.48 1275.15 2601.72 1263.41 2600.06 1249.27 2598.51 1235.12 2597.72 1218.56 2597.72 1199.56L2597.72 1082.34C2597.72 1079.75 2598.1 1078.39 2598.89 1078.22 2599.68 1078.06 2602.16 1077.98 2606.32 1077.98L2678.19 1076.91C2679.44 1076.91 2680.06 1077.27 2680.06 1077.98 2680.06 1078.6 2680.23 1080.54 2680.53 1083.75L2676.17 1212.51C2676.17 1218.94 2676.66 1225.97 2677.59 1233.6 2678.62 1241.15 2681.04 1247.58 2684.88 1252.92 2688.74 1258.18 2695.17 1260.82 2704.17 1260.82 2718.3 1260.82 2728.58 1260.17 2735 1258.91 2741.42 1257.58 2745.51 1254.61 2747.25 1249.97 2749.04 1245.26 2749.94 1237.77 2749.94 1227.47 2749.94 1223.92 2749.86 1220.16 2749.7 1216.16 2749.56 1212.15 2749.48 1207.77 2749.48 1202.97 2749.48 1201.93 2749.32 1197.03 2748.99 1188.26 2748.69 1179.37 2748.17 1168.99 2747.47 1157.14 2746.84 1145.2 2746.3 1133.62 2745.83 1122.39 2745.34 1111.09 2745.13 1102.37 2745.13 1096.23 2745.13 1087.92 2747.19 1083.75 2751.36 1083.75 2756.23 1083.43 2761.04 1083.29 2765.83 1083.29 2770.68 1083.29 2775.19 1083.29 2779.36 1083.29 2791.52 1083.29 2800.26 1083.59 2805.59 1084.22 2810.92 1084.84 2814.21 1085.69 2815.47 1086.7 2816.72 1087.65 2817.34 1088.74 2817.34 1089.99L2818.41 1152.78C2818.41 1156.32 2818.05 1158.39 2817.34 1159.02 2816.72 1159.64 2814.95 1159.97 2812.06 1159.97L2802.41 1160.43C2801.48 1184.88 2800.69 1206.19 2800.07 1224.42 2799.44 1242.54 2797.34 1257.74 2793.83 1270 2790.3 1282.24 2784.01 1291.67 2775 1298.26 2765.97 1304.8 2752.64 1308.72 2735 1310.06L2748.53 1403.12C2748.53 1407.04 2748.09 1409.38 2747.25 1410.17 2746.46 1410.96 2744.28 1411.34 2740.77 1411.34ZM2941.73 1419.14C2918.9 1419.14 2900.31 1416.47 2885.97 1411.13 2871.68 1405.79 2860.64 1396.36 2852.8 1382.84 2844.94 1369.35 2839.58 1350.31 2836.66 1325.73 2833.78 1301.12 2832.31 1269.38 2832.31 1230.41L2832.31 1099.67C2832.31 1096.75 2832.55 1094.98 2833.02 1094.35 2833.51 1093.73 2834.87 1093.4 2837.15 1093.4L2917.62 1091.87C2919.17 1091.87 2920.04 1092.47 2920.2 1093.65 2920.37 1094.74 2920.42 1097.54 2920.42 1102.01L2915.6 1290.25C2915.3 1297.33 2915.6 1305.37 2916.56 1314.42 2917.56 1323.36 2919.17 1331.97 2921.37 1340.2 2923.66 1348.37 2926.62 1355.21 2930.32 1360.72 2934 1366.19 2938.6 1368.94 2944.07 1368.94 2956.64 1368.94 2966.43 1368.4 2973.48 1367.31 2980.56 1366.11 2985.84 1362.9 2989.37 1357.64 2992.88 1352.3 2995.14 1343.85 2996.07 1332.32 2997.1 1320.69 2997.59 1304.58 2997.59 1284.01 2997.59 1282.67 2997.45 1277.39 2997.13 1268.12 2996.83 1258.78 2996.47 1247.11 2996.07 1233.13 2995.77 1219.07 2995.36 1204.25 2994.9 1188.72 2994.43 1173.08 2994.03 1158.2 2993.73 1144.06 2993.4 1129.94 2993.1 1118.03 2992.77 1108.36 2992.47 1098.71 2992.31 1093.05 2992.31 1091.41 2992.31 1086.32 2992.61 1083.29 2993.24 1082.34 2993.86 1081.33 2995.17 1080.81 2997.13 1080.81L2999.96 1080.81C3008.34 1080.81 3016.61 1081.08 3024.77 1081.63 3033.02 1082.09 3040.8 1082.34 3048.18 1082.34 3051.39 1082.34 3053.48 1082.8 3054.41 1083.75 3055.36 1084.71 3055.82 1086.94 3055.82 1090.46L3057.37 1160.43C3057.37 1165.94 3056.94 1169.15 3056.07 1170.11 3055.28 1171.03 3053.43 1171.66 3050.54 1171.99L3043.36 1172.45 3042.41 1236.65C3041.73 1270.74 3040.15 1298.97 3037.73 1321.37 3035.36 1343.74 3031.69 1361.53 3026.65 1374.72 3021.73 1387.91 3015.36 1397.67 3007.6 1403.93 2999.9 1410.15 2990.62 1414.23 2979.71 1416.2 2968.83 1418.16 2956.15 1419.14 2941.73 1419.14ZM3151.28 1141.6 3085.29 1140.65C3081.05 1140.65 3078.19 1139.86 3076.69 1138.31 3075.3 1136.65 3074.6 1133.73 3074.6 1129.59L3074.11 1093.4 3074.11 1084.22C3074.11 1081.33 3074.81 1079.01 3076.23 1077.27 3077.73 1075.47 3080.56 1074.57 3084.69 1074.57L3146.46 1075.99C3149.67 1075.99 3152.31 1076.4 3154.35 1077.27 3156.45 1078.06 3157.51 1080.21 3157.51 1083.75L3157.51 1130.98C3157.51 1133.89 3157.1 1136.4 3156.23 1138.53 3155.44 1140.57 3153.78 1141.6 3151.28 1141.6ZM3146.46 1411.84 3087.17 1413.72 3079.88 1413.72C3076.67 1413.72 3074.65 1413.09 3073.89 1411.84 3073.1 1410.58 3072.69 1407.5 3072.69 1402.65L3072.69 1400.28C3072.69 1383.25 3073.1 1366.27 3073.89 1349.41 3074.65 1332.51 3075.06 1315.54 3075.06 1298.51 3075.06 1278.56 3074.9 1258.53 3074.6 1238.42 3074.27 1218.31 3073.81 1198.45 3073.18 1178.83 3073.18 1174.58 3073.56 1171.52 3074.35 1169.62 3075.22 1167.65 3077.89 1166.67 3082.35 1166.67L3146 1166.67C3151.09 1166.67 3154.27 1167.82 3155.52 1170.11 3156.86 1172.37 3157.51 1175.91 3157.51 1180.71L3157.51 1405.59C3157.51 1408.81 3156.94 1410.58 3155.77 1410.88 3154.65 1411.21 3151.55 1411.51 3146.46 1411.84Z" stroke="#433DC3" stroke-width="4.75584" stroke-linecap="butt" stroke-linejoin="miter" stroke-miterlimit="8" stroke-opacity="1" fill="none" fill-rule="evenodd"/><path d="M1263.03 951.747C1263.41 952.074 1269.4 950.629 1269.86 950.438 1274.73 948.557 1279.47 946.13 1283.74 943.103 1290.47 938.332 1295.99 931.679 1298.47 923.744 1298.99 922.108 1299.53 914.419 1301.74 914.01 1303.32 913.71 1304.76 920.227 1305.06 921.045 1307.62 928.162 1310.53 934.869 1315.51 940.65 1320.33 946.266 1327 950.357 1333.89 952.947 1335 953.356 1341.24 954.283 1341.43 955.783 1341.51 956.3 1336.15 957.991 1335.66 958.237 1330.16 960.772 1324.41 963.254 1319.95 967.425 1314.04 972.906 1308.92 979.832 1305.68 987.221 1304.95 988.857 1303.59 995.974 1301.79 996.601 1300.92 996.901 1299.64 992.756 1299.45 992.265 1297.57 987.466 1296.16 982.558 1293.79 977.978 1288.1 966.935 1276.91 955.019 1263.76 953.656 1263.38 953.629 1263.08 952.102 1263.03 951.747ZM1263.03 951.747C1263 951.72 1263 951.692 1263 951.665 1263 951.665 1263 951.692 1263.03 951.747ZM1395.6 967.425C1400.72 992.865 1414.74 1021.14 1440.57 1030.41 1455.87 1035.89 1472.96 1036.41 1489.03 1037.58 1495.7 1038.07 1502.45 1038.35 1509.09 1039.14 1509.63 1039.19 1514.48 1039.52 1513.96 1040.91 1513.23 1042.9 1508.05 1043.91 1506.39 1044.43 1498.34 1046.83 1490.06 1048.57 1481.89 1050.67 1456.82 1057.13 1426.5 1061.82 1408.37 1082.03 1394.24 1097.76 1390.1 1120.77 1387.49 1141.03 1386.78 1146.49 1386.21 1151.94 1384.74 1157.23 1384.47 1158.16 1383.68 1162 1382.23 1162 1380.11 1162 1379.54 1156.47 1379.35 1155.18 1378.34 1148.01 1377.99 1140.71 1377.31 1133.51 1375.51 1114.39 1370.83 1094.82 1357 1080.64 1344.12 1067.41 1312.46 1061.96 1294.71 1058.5 1287.61 1057.13 1266.43 1054.13 1266.84 1052.5 1267.27 1050.83 1286.11 1047.04 1292.67 1045.49 1313.61 1040.53 1345.16 1029.21 1358.58 1012.12 1368.4 999.546 1374.75 985.122 1378.78 969.77 1380.03 965.026 1384 947.685 1386.81 947.276 1389.61 946.894 1394.1 959.954 1395.6 967.425Z" fill="#FFE266" fill-rule="evenodd" fill-opacity="1"/><path d="M1382.9 919.209C1382.9 918.611 1382.9 918.312 1382.9 918.312 1382.9 917.279 1383.42 916.327 1384.29 915.81 1385.17 915.293 1386.23 915.293 1387.1 915.783L1387.1 915.81C1387.43 915.974 1388.63 916.979 1388.79 919.263 1388.88 920.541 1388.88 922.852 1388.85 925.843 1389.34 937.779 1391.06 961.869 1396.98 983.293 1401.23 998.818 1407.61 1013.01 1417.54 1019.78 1422.94 1023.45 1430.01 1026.47 1437.53 1028.89 1448.72 1032.53 1460.93 1034.9 1470.43 1036.15 1479.59 1037.4 1502.47 1038.35 1516.71 1039.49 1522.6 1039.96 1527.1 1040.47 1528.71 1041.02 1529.83 1041.4 1529.97 1042.27 1529.99 1042.7 1530.02 1043.08 1530.02 1044.09 1528.77 1044.55 1528.71 1044.58 1528.57 1044.63 1528.3 1044.66 1528.25 1044.66 1528.08 1044.69 1527.87 1044.69 1527.24 1044.74 1525.9 1044.82 1524.13 1044.96 1515.18 1045.53 1494.21 1046.89 1487.31 1048.17 1471.84 1050.99 1454.14 1053.47 1437.94 1058.58 1427.06 1062.03 1416.86 1066.71 1408.54 1073.51 1398.94 1081.39 1392.61 1095.37 1388.47 1110.43 1382.38 1132.51 1380.97 1156.87 1380.61 1168.07 1380.53 1171.03 1380.5 1173.07 1380.5 1173.92 1380.45 1177.59 1379.3 1178.48 1378.32 1177.78 1377.61 1177.67 1376.98 1176.77 1376.93 1174.68 1376.9 1174.54 1376.9 1174.38 1376.87 1174.24 1376.79 1172.67 1376 1158.31 1375.02 1145.1 1374.45 1137.32 1373.82 1129.92 1373.25 1125.87 1372.07 1117.66 1370.87 1109.18 1368.45 1101.16 1366.89 1095.97 1364.79 1090.99 1361.85 1086.37 1355.55 1076.42 1346.05 1070.24 1335.36 1066.3 1318.86 1060.24 1299.42 1059.48 1283.08 1059.7 1280.4 1059.72 1276.01 1059.75 1271.21 1059.86 1263.63 1060.48 1256.48 1061 1251.74 1061.3 1249.2 1061.44 1247.35 1061.52 1246.48 1061.54 1241.16 1061.6 1243.34 1055.29 1244.05 1054.88 1244.97 1054.31 1248.36 1053.63 1252.99 1053.31 1258.86 1052.93 1267.04 1052.71 1273.78 1052.6 1284.9 1051.67 1296.31 1050.53 1301.71 1049.44 1321.45 1045.53 1339.24 1037.54 1352.9 1025.41 1366.56 1013.31 1376.14 997.078 1379.49 976.714 1380.94 967.85 1382.82 938.404 1383.12 925 1383.01 922.662 1382.96 920.84 1382.93 919.698 1383.07 919.862 1383.26 920.024 1383.48 920.16 1383.48 919.535 1383.39 919.127 1383.07 919.182 1383.01 919.182 1382.96 919.182 1382.9 919.209ZM1382.93 919.698C1382.71 919.481 1382.66 919.29 1382.9 919.209 1382.9 919.345 1382.93 919.535 1382.93 919.698ZM1379.41 1142.11C1380.72 1131.94 1382.68 1120.54 1385.71 1109.67 1390.1 1094.01 1396.68 1079.46 1406.66 1071.25 1415.22 1064.15 1425.75 1059.26 1436.99 1055.62 1453.27 1050.37 1471.08 1047.73 1486.65 1044.77 1490.34 1044.06 1498 1043.3 1505.75 1042.65 1492.49 1041.91 1477.03 1041.23 1469.88 1040.34 1460.17 1039.11 1447.62 1036.8 1436.14 1033.19 1428.12 1030.66 1420.62 1027.5 1414.87 1023.67 1404.09 1016.46 1396.78 1001.37 1392.01 984.653 1389.91 977.312 1388.3 969.645 1387.05 962.249 1386.58 968.883 1386.07 974.539 1385.55 977.693 1382.11 999.607 1371.91 1017.12 1357.29 1030.25 1345.15 1041.15 1329.93 1049.01 1312.94 1053.8 1321.51 1054.86 1330.04 1056.62 1337.9 1059.61 1349.98 1064.18 1360.48 1071.55 1367.41 1082.97 1370.52 1088.16 1372.67 1093.76 1374.23 1099.53 1376.47 1107.9 1377.42 1116.71 1378.35 1125.22 1378.76 1128.89 1379.11 1135.2 1379.41 1142.11ZM1299.88 911.297C1299.88 911.243 1299.85 911.188 1299.85 911.134 1299.85 911.107 1299.85 911.079 1299.85 911.052 1299.74 909.503 1300.91 908.143 1302.44 908.007 1304 907.898 1305.36 909.04 1305.52 910.59 1305.52 910.617 1305.52 910.644 1305.52 910.672L1305.55 910.672C1306.04 919.236 1306.64 929.514 1310.52 937.616 1312.97 942.727 1316.73 946.942 1322.76 949.144 1325.24 950.069 1327.7 950.776 1330.18 951.346 1334 952.217 1337.84 952.815 1341.88 953.386 1345.64 953.902 1355.06 954.962 1359.06 955.615 1360.05 955.778 1360.78 955.941 1361.08 956.05 1363.05 956.757 1362.53 958.416 1362.15 958.959 1361.74 959.557 1360.1 960.319 1357.7 960.455 1353.8 960.7 1347.36 960.319 1344.77 960.373 1339.7 960.482 1334.41 960.346 1329.25 960.945 1325.9 961.325 1322.63 962.032 1319.49 963.283 1314.28 965.403 1310.87 969.237 1308.66 973.832 1306.97 977.312 1305.93 981.255 1305.36 985.279 1304.87 988.759 1304.73 992.266 1304.71 995.583 1305.14 1001.02 1305.28 1006.35 1305.55 1011.14 1305.58 1011.54 1305.61 1011.84 1305.61 1012.01 1305.91 1017.28 1301.38 1014.81 1301.02 1012.39 1300.01 1005.59 1299.09 997.623 1297.42 989.901 1296.41 985.088 1295.05 980.357 1293.09 976.116 1289.95 969.4 1285.15 963.88 1276.97 961.57 1275.11 961.053 1273.2 960.672 1271.27 960.4 1266.39 959.721 1261.37 959.585 1256.62 958.932 1254.88 958.715 1254.25 957.627 1254.03 957.219 1253.48 956.268 1253.38 955.262 1253.78 954.201 1253.92 953.875 1254.33 952.652 1256.05 952.135 1256.13 952.107 1256.38 952.053 1256.76 951.999 1257.17 951.917 1258.04 951.809 1259.27 951.646 1264.89 950.912 1278.2 949.253 1282.26 947.404 1286.3 945.528 1289.27 942.755 1291.56 939.465 1295.27 934.109 1297.21 927.474 1298.65 921.003 1299.03 919.318 1299.47 917.061 1299.71 914.913 1299.85 913.608 1299.93 912.357 1299.88 911.297ZM1302.85 983.022C1303.56 979.379 1304.54 975.817 1306.07 972.608 1308.58 967.361 1312.4 962.983 1318.34 960.536 1321.7 959.123 1325.24 958.307 1328.84 957.845 1332.2 957.409 1335.58 957.247 1338.94 957.138 1335.64 956.73 1332.42 956.268 1329.23 955.615 1326.55 955.071 1323.91 954.364 1321.21 953.467 1313.84 950.938 1309.1 945.963 1305.99 939.818 1304.46 936.827 1303.34 933.565 1302.5 930.166 1301.16 934.734 1299.39 939.139 1296.82 942.972 1293.99 947.241 1290.2 950.83 1285.1 953.304 1283.95 953.848 1282.12 954.419 1279.91 954.962 1289.81 958.062 1295.98 964.778 1299.69 973.18 1301.05 976.279 1302.09 979.596 1302.85 983.022Z" fill="#433DC3" fill-rule="evenodd" fill-opacity="1"/><path d="M2861.15 1517.13 2873.54 1517.13C2877.44 1517.13 2880.34 1518.16 2882.28 1520.18 2884.19 1522.22 2885.15 1525.24 2885.15 1529.21L2885.15 1554.04C2885.15 1557.96 2884.19 1560.98 2882.28 1563.08 2880.34 1565.12 2877.44 1566.13 2873.54 1566.13L2861.15 1566.13ZM2868.9 1524.1 2868.9 1559.16 2873.32 1559.16C2874.56 1559.16 2875.53 1558.81 2876.19 1558.07 2876.91 1557.36 2877.3 1556.11 2877.3 1554.37L2877.3 1528.89C2877.3 1527.09 2876.91 1525.84 2876.19 1525.19 2875.53 1524.48 2874.56 1524.1 2873.32 1524.1Z" fill="#433DC3" fill-rule="evenodd" fill-opacity="1"/><path d="M2910.77 1537.82 2921.43 1537.82 2921.43 1544.79 2910.77 1544.79 2910.77 1559.16 2924.15 1559.16 2924.15 1566.13 2903.15 1566.13 2903.15 1517.13 2924.15 1517.13 2924.15 1524.1 2910.77 1524.1Z" fill="#433DC3" fill-rule="evenodd" fill-opacity="1"/><path d="M2954.47 1557.09 2960.23 1517.13 2967.15 1517.13 2959.8 1566.13 2948.61 1566.13 2941.15 1517.13 2948.72 1517.13Z" fill="#433DC3" fill-rule="evenodd" fill-opacity="1"/><path d="M2984.38 1529.41C2984.38 1525.44 2985.3 1522.4 2987.21 1520.28 2989.09 1518.19 2991.93 1517.13 2995.71 1517.13 2999.48 1517.13 3002.31 1518.19 3004.22 1520.28 3006.1 1522.4 3007.05 1525.44 3007.05 1529.41L3007.05 1530.93 2999.75 1530.93 2999.75 1528.87C2999.75 1527.13 2999.42 1525.9 2998.77 1525.17 2998.11 1524.46 2997.16 1524.08 2995.93 1524.08 2994.68 1524.08 2993.7 1524.46 2992.99 1525.17 2992.34 1525.9 2992.01 1527.13 2992.01 1528.87 2992.01 1530.61 2992.36 1532.13 2993.1 1533.43 2993.89 1534.68 2994.84 1535.88 2995.93 1537.02 2997.08 1538.11 2998.28 1539.25 2999.53 1540.39 3000.84 1541.56 3002.04 1542.83 3003.13 1544.19 3004.27 1545.5 3005.23 1547.02 3005.96 1548.76 3006.75 1550.5 3007.16 1552.53 3007.16 1554.84 3007.16 1558.84 3006.18 1561.88 3004.22 1563.98 3002.26 1566.09 2999.37 1567.13 2995.61 1567.13 2991.82 1567.13 2988.96 1566.09 2986.99 1563.98 2985.09 1561.88 2984.16 1558.84 2984.16 1554.84L2984.16 1551.8 2991.46 1551.8 2991.46 1555.28C2991.46 1557.1 2991.82 1558.38 2992.55 1559.08 2993.26 1559.74 2994.22 1560.06 2995.39 1560.06 2996.61 1560.06 2997.6 1559.74 2998.33 1559.08 2999.04 1558.38 2999.42 1557.1 2999.42 1555.28 2999.42 1553.62 2999.01 1552.18 2998.22 1550.93 2997.49 1549.63 2996.59 1548.4 2995.5 1547.24 2994.41 1546.09 2993.21 1544.95 2991.9 1543.87 2990.59 1542.73 2989.34 1541.48 2988.19 1540.17 2987.1 1538.81 2986.18 1537.24 2985.47 1535.5 2984.73 1533.76 2984.38 1531.75 2984.38 1529.41Z" fill="#433DC3" fill-rule="evenodd" fill-opacity="1"/><path d="M3036.61 1517.13C3040.49 1517.13 3043.38 1518.16 3045.3 1520.18 3047.2 1522.22 3048.17 1525.24 3048.17 1529.21L3048.17 1535.64C3048.17 1539.56 3047.2 1542.58 3045.3 1544.68 3043.38 1546.72 3040.49 1547.73 3036.61 1547.73L3032.87 1547.73 3032.87 1566.13 3025.17 1566.13 3025.17 1517.13ZM3032.87 1524.1 3032.87 1540.76 3036.61 1540.76C3037.85 1540.76 3038.81 1540.43 3039.47 1539.78 3040.13 1539.12 3040.46 1537.9 3040.46 1536.07L3040.46 1528.78C3040.46 1526.98 3040.13 1525.73 3039.47 1525.08 3038.81 1524.42 3037.85 1524.1 3036.61 1524.1Z" fill="#433DC3" fill-rule="evenodd" fill-opacity="1"/><path d="M3072.1 1555.28C3072.1 1557.1 3072.46 1558.38 3073.21 1559.08 3073.94 1559.82 3074.91 1560.17 3076.11 1560.17 3077.37 1560.17 3078.37 1559.82 3079.13 1559.08 3079.85 1558.38 3080.24 1557.1 3080.24 1555.28L3080.24 1528.87C3080.24 1527.13 3079.85 1525.9 3079.13 1525.17 3078.37 1524.46 3077.37 1524.08 3076.11 1524.08 3074.91 1524.08 3073.94 1524.46 3073.21 1525.17 3072.46 1525.9 3072.1 1527.13 3072.1 1528.87ZM3064.17 1529.41C3064.17 1525.44 3065.17 1522.4 3067.18 1520.28 3069.25 1518.19 3072.24 1517.13 3076.11 1517.13 3079.97 1517.13 3082.95 1518.19 3085.04 1520.28 3087.11 1522.4 3088.17 1525.44 3088.17 1529.41L3088.17 1554.84C3088.17 1558.84 3087.11 1561.88 3085.04 1563.98 3082.95 1566.09 3079.97 1567.13 3076.11 1567.13 3072.24 1567.13 3069.25 1566.09 3067.18 1563.98 3065.17 1561.88 3064.17 1558.84 3064.17 1554.84Z" fill="#433DC3" fill-rule="evenodd" fill-opacity="1"/><path d="M3104.17 1517.13 3128.17 1517.13 3128.17 1524.1 3120.06 1524.1 3120.06 1566.13 3112.28 1566.13 3112.28 1524.1 3104.17 1524.1Z" fill="#433DC3" fill-rule="evenodd" fill-opacity="1"/><path d="M1430.52 1549.63 2713.52 1549.63" stroke="#433DC3" stroke-width="20.625" stroke-linecap="round" stroke-linejoin="miter" stroke-miterlimit="8" stroke-opacity="1" fill="none" fill-rule="evenodd"/><path d="M1743.54 995.581 3075.54 995.581" stroke="#433DC3" stroke-width="20.625" stroke-linecap="round" stroke-linejoin="miter" stroke-miterlimit="8" stroke-opacity="1" fill="none" fill-rule="evenodd"/></g></g></svg>