<svg width="1357" height="449" xmlns="http://www.w3.org/2000/svg" xmlns:xlink="http://www.w3.org/1999/xlink" xml:space="preserve" overflow="hidden"><g transform="translate(-705 -1402)"><g><path d="M708 1493.87C708 1465.22 731.224 1442 759.872 1442L2009.13 1442C2037.78 1442 2061 1465.22 2061 1493.87L2061 1798.13C2061 1826.78 2037.78 1850 2009.13 1850L759.872 1850C731.224 1850 708 1826.78 708 1798.13Z" fill="#FFFFFF" fill-rule="evenodd" fill-opacity="1"/><path d="M917.72 1748.78C896.741 1748.78 881.978 1743.24 873.443 1732.17 864.938 1721.11 860.698 1705.22 860.698 1684.5L860.698 1675.26C860.698 1673.48 860.932 1672.34 861.437 1671.84 861.923 1671.36 862.982 1671.11 864.588 1671.11L885.388 1671.11C888.741 1671.11 891.055 1671.43 892.36 1672.04 893.652 1672.63 894.311 1674.89 894.311 1678.81 894.311 1688.5 896.76 1695.08 901.689 1698.56 906.649 1702.01 913.978 1703.83 923.689 1704.05 934.778 1704.05 942.828 1701.24 947.843 1695.61 952.889 1689.95 955.424 1683.96 955.424 1677.67 955.424 1672.15 953.781 1667.26 950.526 1663 947.258 1658.72 943.049 1656.58 937.917 1656.58 931.203 1656.58 924.464 1657.09 917.72 1658.11 911.012 1659.1 904.772 1659.59 899.006 1659.59 892.058 1659.59 885.738 1658.7 880.021 1656.91 874.28 1655.14 869.689 1651.67 866.2 1646.53 862.742 1641.41 860.914 1633.99 860.698 1624.3 860.698 1602.74 862.575 1585.4 866.335 1572.27 870.089 1559.15 877.099 1549.62 887.4 1543.68 897.732 1537.76 912.692 1534.78 932.28 1534.78 952.889 1534.78 967.449 1540.44 975.954 1551.72 984.44 1562.97 988.698 1578.87 988.698 1599.39L988.698 1614.53C988.698 1616.5 988.495 1617.72 988.095 1618.21 987.726 1618.71 986.649 1618.86 984.877 1618.68L964.077 1617.47C959.683 1617.07 957.049 1616.38 956.163 1615.39 955.308 1614.43 954.889 1611.44 954.889 1606.49 954.889 1600.97 954.034 1597.02 952.335 1594.64 950.625 1592.28 947.658 1590.81 943.412 1590.22 939.154 1589.65 933.086 1589.35 925.166 1589.35L921.88 1589.35C915.744 1589.35 910.557 1589.85 906.317 1590.82 902.058 1591.81 898.834 1594.37 896.655 1598.52 894.458 1602.68 893.271 1609.69 893.098 1619.55 893.098 1625.89 894.982 1630.11 898.735 1632.2 902.495 1634.26 907.221 1635.28 912.957 1635.28 918.138 1635.28 923.892 1634.85 930.2 1633.95 936.538 1633.05 942.692 1632.6 948.649 1632.6 955.572 1632.6 962.101 1633.59 968.237 1635.55 974.36 1637.52 979.308 1640.89 983.061 1645.66 986.821 1650.4 988.698 1656.81 988.698 1664.88 988.698 1680.51 987.757 1693.72 985.88 1704.52 984.003 1715.28 980.532 1723.92 975.48 1730.43 970.415 1736.96 963.24 1741.63 953.948 1744.49 944.637 1747.34 932.563 1748.78 917.72 1748.78Z" fill="#FFE266" fill-rule="evenodd" fill-opacity="1"/><path d="M1053.44 1745.78C1041.09 1745.78 1031.17 1744.84 1023.7 1742.98 1016.28 1741.11 1010.58 1737.63 1006.65 1732.52 1002.75 1727.42 1000.12 1720.18 998.754 1710.85 997.379 1701.53 996.7 1689.38 996.7 1674.4 996.7 1662.59 998.057 1653.34 1000.81 1646.67 1003.55 1639.98 1007.61 1635.11 1013.02 1632.08 1018.42 1629.01 1025.03 1627.05 1032.86 1626.15 1040.69 1625.27 1049.6 1624.82 1059.6 1624.82L1074 1624.82C1077.09 1624.82 1079.98 1624.53 1082.64 1623.95 1085.29 1623.38 1086.62 1621.52 1086.62 1618.35 1086.62 1615.6 1086.45 1612.56 1086.15 1609.22 1085.88 1605.86 1084.9 1602.66 1083.23 1599.62 1081.53 1596.56 1078.88 1594.01 1075.27 1591.96 1071.69 1589.88 1066.46 1588.83 1059.6 1588.83 1058.23 1588.83 1055.32 1588.89 1050.91 1589.03 1046.48 1589.13 1041.49 1589.21 1035.91 1589.3 1030.34 1589.4 1024.93 1589.49 1019.72 1589.63 1014.55 1589.73 1010.33 1589.81 1007.12 1589.9 1003.88 1589.99 1002.37 1590.03 1002.61 1590.03 1000.03 1590.03 998.638 1589.35 998.424 1587.96 998.241 1586.59 998.057 1583.34 997.892 1578.23L997.03 1546.98C997.03 1545.96 996.963 1545.02 996.829 1544.17 996.731 1543.29 996.7 1542.55 996.7 1541.91 996.7 1539.16 998.057 1537.78 1000.81 1537.78L1059.01 1542.25C1081.52 1544.03 1098.11 1553.42 1108.78 1570.44 1119.43 1587.41 1124.87 1612.42 1125.1 1645.48L1125.7 1728.98C1125.7 1736.28 1125.5 1740.65 1125.1 1742.11 1124.7 1743.58 1123.73 1744.31 1122.18 1744.31L1088.34 1745.78 1088.08 1745.78C1087.89 1745.78 1087.5 1745.61 1086.88 1745.31 1086.3 1745.05 1086.02 1744.51 1086.02 1743.71L1086.02 1722.52C1084.24 1724.88 1082.27 1727.92 1080.11 1731.65 1077.99 1735.38 1074.9 1738.68 1070.88 1741.51 1066.86 1744.34 1061.04 1745.78 1053.44 1745.78ZM1055.16 1695.93C1060.86 1695.93 1065.61 1694.51 1069.43 1691.66 1073.23 1688.83 1076.34 1685.33 1078.78 1681.2 1081.25 1677.07 1083.11 1672.94 1084.36 1668.8 1085.64 1664.67 1086.51 1661.19 1087.01 1658.34 1087.54 1655.51 1087.81 1654.08 1087.81 1654.08 1087.81 1652.08 1087.11 1650.74 1085.75 1650.08 1084.37 1649.38 1083.3 1649.01 1082.5 1649.01L1076.59 1649.01C1062.92 1649.01 1052.99 1649.66 1046.8 1650.94 1040.65 1652.24 1036.73 1654.21 1035.05 1656.87 1033.36 1659.5 1032.53 1663.07 1032.53 1667.6L1032.53 1675.6C1032.53 1682.1 1033.54 1686.76 1035.58 1689.6 1037.66 1692.45 1040.46 1694.23 1044.01 1694.93 1047.54 1695.6 1051.26 1695.93 1055.16 1695.93Z" fill="#FFE266" fill-rule="evenodd" fill-opacity="1"/><path d="M1204.71 1636.58C1220.54 1636.58 1233.6 1637.35 1243.91 1638.85 1254.19 1640.33 1262.19 1642.99 1267.93 1646.82 1273.7 1650.67 1277.76 1655.91 1280.15 1662.55 1282.51 1669.16 1283.7 1677.71 1283.7 1688.18 1283.7 1694.88 1282.4 1701.61 1279.81 1708.33 1277.26 1715.03 1273.17 1721.22 1267.52 1726.87 1261.89 1732.5 1254.31 1737.03 1244.78 1740.46 1235.28 1743.94 1223.7 1745.68 1210.01 1745.68 1199.94 1745.68 1191.89 1744.18 1185.85 1741.2 1179.81 1738.26 1175.28 1735.31 1172.29 1732.36 1169.34 1729.38 1167.36 1727.88 1166.39 1727.88 1165.75 1727.88 1165.35 1728.73 1165.18 1730.42 1165 1732.08 1164.91 1736.37 1164.91 1743.28 1164.91 1747.82 1163.65 1750.53 1161.15 1751.44 1158.68 1752.33 1154.58 1752.78 1148.8 1752.78L1139 1752.78C1137.61 1752.78 1136.75 1752.58 1136.45 1752.18 1136.18 1751.77 1136.05 1750.67 1136.05 1748.9L1136.05 1676.34C1136.05 1674.73 1136.25 1673.73 1136.66 1673.33 1137.06 1672.92 1138.23 1672.73 1140.21 1672.73L1158.33 1672.73C1167.23 1672.73 1173.26 1673.42 1176.45 1674.8 1179.63 1676.19 1181.22 1680.05 1181.22 1686.38 1181.22 1694.28 1183.59 1699.16 1188.33 1701.04 1193.11 1702.91 1199.96 1703.85 1208.87 1703.85 1214.59 1703.85 1219.37 1702.09 1223.23 1698.56 1227.12 1694.99 1229.07 1690.16 1229.07 1684.03 1229.07 1674.93 1226.74 1668.91 1222.09 1665.96 1217.43 1662.99 1209.44 1661.48 1198.13 1661.48 1194.37 1661.48 1189.81 1661.24 1184.44 1660.74 1179.1 1660.26 1173.47 1659.03 1167.53 1657.06 1161.62 1655.1 1156.07 1652.01 1150.88 1647.76 1145.73 1643.47 1141.57 1637.7 1138.4 1630.42 1135.26 1623.11 1133.7 1613.72 1133.7 1602.24 1133.7 1580.29 1138.68 1564.06 1148.67 1553.51 1158.68 1542.93 1173 1537.65 1191.62 1537.65 1203.52 1537.65 1213.27 1539.09 1220.88 1541.93 1228.48 1544.79 1234.32 1548.06 1238.4 1551.7 1242.46 1555.37 1245.33 1558.63 1246.99 1561.48 1248.68 1564.34 1249.54 1565.76 1249.54 1565.76 1249.54 1565.6 1249.29 1564.15 1248.81 1561.48 1248.3 1558.8 1248.06 1554.21 1248.06 1547.69L1248.4 1540.86C1248.4 1538.15 1249.96 1536.78 1253.1 1536.78L1276.32 1536.78C1278.06 1536.78 1279.17 1536.98 1279.67 1537.38 1280.21 1537.75 1280.48 1538.72 1280.48 1540.33L1280.48 1611.14C1280.48 1613.69 1280.31 1615.36 1280.01 1616.17 1279.69 1616.96 1279.04 1617.37 1278.06 1617.37 1278.47 1617.37 1277.36 1617.33 1274.78 1617.23 1272.23 1617.1 1269.15 1616.95 1265.58 1616.77 1262.04 1616.55 1258.73 1616.34 1255.65 1616.17 1252.56 1615.99 1250.51 1615.9 1249.54 1615.9 1242.19 1615.49 1237.06 1615.01 1234.11 1614.42 1231.15 1613.8 1229.35 1612.75 1228.73 1611.28 1228.15 1609.8 1227.76 1607.5 1227.6 1604.32 1227.19 1598.2 1224.66 1594.26 1220.01 1592.47 1215.34 1590.69 1207.48 1589.79 1196.39 1589.79 1187.48 1589.79 1180.78 1591.73 1176.32 1595.62 1171.84 1599.46 1169.61 1603.95 1169.61 1609.07 1169.61 1613.4 1171.03 1617.69 1173.9 1621.92 1176.81 1626.17 1180.88 1629.67 1186.12 1632.43 1191.35 1635.21 1197.54 1636.58 1204.71 1636.58Z" fill="#FFE266" fill-rule="evenodd" fill-opacity="1"/><path d="M1363.24 1636.58C1378.97 1636.58 1391.93 1637.35 1402.16 1638.85 1412.38 1640.33 1420.33 1642.99 1426.03 1646.82 1431.77 1650.67 1435.8 1655.91 1438.16 1662.55 1440.52 1669.16 1441.7 1677.71 1441.7 1688.18 1441.7 1694.88 1440.4 1701.61 1437.83 1708.33 1435.3 1715.03 1431.23 1721.22 1425.63 1726.87 1420.03 1732.5 1412.5 1737.03 1403.03 1740.46 1393.6 1743.94 1382.1 1745.68 1368.5 1745.68 1358.5 1745.68 1350.5 1744.18 1344.5 1741.2 1338.5 1738.26 1334 1735.31 1331.03 1732.36 1328.1 1729.38 1326.13 1727.88 1325.17 1727.88 1324.53 1727.88 1324.14 1728.73 1323.97 1730.42 1323.79 1732.08 1323.7 1736.37 1323.7 1743.28 1323.7 1747.82 1322.45 1750.53 1319.97 1751.44 1317.52 1752.33 1313.44 1752.78 1307.7 1752.78L1297.97 1752.78C1296.59 1752.78 1295.73 1752.58 1295.43 1752.18 1295.17 1751.77 1295.04 1750.67 1295.04 1748.9L1295.04 1676.34C1295.04 1674.73 1295.24 1673.73 1295.64 1673.33 1296.03 1672.92 1297.2 1672.73 1299.17 1672.73L1317.17 1672.73C1326 1672.73 1332 1673.42 1335.17 1674.8 1338.32 1676.19 1339.9 1680.05 1339.9 1686.38 1339.9 1694.28 1342.25 1699.16 1346.97 1701.04 1351.71 1702.91 1358.51 1703.85 1367.37 1703.85 1373.05 1703.85 1377.8 1702.09 1381.63 1698.56 1385.5 1694.99 1387.43 1690.16 1387.43 1684.03 1387.43 1674.93 1385.11 1668.91 1380.5 1665.96 1375.87 1662.99 1367.93 1661.48 1356.7 1661.48 1352.97 1661.48 1348.43 1661.24 1343.1 1660.74 1337.8 1660.26 1332.2 1659.03 1326.3 1657.06 1320.43 1655.1 1314.92 1652.01 1309.77 1647.76 1304.65 1643.47 1300.52 1637.7 1297.37 1630.42 1294.25 1623.11 1292.7 1613.72 1292.7 1602.24 1292.7 1580.29 1297.65 1564.06 1307.57 1553.51 1317.52 1542.93 1331.73 1537.65 1350.23 1537.65 1362.05 1537.65 1371.73 1539.09 1379.3 1541.93 1386.85 1544.79 1392.65 1548.06 1396.7 1551.7 1400.73 1555.37 1403.58 1558.63 1405.23 1561.48 1406.92 1564.34 1407.76 1565.76 1407.76 1565.76 1407.76 1565.6 1407.52 1564.15 1407.03 1561.48 1406.53 1558.8 1406.3 1554.21 1406.3 1547.69L1406.63 1540.86C1406.63 1538.15 1408.18 1536.78 1411.3 1536.78L1434.37 1536.78C1436.1 1536.78 1437.2 1536.98 1437.7 1537.38 1438.23 1537.75 1438.5 1538.72 1438.5 1540.33L1438.5 1611.14C1438.5 1613.69 1438.33 1615.36 1438.03 1616.17 1437.71 1616.96 1437.06 1617.37 1436.1 1617.37 1436.49 1617.37 1435.4 1617.33 1432.83 1617.23 1430.3 1617.1 1427.25 1616.95 1423.7 1616.77 1420.18 1616.55 1416.9 1616.34 1413.83 1616.17 1410.77 1615.99 1408.73 1615.9 1407.76 1615.9 1400.47 1615.49 1395.36 1615.01 1392.43 1614.42 1389.5 1613.8 1387.72 1612.75 1387.1 1611.28 1386.52 1609.8 1386.13 1607.5 1385.96 1604.32 1385.57 1598.2 1383.05 1594.26 1378.44 1592.47 1373.8 1590.69 1365.98 1589.79 1354.96 1589.79 1346.12 1589.79 1339.47 1591.73 1335.04 1595.62 1330.59 1599.46 1328.37 1603.95 1328.37 1609.07 1328.37 1613.4 1329.78 1617.69 1332.63 1621.92 1335.52 1626.17 1339.57 1629.67 1344.77 1632.43 1349.97 1635.21 1356.12 1636.58 1363.24 1636.58Z" fill="#FFE266" fill-rule="evenodd" fill-opacity="1"/><path d="M1500.82 1574.69 1459.51 1574.09C1456.93 1574.09 1455.18 1573.61 1454.28 1572.62 1453.36 1571.66 1452.92 1569.9 1452.92 1567.37L1452.57 1545.29 1452.57 1539.63C1452.57 1537.9 1453.02 1536.5 1453.94 1535.44 1454.84 1534.34 1456.61 1533.78 1459.25 1533.78L1497.75 1534.64C1499.79 1534.64 1501.45 1534.89 1502.72 1535.37 1504.03 1535.88 1504.69 1537.21 1504.69 1539.37L1504.69 1568.23C1504.69 1570.02 1504.44 1571.54 1503.95 1572.82 1503.43 1574.07 1502.39 1574.69 1500.82 1574.69ZM1497.75 1739.58 1460.74 1740.78 1456.18 1740.78C1454.18 1740.78 1452.94 1740.38 1452.44 1739.58 1451.93 1738.83 1451.69 1736.97 1451.69 1734L1451.69 1732.53C1451.69 1722.16 1451.93 1711.83 1452.44 1701.54 1452.94 1691.2 1453.19 1680.83 1453.19 1670.4 1453.19 1658.26 1453.07 1646.04 1452.85 1633.75 1452.66 1621.48 1452.37 1609.34 1451.96 1597.37 1451.96 1594.84 1452.2 1593.01 1452.71 1591.84 1453.26 1590.65 1454.92 1590.05 1457.75 1590.05L1497.48 1590.05C1500.7 1590.05 1502.69 1590.75 1503.47 1592.11 1504.28 1593.44 1504.69 1595.61 1504.69 1598.57L1504.69 1735.79C1504.69 1737.75 1504.32 1738.83 1503.6 1739.05 1502.92 1739.23 1500.97 1739.4 1497.75 1739.58Z" fill="#FFE266" fill-rule="evenodd" fill-opacity="1"/><path d="M1555.77 1744.78 1528 1744.78C1526.01 1744.78 1524.63 1744.53 1523.84 1744.05 1523.08 1743.55 1522.71 1742.11 1522.71 1739.72 1523.11 1732.5 1523.39 1724.42 1523.57 1715.5 1523.78 1706.55 1523.9 1696.97 1523.9 1686.76 1523.9 1672.22 1523.78 1657.05 1523.57 1641.25 1523.39 1625.41 1523.21 1609.94 1523.04 1594.81 1521.06 1594.41 1519.34 1593.88 1517.88 1593.21 1516.43 1592.51 1515.7 1591.66 1515.7 1590.68L1515.7 1548.9C1515.7 1546.73 1515.93 1545.41 1516.43 1544.91 1516.91 1544.42 1518.11 1544.17 1520.06 1544.17 1526.31 1544.17 1531.86 1544.14 1536.73 1544.04 1541.62 1543.91 1547.19 1543.76 1553.45 1543.57 1559.7 1543.41 1567.66 1543.16 1577.32 1542.84 1586.97 1542.55 1599.68 1542.18 1615.46 1541.78L1616.65 1541.78C1617.61 1541.78 1618.19 1541.98 1618.37 1542.38 1618.59 1542.78 1618.7 1543.77 1618.7 1545.37L1618.7 1593.07C1618.7 1593.26 1618.41 1593.46 1617.84 1593.67 1617.26 1593.86 1615.79 1593.94 1613.42 1593.94 1611.47 1593.94 1609.61 1593.91 1607.86 1593.81 1606.09 1593.73 1603.79 1593.67 1600.98 1593.67 1598.16 1593.67 1594.11 1593.64 1588.82 1593.55 1583.57 1593.41 1576.46 1593.34 1567.47 1593.34 1564.16 1593.34 1561.72 1593.59 1560.13 1594.08 1558.58 1594.57 1557.57 1595.94 1557.09 1598.2 1556.59 1600.46 1556.36 1604.15 1556.36 1609.25L1556.36 1627.21C1556.36 1629.97 1556.56 1631.65 1556.96 1632.27 1557.35 1632.85 1558.23 1633.13 1559.6 1633.13 1567.8 1633.13 1574.31 1633.1 1579.17 1633 1584.06 1632.87 1588.16 1632.8 1591.46 1632.8 1604.72 1632.8 1611.36 1633.8 1611.36 1635.79 1611.36 1635.97 1611.31 1636.26 1611.24 1636.66 1611.13 1637.06 1611.1 1637.45 1611.1 1637.86L1612.29 1664.94C1612.29 1667.51 1612.13 1668.99 1611.83 1669.4 1611.52 1669.76 1610.59 1669.93 1609.05 1669.93L1570.11 1669.66C1567.77 1669.66 1566.24 1669.71 1565.55 1669.79 1564.89 1669.89 1564.2 1669.93 1563.5 1669.93 1562.84 1669.93 1561.34 1670.04 1559 1670.26 1557.45 1670.26 1556.52 1670.46 1556.23 1670.86 1555.91 1671.22 1555.77 1672.77 1555.77 1675.52L1558.14 1740.65C1558.14 1742.2 1558.03 1743.26 1557.82 1743.85 1557.63 1744.46 1556.96 1744.78 1555.77 1744.78Z" fill="#FFE266" fill-rule="evenodd" fill-opacity="1"/><path d="M1715.24 1738.78 1692.27 1738.78C1689.29 1738.78 1687.11 1738.41 1685.74 1737.65 1684.36 1736.85 1683.69 1734.89 1683.69 1731.73 1683.69 1723.88 1683.83 1715.5 1684.15 1706.6 1684.45 1697.65 1684.7 1688.25 1684.88 1678.41 1671.52 1678.41 1660.95 1676.99 1653.2 1674.15 1645.42 1671.32 1639.72 1667.06 1636.09 1661.38 1632.49 1655.66 1630.18 1648.51 1629.17 1639.9 1628.18 1631.26 1627.7 1621.15 1627.7 1609.58L1627.7 1538.04C1627.7 1536.44 1627.93 1535.61 1628.43 1535.51 1628.92 1535.43 1630.44 1535.38 1633.03 1535.38L1676.96 1534.78C1677.71 1534.78 1678.09 1534.98 1678.09 1535.38 1678.09 1535.78 1678.19 1536.96 1678.43 1538.9L1675.76 1617.5C1675.76 1621.45 1676.04 1625.73 1676.62 1630.33 1677.19 1634.95 1678.66 1638.88 1681.02 1642.1 1683.42 1645.34 1687.36 1646.95 1692.87 1646.95 1701.47 1646.95 1707.73 1646.55 1711.64 1645.75 1715.58 1644.96 1718.1 1643.15 1719.16 1640.31 1720.26 1637.48 1720.83 1632.9 1720.83 1626.61 1720.83 1624.48 1720.78 1622.2 1720.7 1619.76 1720.59 1617.28 1720.56 1614.57 1720.56 1611.64 1720.56 1611.03 1720.45 1608.04 1720.23 1602.67 1720.04 1597.26 1719.76 1590.93 1719.37 1583.65 1718.96 1576.39 1718.6 1569.32 1718.3 1562.44 1718.03 1555.57 1717.9 1550.27 1717.9 1546.55 1717.9 1541.46 1719.16 1538.9 1721.69 1538.9 1724.66 1538.73 1727.62 1538.64 1730.55 1538.64 1733.51 1538.64 1736.28 1538.64 1738.8 1538.64 1746.26 1538.64 1751.6 1538.84 1754.85 1539.23 1758.13 1539.6 1760.14 1540.08 1760.9 1540.7 1761.7 1541.28 1762.1 1541.96 1762.1 1542.76L1762.7 1580.99C1762.7 1583.17 1762.5 1584.45 1762.1 1584.85 1761.7 1585.25 1760.61 1585.44 1758.84 1585.44L1752.98 1585.71C1752.35 1600.6 1751.85 1613.62 1751.45 1624.74 1751.08 1635.83 1749.82 1645.09 1747.66 1652.54 1745.47 1659.98 1741.63 1665.74 1736.14 1669.76 1730.63 1673.8 1722.49 1676.19 1711.71 1676.94L1719.96 1733.79C1719.96 1736.15 1719.71 1737.57 1719.23 1738.05 1718.73 1738.55 1717.4 1738.78 1715.24 1738.78Z" fill="#FFE266" fill-rule="evenodd" fill-opacity="1"/><path d="M1838.76 1743.78C1824.78 1743.78 1813.42 1742.15 1804.66 1738.91 1795.89 1735.67 1789.08 1729.9 1784.24 1721.63 1779.44 1713.36 1776.13 1701.72 1774.37 1686.68 1772.58 1671.6 1771.7 1652.16 1771.7 1628.3L1771.7 1548.25C1771.7 1546.48 1771.83 1545.42 1772.1 1545.05 1772.4 1544.65 1773.25 1544.45 1774.63 1544.45L1824.02 1543.52C1824.98 1543.52 1825.51 1543.88 1825.62 1544.58 1825.7 1545.25 1825.75 1546.96 1825.75 1549.72L1822.81 1664.92C1822.63 1669.25 1822.83 1674.17 1823.42 1679.67 1823.98 1685.19 1824.97 1690.46 1826.35 1695.48 1827.72 1700.52 1829.55 1704.69 1831.82 1708.02 1834.09 1711.36 1836.89 1713.02 1840.23 1713.02 1847.92 1713.02 1853.93 1712.69 1858.25 1712.03 1862.6 1711.32 1865.85 1709.34 1867.99 1706.09 1870.16 1702.85 1871.54 1697.68 1872.13 1690.61 1872.75 1683.54 1873.06 1673.7 1873.06 1661.06 1873.06 1660.31 1872.94 1657.09 1872.73 1651.38 1872.54 1645.65 1872.35 1638.51 1872.13 1629.97 1871.94 1621.4 1871.69 1612.33 1871.39 1602.75 1871.13 1593.2 1870.88 1584.11 1870.66 1575.47 1870.48 1566.8 1870.27 1559.51 1870.06 1553.59 1869.88 1547.69 1869.79 1544.23 1869.79 1543.25 1869.79 1540.1 1869.99 1538.23 1870.39 1537.64 1870.8 1537.08 1871.56 1536.78 1872.73 1536.78L1874.53 1536.78C1879.63 1536.78 1884.71 1536.95 1889.75 1537.25 1894.76 1537.51 1899.52 1537.64 1904.03 1537.64 1906.03 1537.64 1907.31 1537.94 1907.9 1538.51 1908.46 1539.1 1908.76 1540.48 1908.76 1542.65L1909.7 1585.47C1909.7 1588.81 1909.43 1590.8 1908.9 1591.41 1908.39 1592 1907.3 1592.38 1905.56 1592.55L1901.09 1592.88 1900.49 1632.1C1900.09 1653.02 1899.16 1670.31 1897.68 1684.01 1896.22 1697.66 1893.95 1708.54 1890.88 1716.63 1887.84 1724.68 1883.96 1730.64 1879.2 1734.51 1874.48 1738.34 1868.76 1740.81 1862.05 1741.98 1855.38 1743.18 1847.61 1743.78 1838.76 1743.78Z" fill="#FFE266" fill-rule="evenodd" fill-opacity="1"/><path d="M1966.9 1574.69 1926.37 1574.09C1923.84 1574.09 1922.12 1573.61 1921.23 1572.62 1920.33 1571.66 1919.9 1569.9 1919.9 1567.37L1919.56 1545.29 1919.56 1539.63C1919.56 1537.9 1920 1536.5 1920.9 1535.44 1921.78 1534.34 1923.52 1533.78 1926.11 1533.78L1963.89 1534.64C1965.89 1534.64 1967.51 1534.89 1968.76 1535.37 1970.05 1535.88 1970.7 1537.21 1970.7 1539.37L1970.7 1568.23C1970.7 1570.02 1970.45 1571.54 1969.97 1572.82 1969.46 1574.07 1968.44 1574.69 1966.9 1574.69ZM1963.89 1739.58 1927.58 1740.78 1923.11 1740.78C1921.14 1740.78 1919.92 1740.38 1919.43 1739.58 1918.93 1738.83 1918.7 1736.97 1918.7 1734L1918.7 1732.53C1918.7 1722.16 1918.93 1711.83 1919.43 1701.54 1919.92 1691.2 1920.17 1680.83 1920.17 1670.4 1920.17 1658.26 1920.05 1646.04 1919.83 1633.75 1919.65 1621.48 1919.37 1609.34 1918.96 1597.37 1918.96 1594.84 1919.2 1593.01 1919.7 1591.84 1920.24 1590.65 1921.87 1590.05 1924.64 1590.05L1963.62 1590.05C1966.78 1590.05 1968.73 1590.75 1969.5 1592.11 1970.3 1593.44 1970.7 1595.61 1970.7 1598.57L1970.7 1735.79C1970.7 1737.75 1970.33 1738.83 1969.63 1739.05 1968.96 1739.23 1967.04 1739.4 1963.89 1739.58Z" fill="#FFE266" fill-rule="evenodd" fill-opacity="1"/><path d="M926.452 1740.95C905.576 1740.95 890.894 1735.46 882.411 1724.46 873.941 1713.41 869.699 1697.55 869.699 1676.89L869.699 1667.74C869.699 1665.97 869.951 1664.83 870.436 1664.35 870.902 1663.87 871.94 1663.63 873.542 1663.63L894.252 1663.63C897.572 1663.63 899.862 1663.92 901.114 1664.5 902.422 1665.07 903.072 1667.34 903.072 1671.27 903.072 1680.92 905.527 1687.49 910.438 1690.94 915.379 1694.36 922.714 1696.16 932.382 1696.34 943.406 1696.34 951.422 1693.55 956.419 1687.99 961.476 1682.37 963.999 1676.41 963.999 1670.12 963.999 1664.59 962.366 1659.72 959.089 1655.49 955.866 1651.27 951.711 1649.15 946.598 1649.15 939.864 1649.15 933.149 1649.65 926.452 1650.67 919.774 1651.62 913.562 1652.1 907.829 1652.1 900.948 1652.1 894.638 1651.22 888.905 1649.44 883.178 1647.67 878.587 1644.22 875.125 1639.13 871.706 1634 869.902 1626.61 869.699 1617.01 869.699 1595.52 871.553 1578.25 875.26 1565.19 879.017 1552.09 886.014 1542.58 896.271 1536.73 906.528 1530.82 921.425 1527.87 940.969 1527.87 961.476 1527.87 975.974 1533.48 984.445 1544.73 992.916 1555.92 997.157 1571.75 997.157 1592.23L997.157 1607.21C997.157 1609.18 996.955 1610.43 996.568 1610.96 996.188 1611.43 995.101 1611.58 993.333 1611.39L972.605 1610.16C968.259 1609.78 965.638 1609.11 964.736 1608.14 963.87 1607.14 963.434 1604.17 963.434 1599.27 963.434 1593.76 962.581 1589.82 960.893 1587.46 959.224 1585.11 956.253 1583.64 952.024 1583.08 947.782 1582.44 941.718 1582.12 933.818 1582.12L930.577 1582.12C924.464 1582.12 919.289 1582.64 915.048 1583.64 910.818 1584.6 907.614 1587.16 905.441 1591.27 903.287 1595.41 902.102 1602.41 901.9 1612.24 901.9 1618.54 903.79 1622.73 907.547 1624.8 911.303 1626.86 916.03 1627.9 921.763 1627.9 926.87 1627.9 932.566 1627.46 938.882 1626.59 945.18 1625.68 951.293 1625.23 957.223 1625.23 964.104 1625.23 970.598 1626.21 976.711 1628.18 982.825 1630.15 987.766 1633.51 991.51 1638.27 995.267 1642.98 997.157 1649.37 997.157 1657.44 997.157 1672.95 996.206 1686.09 994.334 1696.86 992.462 1707.56 988.987 1716.16 983.942 1722.65 978.933 1729.14 971.782 1733.79 962.495 1736.63 953.245 1739.51 941.233 1740.95 926.452 1740.95ZM1062.2 1738.3C1049.77 1738.3 1039.8 1737.35 1032.3 1735.48 1024.83 1733.62 1019.14 1730.13 1015.18 1725.03 1011.24 1719.9 1008.56 1712.66 1007.16 1703.34 1005.82 1693.98 1005.14 1681.82 1005.14 1666.87 1005.14 1655.05 1006.51 1645.81 1009.27 1639.13 1012.01 1632.45 1016.1 1627.6 1021.54 1624.58 1026.97 1621.5 1033.62 1619.53 1041.47 1618.66 1049.35 1617.75 1058.34 1617.3 1068.39 1617.3L1082.91 1617.3C1086.04 1617.3 1088.93 1617.01 1091.57 1616.43 1094.26 1615.81 1095.62 1613.93 1095.62 1610.81 1095.62 1608.03 1095.47 1604.98 1095.18 1601.66 1094.9 1598.3 1093.91 1595.11 1092.22 1592.07 1090.54 1589.01 1087.87 1586.42 1084.21 1584.36 1080.6 1582.29 1075.33 1581.27 1068.39 1581.27 1067.06 1581.27 1064.13 1581.31 1059.66 1581.41 1055.23 1581.51 1050.2 1581.61 1044.57 1581.69 1038.98 1581.79 1033.57 1581.89 1028.32 1581.99 1023.13 1582.09 1018.89 1582.18 1015.61 1582.27 1012.34 1582.37 1010.82 1582.42 1011.07 1582.42 1008.46 1582.42 1007.08 1581.74 1006.87 1580.41 1006.7 1579.01 1006.49 1575.77 1006.29 1570.67L1005.44 1539.32C1005.44 1538.36 1005.39 1537.45 1005.29 1536.58 1005.19 1535.67 1005.14 1534.93 1005.14 1534.35 1005.14 1531.57 1006.51 1530.17 1009.27 1530.17L1067.83 1534.63C1090.49 1536.42 1107.19 1545.81 1117.93 1562.82 1128.67 1579.82 1134.15 1604.86 1134.4 1637.9L1134.97 1721.49C1134.97 1728.75 1134.75 1733.13 1134.32 1734.61 1133.93 1736.09 1132.98 1736.85 1131.43 1736.85L1097.42 1738.3 1097.07 1738.3C1096.87 1738.3 1096.48 1738.15 1095.9 1737.86 1095.33 1737.56 1095.05 1737.01 1095.05 1736.2L1095.05 1715.01C1093.26 1717.36 1091.29 1720.41 1089.12 1724.16 1086.95 1727.86 1083.84 1731.13 1079.8 1733.97 1075.76 1736.85 1069.89 1738.3 1062.2 1738.3ZM1064 1688.42C1069.73 1688.42 1074.49 1687.01 1078.3 1684.17 1082.14 1681.29 1085.29 1677.79 1087.75 1673.65 1090.25 1669.52 1092.13 1665.38 1093.38 1661.25 1094.68 1657.12 1095.57 1653.63 1096.05 1650.8 1096.53 1647.92 1096.77 1646.48 1096.77 1646.48 1096.77 1644.52 1096.09 1643.18 1094.68 1642.52 1093.33 1641.85 1092.27 1641.51 1091.51 1641.51L1085.58 1641.51C1071.77 1641.51 1061.76 1642.17 1055.55 1643.45 1049.33 1644.7 1045.39 1646.65 1043.7 1649.3 1042.02 1651.93 1041.19 1655.54 1041.19 1660.1L1041.19 1668.04C1041.19 1674.52 1042.21 1679.2 1044.27 1682.09 1046.34 1684.92 1049.17 1686.69 1052.73 1687.41 1056.28 1688.09 1060.04 1688.42 1064 1688.42ZM1213.64 1629.11C1229.37 1629.11 1242.36 1629.87 1252.62 1631.35 1262.88 1632.8 1270.87 1635.43 1276.59 1639.28 1282.32 1643.12 1286.37 1648.33 1288.73 1654.92 1291.09 1661.5 1292.27 1670 1292.27 1680.42 1292.27 1687.16 1290.99 1693.86 1288.43 1700.53 1285.89 1707.21 1281.8 1713.36 1276.17 1718.98 1270.52 1724.59 1262.97 1729.11 1253.49 1732.53 1244.05 1735.98 1232.53 1737.72 1218.9 1737.72 1208.89 1737.72 1200.88 1736.23 1194.87 1733.25 1188.83 1730.31 1184.34 1727.38 1181.35 1724.46 1178.43 1721.48 1176.44 1719.97 1175.44 1719.97 1174.86 1719.97 1174.47 1720.83 1174.28 1722.51 1174.08 1724.2 1173.98 1728.46 1173.98 1735.33 1173.98 1739.85 1172.73 1742.55 1170.25 1743.4 1167.79 1744.32 1163.72 1744.78 1158.03 1744.78L1148.21 1744.78C1146.86 1744.78 1146.03 1744.58 1145.69 1744.2 1145.39 1743.81 1145.26 1742.73 1145.26 1740.95L1145.26 1668.6C1145.26 1667.07 1145.44 1666.11 1145.82 1665.72 1146.26 1665.29 1147.46 1665.07 1149.45 1665.07L1167.49 1665.07C1176.36 1665.07 1182.34 1665.77 1185.47 1667.17 1188.65 1668.55 1190.24 1672.41 1190.24 1678.69 1190.24 1686.57 1192.59 1691.46 1197.32 1693.32 1202.08 1695.14 1208.89 1696.06 1217.74 1696.06 1223.48 1696.06 1228.27 1694.31 1232.11 1690.81 1235.97 1687.24 1237.89 1682.42 1237.89 1676.32 1237.89 1667.29 1235.57 1661.3 1230.89 1658.37 1226.26 1655.4 1218.34 1653.9 1207.14 1653.9 1203.38 1653.9 1198.84 1653.67 1193.49 1653.19 1188.2 1652.65 1182.59 1651.4 1176.66 1649.44 1170.74 1647.47 1165.2 1644.36 1160.06 1640.13 1154.96 1635.92 1150.82 1630.17 1147.63 1622.91 1144.5 1615.61 1142.94 1606.24 1142.94 1594.81 1142.94 1573.01 1147.9 1556.84 1157.82 1546.32 1167.79 1535.8 1182.04 1530.53 1200.56 1530.53 1212.4 1530.53 1222.12 1531.95 1229.74 1534.79 1237.34 1537.62 1243.17 1540.87 1247.21 1544.52 1251.25 1548.17 1254.09 1551.44 1255.73 1554.32 1257.41 1557.15 1258.25 1558.57 1258.25 1558.57 1258.25 1558.37 1258.02 1556.95 1257.53 1554.32 1257.05 1551.62 1256.81 1547.03 1256.81 1540.55L1257.09 1533.78C1257.09 1530.98 1258.67 1529.6 1261.79 1529.6L1284.91 1529.6C1286.67 1529.6 1287.81 1529.82 1288.29 1530.25 1288.78 1530.63 1289.01 1531.58 1289.01 1533.13L1289.01 1603.68C1289.01 1606.28 1288.87 1607.96 1288.58 1608.73 1288.29 1609.5 1287.64 1609.88 1286.62 1609.88 1287.06 1609.88 1285.97 1609.83 1283.38 1609.73 1280.83 1609.63 1277.77 1609.5 1274.22 1609.29 1270.69 1609.11 1267.4 1608.91 1264.33 1608.73 1261.29 1608.53 1259.27 1608.43 1258.25 1608.43 1250.98 1608.05 1245.86 1607.56 1242.88 1606.99 1239.94 1606.36 1238.16 1605.32 1237.54 1603.89 1236.96 1602.41 1236.57 1600.08 1236.38 1596.91 1235.99 1590.81 1233.46 1586.86 1228.8 1585.09 1224.18 1583.31 1216.36 1582.42 1205.34 1582.42 1196.47 1582.42 1189.8 1584.34 1185.33 1588.19 1180.9 1592.03 1178.68 1596.53 1178.68 1601.66 1178.68 1605.98 1180.1 1610.26 1182.94 1614.48 1185.82 1618.71 1189.87 1622.21 1195.08 1625.02 1200.32 1627.74 1206.5 1629.11 1213.64 1629.11ZM1372.43 1629.11C1388.18 1629.11 1401.17 1629.87 1411.43 1631.35 1421.68 1632.8 1429.67 1635.43 1435.39 1639.28 1441.13 1643.12 1445.17 1648.33 1447.52 1654.92 1449.89 1661.5 1451.07 1670 1451.07 1680.42 1451.07 1687.16 1449.79 1693.86 1447.23 1700.53 1444.68 1707.21 1440.59 1713.36 1434.96 1718.98 1429.33 1724.59 1421.77 1729.11 1412.3 1732.53 1402.86 1735.98 1391.34 1737.72 1377.71 1737.72 1367.69 1737.72 1359.68 1736.23 1353.65 1733.25 1347.64 1730.31 1343.15 1727.38 1340.16 1724.46 1337.22 1721.48 1335.24 1719.97 1334.23 1719.97 1333.66 1719.97 1333.27 1720.83 1333.08 1722.51 1332.89 1724.2 1332.79 1728.46 1332.79 1735.33 1332.79 1739.85 1331.54 1742.55 1329.03 1743.4 1326.58 1744.32 1322.52 1744.78 1316.84 1744.78L1307.02 1744.78C1305.67 1744.78 1304.82 1744.58 1304.48 1744.2 1304.2 1743.81 1304.04 1742.73 1304.04 1740.95L1304.04 1668.6C1304.04 1667.07 1304.25 1666.11 1304.63 1665.72 1305.06 1665.29 1306.27 1665.07 1308.24 1665.07L1326.3 1665.07C1335.15 1665.07 1341.14 1665.77 1344.27 1667.17 1347.46 1668.55 1349.04 1672.41 1349.04 1678.69 1349.04 1686.57 1351.4 1691.46 1356.11 1693.32 1360.88 1695.14 1367.69 1696.06 1376.55 1696.06 1382.28 1696.06 1387.06 1694.31 1390.92 1690.81 1394.77 1687.24 1396.69 1682.42 1396.69 1676.32 1396.69 1667.29 1394.36 1661.3 1389.7 1658.37 1385.07 1655.4 1377.16 1653.9 1365.93 1653.9 1362.17 1653.9 1357.63 1653.67 1352.28 1653.19 1346.99 1652.65 1341.38 1651.4 1335.47 1649.44 1329.54 1647.47 1324.01 1644.36 1318.86 1640.13 1313.75 1635.92 1309.61 1630.17 1306.43 1622.91 1303.31 1615.61 1301.74 1606.24 1301.74 1594.81 1301.74 1573.01 1306.7 1556.84 1316.62 1546.32 1326.58 1535.8 1340.82 1530.53 1359.37 1530.53 1371.21 1530.53 1380.93 1531.95 1388.53 1534.79 1396.15 1537.62 1401.96 1540.87 1406.02 1544.52 1410.06 1548.17 1412.9 1551.44 1414.54 1554.32 1416.22 1557.15 1417.05 1558.57 1417.05 1558.57 1417.05 1558.37 1416.82 1556.95 1416.34 1554.32 1415.85 1551.62 1415.62 1547.03 1415.62 1540.55L1415.91 1533.78C1415.91 1530.98 1417.47 1529.6 1420.6 1529.6L1443.7 1529.6C1445.49 1529.6 1446.62 1529.82 1447.09 1530.25 1447.57 1530.63 1447.82 1531.58 1447.82 1533.13L1447.82 1603.68C1447.82 1606.28 1447.67 1607.96 1447.39 1608.73 1447.09 1609.5 1446.46 1609.88 1445.44 1609.88 1445.87 1609.88 1444.78 1609.83 1442.18 1609.73 1439.64 1609.63 1436.58 1609.5 1433.01 1609.29 1429.5 1609.11 1426.21 1608.91 1423.12 1608.73 1420.1 1608.53 1418.07 1608.43 1417.05 1608.43 1409.79 1608.05 1404.66 1607.56 1401.67 1606.99 1398.73 1606.36 1396.96 1605.32 1396.33 1603.89 1395.76 1602.41 1395.37 1600.08 1395.18 1596.91 1394.79 1590.81 1392.27 1586.86 1387.59 1585.09 1382.98 1583.31 1375.15 1582.42 1364.12 1582.42 1355.27 1582.42 1348.61 1584.34 1344.13 1588.19 1339.71 1592.03 1337.49 1596.53 1337.49 1601.66 1337.49 1605.98 1338.9 1610.26 1341.75 1614.48 1344.64 1618.71 1348.68 1622.21 1353.87 1625.02 1359.12 1627.74 1365.31 1629.11 1372.43 1629.11ZM1509.64 1566.79 1469.14 1566.2C1466.53 1566.2 1464.78 1565.72 1463.86 1564.77 1463 1563.76 1462.57 1561.97 1462.57 1559.44L1462.27 1537.3 1462.27 1531.68C1462.27 1529.92 1462.7 1528.5 1463.57 1527.43 1464.49 1526.33 1466.23 1525.78 1468.77 1525.78L1506.68 1526.65C1508.65 1526.65 1510.27 1526.9 1511.53 1527.43 1512.83 1527.92 1513.47 1529.23 1513.47 1531.4L1513.47 1560.29C1513.47 1562.07 1513.21 1563.6 1512.68 1564.91 1512.19 1566.15 1511.19 1566.79 1509.64 1566.79ZM1506.68 1732.1 1470.29 1733.25 1465.81 1733.25C1463.84 1733.25 1462.62 1732.86 1462.14 1732.1 1461.65 1731.33 1461.42 1729.44 1461.42 1726.48L1461.42 1725.03C1461.42 1714.61 1461.65 1704.22 1462.14 1693.91 1462.62 1683.57 1462.86 1673.19 1462.86 1662.77 1462.86 1650.57 1462.75 1638.31 1462.57 1626.01 1462.37 1613.71 1462.09 1601.56 1461.7 1589.56 1461.7 1586.96 1461.94 1585.09 1462.42 1583.93 1462.95 1582.72 1464.59 1582.12 1467.33 1582.12L1506.4 1582.12C1509.52 1582.12 1511.48 1582.82 1512.24 1584.23 1513.06 1585.61 1513.47 1587.77 1513.47 1590.71L1513.47 1728.28C1513.47 1730.25 1513.12 1731.33 1512.4 1731.51 1511.71 1731.71 1509.81 1731.9 1506.68 1732.1ZM1564.94 1737.13 1536.85 1737.13C1534.88 1737.13 1533.49 1736.88 1532.67 1736.34 1531.89 1735.86 1531.5 1734.45 1531.5 1732.1 1531.89 1724.84 1532.19 1716.74 1532.37 1707.81 1532.57 1698.83 1532.67 1689.22 1532.67 1678.99 1532.67 1664.42 1532.57 1649.22 1532.37 1633.37 1532.19 1617.51 1531.98 1602.03 1531.8 1586.89 1529.83 1586.51 1528.09 1585.97 1526.59 1585.31 1525.15 1584.57 1524.43 1583.74 1524.43 1582.78L1524.43 1540.84C1524.43 1538.68 1524.67 1537.35 1525.15 1536.87 1525.64 1536.35 1526.86 1536.08 1528.83 1536.08 1535.15 1536.08 1540.76 1536.03 1545.67 1535.94 1550.63 1535.85 1556.25 1535.7 1562.55 1535.5 1568.87 1535.32 1576.88 1535.07 1586.6 1534.79 1596.37 1534.5 1609.25 1534.17 1625.23 1533.78L1626.46 1533.78C1627.43 1533.78 1627.99 1533.97 1628.19 1534.35 1628.4 1534.73 1628.48 1535.72 1628.48 1537.3L1628.48 1585.09C1628.48 1585.27 1628.19 1585.49 1627.61 1585.74 1627.04 1585.93 1625.57 1586.02 1623.22 1586.02 1621.24 1586.02 1619.35 1585.97 1617.59 1585.88 1615.8 1585.74 1613.46 1585.66 1610.57 1585.66 1607.73 1585.66 1603.64 1585.61 1598.29 1585.52 1593 1585.42 1585.83 1585.38 1576.78 1585.38 1573.41 1585.38 1570.94 1585.64 1569.35 1586.16 1567.76 1586.64 1566.73 1588.01 1566.24 1590.28 1565.76 1592.53 1565.52 1596.23 1565.52 1601.38L1565.52 1619.31C1565.52 1622.1 1565.71 1623.78 1566.09 1624.36 1566.47 1624.93 1567.38 1625.23 1568.76 1625.23 1577.05 1625.23 1583.65 1625.18 1588.56 1625.08 1593.5 1624.98 1597.64 1624.93 1600.97 1624.93 1614.39 1624.93 1621.11 1625.91 1621.11 1627.9 1621.11 1628.08 1621.06 1628.4 1620.97 1628.83 1620.88 1629.21 1620.83 1629.6 1620.83 1629.98L1621.98 1657.15C1621.98 1659.68 1621.85 1661.15 1621.55 1661.54 1621.26 1661.93 1620.32 1662.12 1618.74 1662.12L1579.39 1661.84C1577.01 1661.84 1575.52 1661.88 1574.83 1661.97 1574.16 1662.07 1573.46 1662.12 1572.74 1662.12 1572.07 1662.12 1570.55 1662.22 1568.2 1662.4 1566.6 1662.4 1565.66 1662.62 1565.38 1663.05 1565.09 1663.44 1564.94 1665 1564.94 1667.74L1567.25 1732.96C1567.25 1734.55 1567.16 1735.63 1566.96 1736.2 1566.76 1736.83 1566.09 1737.13 1564.94 1737.13ZM1724.9 1731.79 1701.87 1731.79C1698.88 1731.79 1696.69 1731.41 1695.29 1730.64 1693.95 1729.83 1693.26 1727.86 1693.26 1724.75 1693.26 1716.86 1693.42 1708.46 1693.7 1699.52 1694 1690.54 1694.23 1681.12 1694.42 1671.27 1681.04 1671.27 1670.45 1669.86 1662.65 1667.02 1654.85 1664.18 1649.12 1659.9 1645.47 1654.18 1641.86 1648.48 1639.55 1641.3 1638.53 1632.65 1637.58 1623.99 1637.09 1613.86 1637.09 1602.24L1637.09 1530.53C1637.09 1528.95 1637.33 1528.12 1637.81 1528.01 1638.3 1527.92 1639.82 1527.87 1642.37 1527.87L1686.49 1527.21C1687.25 1527.21 1687.63 1527.43 1687.63 1527.87 1687.63 1528.25 1687.74 1529.43 1687.92 1531.4L1685.25 1610.16C1685.25 1614.1 1685.55 1618.4 1686.12 1623.06 1686.75 1627.68 1688.24 1631.62 1690.59 1634.88 1692.96 1638.1 1696.91 1639.72 1702.43 1639.72 1711.11 1639.72 1717.42 1639.32 1721.36 1638.55 1725.3 1637.73 1727.81 1635.92 1728.88 1633.08 1729.98 1630.2 1730.53 1625.62 1730.53 1619.31 1730.53 1617.14 1730.48 1614.84 1730.38 1612.4 1730.29 1609.94 1730.25 1607.26 1730.25 1604.33 1730.25 1603.69 1730.15 1600.69 1729.94 1595.33 1729.76 1589.89 1729.44 1583.54 1729.01 1576.29 1728.63 1568.99 1728.29 1561.9 1728.01 1555.03 1727.7 1548.12 1727.58 1542.79 1727.58 1539.03 1727.58 1533.95 1728.84 1531.4 1731.4 1531.4 1734.39 1531.2 1737.34 1531.11 1740.28 1531.11 1743.26 1531.11 1746.03 1531.11 1748.59 1531.11 1756.05 1531.11 1761.41 1531.3 1764.69 1531.68 1767.96 1532.06 1769.98 1532.58 1770.75 1533.2 1771.52 1533.78 1771.9 1534.45 1771.9 1535.21L1772.56 1573.62C1772.56 1575.79 1772.33 1577.06 1771.9 1577.44 1771.52 1577.82 1770.43 1578.02 1768.66 1578.02L1762.73 1578.3C1762.16 1593.26 1761.68 1606.3 1761.3 1617.45 1760.91 1628.53 1759.62 1637.83 1757.47 1645.33 1755.3 1652.82 1751.44 1658.59 1745.91 1662.62 1740.37 1666.62 1732.19 1669.02 1721.36 1669.84L1729.66 1726.77C1729.66 1729.16 1729.39 1730.59 1728.88 1731.08 1728.39 1731.56 1727.05 1731.79 1724.9 1731.79ZM1848.25 1736.56C1834.24 1736.56 1822.83 1734.93 1814.02 1731.67 1805.25 1728.4 1798.48 1722.63 1793.66 1714.36 1788.84 1706.11 1785.55 1694.46 1783.76 1679.42 1781.99 1664.37 1781.09 1644.95 1781.09 1621.11L1781.09 1541.14C1781.09 1539.35 1781.23 1538.27 1781.52 1537.88 1781.82 1537.5 1782.66 1537.3 1784.06 1537.3L1833.45 1536.36C1834.4 1536.36 1834.94 1536.73 1835.04 1537.45 1835.14 1538.12 1835.17 1539.83 1835.17 1542.57L1832.21 1657.72C1832.03 1662.05 1832.21 1666.97 1832.8 1672.5 1833.42 1677.97 1834.4 1683.24 1835.75 1688.27 1837.16 1693.27 1838.98 1697.46 1841.25 1700.83 1843.51 1704.17 1846.33 1705.86 1849.69 1705.86 1857.4 1705.86 1863.41 1705.53 1867.74 1704.86 1872.09 1704.12 1875.33 1702.16 1877.49 1698.94 1879.65 1695.68 1881.03 1690.51 1881.61 1683.45 1882.24 1676.34 1882.54 1666.48 1882.54 1653.9 1882.54 1653.08 1882.45 1649.85 1882.26 1644.18 1882.07 1638.47 1881.85 1631.33 1881.61 1622.78 1881.42 1614.18 1881.17 1605.11 1880.89 1595.61 1880.6 1586.04 1880.35 1576.94 1880.17 1568.29 1879.97 1559.65 1879.78 1552.37 1879.58 1546.45 1879.4 1540.55 1879.3 1537.09 1879.3 1536.08 1879.3 1532.97 1879.48 1531.11 1879.87 1530.53 1880.25 1529.92 1881.05 1529.6 1882.26 1529.6L1883.99 1529.6C1889.14 1529.6 1894.21 1529.76 1899.22 1530.1 1904.29 1530.38 1909.06 1530.53 1913.59 1530.53 1915.56 1530.53 1916.84 1530.82 1917.42 1531.4 1918 1531.98 1918.28 1533.35 1918.28 1535.5L1919.23 1578.3C1919.23 1581.67 1918.97 1583.64 1918.43 1584.23 1917.95 1584.79 1916.81 1585.17 1915.04 1585.38L1910.63 1585.66 1910.05 1624.93C1909.63 1645.78 1908.66 1663.05 1907.18 1676.76 1905.72 1690.44 1903.47 1701.32 1900.38 1709.39 1897.36 1717.46 1893.45 1723.43 1888.68 1727.26 1883.96 1731.07 1878.26 1733.56 1871.56 1734.77 1864.89 1735.97 1857.1 1736.56 1848.25 1736.56ZM1976.88 1566.79 1936.37 1566.2C1933.77 1566.2 1932.01 1565.72 1931.09 1564.77 1930.24 1563.76 1929.81 1561.97 1929.81 1559.44L1929.51 1537.3 1929.51 1531.68C1929.51 1529.92 1929.94 1528.5 1930.81 1527.43 1931.73 1526.33 1933.47 1525.78 1936 1525.78L1973.92 1526.65C1975.89 1526.65 1977.51 1526.9 1978.76 1527.43 1980.05 1527.92 1980.7 1529.23 1980.7 1531.4L1980.7 1560.29C1980.7 1562.07 1980.45 1563.6 1979.91 1564.91 1979.43 1566.15 1978.41 1566.79 1976.88 1566.79ZM1973.92 1732.1 1937.52 1733.25 1933.05 1733.25C1931.08 1733.25 1929.84 1732.86 1929.37 1732.1 1928.89 1731.33 1928.64 1729.44 1928.64 1726.48L1928.64 1725.03C1928.64 1714.61 1928.89 1704.22 1929.37 1693.91 1929.84 1683.57 1930.09 1673.19 1930.09 1662.77 1930.09 1650.57 1929.99 1638.31 1929.81 1626.01 1929.61 1613.71 1929.32 1601.56 1928.94 1589.56 1928.94 1586.96 1929.17 1585.09 1929.65 1583.93 1930.19 1582.72 1931.83 1582.12 1934.57 1582.12L1973.63 1582.12C1976.76 1582.12 1978.71 1582.82 1979.48 1584.23 1980.3 1585.61 1980.7 1587.77 1980.7 1590.71L1980.7 1728.28C1980.7 1730.25 1980.35 1731.33 1979.63 1731.51 1978.94 1731.71 1977.04 1731.9 1973.92 1732.1Z" stroke="#433DC3" stroke-width="4.34262" stroke-linecap="butt" stroke-linejoin="miter" stroke-miterlimit="8" stroke-opacity="1" fill="none" fill-rule="evenodd"/><path d="M799.662 1438.29C799.941 1438.53 804.332 1437.47 804.669 1437.33 808.24 1435.96 811.714 1434.19 814.844 1431.98 819.778 1428.5 823.824 1423.64 825.643 1417.85 826.024 1416.66 826.42 1411.04 828.04 1410.75 829.198 1410.53 830.254 1415.28 830.474 1415.88 832.35 1421.07 834.484 1425.97 838.134 1430.19 841.668 1434.29 846.557 1437.27 851.608 1439.16 852.422 1439.46 856.996 1440.14 857.136 1441.23 857.194 1441.61 853.265 1442.84 852.906 1443.02 848.874 1444.87 844.658 1446.69 841.389 1449.73 837.057 1453.73 833.303 1458.79 830.928 1464.18 830.393 1465.37 829.396 1470.57 828.076 1471.02 827.439 1471.24 826.5 1468.22 826.361 1467.86 824.983 1464.36 823.949 1460.77 822.212 1457.43 818.041 1449.37 809.837 1440.68 800.198 1439.68 799.919 1439.66 799.699 1438.55 799.662 1438.29ZM799.662 1438.29C799.641 1438.27 799.641 1438.25 799.641 1438.23 799.641 1438.23 799.641 1438.25 799.662 1438.29ZM896.846 1449.73C900.599 1468.3 910.877 1488.93 929.812 1495.7 941.028 1499.7 953.557 1500.08 965.337 1500.93 970.227 1501.29 975.175 1501.49 980.042 1502.07 980.438 1502.11 983.994 1502.35 983.612 1503.36 983.077 1504.81 979.28 1505.55 978.063 1505.93 972.162 1507.68 966.092 1508.95 960.103 1510.49 941.725 1515.2 919.498 1518.62 906.207 1533.37 895.849 1544.85 892.814 1561.65 890.901 1576.43 890.38 1580.42 889.962 1584.4 888.885 1588.26 888.687 1588.94 888.108 1591.74 887.045 1591.74 885.491 1591.74 885.073 1587.7 884.933 1586.76 884.193 1581.53 883.937 1576.2 883.438 1570.95 882.118 1556.99 878.688 1542.71 868.549 1532.36 859.107 1522.7 835.898 1518.73 822.886 1516.2 817.682 1515.2 802.155 1513.01 802.455 1511.82 802.771 1510.6 816.582 1507.84 821.391 1506.7 836.741 1503.08 859.87 1494.82 869.708 1482.35 876.906 1473.17 881.561 1462.65 884.516 1451.44 885.432 1447.98 888.342 1435.32 890.402 1435.02 892.455 1434.75 895.746 1444.28 896.846 1449.73Z" fill="#FFE266" fill-rule="evenodd" fill-opacity="1"/><path d="M886.007 1411.96C886.007 1411.52 886.007 1411.3 886.007 1411.3 886.007 1410.54 886.388 1409.84 887.024 1409.46 887.668 1409.09 888.444 1409.09 889.08 1409.44L889.08 1409.46C889.322 1409.58 890.2 1410.32 890.317 1412 890.383 1412.93 890.383 1414.63 890.361 1416.82 890.72 1425.58 891.978 1443.24 896.31 1458.95 899.42 1470.34 904.088 1480.74 911.354 1485.71 915.305 1488.4 920.478 1490.61 925.981 1492.39 934.169 1495.06 943.103 1496.8 950.055 1497.71 956.757 1498.63 973.499 1499.33 983.919 1500.16 988.229 1500.51 991.521 1500.88 992.699 1501.29 993.519 1501.56 993.621 1502.2 993.636 1502.52 993.658 1502.8 993.658 1503.54 992.743 1503.87 992.699 1503.9 992.597 1503.93 992.399 1503.95 992.363 1503.95 992.238 1503.98 992.085 1503.98 991.624 1504.01 990.643 1504.07 989.348 1504.17 982.799 1504.59 967.455 1505.59 962.406 1506.53 951.086 1508.6 938.135 1510.42 926.281 1514.16 918.32 1516.69 910.856 1520.12 904.769 1525.11 897.744 1530.89 893.112 1541.14 890.083 1552.19 885.627 1568.38 884.595 1586.24 884.331 1594.46 884.273 1596.63 884.251 1598.12 884.251 1598.75 884.214 1601.44 883.373 1602.09 882.656 1601.58 882.136 1601.5 881.675 1600.84 881.639 1599.3 881.617 1599.2 881.617 1599.08 881.595 1598.98 881.536 1597.83 880.958 1587.3 880.241 1577.61 879.824 1571.91 879.363 1566.48 878.946 1563.51 878.083 1557.49 877.205 1551.27 875.434 1545.39 874.292 1541.58 872.756 1537.93 870.604 1534.54 865.995 1527.25 859.043 1522.71 851.221 1519.82 839.148 1515.38 824.923 1514.82 812.967 1514.98 811.006 1515 807.793 1515.02 804.281 1515.1 798.735 1515.56 793.503 1515.94 790.035 1516.16 788.176 1516.26 786.822 1516.32 786.186 1516.33 782.293 1516.38 783.888 1511.75 784.408 1511.45 785.081 1511.03 787.561 1510.53 790.949 1510.3 795.244 1510.02 801.23 1509.86 806.162 1509.78 814.299 1509.1 822.647 1508.26 826.599 1507.46 841.043 1504.59 854.06 1498.73 864.055 1489.84 874.051 1480.96 881.061 1469.06 883.512 1454.13 884.573 1447.63 885.949 1426.03 886.168 1416.2 886.088 1414.49 886.051 1413.15 886.029 1412.32 886.131 1412.44 886.271 1412.55 886.432 1412.65 886.432 1412.2 886.366 1411.9 886.131 1411.94 886.088 1411.94 886.051 1411.94 886.007 1411.96ZM886.029 1412.32C885.868 1412.16 885.832 1412.02 886.007 1411.96 886.007 1412.06 886.029 1412.2 886.029 1412.32ZM883.453 1575.42C884.412 1567.96 885.846 1559.6 888.063 1551.63 891.276 1540.14 896.09 1529.47 903.393 1523.45 909.656 1518.25 917.361 1514.66 925.586 1511.99 937.498 1508.14 950.53 1506.21 961.923 1504.04 964.623 1503.51 970.228 1502.96 975.899 1502.48 966.196 1501.94 954.884 1501.44 949.652 1500.79 942.547 1499.88 933.364 1498.19 924.964 1495.54 919.096 1493.69 913.608 1491.37 909.4 1488.56 901.512 1483.27 896.163 1472.21 892.673 1459.95 891.137 1454.57 889.958 1448.94 889.044 1443.52 888.7 1448.38 888.327 1452.53 887.946 1454.85 885.429 1470.92 877.966 1483.76 867.268 1493.39 858.385 1501.38 847.248 1507.14 834.816 1510.66 841.087 1511.43 847.328 1512.73 853.08 1514.92 861.919 1518.27 869.602 1523.67 874.673 1532.05 876.948 1535.85 878.522 1539.96 879.663 1544.19 881.302 1550.33 881.997 1556.79 882.678 1563.03 882.978 1565.72 883.234 1570.35 883.453 1575.42ZM825.26 1406.15C825.26 1406.12 825.238 1406.07 825.238 1406.04 825.238 1406.02 825.238 1405.99 825.238 1405.98 825.157 1404.84 826.013 1403.84 827.133 1403.74 828.274 1403.66 829.27 1404.5 829.386 1405.64 829.386 1405.66 829.386 1405.68 829.386 1405.7L829.408 1405.7C829.767 1411.98 830.206 1419.51 833.045 1425.46 834.838 1429.2 837.589 1432.29 842.002 1433.91 843.816 1434.59 845.616 1435.11 847.431 1435.52 850.226 1436.16 853.036 1436.6 855.992 1437.02 858.743 1437.4 865.636 1438.18 868.563 1438.65 869.287 1438.77 869.821 1438.89 870.041 1438.97 871.483 1439.49 871.102 1440.71 870.824 1441.11 870.524 1441.55 869.324 1442.1 867.568 1442.2 864.714 1442.38 860.002 1442.1 858.107 1442.14 854.397 1442.22 850.526 1442.12 846.75 1442.56 844.299 1442.84 841.906 1443.36 839.609 1444.28 835.797 1445.83 833.301 1448.64 831.684 1452.01 830.448 1454.57 829.687 1457.46 829.27 1460.41 828.911 1462.96 828.809 1465.53 828.794 1467.96 829.109 1471.95 829.211 1475.86 829.408 1479.37 829.43 1479.67 829.452 1479.89 829.452 1480.01 829.672 1483.88 826.357 1482.06 826.094 1480.29 825.355 1475.3 824.681 1469.46 823.46 1463.8 822.721 1460.27 821.726 1456.8 820.291 1453.69 817.994 1448.76 814.481 1444.72 808.496 1443.02 807.135 1442.64 805.737 1442.36 804.325 1442.16 800.754 1441.67 797.081 1441.57 793.605 1441.09 792.332 1440.93 791.871 1440.13 791.71 1439.83 791.308 1439.13 791.235 1438.4 791.527 1437.62 791.63 1437.38 791.93 1436.48 793.188 1436.1 793.247 1436.08 793.43 1436.04 793.708 1436 794.008 1435.94 794.644 1435.86 795.544 1435.74 799.657 1435.21 809.396 1433.99 812.367 1432.63 815.323 1431.26 817.496 1429.22 819.172 1426.81 821.886 1422.88 823.306 1418.02 824.36 1413.27 824.638 1412.04 824.96 1410.38 825.135 1408.81 825.238 1407.85 825.296 1406.93 825.26 1406.15ZM827.433 1458.75C827.952 1456.08 828.67 1453.47 829.789 1451.12 831.626 1447.27 834.421 1444.06 838.767 1442.26 841.226 1441.23 843.816 1440.63 846.45 1440.29 848.909 1439.97 851.382 1439.85 853.841 1439.77 851.426 1439.47 849.07 1439.13 846.736 1438.65 844.775 1438.26 842.843 1437.74 840.867 1437.08 835.474 1435.22 832.006 1431.58 829.731 1427.07 828.611 1424.88 827.791 1422.48 827.177 1419.99 826.196 1423.34 824.901 1426.57 823.021 1429.38 820.95 1432.51 818.177 1435.15 814.445 1436.96 813.603 1437.36 812.264 1437.78 810.647 1438.18 817.891 1440.45 822.406 1445.37 825.12 1451.54 826.116 1453.81 826.877 1456.24 827.433 1458.75Z" fill="#433DC3" fill-rule="evenodd" fill-opacity="1"/><path d="M1798.69 1796.78 1806.44 1796.78C1808.87 1796.78 1810.69 1797.41 1811.9 1798.65 1813.09 1799.9 1813.69 1801.75 1813.69 1804.18L1813.69 1819.38C1813.69 1821.78 1813.09 1823.63 1811.9 1824.91 1810.69 1826.16 1808.87 1826.78 1806.44 1826.78L1798.69 1826.78ZM1803.54 1801.05 1803.54 1822.51 1806.3 1822.51C1807.07 1822.51 1807.68 1822.3 1808.09 1821.85 1808.54 1821.41 1808.79 1820.65 1808.79 1819.58L1808.79 1803.98C1808.79 1802.88 1808.54 1802.11 1808.09 1801.72 1807.68 1801.28 1807.07 1801.05 1806.3 1801.05Z" fill="#433DC3" fill-rule="evenodd" fill-opacity="1"/><path d="M1829.41 1809.45 1836.01 1809.45 1836.01 1813.72 1829.41 1813.72 1829.41 1822.51 1837.7 1822.51 1837.7 1826.78 1824.7 1826.78 1824.7 1796.78 1837.7 1796.78 1837.7 1801.05 1829.41 1801.05Z" fill="#433DC3" fill-rule="evenodd" fill-opacity="1"/><path d="M1855.9 1821.25 1859.44 1796.78 1863.7 1796.78 1859.18 1826.78 1852.29 1826.78 1847.7 1796.78 1852.36 1796.78Z" fill="#433DC3" fill-rule="evenodd" fill-opacity="1"/><path d="M1874.84 1804.39C1874.84 1801.93 1875.4 1800.05 1876.56 1798.73 1877.7 1797.43 1879.43 1796.78 1881.73 1796.78 1884.03 1796.78 1885.75 1797.43 1886.91 1798.73 1888.06 1800.05 1888.63 1801.93 1888.63 1804.39L1888.63 1805.33 1884.19 1805.33 1884.19 1804.06C1884.19 1802.98 1883.99 1802.22 1883.59 1801.76 1883.19 1801.32 1882.61 1801.09 1881.87 1801.09 1881.11 1801.09 1880.51 1801.32 1880.08 1801.76 1879.68 1802.22 1879.48 1802.98 1879.48 1804.06 1879.48 1805.14 1879.69 1806.08 1880.14 1806.88 1880.62 1807.66 1881.2 1808.4 1881.87 1809.11 1882.57 1809.79 1883.3 1810.49 1884.06 1811.2 1884.85 1811.92 1885.59 1812.71 1886.25 1813.56 1886.94 1814.37 1887.53 1815.31 1887.97 1816.39 1888.45 1817.47 1888.7 1818.73 1888.7 1820.16 1888.7 1822.64 1888.11 1824.52 1886.91 1825.83 1885.72 1827.13 1883.96 1827.78 1881.67 1827.78 1879.36 1827.78 1877.62 1827.13 1876.42 1825.83 1875.27 1824.52 1874.7 1822.64 1874.7 1820.16L1874.7 1818.27 1879.15 1818.27 1879.15 1820.43C1879.15 1821.56 1879.36 1822.35 1879.81 1822.79 1880.24 1823.2 1880.83 1823.39 1881.54 1823.39 1882.28 1823.39 1882.88 1823.2 1883.33 1822.79 1883.76 1822.35 1883.99 1821.56 1883.99 1820.43 1883.99 1819.4 1883.74 1818.51 1883.26 1817.73 1882.82 1816.93 1882.27 1816.17 1881.6 1815.45 1880.94 1814.73 1880.21 1814.03 1879.41 1813.36 1878.62 1812.65 1877.85 1811.87 1877.15 1811.06 1876.49 1810.22 1875.93 1809.25 1875.5 1808.17 1875.05 1807.09 1874.84 1805.84 1874.84 1804.39Z" fill="#433DC3" fill-rule="evenodd" fill-opacity="1"/><path d="M1906.67 1796.78C1909.03 1796.78 1910.79 1797.41 1911.95 1798.65 1913.11 1799.9 1913.7 1801.75 1913.7 1804.18L1913.7 1808.11C1913.7 1810.51 1913.11 1812.36 1911.95 1813.65 1910.79 1814.9 1909.03 1815.52 1906.67 1815.52L1904.39 1815.52 1904.39 1826.78 1899.7 1826.78 1899.7 1796.78ZM1904.39 1801.05 1904.39 1811.25 1906.67 1811.25C1907.42 1811.25 1908 1811.05 1908.41 1810.65 1908.81 1810.24 1909.01 1809.5 1909.01 1808.38L1909.01 1803.91C1909.01 1802.81 1908.81 1802.05 1908.41 1801.65 1908 1801.24 1907.42 1801.05 1906.67 1801.05Z" fill="#433DC3" fill-rule="evenodd" fill-opacity="1"/><path d="M1928.34 1820.43C1928.34 1821.56 1928.55 1822.35 1928.99 1822.79 1929.41 1823.25 1929.98 1823.46 1930.68 1823.46 1931.41 1823.46 1932 1823.25 1932.44 1822.79 1932.86 1822.35 1933.09 1821.56 1933.09 1820.43L1933.09 1804.06C1933.09 1802.98 1932.86 1802.22 1932.44 1801.76 1932 1801.32 1931.41 1801.09 1930.68 1801.09 1929.98 1801.09 1929.41 1801.32 1928.99 1801.76 1928.55 1802.22 1928.34 1802.98 1928.34 1804.06ZM1923.71 1804.39C1923.71 1801.93 1924.3 1800.05 1925.47 1798.73 1926.68 1797.43 1928.42 1796.78 1930.68 1796.78 1932.93 1796.78 1934.67 1797.43 1935.89 1798.73 1937.1 1800.05 1937.71 1801.93 1937.71 1804.39L1937.71 1820.16C1937.71 1822.64 1937.1 1824.52 1935.89 1825.83 1934.67 1827.13 1932.93 1827.78 1930.68 1827.78 1928.42 1827.78 1926.68 1827.13 1925.47 1825.83 1924.3 1824.52 1923.71 1822.64 1923.71 1820.16Z" fill="#433DC3" fill-rule="evenodd" fill-opacity="1"/><path d="M1947.69 1796.78 1962.69 1796.78 1962.69 1801.05 1957.63 1801.05 1957.63 1826.78 1952.76 1826.78 1952.76 1801.05 1947.69 1801.05Z" fill="#433DC3" fill-rule="evenodd" fill-opacity="1"/><path d="M921.199 1817.14 1709.2 1817.14" stroke="#433DC3" stroke-width="18.8324" stroke-linecap="round" stroke-linejoin="miter" stroke-miterlimit="8" stroke-opacity="1" fill="none" fill-rule="evenodd"/><path d="M1113.2 1477.14 1931.2 1477.14" stroke="#433DC3" stroke-width="18.8324" stroke-linecap="round" stroke-linejoin="miter" stroke-miterlimit="8" stroke-opacity="1" fill="none" fill-rule="evenodd"/></g></g></svg>