<svg width="293" height="153" viewBox="0 0 293 153" fill="none" xmlns="http://www.w3.org/2000/svg">
<rect x="1" y="6" width="282" height="47" rx="8" fill="#FFE266"/>
<rect x="8" width="282" height="47" rx="8" fill="#FFFCF2"/>
<rect x="7.93042" y="2" width="281.07" height="44.92" rx="7" stroke="#433DC3" stroke-width="2"/>
<path d="M32.5484 30.928C31.9244 30.964 31.3664 30.952 30.8744 30.892C30.3824 30.82 29.9684 30.73 29.6324 30.622C29.2964 30.514 29.0384 30.418 28.8584 30.334C28.6784 30.238 28.5884 30.19 28.5884 30.19C28.5884 30.19 28.5584 30.172 28.4984 30.136C28.4504 30.1 28.3844 30.046 28.3004 29.974C28.2164 29.902 28.1444 29.818 28.0844 29.722C28.0244 29.626 27.9884 29.518 27.9764 29.398C27.9644 29.266 27.9944 29.134 28.0664 29.002C28.1504 28.846 28.2524 28.738 28.3724 28.678C28.4924 28.618 28.6064 28.588 28.7144 28.588C28.8224 28.576 28.9124 28.582 28.9844 28.606C29.0684 28.618 29.1104 28.624 29.1104 28.624C29.5664 28.804 30.0344 28.936 30.5144 29.02C31.0064 29.092 31.4624 29.116 31.8824 29.092C32.3144 29.056 32.6744 28.966 32.9624 28.822C33.2504 28.666 33.4244 28.444 33.4844 28.156C33.5444 27.904 33.5084 27.682 33.3764 27.49C33.2444 27.286 33.0464 27.1 32.7824 26.932C32.5184 26.752 32.2184 26.59 31.8824 26.446C31.5464 26.29 31.1984 26.14 30.8384 25.996C30.6224 25.9 30.3764 25.768 30.1004 25.6C29.8364 25.432 29.5784 25.228 29.3264 24.988C29.0864 24.748 28.8764 24.478 28.6964 24.178C28.5164 23.878 28.3964 23.554 28.3364 23.206C28.2884 22.858 28.3184 22.492 28.4264 22.108C28.5464 21.712 28.7804 21.304 29.1284 20.884C29.4764 20.464 29.8484 20.14 30.2444 19.912C30.6404 19.684 31.0424 19.522 31.4504 19.426C31.8584 19.318 32.2484 19.264 32.6204 19.264C32.9924 19.264 33.3224 19.288 33.6104 19.336C33.8984 19.372 34.1264 19.414 34.2944 19.462C34.4624 19.51 34.5464 19.534 34.5464 19.534C34.5464 19.534 34.5824 19.546 34.6544 19.57C34.7384 19.594 34.8344 19.642 34.9424 19.714C35.0624 19.774 35.1764 19.852 35.2844 19.948C35.4044 20.032 35.4944 20.14 35.5544 20.272C35.6144 20.404 35.6264 20.56 35.5904 20.74C35.5544 20.932 35.4764 21.076 35.3564 21.172C35.2484 21.256 35.1284 21.31 34.9964 21.334C34.8644 21.358 34.7504 21.364 34.6544 21.352C34.5584 21.34 34.5104 21.334 34.5104 21.334C33.9584 21.166 33.4244 21.124 32.9084 21.208C32.4044 21.292 31.9604 21.454 31.5764 21.694C31.2044 21.922 30.9164 22.192 30.7124 22.504C30.5204 22.804 30.4664 23.098 30.5504 23.386C30.6104 23.614 30.7724 23.824 31.0364 24.016C31.3124 24.196 31.6364 24.37 32.0084 24.538C32.3924 24.706 32.7884 24.886 33.1964 25.078C33.6044 25.258 33.9824 25.468 34.3304 25.708C34.6904 25.948 34.9724 26.23 35.1764 26.554C35.4644 27.022 35.6264 27.472 35.6624 27.904C35.7104 28.324 35.6564 28.714 35.5004 29.074C35.3564 29.422 35.1344 29.734 34.8344 30.01C34.5464 30.274 34.2044 30.49 33.8084 30.658C33.4124 30.814 32.9924 30.904 32.5484 30.928ZM40.7066 31.18C39.9146 31.036 39.2726 30.808 38.7806 30.496C38.3006 30.184 37.9286 29.812 37.6646 29.38C37.4006 28.948 37.2206 28.492 37.1246 28.012C37.0406 27.52 36.9926 27.034 36.9806 26.554C36.9806 25.99 37.0826 25.432 37.2866 24.88C37.5026 24.328 37.8146 23.83 38.2226 23.386C38.6306 22.942 39.1166 22.594 39.6806 22.342C40.2566 22.09 40.8926 21.988 41.5886 22.036C42.2966 22.084 42.8726 22.222 43.3166 22.45C43.7726 22.666 44.1266 22.942 44.3786 23.278C44.6306 23.602 44.8046 23.95 44.9006 24.322C45.0086 24.682 45.0686 25.024 45.0806 25.348C45.0806 25.936 44.9246 26.44 44.6126 26.86C44.3006 27.28 43.8086 27.568 43.1366 27.724C42.9446 27.772 42.7106 27.802 42.4346 27.814C42.1586 27.826 41.8586 27.832 41.5346 27.832C41.2226 27.832 40.9106 27.826 40.5986 27.814C40.2986 27.802 40.0226 27.79 39.7706 27.778C39.5306 27.766 39.3326 27.754 39.1766 27.742C39.0206 27.73 38.9426 27.724 38.9426 27.724C38.9786 28.012 39.0746 28.294 39.2306 28.57C39.3986 28.846 39.6386 29.08 39.9506 29.272C40.2746 29.452 40.6766 29.554 41.1566 29.578C41.6126 29.59 42.0206 29.584 42.3806 29.56C42.7526 29.524 43.0706 29.488 43.3346 29.452C43.5986 29.416 43.7966 29.38 43.9286 29.344C44.0726 29.308 44.1446 29.29 44.1446 29.29C44.1446 29.29 44.1746 29.29 44.2346 29.29C44.3066 29.29 44.3966 29.296 44.5046 29.308C44.6126 29.32 44.7206 29.356 44.8286 29.416C44.9366 29.476 45.0266 29.578 45.0986 29.722C45.1826 29.854 45.2186 29.974 45.2066 30.082C45.1946 30.19 45.1586 30.28 45.0986 30.352C45.0506 30.424 45.0026 30.478 44.9546 30.514C44.9066 30.55 44.8826 30.568 44.8826 30.568C44.8826 30.568 44.7566 30.616 44.5046 30.712C44.2526 30.808 43.9166 30.904 43.4966 31C43.0886 31.108 42.6386 31.186 42.1466 31.234C41.6666 31.282 41.1866 31.264 40.7066 31.18ZM38.9606 26.428L42.1466 26.392C42.1466 26.392 42.1826 26.386 42.2546 26.374C42.3386 26.362 42.4406 26.338 42.5606 26.302C42.6806 26.266 42.7946 26.206 42.9026 26.122C43.0226 26.038 43.1186 25.924 43.1906 25.78C43.2626 25.636 43.2986 25.45 43.2986 25.222C43.2986 24.85 43.2326 24.538 43.1006 24.286C42.9686 24.034 42.7526 23.854 42.4526 23.746C42.1526 23.626 41.7326 23.584 41.1926 23.62C40.8206 23.644 40.4906 23.764 40.2026 23.98C39.9146 24.184 39.6686 24.436 39.4646 24.736C39.2726 25.036 39.1346 25.342 39.0506 25.654C38.9666 25.954 38.9366 26.212 38.9606 26.428ZM47.7039 31C47.4639 31 47.2659 30.958 47.1099 30.874C46.9659 30.778 46.8519 30.67 46.7679 30.55C46.6839 30.418 46.6239 30.31 46.5879 30.226C46.5519 30.13 46.5339 30.082 46.5339 30.082C46.4859 29.566 46.4439 28.984 46.4079 28.336C46.3839 27.676 46.3659 26.986 46.3539 26.266C46.3419 25.534 46.3419 24.802 46.3539 24.07C46.3779 23.326 46.4079 22.612 46.4439 21.928C46.4799 21.232 46.5219 20.59 46.5699 20.002C46.5699 20.002 46.5759 19.966 46.5879 19.894C46.6119 19.81 46.6599 19.72 46.7319 19.624C46.8039 19.528 46.9059 19.45 47.0379 19.39C47.1699 19.318 47.3499 19.288 47.5779 19.3C47.8179 19.324 48.0039 19.39 48.1359 19.498C48.2799 19.594 48.3819 19.708 48.4419 19.84C48.5139 19.96 48.5619 20.068 48.5859 20.164C48.6099 20.248 48.6219 20.29 48.6219 20.29C48.5859 20.758 48.5559 21.31 48.5319 21.946C48.5199 22.57 48.5079 23.242 48.4959 23.962C48.4839 24.67 48.4779 25.39 48.4779 26.122C48.4899 26.854 48.5019 27.568 48.5139 28.264C48.5259 28.96 48.5499 29.602 48.5859 30.19C48.5859 30.19 48.5739 30.232 48.5499 30.316C48.5379 30.4 48.5079 30.496 48.4599 30.604C48.4119 30.712 48.3279 30.808 48.2079 30.892C48.0879 30.964 47.9199 31 47.7039 31ZM53.6349 31.18C52.8429 31.036 52.2009 30.808 51.7089 30.496C51.2289 30.184 50.8569 29.812 50.5929 29.38C50.3289 28.948 50.1489 28.492 50.0529 28.012C49.9689 27.52 49.9209 27.034 49.9089 26.554C49.9089 25.99 50.0109 25.432 50.2149 24.88C50.4309 24.328 50.7429 23.83 51.1509 23.386C51.5589 22.942 52.0449 22.594 52.6089 22.342C53.1849 22.09 53.8209 21.988 54.5169 22.036C55.2249 22.084 55.8009 22.222 56.2449 22.45C56.7009 22.666 57.0549 22.942 57.3069 23.278C57.5589 23.602 57.7329 23.95 57.8289 24.322C57.9369 24.682 57.9969 25.024 58.0089 25.348C58.0089 25.936 57.8529 26.44 57.5409 26.86C57.2289 27.28 56.7369 27.568 56.0649 27.724C55.8729 27.772 55.6389 27.802 55.3629 27.814C55.0869 27.826 54.7869 27.832 54.4629 27.832C54.1509 27.832 53.8389 27.826 53.5269 27.814C53.2269 27.802 52.9509 27.79 52.6989 27.778C52.4589 27.766 52.2609 27.754 52.1049 27.742C51.9489 27.73 51.8709 27.724 51.8709 27.724C51.9069 28.012 52.0029 28.294 52.1589 28.57C52.3269 28.846 52.5669 29.08 52.8789 29.272C53.2029 29.452 53.6049 29.554 54.0849 29.578C54.5409 29.59 54.9489 29.584 55.3089 29.56C55.6809 29.524 55.9989 29.488 56.2629 29.452C56.5269 29.416 56.7249 29.38 56.8569 29.344C57.0009 29.308 57.0729 29.29 57.0729 29.29C57.0729 29.29 57.1029 29.29 57.1629 29.29C57.2349 29.29 57.3249 29.296 57.4329 29.308C57.5409 29.32 57.6489 29.356 57.7569 29.416C57.8649 29.476 57.9549 29.578 58.0269 29.722C58.1109 29.854 58.1469 29.974 58.1349 30.082C58.1229 30.19 58.0869 30.28 58.0269 30.352C57.9789 30.424 57.9309 30.478 57.8829 30.514C57.8349 30.55 57.8109 30.568 57.8109 30.568C57.8109 30.568 57.6849 30.616 57.4329 30.712C57.1809 30.808 56.8449 30.904 56.4249 31C56.0169 31.108 55.5669 31.186 55.0749 31.234C54.5949 31.282 54.1149 31.264 53.6349 31.18ZM51.8889 26.428L55.0749 26.392C55.0749 26.392 55.1109 26.386 55.1829 26.374C55.2669 26.362 55.3689 26.338 55.4889 26.302C55.6089 26.266 55.7229 26.206 55.8309 26.122C55.9509 26.038 56.0469 25.924 56.1189 25.78C56.1909 25.636 56.2269 25.45 56.2269 25.222C56.2269 24.85 56.1609 24.538 56.0289 24.286C55.8969 24.034 55.6809 23.854 55.3809 23.746C55.0809 23.626 54.6609 23.584 54.1209 23.62C53.7489 23.644 53.4189 23.764 53.1309 23.98C52.8429 24.184 52.5969 24.436 52.3929 24.736C52.2009 25.036 52.0629 25.342 51.9789 25.654C51.8949 25.954 51.8649 26.212 51.8889 26.428ZM63.3365 31.162C62.3525 31.102 61.5605 30.892 60.9605 30.532C60.3605 30.16 59.9165 29.668 59.6285 29.056C59.3405 28.432 59.1665 27.73 59.1065 26.95C59.0585 26.326 59.1245 25.726 59.3045 25.15C59.4965 24.562 59.7845 24.04 60.1685 23.584C60.5645 23.116 61.0445 22.75 61.6085 22.486C62.1725 22.21 62.8145 22.078 63.5345 22.09C64.1465 22.09 64.6625 22.168 65.0825 22.324C65.5145 22.48 65.8685 22.672 66.1445 22.9C66.4205 23.116 66.6305 23.338 66.7745 23.566C66.9305 23.782 67.0385 23.962 67.0985 24.106C67.1585 24.25 67.1885 24.322 67.1885 24.322C67.1885 24.322 67.1825 24.364 67.1705 24.448C67.1705 24.532 67.1465 24.64 67.0985 24.772C67.0505 24.892 66.9485 25 66.7925 25.096C66.6485 25.18 66.4865 25.234 66.3065 25.258C66.1265 25.282 65.9585 25.276 65.8025 25.24C65.6465 25.204 65.5385 25.15 65.4785 25.078C65.4665 25.078 65.4245 25.03 65.3525 24.934C65.2925 24.838 65.1965 24.73 65.0645 24.61C64.9445 24.49 64.7765 24.382 64.5605 24.286C64.3565 24.19 64.1045 24.148 63.8045 24.16C63.4565 24.172 63.1265 24.232 62.8145 24.34C62.5145 24.448 62.2505 24.61 62.0225 24.826C61.8065 25.03 61.6385 25.294 61.5185 25.618C61.3985 25.93 61.3445 26.302 61.3565 26.734C61.3685 27.274 61.4645 27.712 61.6445 28.048C61.8245 28.372 62.0705 28.612 62.3825 28.768C62.6945 28.924 63.0545 29.026 63.4625 29.074C63.7745 29.098 64.0685 29.08 64.3445 29.02C64.6205 28.948 64.8665 28.858 65.0825 28.75C65.2985 28.642 65.4725 28.546 65.6045 28.462C65.7485 28.378 65.8325 28.336 65.8565 28.336C66.0605 28.264 66.2465 28.24 66.4145 28.264C66.5945 28.288 66.7565 28.342 66.9005 28.426C67.0565 28.51 67.1825 28.618 67.2785 28.75C67.3985 28.906 67.4585 29.056 67.4585 29.2C67.4705 29.344 67.4585 29.458 67.4225 29.542C67.3985 29.626 67.3865 29.668 67.3865 29.668C67.3865 29.668 67.3145 29.752 67.1705 29.92C67.0265 30.076 66.7925 30.262 66.4685 30.478C66.1565 30.682 65.7425 30.856 65.2265 31C64.7105 31.144 64.0805 31.198 63.3365 31.162ZM71.956 31C71.728 31 71.536 30.958 71.38 30.874C71.236 30.778 71.122 30.67 71.038 30.55C70.954 30.43 70.894 30.322 70.858 30.226C70.822 30.13 70.804 30.082 70.804 30.082C70.756 29.566 70.714 28.984 70.678 28.336C70.654 27.676 70.636 26.986 70.624 26.266C70.612 25.534 70.612 24.802 70.624 24.07C70.648 23.326 70.678 22.612 70.714 21.928C70.75 21.232 70.792 20.59 70.84 20.002C70.84 20.002 70.846 19.966 70.858 19.894C70.882 19.81 70.93 19.72 71.002 19.624C71.074 19.528 71.176 19.45 71.308 19.39C71.44 19.318 71.62 19.288 71.848 19.3C72.088 19.324 72.274 19.39 72.406 19.498C72.55 19.594 72.652 19.708 72.712 19.84C72.784 19.96 72.832 20.068 72.856 20.164C72.88 20.248 72.892 20.29 72.892 20.29C72.856 20.758 72.826 21.31 72.802 21.946C72.79 22.57 72.778 23.242 72.766 23.962C72.754 24.67 72.748 25.39 72.748 26.122C72.748 26.854 72.754 27.568 72.766 28.264C72.79 28.96 72.82 29.602 72.856 30.19C72.856 30.19 72.844 30.232 72.82 30.316C72.808 30.4 72.772 30.496 72.712 30.604C72.664 30.712 72.58 30.808 72.46 30.892C72.34 30.964 72.172 31 71.956 31ZM74.44 24.052C73.492 24.04 72.592 24.028 71.74 24.016C70.9 23.992 70.15 23.974 69.49 23.962C69.49 23.962 69.436 23.956 69.328 23.944C69.22 23.92 69.094 23.884 68.95 23.836C68.818 23.776 68.692 23.692 68.572 23.584C68.464 23.476 68.404 23.326 68.392 23.134C68.368 22.966 68.386 22.834 68.446 22.738C68.518 22.63 68.602 22.552 68.698 22.504C68.794 22.444 68.878 22.408 68.95 22.396C69.022 22.372 69.058 22.36 69.058 22.36C69.154 22.336 69.328 22.324 69.58 22.324C69.844 22.312 70.162 22.3 70.534 22.288C70.906 22.276 71.308 22.27 71.74 22.27C72.172 22.258 72.604 22.252 73.036 22.252C73.468 22.252 73.876 22.252 74.26 22.252C74.26 22.252 74.296 22.258 74.368 22.27C74.452 22.282 74.548 22.306 74.656 22.342C74.776 22.366 74.89 22.414 74.998 22.486C75.118 22.558 75.214 22.654 75.286 22.774C75.358 22.894 75.394 23.044 75.394 23.224C75.382 23.44 75.328 23.608 75.232 23.728C75.136 23.848 75.028 23.932 74.908 23.98C74.788 24.016 74.68 24.04 74.584 24.052C74.488 24.052 74.44 24.052 74.44 24.052ZM86.1668 30.964C85.5428 30.976 84.9668 30.874 84.4388 30.658C83.9228 30.43 83.4728 30.118 83.0888 29.722C82.7048 29.314 82.4048 28.846 82.1888 28.318C81.9848 27.79 81.8828 27.226 81.8828 26.626C81.8828 25.978 81.9968 25.372 82.2248 24.808C82.4648 24.244 82.7888 23.758 83.1968 23.35C83.6048 22.93 84.0788 22.606 84.6188 22.378C85.1708 22.138 85.7588 22.012 86.3828 22C87.2828 22 88.0568 22.162 88.7048 22.486C89.3528 22.798 89.8448 23.29 90.1808 23.962C90.5288 24.622 90.7028 25.468 90.7028 26.5C90.7028 27.1 90.6008 27.67 90.3968 28.21C90.1928 28.738 89.8988 29.206 89.5148 29.614C89.1308 30.022 88.6568 30.346 88.0928 30.586C87.5288 30.826 86.8868 30.952 86.1668 30.964ZM86.2568 29.074C86.5928 29.074 86.9108 29.002 87.2108 28.858C87.5228 28.702 87.7988 28.498 88.0388 28.246C88.2788 27.994 88.4648 27.706 88.5968 27.382C88.7408 27.046 88.8128 26.692 88.8128 26.32C88.8128 25.708 88.7108 25.204 88.5068 24.808C88.3148 24.412 88.0448 24.118 87.6968 23.926C87.3608 23.734 86.9648 23.638 86.5088 23.638C86.1848 23.638 85.8728 23.722 85.5728 23.89C85.2728 24.058 85.0088 24.286 84.7808 24.574C84.5648 24.862 84.3908 25.18 84.2588 25.528C84.1388 25.876 84.0788 26.236 84.0788 26.608C84.0788 27.076 84.1688 27.502 84.3488 27.886C84.5288 28.258 84.7808 28.552 85.1048 28.768C85.4288 28.972 85.8128 29.074 86.2568 29.074ZM90.6668 30.982C90.4388 30.982 90.2528 30.946 90.1088 30.874C89.9648 30.79 89.8568 30.712 89.7848 30.64C89.7128 30.556 89.6768 30.514 89.6768 30.514C89.5928 29.638 89.5268 28.768 89.4788 27.904C89.4308 27.04 89.4128 26.158 89.4248 25.258C89.4488 24.358 89.5028 23.422 89.5868 22.45C89.5868 22.45 89.6168 22.414 89.6768 22.342C89.7368 22.258 89.8388 22.18 89.9828 22.108C90.1268 22.036 90.3248 22.006 90.5768 22.018C90.8288 22.042 91.0208 22.114 91.1528 22.234C91.2968 22.342 91.3928 22.474 91.4408 22.63C91.4888 22.774 91.5188 22.9 91.5308 23.008C91.5428 23.116 91.5488 23.17 91.5488 23.17C91.5008 23.782 91.4588 24.352 91.4228 24.88C91.3988 25.408 91.3868 25.942 91.3868 26.482C91.3988 27.01 91.4168 27.574 91.4408 28.174C91.4648 28.774 91.4948 29.44 91.5308 30.172C91.5308 30.172 91.5248 30.214 91.5128 30.298C91.5008 30.382 91.4648 30.478 91.4048 30.586C91.3568 30.682 91.2728 30.772 91.1528 30.856C91.0448 30.94 90.8828 30.982 90.6668 30.982ZM105.354 30.694C105.114 30.634 104.934 30.538 104.814 30.406C104.694 30.274 104.61 30.136 104.562 29.992C104.526 29.848 104.502 29.728 104.49 29.632C104.49 29.524 104.49 29.47 104.49 29.47C104.61 28.534 104.658 27.676 104.634 26.896C104.61 26.104 104.466 25.486 104.202 25.042C103.986 24.634 103.722 24.346 103.41 24.178C103.098 23.998 102.768 23.926 102.42 23.962C102.084 23.998 101.748 24.13 101.412 24.358C101.04 24.622 100.752 24.946 100.548 25.33C100.356 25.702 100.224 26.092 100.152 26.5C100.08 26.896 100.038 27.28 100.026 27.652C100.026 28.012 100.026 28.33 100.026 28.606C100.026 28.87 100.032 29.104 100.044 29.308C100.056 29.512 100.062 29.692 100.062 29.848C100.062 29.848 100.062 29.878 100.062 29.938C100.062 29.998 100.044 30.07 100.008 30.154C99.9716 30.238 99.9056 30.316 99.8096 30.388C99.7136 30.46 99.5696 30.502 99.3776 30.514C99.2096 30.526 99.0596 30.49 98.9276 30.406C98.7956 30.322 98.6876 30.238 98.6036 30.154C98.5316 30.058 98.4956 30.01 98.4956 30.01C98.3756 29.806 98.3096 29.608 98.2976 29.416C98.2856 29.224 98.2856 29.002 98.2976 28.75C98.3096 28.498 98.2916 28.192 98.2436 27.832C98.2076 27.388 98.1896 26.986 98.1896 26.626C98.2016 26.266 98.2316 25.936 98.2796 25.636C98.3276 25.336 98.4056 25.048 98.5136 24.772C98.6216 24.496 98.7716 24.22 98.9636 23.944C99.2036 23.632 99.5036 23.344 99.8636 23.08C100.224 22.804 100.62 22.582 101.052 22.414C101.484 22.246 101.928 22.15 102.384 22.126C102.852 22.09 103.308 22.144 103.752 22.288C104.04 22.408 104.328 22.564 104.616 22.756C104.916 22.948 105.192 23.188 105.444 23.476C105.708 23.764 105.942 24.112 106.146 24.52C106.35 24.928 106.518 25.402 106.65 25.942C106.77 26.566 106.824 27.196 106.812 27.832C106.8 28.468 106.734 29.176 106.614 29.956C106.614 29.956 106.602 30.004 106.578 30.1C106.554 30.196 106.5 30.304 106.416 30.424C106.344 30.544 106.224 30.64 106.056 30.712C105.888 30.772 105.654 30.766 105.354 30.694ZM99.3056 30.982C99.1016 30.97 98.9276 30.928 98.7836 30.856C98.6516 30.772 98.5436 30.676 98.4596 30.568C98.3756 30.46 98.3156 30.37 98.2796 30.298C98.2556 30.226 98.2436 30.19 98.2436 30.19C98.1716 29.542 98.1176 28.924 98.0816 28.336C98.0576 27.748 98.0456 27.166 98.0456 26.59C98.0456 26.002 98.0576 25.396 98.0816 24.772C98.1176 24.148 98.1656 23.476 98.2256 22.756C98.2256 22.756 98.2316 22.72 98.2436 22.648C98.2676 22.564 98.3096 22.474 98.3696 22.378C98.4296 22.282 98.5256 22.198 98.6576 22.126C98.8016 22.054 98.9876 22.018 99.2156 22.018C99.4676 22.03 99.6596 22.084 99.7916 22.18C99.9356 22.276 100.044 22.39 100.116 22.522C100.188 22.654 100.23 22.768 100.242 22.864C100.266 22.96 100.278 23.008 100.278 23.008C100.242 23.596 100.212 24.172 100.188 24.736C100.164 25.288 100.152 25.852 100.152 26.428C100.152 26.992 100.158 27.586 100.17 28.21C100.194 28.822 100.23 29.482 100.278 30.19C100.278 30.19 100.266 30.232 100.242 30.316C100.23 30.4 100.194 30.496 100.134 30.604C100.074 30.712 99.9776 30.808 99.8456 30.892C99.7136 30.964 99.5336 30.994 99.3056 30.982ZM111.924 30.694C111.684 30.634 111.504 30.538 111.384 30.406C111.264 30.274 111.18 30.136 111.132 29.992C111.096 29.848 111.072 29.728 111.06 29.632C111.06 29.524 111.06 29.47 111.06 29.47C111.18 28.534 111.228 27.676 111.204 26.896C111.18 26.104 111.036 25.486 110.772 25.042C110.556 24.634 110.292 24.346 109.98 24.178C109.668 23.998 109.338 23.926 108.99 23.962C108.654 23.998 108.318 24.13 107.982 24.358C107.61 24.622 107.322 24.946 107.118 25.33C106.926 25.702 106.794 26.092 106.722 26.5C106.65 26.896 106.608 27.28 106.596 27.652C106.596 28.012 106.59 28.306 106.578 28.534C106.578 28.762 106.572 28.96 106.56 29.128C106.548 29.284 106.536 29.452 106.524 29.632C106.524 29.632 106.518 29.668 106.506 29.74C106.506 29.812 106.488 29.896 106.452 29.992C106.428 30.088 106.368 30.178 106.272 30.262C106.188 30.334 106.056 30.376 105.876 30.388C105.696 30.4 105.54 30.364 105.408 30.28C105.288 30.196 105.198 30.112 105.138 30.028C105.078 29.944 105.048 29.902 105.048 29.902C104.976 29.746 104.928 29.572 104.904 29.38C104.892 29.176 104.886 28.948 104.886 28.696C104.898 28.432 104.898 28.138 104.886 27.814C104.85 27.37 104.826 26.974 104.814 26.626C104.814 26.266 104.832 25.936 104.868 25.636C104.904 25.336 104.976 25.048 105.084 24.772C105.192 24.496 105.342 24.22 105.534 23.944C105.774 23.632 106.074 23.344 106.434 23.08C106.794 22.804 107.19 22.582 107.622 22.414C108.054 22.246 108.498 22.15 108.954 22.126C109.422 22.09 109.878 22.144 110.322 22.288C110.61 22.408 110.898 22.564 111.186 22.756C111.486 22.948 111.762 23.188 112.014 23.476C112.278 23.764 112.512 24.112 112.716 24.52C112.92 24.928 113.088 25.402 113.22 25.942C113.34 26.566 113.394 27.196 113.382 27.832C113.37 28.468 113.304 29.176 113.184 29.956C113.184 29.956 113.172 30.004 113.148 30.1C113.124 30.196 113.07 30.304 112.986 30.424C112.914 30.544 112.794 30.64 112.626 30.712C112.458 30.772 112.224 30.766 111.924 30.694ZM118.387 31.18C117.595 31.036 116.953 30.808 116.461 30.496C115.981 30.184 115.609 29.812 115.345 29.38C115.081 28.948 114.901 28.492 114.805 28.012C114.721 27.52 114.673 27.034 114.661 26.554C114.661 25.99 114.763 25.432 114.967 24.88C115.183 24.328 115.495 23.83 115.903 23.386C116.311 22.942 116.797 22.594 117.361 22.342C117.937 22.09 118.573 21.988 119.269 22.036C119.977 22.084 120.553 22.222 120.997 22.45C121.453 22.666 121.807 22.942 122.059 23.278C122.311 23.602 122.485 23.95 122.581 24.322C122.689 24.682 122.749 25.024 122.761 25.348C122.761 25.936 122.605 26.44 122.293 26.86C121.981 27.28 121.489 27.568 120.817 27.724C120.625 27.772 120.391 27.802 120.115 27.814C119.839 27.826 119.539 27.832 119.215 27.832C118.903 27.832 118.591 27.826 118.279 27.814C117.979 27.802 117.703 27.79 117.451 27.778C117.211 27.766 117.013 27.754 116.857 27.742C116.701 27.73 116.623 27.724 116.623 27.724C116.659 28.012 116.755 28.294 116.911 28.57C117.079 28.846 117.319 29.08 117.631 29.272C117.955 29.452 118.357 29.554 118.837 29.578C119.293 29.59 119.701 29.584 120.061 29.56C120.433 29.524 120.751 29.488 121.015 29.452C121.279 29.416 121.477 29.38 121.609 29.344C121.753 29.308 121.825 29.29 121.825 29.29C121.825 29.29 121.855 29.29 121.915 29.29C121.987 29.29 122.077 29.296 122.185 29.308C122.293 29.32 122.401 29.356 122.509 29.416C122.617 29.476 122.707 29.578 122.779 29.722C122.863 29.854 122.899 29.974 122.887 30.082C122.875 30.19 122.839 30.28 122.779 30.352C122.731 30.424 122.683 30.478 122.635 30.514C122.587 30.55 122.563 30.568 122.563 30.568C122.563 30.568 122.437 30.616 122.185 30.712C121.933 30.808 121.597 30.904 121.177 31C120.769 31.108 120.319 31.186 119.827 31.234C119.347 31.282 118.867 31.264 118.387 31.18ZM116.641 26.428L119.827 26.392C119.827 26.392 119.863 26.386 119.935 26.374C120.019 26.362 120.121 26.338 120.241 26.302C120.361 26.266 120.475 26.206 120.583 26.122C120.703 26.038 120.799 25.924 120.871 25.78C120.943 25.636 120.979 25.45 120.979 25.222C120.979 24.85 120.913 24.538 120.781 24.286C120.649 24.034 120.433 23.854 120.133 23.746C119.833 23.626 119.413 23.584 118.873 23.62C118.501 23.644 118.171 23.764 117.883 23.98C117.595 24.184 117.349 24.436 117.145 24.736C116.953 25.036 116.815 25.342 116.731 25.654C116.647 25.954 116.617 26.212 116.641 26.428ZM131.518 30.694C131.278 30.634 131.098 30.538 130.978 30.406C130.858 30.274 130.774 30.136 130.726 29.992C130.69 29.848 130.666 29.728 130.654 29.632C130.654 29.524 130.654 29.47 130.654 29.47C130.774 28.534 130.822 27.676 130.798 26.896C130.774 26.104 130.63 25.486 130.366 25.042C130.15 24.634 129.886 24.346 129.574 24.178C129.262 23.998 128.932 23.926 128.584 23.962C128.248 23.998 127.912 24.13 127.576 24.358C127.204 24.622 126.916 24.946 126.712 25.33C126.52 25.702 126.388 26.092 126.316 26.5C126.244 26.896 126.202 27.28 126.19 27.652C126.19 28.012 126.19 28.33 126.19 28.606C126.19 28.87 126.196 29.104 126.208 29.308C126.22 29.512 126.226 29.692 126.226 29.848C126.226 29.848 126.226 29.878 126.226 29.938C126.226 29.998 126.208 30.07 126.172 30.154C126.136 30.238 126.07 30.316 125.974 30.388C125.878 30.46 125.734 30.502 125.542 30.514C125.374 30.526 125.224 30.49 125.092 30.406C124.96 30.322 124.852 30.238 124.768 30.154C124.696 30.058 124.66 30.01 124.66 30.01C124.54 29.806 124.474 29.608 124.462 29.416C124.45 29.224 124.45 29.002 124.462 28.75C124.474 28.498 124.456 28.192 124.408 27.832C124.372 27.388 124.354 26.986 124.354 26.626C124.366 26.266 124.396 25.936 124.444 25.636C124.492 25.336 124.57 25.048 124.678 24.772C124.786 24.496 124.936 24.22 125.128 23.944C125.368 23.632 125.668 23.344 126.028 23.08C126.388 22.804 126.784 22.582 127.216 22.414C127.648 22.246 128.092 22.15 128.548 22.126C129.016 22.09 129.472 22.144 129.916 22.288C130.204 22.408 130.492 22.564 130.78 22.756C131.08 22.948 131.356 23.188 131.608 23.476C131.872 23.764 132.106 24.112 132.31 24.52C132.514 24.928 132.682 25.402 132.814 25.942C132.934 26.566 132.988 27.196 132.976 27.832C132.964 28.468 132.898 29.176 132.778 29.956C132.778 29.956 132.766 30.004 132.742 30.1C132.718 30.196 132.664 30.304 132.58 30.424C132.508 30.544 132.388 30.64 132.22 30.712C132.052 30.772 131.818 30.766 131.518 30.694ZM125.47 30.982C125.266 30.97 125.092 30.928 124.948 30.856C124.816 30.772 124.708 30.676 124.624 30.568C124.54 30.46 124.48 30.37 124.444 30.298C124.42 30.226 124.408 30.19 124.408 30.19C124.336 29.542 124.282 28.924 124.246 28.336C124.222 27.748 124.21 27.166 124.21 26.59C124.21 26.002 124.222 25.396 124.246 24.772C124.282 24.148 124.33 23.476 124.39 22.756C124.39 22.756 124.396 22.72 124.408 22.648C124.432 22.564 124.474 22.474 124.534 22.378C124.594 22.282 124.69 22.198 124.822 22.126C124.966 22.054 125.152 22.018 125.38 22.018C125.632 22.03 125.824 22.084 125.956 22.18C126.1 22.276 126.208 22.39 126.28 22.522C126.352 22.654 126.394 22.768 126.406 22.864C126.43 22.96 126.442 23.008 126.442 23.008C126.406 23.596 126.376 24.172 126.352 24.736C126.328 25.288 126.316 25.852 126.316 26.428C126.316 26.992 126.322 27.586 126.334 28.21C126.358 28.822 126.394 29.482 126.442 30.19C126.442 30.19 126.43 30.232 126.406 30.316C126.394 30.4 126.358 30.496 126.298 30.604C126.238 30.712 126.142 30.808 126.01 30.892C125.878 30.964 125.698 30.994 125.47 30.982ZM137.329 30.82C137.041 30.712 136.747 30.562 136.447 30.37C136.159 30.166 135.883 29.92 135.619 29.632C135.355 29.332 135.121 28.984 134.917 28.588C134.713 28.18 134.551 27.7 134.431 27.148C134.311 26.524 134.251 25.888 134.251 25.24C134.263 24.592 134.329 23.884 134.449 23.116C134.449 23.116 134.461 23.068 134.485 22.972C134.509 22.864 134.563 22.75 134.647 22.63C134.731 22.51 134.857 22.42 135.025 22.36C135.193 22.288 135.421 22.288 135.709 22.36C135.949 22.42 136.129 22.522 136.249 22.666C136.381 22.798 136.465 22.936 136.501 23.08C136.549 23.212 136.573 23.332 136.573 23.44C136.573 23.548 136.573 23.602 136.573 23.602C136.453 24.526 136.405 25.384 136.429 26.176C136.465 26.968 136.609 27.598 136.861 28.066C137.029 28.366 137.221 28.6 137.437 28.768C137.653 28.936 137.881 29.05 138.121 29.11C138.373 29.158 138.613 29.164 138.841 29.128C139.081 29.08 139.297 28.99 139.489 28.858C139.789 28.666 140.017 28.39 140.173 28.03C140.341 27.658 140.449 27.262 140.497 26.842C140.557 26.41 140.563 26.002 140.515 25.618C140.467 25.258 140.407 24.898 140.335 24.538C140.263 24.178 140.197 23.854 140.137 23.566C140.077 23.278 140.035 23.05 140.011 22.882C140.011 22.882 140.011 22.846 140.011 22.774C140.023 22.702 140.047 22.618 140.083 22.522C140.131 22.426 140.209 22.342 140.317 22.27C140.437 22.186 140.605 22.132 140.821 22.108C141.049 22.084 141.247 22.12 141.415 22.216C141.583 22.3 141.715 22.39 141.811 22.486C141.907 22.582 141.955 22.63 141.955 22.63C142.147 22.942 142.333 23.326 142.513 23.782C142.693 24.238 142.831 24.736 142.927 25.276C143.023 25.924 143.047 26.5 142.999 27.004C142.963 27.496 142.867 27.946 142.711 28.354C142.567 28.762 142.369 29.152 142.117 29.524C141.865 29.836 141.559 30.112 141.199 30.352C140.839 30.58 140.443 30.754 140.011 30.874C139.579 30.994 139.135 31.054 138.679 31.054C138.223 31.054 137.773 30.976 137.329 30.82Z" fill="#433DC3"/>
<rect y="64.5728" width="287" height="88.4272" rx="8" fill="#FFE266"/>
<rect x="5" y="61.7864" width="286" height="84.8544" rx="8" fill="#FFFCF2"/>
<rect x="6" y="61" width="286" height="84.6408" rx="7" stroke="#433DC3" stroke-width="2"/>
<path d="M34.84 89.904C34.616 89.904 34.4347 89.856 34.296 89.76C34.1573 89.664 34.0507 89.5573 33.976 89.44C33.912 89.3227 33.864 89.2213 33.832 89.136C33.8107 89.04 33.8 88.992 33.8 88.992C33.768 88.2133 33.736 87.4773 33.704 86.784C33.6827 86.08 33.6667 85.392 33.656 84.72C33.656 84.0373 33.6667 83.3333 33.688 82.608C33.72 81.872 33.7733 81.072 33.848 80.208C33.8693 80.08 33.9173 79.9627 33.992 79.856C34.0773 79.7387 34.1787 79.648 34.296 79.584C34.424 79.5093 34.568 79.4773 34.728 79.488L40.072 79.536C40.072 79.536 40.104 79.5413 40.168 79.552C40.2427 79.5627 40.3333 79.584 40.44 79.616C40.5467 79.648 40.6533 79.7013 40.76 79.776C40.8667 79.84 40.952 79.9253 41.016 80.032C41.0907 80.1387 41.128 80.2773 41.128 80.448C41.128 80.6293 41.0853 80.7733 41 80.88C40.9253 80.976 40.8347 81.0453 40.728 81.088C40.632 81.1307 40.5467 81.1573 40.472 81.168C40.3973 81.1787 40.36 81.184 40.36 81.184L35.656 81.008C35.624 81.6907 35.5973 82.3413 35.576 82.96C35.5547 83.5787 35.544 84.2027 35.544 84.832C35.544 85.4613 35.5547 86.1173 35.576 86.8C35.5973 87.4827 35.624 88.2293 35.656 89.04C35.656 89.04 35.6507 89.0827 35.64 89.168C35.64 89.2533 35.6187 89.3547 35.576 89.472C35.5333 89.5893 35.4533 89.6907 35.336 89.776C35.2293 89.8613 35.064 89.904 34.84 89.904ZM34.248 85.456L34.168 83.808L38.632 83.632C38.632 83.632 38.664 83.6373 38.728 83.648C38.8027 83.6587 38.8933 83.6853 39 83.728C39.1067 83.76 39.2133 83.808 39.32 83.872C39.4267 83.936 39.512 84.0213 39.576 84.128C39.6507 84.2347 39.688 84.3627 39.688 84.512C39.688 84.704 39.6453 84.8533 39.56 84.96C39.4747 85.0667 39.3733 85.1467 39.256 85.2C39.1387 85.2427 39.0373 85.2693 38.952 85.28C38.8667 85.28 38.824 85.28 38.824 85.28L34.248 85.456ZM42.6525 88.4C42.4925 88.4213 42.3645 88.384 42.2685 88.288C42.1725 88.192 42.1032 88.08 42.0605 87.952C42.0178 87.824 41.9912 87.7067 41.9805 87.6C41.9698 87.4933 41.9645 87.44 41.9645 87.44C41.9112 87.2267 41.8738 87.0613 41.8525 86.944C41.8312 86.816 41.8205 86.704 41.8205 86.608C41.8312 86.512 41.8365 86.4053 41.8365 86.288C41.8472 86.16 41.8578 85.984 41.8685 85.76C41.9112 85.1307 42.0392 84.576 42.2525 84.096C42.4765 83.616 42.7805 83.216 43.1645 82.896C43.5485 82.576 43.9912 82.3413 44.4925 82.192C44.9938 82.0853 45.4472 82.0533 45.8525 82.096C46.2685 82.128 46.6365 82.2187 46.9565 82.368C47.2872 82.5067 47.5698 82.6827 47.8045 82.896C47.8045 82.896 47.8258 82.9227 47.8685 82.976C47.9218 83.0187 47.9752 83.0827 48.0285 83.168C48.0818 83.2533 48.1192 83.3493 48.1405 83.456C48.1725 83.552 48.1725 83.6587 48.1405 83.776C48.1192 83.8827 48.0392 83.9947 47.9005 84.112C47.7832 84.2187 47.6445 84.272 47.4845 84.272C47.3245 84.2613 47.1698 84.2293 47.0205 84.176C46.8818 84.1227 46.7645 84.0693 46.6685 84.016C46.5725 83.9627 46.5245 83.936 46.5245 83.936C46.3005 83.7867 46.0392 83.7173 45.7405 83.728C45.4525 83.728 45.1538 83.8027 44.8445 83.952C44.4712 84.1333 44.1725 84.384 43.9485 84.704C43.7245 85.0133 43.5805 85.3867 43.5165 85.824C43.4952 86.08 43.4738 86.2933 43.4525 86.464C43.4418 86.6347 43.4312 86.784 43.4205 86.912C43.4098 87.04 43.4045 87.1733 43.4045 87.312C43.4152 87.4507 43.4258 87.6267 43.4365 87.84C43.4365 87.84 43.4152 87.8827 43.3725 87.968C43.3405 88.0533 43.2658 88.1387 43.1485 88.224C43.0418 88.3093 42.8765 88.368 42.6525 88.4ZM42.7485 89.984C42.5672 89.9733 42.4125 89.936 42.2845 89.872C42.1672 89.7973 42.0712 89.712 41.9965 89.616C41.9218 89.52 41.8685 89.44 41.8365 89.376C41.8152 89.312 41.8045 89.28 41.8045 89.28C41.7405 88.704 41.6925 88.1547 41.6605 87.632C41.6392 87.1093 41.6285 86.592 41.6285 86.08C41.6285 85.5573 41.6392 85.0187 41.6605 84.464C41.6925 83.9093 41.7352 83.312 41.7885 82.672C41.7885 82.672 41.7938 82.64 41.8045 82.576C41.8258 82.5013 41.8632 82.4213 41.9165 82.336C41.9698 82.2507 42.0552 82.176 42.1725 82.112C42.3005 82.048 42.4658 82.016 42.6685 82.016C42.8925 82.0267 43.0632 82.0747 43.1805 82.16C43.3085 82.2453 43.4045 82.3467 43.4685 82.464C43.5325 82.5813 43.5698 82.6827 43.5805 82.768C43.6018 82.8533 43.6125 82.896 43.6125 82.896C43.5805 83.4187 43.5538 83.9307 43.5325 84.432C43.5112 84.9227 43.5005 85.424 43.5005 85.936C43.5005 86.4373 43.5058 86.9653 43.5165 87.52C43.5378 88.064 43.5698 88.6507 43.6125 89.28C43.6125 89.28 43.6018 89.3173 43.5805 89.392C43.5698 89.4667 43.5378 89.552 43.4845 89.648C43.4312 89.744 43.3458 89.8293 43.2285 89.904C43.1112 89.968 42.9512 89.9947 42.7485 89.984ZM51.7272 89.84C51.4712 89.744 51.2099 89.6107 50.9432 89.44C50.6872 89.2587 50.4419 89.04 50.2072 88.784C49.9726 88.5173 49.7646 88.208 49.5832 87.856C49.4019 87.4933 49.2579 87.0667 49.1512 86.576C49.0446 86.0213 48.9912 85.456 48.9912 84.88C49.0019 84.304 49.0606 83.6747 49.1672 82.992C49.1672 82.992 49.1779 82.9493 49.1992 82.864C49.2206 82.768 49.2686 82.6667 49.3432 82.56C49.4179 82.4533 49.5299 82.3733 49.6792 82.32C49.8286 82.256 50.0312 82.256 50.2872 82.32C50.5006 82.3733 50.6606 82.464 50.7672 82.592C50.8846 82.7093 50.9592 82.832 50.9912 82.96C51.0339 83.0773 51.0552 83.184 51.0552 83.28C51.0552 83.376 51.0552 83.424 51.0552 83.424C50.9486 84.2453 50.9059 85.008 50.9272 85.712C50.9592 86.416 51.0872 86.976 51.3112 87.392C51.4606 87.6587 51.6312 87.8667 51.8232 88.016C52.0152 88.1653 52.2179 88.2667 52.4313 88.32C52.6553 88.3627 52.8686 88.368 53.0712 88.336C53.2846 88.2933 53.4766 88.2133 53.6473 88.096C53.9139 87.9253 54.1166 87.68 54.2552 87.36C54.4046 87.0293 54.5006 86.6773 54.5433 86.304C54.5966 85.92 54.6019 85.5573 54.5592 85.216C54.5166 84.896 54.4632 84.576 54.3993 84.256C54.3352 83.936 54.2766 83.648 54.2232 83.392C54.1699 83.136 54.1326 82.9333 54.1112 82.784C54.1112 82.784 54.1112 82.752 54.1112 82.688C54.1219 82.624 54.1433 82.5493 54.1753 82.464C54.2179 82.3787 54.2873 82.304 54.3832 82.24C54.4899 82.1653 54.6393 82.1173 54.8313 82.096C55.0339 82.0747 55.2099 82.1067 55.3593 82.192C55.5086 82.2667 55.6259 82.3467 55.7112 82.432C55.7966 82.5173 55.8393 82.56 55.8393 82.56C56.0099 82.8373 56.1753 83.1787 56.3352 83.584C56.4952 83.9893 56.6179 84.432 56.7032 84.912C56.7886 85.488 56.8099 86 56.7673 86.448C56.7352 86.8853 56.6499 87.2853 56.5113 87.648C56.3833 88.0107 56.2073 88.3573 55.9833 88.688C55.7593 88.9653 55.4873 89.2107 55.1673 89.424C54.8473 89.6267 54.4953 89.7813 54.1112 89.888C53.7272 89.9947 53.3326 90.048 52.9272 90.048C52.5219 90.048 52.1219 89.9787 51.7272 89.84ZM59.0685 89.984C58.8872 89.9733 58.7325 89.936 58.6045 89.872C58.4872 89.7973 58.3912 89.712 58.3165 89.616C58.2418 89.52 58.1885 89.44 58.1565 89.376C58.1352 89.312 58.1245 89.28 58.1245 89.28C58.0605 88.704 58.0125 88.1547 57.9805 87.632C57.9592 87.1093 57.9485 86.592 57.9485 86.08C57.9485 85.5573 57.9592 85.0187 57.9805 84.464C58.0125 83.9093 58.0552 83.312 58.1085 82.672C58.1085 82.672 58.1138 82.64 58.1245 82.576C58.1458 82.5013 58.1832 82.4213 58.2365 82.336C58.2898 82.2507 58.3752 82.176 58.4925 82.112C58.6205 82.048 58.7858 82.016 58.9885 82.016C59.2125 82.0267 59.3832 82.0747 59.5005 82.16C59.6285 82.2453 59.7245 82.3467 59.7885 82.464C59.8525 82.5813 59.8898 82.6827 59.9005 82.768C59.9218 82.8533 59.9325 82.896 59.9325 82.896C59.9005 83.4187 59.8738 83.9307 59.8525 84.432C59.8312 84.9227 59.8205 85.424 59.8205 85.936C59.8205 86.4373 59.8258 86.9653 59.8365 87.52C59.8578 88.064 59.8898 88.6507 59.9325 89.28C59.9325 89.28 59.9218 89.3173 59.9005 89.392C59.8898 89.4667 59.8578 89.552 59.8045 89.648C59.7512 89.744 59.6658 89.8293 59.5485 89.904C59.4312 89.968 59.2712 89.9947 59.0685 89.984ZM59.0685 81.376C58.7485 81.3867 58.4978 81.296 58.3165 81.104C58.1352 80.9013 58.0445 80.6667 58.0445 80.4C58.0445 80.0373 58.1298 79.776 58.3005 79.616C58.4818 79.456 58.7378 79.376 59.0685 79.376C59.3885 79.376 59.6392 79.4773 59.8205 79.68C60.0018 79.8827 60.0925 80.1227 60.0925 80.4C60.0925 80.5707 60.0605 80.7307 59.9965 80.88C59.9432 81.0293 59.8418 81.152 59.6925 81.248C59.5432 81.3333 59.3352 81.376 59.0685 81.376ZM64.4015 90C64.1988 90 64.0282 89.9627 63.8895 89.888C63.7615 89.8027 63.6602 89.7067 63.5855 89.6C63.5108 89.4933 63.4575 89.3973 63.4255 89.312C63.3935 89.2267 63.3775 89.184 63.3775 89.184C63.3348 88.7253 63.2975 88.208 63.2655 87.632C63.2442 87.0453 63.2282 86.432 63.2175 85.792C63.2068 85.1413 63.2068 84.4907 63.2175 83.84C63.2388 83.1787 63.2655 82.544 63.2975 81.936C63.3295 81.3173 63.3668 80.7467 63.4095 80.224C63.4095 80.224 63.4148 80.192 63.4255 80.128C63.4468 80.0533 63.4895 79.9733 63.5535 79.888C63.6175 79.8027 63.7082 79.7333 63.8255 79.68C63.9428 79.616 64.1028 79.5893 64.3055 79.6C64.5188 79.6213 64.6842 79.68 64.8015 79.776C64.9295 79.8613 65.0202 79.9627 65.0735 80.08C65.1375 80.1867 65.1802 80.2827 65.2015 80.368C65.2228 80.4427 65.2335 80.48 65.2335 80.48C65.2015 80.896 65.1748 81.3867 65.1535 81.952C65.1428 82.5067 65.1322 83.104 65.1215 83.744C65.1108 84.3733 65.1055 85.0133 65.1055 85.664C65.1055 86.3147 65.1108 86.9493 65.1215 87.568C65.1428 88.1867 65.1695 88.7573 65.2015 89.28C65.2015 89.28 65.1908 89.3173 65.1695 89.392C65.1588 89.4667 65.1268 89.552 65.0735 89.648C65.0308 89.744 64.9562 89.8293 64.8495 89.904C64.7428 89.968 64.5935 90 64.4015 90ZM66.6095 83.824C65.7668 83.8133 64.9668 83.8027 64.2095 83.792C63.4628 83.7707 62.7962 83.7547 62.2095 83.744C62.2095 83.744 62.1615 83.7387 62.0655 83.728C61.9695 83.7067 61.8575 83.6747 61.7295 83.632C61.6122 83.5787 61.5002 83.504 61.3935 83.408C61.2975 83.312 61.2442 83.1787 61.2335 83.008C61.2122 82.8587 61.2282 82.7413 61.2815 82.656C61.3455 82.56 61.4202 82.4907 61.5055 82.448C61.5908 82.3947 61.6655 82.3627 61.7295 82.352C61.7935 82.3307 61.8255 82.32 61.8255 82.32C61.9108 82.2987 62.0655 82.288 62.2895 82.288C62.5242 82.2773 62.8068 82.2667 63.1375 82.256C63.4682 82.2453 63.8255 82.24 64.2095 82.24C64.5935 82.2293 64.9775 82.224 65.3615 82.224C65.7455 82.224 66.1082 82.224 66.4495 82.224C66.4495 82.224 66.4815 82.2293 66.5455 82.24C66.6202 82.2507 66.7055 82.272 66.8015 82.304C66.9082 82.3253 67.0095 82.368 67.1055 82.432C67.2122 82.496 67.2975 82.5813 67.3615 82.688C67.4255 82.7947 67.4575 82.928 67.4575 83.088C67.4468 83.28 67.3988 83.4293 67.3135 83.536C67.2282 83.6427 67.1322 83.7173 67.0255 83.76C66.9188 83.792 66.8228 83.8133 66.7375 83.824C66.6522 83.824 66.6095 83.824 66.6095 83.824ZM70.778 88.64C71.386 88.64 71.7487 88.56 71.866 88.4C71.994 88.2293 71.9087 87.984 71.61 87.664C71.482 87.5253 71.306 87.376 71.082 87.216C70.858 87.056 70.6127 86.8853 70.346 86.704C70.09 86.512 69.8393 86.304 69.594 86.08C69.3593 85.856 69.1513 85.6107 68.97 85.344C68.7993 85.0773 68.6873 84.7787 68.634 84.448C68.5593 83.9893 68.6287 83.5787 68.842 83.216C69.0553 82.8533 69.3967 82.5653 69.866 82.352C70.346 82.1387 70.938 82.0373 71.642 82.048C72.3567 82.0587 73.1727 82.2187 74.09 82.528C74.09 82.528 74.1113 82.544 74.154 82.576C74.2073 82.5973 74.2553 82.64 74.298 82.704C74.3513 82.768 74.394 82.848 74.426 82.944C74.4687 83.0293 74.4793 83.1307 74.458 83.248C74.4367 83.344 74.394 83.4187 74.33 83.472C74.2767 83.5253 74.2127 83.568 74.138 83.6C74.074 83.6213 74.0153 83.6373 73.962 83.648C73.9193 83.648 73.898 83.648 73.898 83.648C73.898 83.648 73.8447 83.6427 73.738 83.632C73.642 83.6213 73.5087 83.616 73.338 83.616C73.1673 83.6053 72.9753 83.6 72.762 83.6C72.5487 83.5893 72.33 83.5947 72.106 83.616C71.8927 83.6267 71.6847 83.648 71.482 83.68C71.29 83.712 71.1193 83.7653 70.97 83.84C70.778 83.9467 70.6393 84.064 70.554 84.192C70.4793 84.3093 70.4633 84.448 70.506 84.608C70.5593 84.7573 70.682 84.928 70.874 85.12C71.0767 85.3013 71.3647 85.504 71.738 85.728C72.2713 86.048 72.714 86.3947 73.066 86.768C73.418 87.1413 73.6527 87.52 73.77 87.904C73.898 88.2773 73.882 88.6507 73.722 89.024C73.6047 89.2907 73.386 89.504 73.066 89.664C72.746 89.824 72.362 89.9307 71.914 89.984C71.4767 90.0373 71.0127 90.032 70.522 89.968C70.0313 89.8933 69.5513 89.7547 69.082 89.552C68.6233 89.3493 68.2233 89.072 67.882 88.72C67.882 88.72 67.866 88.6987 67.834 88.656C67.802 88.6133 67.77 88.56 67.738 88.496C67.706 88.4213 67.69 88.3413 67.69 88.256C67.7007 88.1707 67.7433 88.0853 67.818 88C67.8927 87.9253 67.978 87.8773 68.074 87.856C68.17 87.8347 68.2607 87.8347 68.346 87.856C68.4313 87.8667 68.5007 87.8827 68.554 87.904C68.618 87.9253 68.65 87.936 68.65 87.936C68.65 87.936 68.7087 87.9733 68.826 88.048C68.9433 88.112 69.098 88.1973 69.29 88.304C69.4927 88.4 69.722 88.4853 69.978 88.56C70.234 88.624 70.5007 88.6507 70.778 88.64Z" fill="#494949"/>
<path d="M37.624 126.952C37.176 126.92 36.776 126.749 36.424 126.44C36.0827 126.12 35.7787 125.683 35.512 125.128C35.2453 124.563 35.0053 123.891 34.792 123.112C34.5787 122.333 34.3813 121.464 34.2 120.504C34.0187 119.533 33.8373 118.483 33.656 117.352C33.656 117.352 33.6613 117.32 33.672 117.256C33.6827 117.181 33.7093 117.101 33.752 117.016C33.8053 116.92 33.8853 116.835 33.992 116.76C34.1093 116.685 34.2747 116.648 34.488 116.648C34.6907 116.637 34.856 116.669 34.984 116.744C35.1227 116.819 35.2293 116.909 35.304 117.016C35.3893 117.123 35.4427 117.213 35.464 117.288C35.496 117.363 35.512 117.4 35.512 117.4C35.6507 118.157 35.7893 118.872 35.928 119.544C36.0773 120.216 36.2213 120.84 36.36 121.416C36.5093 121.981 36.6533 122.493 36.792 122.952C36.9413 123.4 37.08 123.779 37.208 124.088C37.3467 124.397 37.4693 124.627 37.576 124.776C37.7147 124.68 37.8693 124.472 38.04 124.152C38.2107 123.832 38.3867 123.421 38.568 122.92C38.7493 122.419 38.92 121.864 39.08 121.256C39.24 120.637 39.3787 119.997 39.496 119.336C39.624 118.675 39.7147 118.019 39.768 117.368C39.768 117.368 39.7787 117.331 39.8 117.256C39.8213 117.181 39.864 117.101 39.928 117.016C39.992 116.931 40.088 116.861 40.216 116.808C40.344 116.744 40.52 116.728 40.744 116.76C41 116.803 41.192 116.877 41.32 116.984C41.4587 117.08 41.5547 117.187 41.608 117.304C41.6613 117.411 41.688 117.507 41.688 117.592C41.6987 117.677 41.704 117.72 41.704 117.72C41.5973 118.787 41.4427 119.789 41.24 120.728C41.0373 121.667 40.7973 122.525 40.52 123.304C40.2533 124.072 39.96 124.733 39.64 125.288C39.32 125.843 38.9893 126.264 38.648 126.552C38.3067 126.84 37.9653 126.973 37.624 126.952ZM45.6905 127.16C44.9865 127.032 44.4158 126.829 43.9785 126.552C43.5518 126.275 43.2212 125.944 42.9865 125.56C42.7518 125.176 42.5918 124.771 42.5065 124.344C42.4318 123.907 42.3892 123.475 42.3785 123.048C42.3785 122.547 42.4692 122.051 42.6505 121.56C42.8425 121.069 43.1198 120.627 43.4825 120.232C43.8452 119.837 44.2772 119.528 44.7785 119.304C45.2905 119.08 45.8558 118.989 46.4745 119.032C47.1038 119.075 47.6158 119.197 48.0105 119.4C48.4158 119.592 48.7305 119.837 48.9545 120.136C49.1785 120.424 49.3332 120.733 49.4185 121.064C49.5145 121.384 49.5678 121.688 49.5785 121.976C49.5785 122.499 49.4398 122.947 49.1625 123.32C48.8852 123.693 48.4478 123.949 47.8505 124.088C47.6798 124.131 47.4718 124.157 47.2265 124.168C46.9812 124.179 46.7145 124.184 46.4265 124.184C46.1492 124.184 45.8718 124.179 45.5945 124.168C45.3278 124.157 45.0825 124.147 44.8585 124.136C44.6452 124.125 44.4692 124.115 44.3305 124.104C44.1918 124.093 44.1225 124.088 44.1225 124.088C44.1545 124.344 44.2398 124.595 44.3785 124.84C44.5278 125.085 44.7412 125.293 45.0185 125.464C45.3065 125.624 45.6638 125.715 46.0905 125.736C46.4958 125.747 46.8585 125.741 47.1785 125.72C47.5092 125.688 47.7918 125.656 48.0265 125.624C48.2612 125.592 48.4372 125.56 48.5545 125.528C48.6825 125.496 48.7465 125.48 48.7465 125.48C48.7465 125.48 48.7732 125.48 48.8265 125.48C48.8905 125.48 48.9705 125.485 49.0665 125.496C49.1625 125.507 49.2585 125.539 49.3545 125.592C49.4505 125.645 49.5305 125.736 49.5945 125.864C49.6692 125.981 49.7012 126.088 49.6905 126.184C49.6798 126.28 49.6478 126.36 49.5945 126.424C49.5518 126.488 49.5092 126.536 49.4665 126.568C49.4238 126.6 49.4025 126.616 49.4025 126.616C49.4025 126.616 49.2905 126.659 49.0665 126.744C48.8425 126.829 48.5438 126.915 48.1705 127C47.8078 127.096 47.4078 127.165 46.9705 127.208C46.5438 127.251 46.1172 127.235 45.6905 127.16ZM44.1385 122.936L46.9705 122.904C46.9705 122.904 47.0025 122.899 47.0665 122.888C47.1412 122.877 47.2318 122.856 47.3385 122.824C47.4452 122.792 47.5465 122.739 47.6425 122.664C47.7492 122.589 47.8345 122.488 47.8985 122.36C47.9625 122.232 47.9945 122.067 47.9945 121.864C47.9945 121.533 47.9358 121.256 47.8185 121.032C47.7012 120.808 47.5092 120.648 47.2425 120.552C46.9758 120.445 46.6025 120.408 46.1225 120.44C45.7918 120.461 45.4985 120.568 45.2425 120.76C44.9865 120.941 44.7678 121.165 44.5865 121.432C44.4158 121.699 44.2932 121.971 44.2185 122.248C44.1438 122.515 44.1172 122.744 44.1385 122.936ZM56.6003 130.376C55.8536 130.419 55.1496 130.371 54.4882 130.232C53.8269 130.104 53.2029 129.901 52.6162 129.624C52.6162 129.624 52.5789 129.603 52.5042 129.56C52.4402 129.528 52.3656 129.469 52.2802 129.384C52.1949 129.299 52.1309 129.197 52.0882 129.08C52.0456 128.963 52.0509 128.824 52.1042 128.664C52.1576 128.504 52.2322 128.387 52.3282 128.312C52.4349 128.248 52.5416 128.211 52.6482 128.2C52.7656 128.2 52.8616 128.205 52.9362 128.216C53.0109 128.227 53.0482 128.232 53.0482 128.232C53.4216 128.36 53.7682 128.461 54.0882 128.536C54.4082 128.621 54.7282 128.68 55.0482 128.712C55.3682 128.744 55.6989 128.76 56.0402 128.76C56.5416 128.739 56.9469 128.648 57.2562 128.488C57.5656 128.328 57.7949 128.093 57.9443 127.784C58.1042 127.485 58.1949 127.107 58.2163 126.648C58.2589 125.923 58.2803 125.256 58.2803 124.648C58.2803 124.029 58.2643 123.448 58.2323 122.904C58.2002 122.36 58.1522 121.821 58.0883 121.288C58.0349 120.755 57.9656 120.211 57.8802 119.656C57.8802 119.656 57.8962 119.613 57.9282 119.528C57.9602 119.443 58.0296 119.357 58.1363 119.272C58.2536 119.187 58.4296 119.144 58.6643 119.144C58.8989 119.133 59.0909 119.176 59.2403 119.272C59.3896 119.368 59.5016 119.469 59.5763 119.576C59.6509 119.672 59.6883 119.72 59.6883 119.72C59.8802 120.509 60.0136 121.309 60.0883 122.12C60.1736 122.92 60.2163 123.747 60.2163 124.6C60.2163 125.453 60.1896 126.355 60.1363 127.304C60.0189 128.285 59.6669 129.027 59.0802 129.528C58.5043 130.04 57.6776 130.323 56.6003 130.376ZM54.7122 126.968C54.1149 126.979 53.5656 126.888 53.0642 126.696C52.5736 126.493 52.1416 126.216 51.7682 125.864C51.4056 125.501 51.1229 125.085 50.9202 124.616C50.7282 124.147 50.6322 123.645 50.6322 123.112C50.6322 122.536 50.7442 121.997 50.9682 121.496C51.1922 120.995 51.4962 120.563 51.8802 120.2C52.2749 119.827 52.7282 119.539 53.2402 119.336C53.7629 119.123 54.3229 119.011 54.9202 119C55.7842 119 56.5203 119.144 57.1283 119.432C57.7469 119.709 58.2216 120.147 58.5522 120.744C58.8829 121.331 59.0483 122.083 59.0483 123C59.0483 123.533 58.9469 124.04 58.7443 124.52C58.5523 124.989 58.2696 125.405 57.8963 125.768C57.5336 126.131 57.0803 126.419 56.5363 126.632C56.0029 126.845 55.3949 126.957 54.7122 126.968ZM54.7923 125.288C55.1229 125.288 55.4376 125.224 55.7362 125.096C56.0456 124.957 56.3176 124.776 56.5522 124.552C56.7869 124.328 56.9736 124.072 57.1122 123.784C57.2509 123.485 57.3203 123.171 57.3203 122.84C57.3203 122.296 57.2189 121.848 57.0163 121.496C56.8243 121.144 56.5576 120.883 56.2162 120.712C55.8749 120.541 55.4856 120.456 55.0482 120.456C54.7176 120.456 54.4029 120.531 54.1042 120.68C53.8162 120.829 53.5602 121.032 53.3362 121.288C53.1229 121.544 52.9522 121.827 52.8242 122.136C52.7069 122.445 52.6482 122.765 52.6482 123.096C52.6482 123.512 52.7336 123.891 52.9042 124.232C53.0749 124.563 53.3202 124.824 53.6402 125.016C53.9709 125.197 54.3549 125.288 54.7923 125.288ZM64.4949 127.16C63.7909 127.032 63.2202 126.829 62.7829 126.552C62.3562 126.275 62.0255 125.944 61.7909 125.56C61.5562 125.176 61.3962 124.771 61.3109 124.344C61.2362 123.907 61.1935 123.475 61.1829 123.048C61.1829 122.547 61.2735 122.051 61.4549 121.56C61.6469 121.069 61.9242 120.627 62.2869 120.232C62.6495 119.837 63.0815 119.528 63.5829 119.304C64.0949 119.08 64.6602 118.989 65.2789 119.032C65.9082 119.075 66.4202 119.197 66.8149 119.4C67.2202 119.592 67.5349 119.837 67.7589 120.136C67.9829 120.424 68.1375 120.733 68.2229 121.064C68.3189 121.384 68.3722 121.688 68.3829 121.976C68.3829 122.499 68.2442 122.947 67.9669 123.32C67.6895 123.693 67.2522 123.949 66.6549 124.088C66.4842 124.131 66.2762 124.157 66.0309 124.168C65.7855 124.179 65.5189 124.184 65.2309 124.184C64.9535 124.184 64.6762 124.179 64.3989 124.168C64.1322 124.157 63.8869 124.147 63.6629 124.136C63.4495 124.125 63.2735 124.115 63.1349 124.104C62.9962 124.093 62.9269 124.088 62.9269 124.088C62.9589 124.344 63.0442 124.595 63.1829 124.84C63.3322 125.085 63.5455 125.293 63.8229 125.464C64.1109 125.624 64.4682 125.715 64.8949 125.736C65.3002 125.747 65.6629 125.741 65.9829 125.72C66.3135 125.688 66.5962 125.656 66.8309 125.624C67.0655 125.592 67.2415 125.56 67.3589 125.528C67.4869 125.496 67.5509 125.48 67.5509 125.48C67.5509 125.48 67.5775 125.48 67.6309 125.48C67.6949 125.48 67.7749 125.485 67.8709 125.496C67.9669 125.507 68.0629 125.539 68.1589 125.592C68.2549 125.645 68.3349 125.736 68.3989 125.864C68.4735 125.981 68.5055 126.088 68.4949 126.184C68.4842 126.28 68.4522 126.36 68.3989 126.424C68.3562 126.488 68.3135 126.536 68.2709 126.568C68.2282 126.6 68.2069 126.616 68.2069 126.616C68.2069 126.616 68.0949 126.659 67.8709 126.744C67.6469 126.829 67.3482 126.915 66.9749 127C66.6122 127.096 66.2122 127.165 65.7749 127.208C65.3482 127.251 64.9215 127.235 64.4949 127.16ZM62.9429 122.936L65.7749 122.904C65.7749 122.904 65.8069 122.899 65.8709 122.888C65.9455 122.877 66.0362 122.856 66.1429 122.824C66.2495 122.792 66.3509 122.739 66.4469 122.664C66.5535 122.589 66.6389 122.488 66.7029 122.36C66.7669 122.232 66.7989 122.067 66.7989 121.864C66.7989 121.533 66.7402 121.256 66.6229 121.032C66.5055 120.808 66.3135 120.648 66.0469 120.552C65.7802 120.445 65.4069 120.408 64.9269 120.44C64.5962 120.461 64.3029 120.568 64.0469 120.76C63.7909 120.941 63.5722 121.165 63.3909 121.432C63.2202 121.699 63.0975 121.971 63.0229 122.248C62.9482 122.515 62.9215 122.744 62.9429 122.936ZM72.5109 127C72.3082 127 72.1375 126.963 71.9989 126.888C71.8709 126.803 71.7695 126.707 71.6949 126.6C71.6202 126.493 71.5669 126.397 71.5349 126.312C71.5029 126.227 71.4869 126.184 71.4869 126.184C71.4442 125.725 71.4069 125.208 71.3749 124.632C71.3535 124.045 71.3375 123.432 71.3269 122.792C71.3162 122.141 71.3162 121.491 71.3269 120.84C71.3482 120.179 71.3749 119.544 71.4069 118.936C71.4389 118.317 71.4762 117.747 71.5189 117.224C71.5189 117.224 71.5242 117.192 71.5349 117.128C71.5562 117.053 71.5989 116.973 71.6629 116.888C71.7269 116.803 71.8175 116.733 71.9349 116.68C72.0522 116.616 72.2122 116.589 72.4149 116.6C72.6282 116.621 72.7935 116.68 72.9109 116.776C73.0389 116.861 73.1295 116.963 73.1829 117.08C73.2469 117.187 73.2895 117.283 73.3109 117.368C73.3322 117.443 73.3429 117.48 73.3429 117.48C73.3109 117.896 73.2842 118.387 73.2629 118.952C73.2522 119.507 73.2415 120.104 73.2309 120.744C73.2202 121.373 73.2149 122.013 73.2149 122.664C73.2149 123.315 73.2202 123.949 73.2309 124.568C73.2522 125.187 73.2789 125.757 73.3109 126.28C73.3109 126.28 73.3002 126.317 73.2789 126.392C73.2682 126.467 73.2362 126.552 73.1829 126.648C73.1402 126.744 73.0655 126.829 72.9589 126.904C72.8522 126.968 72.7029 127 72.5109 127ZM74.7189 120.824C73.8762 120.813 73.0762 120.803 72.3189 120.792C71.5722 120.771 70.9055 120.755 70.3189 120.744C70.3189 120.744 70.2709 120.739 70.1749 120.728C70.0789 120.707 69.9669 120.675 69.8389 120.632C69.7215 120.579 69.6095 120.504 69.5029 120.408C69.4069 120.312 69.3535 120.179 69.3429 120.008C69.3215 119.859 69.3375 119.741 69.3909 119.656C69.4549 119.56 69.5295 119.491 69.6149 119.448C69.7002 119.395 69.7749 119.363 69.8389 119.352C69.9029 119.331 69.9349 119.32 69.9349 119.32C70.0202 119.299 70.1749 119.288 70.3989 119.288C70.6335 119.277 70.9162 119.267 71.2469 119.256C71.5775 119.245 71.9349 119.24 72.3189 119.24C72.7029 119.229 73.0869 119.224 73.4709 119.224C73.8549 119.224 74.2175 119.224 74.5589 119.224C74.5589 119.224 74.5909 119.229 74.6549 119.24C74.7295 119.251 74.8149 119.272 74.9109 119.304C75.0175 119.325 75.1189 119.368 75.2149 119.432C75.3215 119.496 75.4069 119.581 75.4709 119.688C75.5349 119.795 75.5669 119.928 75.5669 120.088C75.5562 120.28 75.5082 120.429 75.4229 120.536C75.3375 120.643 75.2415 120.717 75.1349 120.76C75.0282 120.792 74.9322 120.813 74.8469 120.824C74.7615 120.824 74.7189 120.824 74.7189 120.824ZM79.7484 126.968C79.1937 126.979 78.6817 126.888 78.2124 126.696C77.7537 126.493 77.3537 126.216 77.0124 125.864C76.671 125.501 76.4044 125.085 76.2124 124.616C76.031 124.147 75.9404 123.645 75.9404 123.112C75.9404 122.536 76.0417 121.997 76.2444 121.496C76.4577 120.995 76.7457 120.563 77.1084 120.2C77.471 119.827 77.8924 119.539 78.3724 119.336C78.863 119.123 79.3857 119.011 79.9404 119C80.7404 119 81.4284 119.144 82.0044 119.432C82.5804 119.709 83.0177 120.147 83.3164 120.744C83.6257 121.331 83.7804 122.083 83.7804 123C83.7804 123.533 83.6897 124.04 83.5084 124.52C83.327 124.989 83.0657 125.405 82.7244 125.768C82.383 126.131 81.9617 126.419 81.4604 126.632C80.959 126.845 80.3884 126.957 79.7484 126.968ZM79.8284 125.288C80.127 125.288 80.4097 125.224 80.6764 125.096C80.9537 124.957 81.199 124.776 81.4124 124.552C81.6257 124.328 81.791 124.072 81.9084 123.784C82.0364 123.485 82.1004 123.171 82.1004 122.84C82.1004 122.296 82.0097 121.848 81.8284 121.496C81.6577 121.144 81.4177 120.883 81.1084 120.712C80.8097 120.541 80.4577 120.456 80.0524 120.456C79.7644 120.456 79.487 120.531 79.2204 120.68C78.9537 120.829 78.719 121.032 78.5164 121.288C78.3244 121.544 78.1697 121.827 78.0524 122.136C77.9457 122.445 77.8924 122.765 77.8924 123.096C77.8924 123.512 77.9724 123.891 78.1324 124.232C78.2924 124.563 78.5164 124.824 78.8044 125.016C79.0924 125.197 79.4337 125.288 79.8284 125.288ZM83.7484 126.984C83.5457 126.984 83.3804 126.952 83.2524 126.888C83.1244 126.813 83.0284 126.744 82.9644 126.68C82.9004 126.605 82.8684 126.568 82.8684 126.568C82.7937 125.789 82.735 125.016 82.6924 124.248C82.6497 123.48 82.6337 122.696 82.6444 121.896C82.6657 121.096 82.7137 120.264 82.7884 119.4C82.7884 119.4 82.815 119.368 82.8684 119.304C82.9217 119.229 83.0124 119.16 83.1404 119.096C83.2684 119.032 83.4444 119.005 83.6684 119.016C83.8924 119.037 84.063 119.101 84.1804 119.208C84.3084 119.304 84.3937 119.421 84.4364 119.56C84.479 119.688 84.5057 119.8 84.5164 119.896C84.527 119.992 84.5324 120.04 84.5324 120.04C84.4897 120.584 84.4524 121.091 84.4204 121.56C84.399 122.029 84.3884 122.504 84.3884 122.984C84.399 123.453 84.415 123.955 84.4364 124.488C84.4577 125.021 84.4844 125.613 84.5164 126.264C84.5164 126.264 84.511 126.301 84.5004 126.376C84.4897 126.451 84.4577 126.536 84.4044 126.632C84.3617 126.717 84.287 126.797 84.1804 126.872C84.0844 126.947 83.9404 126.984 83.7484 126.984ZM90.4427 126.968C89.7814 126.968 89.2107 126.867 88.7307 126.664C88.2507 126.451 87.8614 126.168 87.5627 125.816C87.2747 125.453 87.0561 125.037 86.9067 124.568C86.7681 124.088 86.6987 123.581 86.6987 123.048C86.6987 122.44 86.7894 121.885 86.9707 121.384C87.1521 120.883 87.4134 120.456 87.7547 120.104C88.0961 119.752 88.5067 119.48 88.9867 119.288C89.4774 119.096 90.0267 119 90.6347 119C91.1894 119.011 91.7014 119.107 92.1707 119.288C92.6401 119.459 93.0507 119.715 93.4027 120.056C93.7547 120.397 94.0267 120.819 94.2187 121.32C94.4214 121.821 94.5227 122.403 94.5227 123.064C94.5334 123.597 94.4267 124.099 94.2027 124.568C93.9894 125.037 93.6961 125.453 93.3227 125.816C92.9494 126.179 92.5121 126.461 92.0107 126.664C91.5201 126.867 90.9974 126.968 90.4427 126.968ZM86.9227 126.984C86.7094 126.984 86.5387 126.941 86.4107 126.856C86.2934 126.771 86.2027 126.675 86.1387 126.568C86.0747 126.461 86.0321 126.365 86.0107 126.28C85.9894 126.195 85.9787 126.152 85.9787 126.152C85.9361 125.693 85.8987 125.176 85.8667 124.6C85.8454 124.013 85.8294 123.4 85.8187 122.76C85.8187 122.12 85.8241 121.475 85.8347 120.824C85.8454 120.173 85.8667 119.544 85.8987 118.936C85.9307 118.317 85.9681 117.747 86.0107 117.224C86.0107 117.224 86.0214 117.192 86.0427 117.128C86.0641 117.053 86.1014 116.973 86.1547 116.888C86.2187 116.803 86.3094 116.733 86.4267 116.68C86.5547 116.616 86.7201 116.589 86.9227 116.6C87.1361 116.621 87.3067 116.68 87.4347 116.776C87.5627 116.861 87.6534 116.968 87.7067 117.096C87.7707 117.213 87.8134 117.315 87.8347 117.4C87.8561 117.485 87.8667 117.528 87.8667 117.528C87.8241 117.955 87.7867 118.461 87.7547 119.048C87.7334 119.624 87.7121 120.243 87.6907 120.904C87.6694 121.555 87.6534 122.216 87.6427 122.888C87.6321 123.56 87.6321 124.216 87.6427 124.856C87.6534 125.485 87.6747 126.061 87.7067 126.584C87.7067 126.584 87.6854 126.616 87.6427 126.68C87.6107 126.744 87.5361 126.813 87.4187 126.888C87.3121 126.952 87.1467 126.984 86.9227 126.984ZM90.2507 125.272C90.5707 125.272 90.8694 125.203 91.1467 125.064C91.4347 124.925 91.6854 124.733 91.8987 124.488C92.1121 124.243 92.2827 123.971 92.4107 123.672C92.5387 123.363 92.6027 123.043 92.6027 122.712C92.6027 122.179 92.5067 121.747 92.3147 121.416C92.1227 121.085 91.8721 120.845 91.5627 120.696C91.2641 120.536 90.9441 120.456 90.6027 120.456C90.3041 120.456 90.0214 120.531 89.7547 120.68C89.4881 120.829 89.2481 121.032 89.0347 121.288C88.8214 121.544 88.6507 121.832 88.5227 122.152C88.4054 122.461 88.3467 122.781 88.3467 123.112C88.3467 123.517 88.4214 123.885 88.5707 124.216C88.7307 124.547 88.9547 124.808 89.2427 125C89.5307 125.181 89.8667 125.272 90.2507 125.272ZM97.0385 127C96.8252 127 96.6492 126.963 96.5105 126.888C96.3825 126.803 96.2812 126.707 96.2065 126.6C96.1318 126.483 96.0785 126.387 96.0465 126.312C96.0145 126.227 95.9985 126.184 95.9985 126.184C95.9558 125.725 95.9185 125.208 95.8865 124.632C95.8652 124.045 95.8492 123.432 95.8385 122.792C95.8278 122.141 95.8278 121.491 95.8385 120.84C95.8598 120.179 95.8865 119.544 95.9185 118.936C95.9505 118.317 95.9878 117.747 96.0305 117.224C96.0305 117.224 96.0358 117.192 96.0465 117.128C96.0678 117.053 96.1105 116.973 96.1745 116.888C96.2385 116.803 96.3292 116.733 96.4465 116.68C96.5638 116.616 96.7238 116.589 96.9265 116.6C97.1398 116.621 97.3052 116.68 97.4225 116.776C97.5505 116.861 97.6412 116.963 97.6945 117.08C97.7585 117.187 97.8012 117.283 97.8225 117.368C97.8438 117.443 97.8545 117.48 97.8545 117.48C97.8225 117.896 97.7958 118.387 97.7745 118.952C97.7638 119.507 97.7532 120.104 97.7425 120.744C97.7318 121.373 97.7265 122.013 97.7265 122.664C97.7372 123.315 97.7478 123.949 97.7585 124.568C97.7692 125.187 97.7905 125.757 97.8225 126.28C97.8225 126.28 97.8118 126.317 97.7905 126.392C97.7798 126.467 97.7532 126.552 97.7105 126.648C97.6678 126.744 97.5932 126.829 97.4865 126.904C97.3798 126.968 97.2305 127 97.0385 127ZM102.31 127.16C101.606 127.032 101.036 126.829 100.598 126.552C100.172 126.275 99.8412 125.944 99.6065 125.56C99.3718 125.176 99.2118 124.771 99.1265 124.344C99.0518 123.907 99.0092 123.475 98.9985 123.048C98.9985 122.547 99.0892 122.051 99.2705 121.56C99.4625 121.069 99.7398 120.627 100.102 120.232C100.465 119.837 100.897 119.528 101.398 119.304C101.91 119.08 102.476 118.989 103.094 119.032C103.724 119.075 104.236 119.197 104.63 119.4C105.036 119.592 105.35 119.837 105.574 120.136C105.798 120.424 105.953 120.733 106.038 121.064C106.134 121.384 106.188 121.688 106.198 121.976C106.198 122.499 106.06 122.947 105.782 123.32C105.505 123.693 105.068 123.949 104.47 124.088C104.3 124.131 104.092 124.157 103.846 124.168C103.601 124.179 103.334 124.184 103.046 124.184C102.769 124.184 102.492 124.179 102.214 124.168C101.948 124.157 101.702 124.147 101.478 124.136C101.265 124.125 101.089 124.115 100.95 124.104C100.812 124.093 100.742 124.088 100.742 124.088C100.774 124.344 100.86 124.595 100.998 124.84C101.148 125.085 101.361 125.293 101.638 125.464C101.926 125.624 102.284 125.715 102.71 125.736C103.116 125.747 103.478 125.741 103.798 125.72C104.129 125.688 104.412 125.656 104.646 125.624C104.881 125.592 105.057 125.56 105.174 125.528C105.302 125.496 105.366 125.48 105.366 125.48C105.366 125.48 105.393 125.48 105.446 125.48C105.51 125.48 105.59 125.485 105.686 125.496C105.782 125.507 105.878 125.539 105.974 125.592C106.07 125.645 106.15 125.736 106.214 125.864C106.289 125.981 106.321 126.088 106.31 126.184C106.3 126.28 106.268 126.36 106.214 126.424C106.172 126.488 106.129 126.536 106.086 126.568C106.044 126.6 106.022 126.616 106.022 126.616C106.022 126.616 105.91 126.659 105.686 126.744C105.462 126.829 105.164 126.915 104.79 127C104.428 127.096 104.028 127.165 103.59 127.208C103.164 127.251 102.737 127.235 102.31 127.16ZM100.758 122.936L103.59 122.904C103.59 122.904 103.622 122.899 103.686 122.888C103.761 122.877 103.852 122.856 103.958 122.824C104.065 122.792 104.166 122.739 104.262 122.664C104.369 122.589 104.454 122.488 104.518 122.36C104.582 122.232 104.614 122.067 104.614 121.864C104.614 121.533 104.556 121.256 104.438 121.032C104.321 120.808 104.129 120.648 103.862 120.552C103.596 120.445 103.222 120.408 102.742 120.44C102.412 120.461 102.118 120.568 101.862 120.76C101.606 120.941 101.388 121.165 101.206 121.432C101.036 121.699 100.913 121.971 100.838 122.248C100.764 122.515 100.737 122.744 100.758 122.936Z" fill="#494949"/>
<path d="M269.644 29.6271C268.849 30.7751 267.151 30.7751 266.356 29.6271L262.381 23.889C261.462 22.5626 262.411 20.75 264.025 20.75L271.975 20.75C273.589 20.75 274.538 22.5626 273.619 23.889L269.644 29.6271Z" fill="#433DC3"/>
<line x1="28" y1="103.5" x2="272" y2="103.5" stroke="#D1D1D1"/>
</svg>
