<svg width="289" height="112" viewBox="0 0 289 112" fill="none" xmlns="http://www.w3.org/2000/svg">
<rect y="6" width="282" height="47" rx="8" fill="#FFE266"/>
<rect x="7" width="282" height="47" rx="8" fill="#FFFCF2"/>
<rect x="6.93042" y="2" width="281.07" height="44.92" rx="7" stroke="#433DC3" stroke-width="2"/>
<path d="M27.98 30.982C27.74 30.97 27.548 30.916 27.404 30.82C27.26 30.724 27.146 30.616 27.062 30.496C26.99 30.376 26.942 30.274 26.918 30.19C26.894 30.094 26.882 30.046 26.882 30.046C26.846 29.614 26.816 29.092 26.792 28.48C26.768 27.868 26.75 27.202 26.738 26.482C26.726 25.762 26.726 25.03 26.738 24.286C26.75 23.53 26.768 22.798 26.792 22.09C26.828 21.382 26.87 20.74 26.918 20.164C26.918 20.164 26.918 20.128 26.918 20.056C26.93 19.972 26.966 19.882 27.026 19.786C27.086 19.678 27.182 19.582 27.314 19.498C27.446 19.402 27.626 19.342 27.854 19.318C29.342 19.198 30.626 19.204 31.706 19.336C32.798 19.456 33.632 19.804 34.208 20.38C34.796 20.944 35.174 21.562 35.342 22.234C35.522 22.906 35.51 23.566 35.306 24.214C35.102 24.85 34.718 25.426 34.154 25.942C33.914 26.158 33.596 26.344 33.2 26.5C32.804 26.656 32.36 26.782 31.868 26.878C31.388 26.962 30.884 27.01 30.356 27.022C29.84 27.034 29.33 27.004 28.826 26.932L28.934 30.19C28.934 30.19 28.922 30.232 28.898 30.316C28.886 30.4 28.844 30.496 28.772 30.604C28.712 30.7 28.616 30.79 28.484 30.874C28.364 30.946 28.196 30.982 27.98 30.982ZM28.826 25.132C29.63 25.192 30.308 25.192 30.86 25.132C31.424 25.06 31.88 24.934 32.228 24.754C32.576 24.574 32.828 24.346 32.984 24.07C33.14 23.782 33.23 23.464 33.254 23.116C33.254 22.624 33.146 22.222 32.93 21.91C32.726 21.586 32.432 21.346 32.048 21.19C31.664 21.034 31.214 20.938 30.698 20.902C30.182 20.854 29.606 20.86 28.97 20.92C28.898 21.64 28.85 22.354 28.826 23.062C28.814 23.758 28.814 24.448 28.826 25.132ZM38.1293 31C37.8893 31 37.6913 30.958 37.5353 30.874C37.3913 30.778 37.2773 30.67 37.1933 30.55C37.1093 30.418 37.0493 30.31 37.0133 30.226C36.9773 30.13 36.9593 30.082 36.9593 30.082C36.9113 29.566 36.8693 28.984 36.8333 28.336C36.8093 27.676 36.7913 26.986 36.7793 26.266C36.7673 25.534 36.7673 24.802 36.7793 24.07C36.8033 23.326 36.8333 22.612 36.8693 21.928C36.9053 21.232 36.9473 20.59 36.9953 20.002C36.9953 20.002 37.0013 19.966 37.0133 19.894C37.0373 19.81 37.0853 19.72 37.1573 19.624C37.2293 19.528 37.3313 19.45 37.4633 19.39C37.5953 19.318 37.7753 19.288 38.0033 19.3C38.2433 19.324 38.4293 19.39 38.5613 19.498C38.7053 19.594 38.8073 19.708 38.8673 19.84C38.9393 19.96 38.9873 20.068 39.0113 20.164C39.0353 20.248 39.0473 20.29 39.0473 20.29C39.0113 20.758 38.9813 21.31 38.9573 21.946C38.9453 22.57 38.9333 23.242 38.9213 23.962C38.9093 24.67 38.9033 25.39 38.9033 26.122C38.9153 26.854 38.9273 27.568 38.9393 28.264C38.9513 28.96 38.9753 29.602 39.0113 30.19C39.0113 30.19 38.9993 30.232 38.9753 30.316C38.9633 30.4 38.9333 30.496 38.8853 30.604C38.8373 30.712 38.7533 30.808 38.6333 30.892C38.5133 30.964 38.3453 31 38.1293 31ZM44.6183 30.964C43.9943 30.976 43.4183 30.874 42.8903 30.658C42.3743 30.43 41.9243 30.118 41.5403 29.722C41.1563 29.314 40.8563 28.846 40.6403 28.318C40.4363 27.79 40.3343 27.226 40.3343 26.626C40.3343 25.978 40.4483 25.372 40.6763 24.808C40.9163 24.244 41.2403 23.758 41.6483 23.35C42.0563 22.93 42.5303 22.606 43.0703 22.378C43.6223 22.138 44.2103 22.012 44.8343 22C45.7343 22 46.5083 22.162 47.1563 22.486C47.8043 22.798 48.2963 23.29 48.6323 23.962C48.9803 24.622 49.1543 25.468 49.1543 26.5C49.1543 27.1 49.0523 27.67 48.8483 28.21C48.6443 28.738 48.3503 29.206 47.9663 29.614C47.5823 30.022 47.1083 30.346 46.5443 30.586C45.9803 30.826 45.3383 30.952 44.6183 30.964ZM44.7083 29.074C45.0443 29.074 45.3623 29.002 45.6623 28.858C45.9743 28.702 46.2503 28.498 46.4903 28.246C46.7303 27.994 46.9163 27.706 47.0483 27.382C47.1923 27.046 47.2643 26.692 47.2643 26.32C47.2643 25.708 47.1623 25.204 46.9583 24.808C46.7663 24.412 46.4963 24.118 46.1483 23.926C45.8123 23.734 45.4163 23.638 44.9603 23.638C44.6363 23.638 44.3243 23.722 44.0243 23.89C43.7243 24.058 43.4603 24.286 43.2323 24.574C43.0163 24.862 42.8423 25.18 42.7103 25.528C42.5903 25.876 42.5303 26.236 42.5303 26.608C42.5303 27.076 42.6203 27.502 42.8003 27.886C42.9803 28.258 43.2323 28.552 43.5563 28.768C43.8803 28.972 44.2643 29.074 44.7083 29.074ZM49.1183 30.982C48.8903 30.982 48.7043 30.946 48.5603 30.874C48.4163 30.79 48.3083 30.712 48.2363 30.64C48.1643 30.556 48.1283 30.514 48.1283 30.514C48.0443 29.638 47.9783 28.768 47.9303 27.904C47.8823 27.04 47.8643 26.158 47.8763 25.258C47.9003 24.358 47.9543 23.422 48.0383 22.45C48.0383 22.45 48.0683 22.414 48.1283 22.342C48.1883 22.258 48.2903 22.18 48.4343 22.108C48.5783 22.036 48.7763 22.006 49.0283 22.018C49.2803 22.042 49.4723 22.114 49.6043 22.234C49.7483 22.342 49.8443 22.474 49.8923 22.63C49.9403 22.774 49.9703 22.9 49.9823 23.008C49.9943 23.116 50.0003 23.17 50.0003 23.17C49.9523 23.782 49.9103 24.352 49.8743 24.88C49.8503 25.408 49.8383 25.942 49.8383 26.482C49.8503 27.01 49.8683 27.574 49.8923 28.174C49.9163 28.774 49.9463 29.44 49.9823 30.172C49.9823 30.172 49.9763 30.214 49.9643 30.298C49.9523 30.382 49.9163 30.478 49.8563 30.586C49.8083 30.682 49.7243 30.772 49.6043 30.856C49.4963 30.94 49.3343 30.982 49.1183 30.982ZM55.5197 31.162C54.5357 31.102 53.7437 30.892 53.1437 30.532C52.5437 30.16 52.0997 29.668 51.8117 29.056C51.5237 28.432 51.3497 27.73 51.2897 26.95C51.2417 26.326 51.3077 25.726 51.4877 25.15C51.6797 24.562 51.9677 24.04 52.3517 23.584C52.7477 23.116 53.2277 22.75 53.7917 22.486C54.3557 22.21 54.9977 22.078 55.7177 22.09C56.3297 22.09 56.8457 22.168 57.2657 22.324C57.6977 22.48 58.0517 22.672 58.3277 22.9C58.6037 23.116 58.8137 23.338 58.9577 23.566C59.1137 23.782 59.2217 23.962 59.2817 24.106C59.3417 24.25 59.3717 24.322 59.3717 24.322C59.3717 24.322 59.3657 24.364 59.3537 24.448C59.3537 24.532 59.3297 24.64 59.2817 24.772C59.2337 24.892 59.1317 25 58.9757 25.096C58.8317 25.18 58.6697 25.234 58.4897 25.258C58.3097 25.282 58.1417 25.276 57.9857 25.24C57.8297 25.204 57.7217 25.15 57.6617 25.078C57.6497 25.078 57.6077 25.03 57.5357 24.934C57.4757 24.838 57.3797 24.73 57.2477 24.61C57.1277 24.49 56.9597 24.382 56.7437 24.286C56.5397 24.19 56.2877 24.148 55.9877 24.16C55.6397 24.172 55.3097 24.232 54.9977 24.34C54.6977 24.448 54.4337 24.61 54.2057 24.826C53.9897 25.03 53.8217 25.294 53.7017 25.618C53.5817 25.93 53.5277 26.302 53.5397 26.734C53.5517 27.274 53.6477 27.712 53.8277 28.048C54.0077 28.372 54.2537 28.612 54.5657 28.768C54.8777 28.924 55.2377 29.026 55.6457 29.074C55.9577 29.098 56.2517 29.08 56.5277 29.02C56.8037 28.948 57.0497 28.858 57.2657 28.75C57.4817 28.642 57.6557 28.546 57.7877 28.462C57.9317 28.378 58.0157 28.336 58.0397 28.336C58.2437 28.264 58.4297 28.24 58.5977 28.264C58.7777 28.288 58.9397 28.342 59.0837 28.426C59.2397 28.51 59.3657 28.618 59.4617 28.75C59.5817 28.906 59.6417 29.056 59.6417 29.2C59.6537 29.344 59.6417 29.458 59.6057 29.542C59.5817 29.626 59.5697 29.668 59.5697 29.668C59.5697 29.668 59.4977 29.752 59.3537 29.92C59.2097 30.076 58.9757 30.262 58.6517 30.478C58.3397 30.682 57.9257 30.856 57.4097 31C56.8937 31.144 56.2637 31.198 55.5197 31.162ZM64.3188 31.18C63.5268 31.036 62.8848 30.808 62.3928 30.496C61.9128 30.184 61.5408 29.812 61.2768 29.38C61.0128 28.948 60.8328 28.492 60.7368 28.012C60.6528 27.52 60.6048 27.034 60.5928 26.554C60.5928 25.99 60.6948 25.432 60.8988 24.88C61.1148 24.328 61.4268 23.83 61.8348 23.386C62.2428 22.942 62.7288 22.594 63.2928 22.342C63.8688 22.09 64.5048 21.988 65.2008 22.036C65.9088 22.084 66.4848 22.222 66.9288 22.45C67.3848 22.666 67.7388 22.942 67.9908 23.278C68.2428 23.602 68.4168 23.95 68.5128 24.322C68.6208 24.682 68.6808 25.024 68.6928 25.348C68.6928 25.936 68.5368 26.44 68.2248 26.86C67.9128 27.28 67.4208 27.568 66.7488 27.724C66.5568 27.772 66.3228 27.802 66.0468 27.814C65.7708 27.826 65.4708 27.832 65.1468 27.832C64.8348 27.832 64.5228 27.826 64.2108 27.814C63.9108 27.802 63.6348 27.79 63.3828 27.778C63.1428 27.766 62.9448 27.754 62.7888 27.742C62.6328 27.73 62.5548 27.724 62.5548 27.724C62.5908 28.012 62.6868 28.294 62.8428 28.57C63.0108 28.846 63.2508 29.08 63.5628 29.272C63.8868 29.452 64.2888 29.554 64.7688 29.578C65.2248 29.59 65.6328 29.584 65.9928 29.56C66.3648 29.524 66.6828 29.488 66.9468 29.452C67.2108 29.416 67.4088 29.38 67.5408 29.344C67.6848 29.308 67.7568 29.29 67.7568 29.29C67.7568 29.29 67.7868 29.29 67.8468 29.29C67.9188 29.29 68.0088 29.296 68.1168 29.308C68.2248 29.32 68.3328 29.356 68.4408 29.416C68.5488 29.476 68.6388 29.578 68.7108 29.722C68.7948 29.854 68.8308 29.974 68.8188 30.082C68.8068 30.19 68.7708 30.28 68.7108 30.352C68.6628 30.424 68.6148 30.478 68.5668 30.514C68.5188 30.55 68.4948 30.568 68.4948 30.568C68.4948 30.568 68.3688 30.616 68.1168 30.712C67.8648 30.808 67.5288 30.904 67.1088 31C66.7008 31.108 66.2508 31.186 65.7588 31.234C65.2788 31.282 64.7988 31.264 64.3188 31.18ZM62.5728 26.428L65.7588 26.392C65.7588 26.392 65.7948 26.386 65.8668 26.374C65.9508 26.362 66.0528 26.338 66.1728 26.302C66.2928 26.266 66.4068 26.206 66.5148 26.122C66.6348 26.038 66.7308 25.924 66.8028 25.78C66.8748 25.636 66.9108 25.45 66.9108 25.222C66.9108 24.85 66.8448 24.538 66.7128 24.286C66.5808 24.034 66.3648 23.854 66.0648 23.746C65.7648 23.626 65.3448 23.584 64.8048 23.62C64.4328 23.644 64.1028 23.764 63.8148 23.98C63.5268 24.184 63.2808 24.436 63.0768 24.736C62.8848 25.036 62.7468 25.342 62.6628 25.654C62.5788 25.954 62.5488 26.212 62.5728 26.428ZM77.6341 30.802C77.4061 30.754 77.2321 30.67 77.1121 30.55C76.9921 30.43 76.9021 30.31 76.8421 30.19C76.7941 30.07 76.7641 29.968 76.7521 29.884C76.7401 29.8 76.7341 29.758 76.7341 29.758C76.8061 29.206 76.8661 28.714 76.9141 28.282C76.9621 27.838 76.9861 27.424 76.9861 27.04C76.9861 26.644 76.9381 26.254 76.8421 25.87C76.6741 25.294 76.4581 24.856 76.1941 24.556C75.9421 24.244 75.6601 24.082 75.3481 24.07C74.9281 24.154 74.5561 24.328 74.2321 24.592C73.9201 24.844 73.6441 25.156 73.4041 25.528C73.1641 25.9 72.9541 26.284 72.7741 26.68C72.5941 27.076 72.4441 27.454 72.3241 27.814C72.2041 28.174 72.0961 28.474 72.0001 28.714C71.9041 28.93 71.8201 29.05 71.7481 29.074C71.6761 29.098 71.6161 29.062 71.5681 28.966C71.5201 28.858 71.4841 28.726 71.4601 28.57C71.4361 28.414 71.4181 28.264 71.4061 28.12C71.3941 27.976 71.3821 27.868 71.3701 27.796C71.3701 27.724 71.3641 27.736 71.3521 27.832L70.7941 26.446L71.3881 25.294C71.6521 24.742 71.9461 24.274 72.2701 23.89C72.5941 23.506 72.9301 23.194 73.2781 22.954C73.6261 22.702 73.9741 22.522 74.3221 22.414C74.6701 22.294 75.0001 22.228 75.3121 22.216C75.9121 22.264 76.4581 22.45 76.9501 22.774C77.4421 23.086 77.8621 23.5 78.2101 24.016C78.5581 24.532 78.8161 25.114 78.9841 25.762C79.1401 26.506 79.1941 27.25 79.1461 27.994C79.1101 28.726 79.0141 29.5 78.8581 30.316C78.8581 30.316 78.8341 30.352 78.7861 30.424C78.7501 30.484 78.6841 30.556 78.5881 30.64C78.4921 30.712 78.3661 30.772 78.2101 30.82C78.0541 30.856 77.8621 30.85 77.6341 30.802ZM71.3161 31C71.0761 31 70.8781 30.958 70.7221 30.874C70.5781 30.778 70.4641 30.67 70.3801 30.55C70.2961 30.418 70.2361 30.31 70.2001 30.226C70.1641 30.13 70.1461 30.082 70.1461 30.082C70.0981 29.566 70.0561 28.984 70.0201 28.336C69.9961 27.676 69.9781 26.986 69.9661 26.266C69.9541 25.534 69.9541 24.802 69.9661 24.07C69.9901 23.326 70.0201 22.612 70.0561 21.928C70.0921 21.232 70.1341 20.59 70.1821 20.002C70.1821 20.002 70.1881 19.966 70.2001 19.894C70.2241 19.81 70.2721 19.72 70.3441 19.624C70.4161 19.528 70.5181 19.45 70.6501 19.39C70.7821 19.318 70.9621 19.288 71.1901 19.3C71.4301 19.324 71.6161 19.39 71.7481 19.498C71.8921 19.594 71.9941 19.708 72.0541 19.84C72.1261 19.96 72.1741 20.068 72.1981 20.164C72.2221 20.248 72.2341 20.29 72.2341 20.29C72.1981 20.758 72.1681 21.31 72.1441 21.946C72.1321 22.57 72.1201 23.242 72.1081 23.962C72.0961 24.67 72.0901 25.39 72.0901 26.122C72.1021 26.854 72.1141 27.568 72.1261 28.264C72.1381 28.96 72.1621 29.602 72.1981 30.19C72.1981 30.19 72.1921 30.232 72.1801 30.316C72.1681 30.4 72.1321 30.496 72.0721 30.604C72.0241 30.7 71.9401 30.79 71.8201 30.874C71.7001 30.958 71.5321 31 71.3161 31ZM84.7849 30.964C84.1489 30.964 83.5609 30.856 83.0209 30.64C82.4929 30.412 82.0369 30.1 81.6529 29.704C81.2689 29.308 80.9689 28.846 80.7529 28.318C80.5369 27.79 80.4289 27.226 80.4289 26.626C80.4289 26.026 80.5429 25.45 80.7709 24.898C80.9989 24.334 81.3169 23.836 81.7249 23.404C82.1329 22.972 82.6129 22.63 83.1649 22.378C83.7169 22.126 84.3109 22 84.9469 22C85.5949 22 86.1949 22.09 86.7469 22.27C87.2989 22.45 87.7789 22.726 88.1869 23.098C88.6069 23.458 88.9309 23.926 89.1589 24.502C89.3989 25.066 89.5189 25.732 89.5189 26.5C89.5189 27.1 89.3929 27.67 89.1409 28.21C88.9009 28.75 88.5589 29.23 88.1149 29.65C87.6829 30.058 87.1789 30.382 86.6029 30.622C86.0389 30.85 85.4329 30.964 84.7849 30.964ZM84.7669 29.092C85.1149 29.092 85.4449 29.02 85.7569 28.876C86.0689 28.732 86.3449 28.534 86.5849 28.282C86.8249 28.03 87.0109 27.742 87.1429 27.418C87.2869 27.094 87.3589 26.752 87.3589 26.392C87.3589 25.78 87.2569 25.276 87.0529 24.88C86.8609 24.484 86.5909 24.196 86.2429 24.016C85.8949 23.824 85.4929 23.728 85.0369 23.728C84.7009 23.728 84.3829 23.812 84.0829 23.98C83.7829 24.148 83.5189 24.376 83.2909 24.664C83.0749 24.94 82.9009 25.252 82.7689 25.6C82.6489 25.936 82.5889 26.284 82.5889 26.644C82.5889 27.124 82.6789 27.55 82.8589 27.922C83.0389 28.282 83.2909 28.57 83.6149 28.786C83.9509 28.99 84.3349 29.092 84.7669 29.092ZM91.9789 31C91.7389 31 91.5409 30.958 91.3849 30.874C91.2409 30.778 91.1269 30.67 91.0429 30.55C90.9589 30.418 90.8989 30.31 90.8629 30.226C90.8269 30.13 90.8089 30.082 90.8089 30.082C90.7609 29.566 90.7189 28.984 90.6829 28.336C90.6589 27.676 90.6409 26.986 90.6289 26.266C90.6169 25.534 90.6169 24.802 90.6289 24.07C90.6529 23.326 90.6829 22.612 90.7189 21.928C90.7549 21.232 90.7969 20.59 90.8449 20.002C90.8449 20.002 90.8509 19.966 90.8629 19.894C90.8869 19.81 90.9349 19.72 91.0069 19.624C91.0789 19.528 91.1809 19.45 91.3129 19.39C91.4449 19.318 91.6249 19.288 91.8529 19.3C92.0929 19.324 92.2789 19.39 92.4109 19.498C92.5549 19.594 92.6569 19.708 92.7169 19.84C92.7889 19.96 92.8369 20.068 92.8609 20.164C92.8849 20.248 92.8969 20.29 92.8969 20.29C92.8609 20.758 92.8309 21.31 92.8069 21.946C92.7949 22.57 92.7829 23.242 92.7709 23.962C92.7589 24.67 92.7529 25.39 92.7529 26.122C92.7649 26.854 92.7769 27.568 92.7889 28.264C92.8009 28.96 92.8249 29.602 92.8609 30.19C92.8609 30.19 92.8489 30.232 92.8249 30.316C92.8129 30.4 92.7829 30.496 92.7349 30.604C92.6869 30.712 92.6029 30.808 92.4829 30.892C92.3629 30.964 92.1949 31 91.9789 31ZM98.4679 30.964C97.8439 30.976 97.2679 30.874 96.7399 30.658C96.2239 30.43 95.7739 30.118 95.3899 29.722C95.0059 29.314 94.7059 28.846 94.4899 28.318C94.2859 27.79 94.1839 27.226 94.1839 26.626C94.1839 25.978 94.2979 25.372 94.5259 24.808C94.7659 24.244 95.0899 23.758 95.4979 23.35C95.9059 22.93 96.3799 22.606 96.9199 22.378C97.4719 22.138 98.0599 22.012 98.6839 22C99.5839 22 100.358 22.162 101.006 22.486C101.654 22.798 102.146 23.29 102.482 23.962C102.83 24.622 103.004 25.468 103.004 26.5C103.004 27.1 102.902 27.67 102.698 28.21C102.494 28.738 102.2 29.206 101.816 29.614C101.432 30.022 100.958 30.346 100.394 30.586C99.8299 30.826 99.1879 30.952 98.4679 30.964ZM98.5579 29.074C98.8939 29.074 99.2119 29.002 99.5119 28.858C99.8239 28.702 100.1 28.498 100.34 28.246C100.58 27.994 100.766 27.706 100.898 27.382C101.042 27.046 101.114 26.692 101.114 26.32C101.114 25.708 101.012 25.204 100.808 24.808C100.616 24.412 100.346 24.118 99.9979 23.926C99.6619 23.734 99.2659 23.638 98.8099 23.638C98.4859 23.638 98.1739 23.722 97.8739 23.89C97.5739 24.058 97.3099 24.286 97.0819 24.574C96.8659 24.862 96.6919 25.18 96.5599 25.528C96.4399 25.876 96.3799 26.236 96.3799 26.608C96.3799 27.076 96.4699 27.502 96.6499 27.886C96.8299 28.258 97.0819 28.552 97.4059 28.768C97.7299 28.972 98.1139 29.074 98.5579 29.074ZM102.914 31C102.686 31 102.494 30.958 102.338 30.874C102.194 30.778 102.074 30.67 101.978 30.55C101.894 30.418 101.834 30.31 101.798 30.226C101.774 30.13 101.762 30.082 101.762 30.082C101.702 29.566 101.654 28.984 101.618 28.336C101.594 27.676 101.576 26.986 101.564 26.266C101.564 25.534 101.57 24.802 101.582 24.07C101.606 23.326 101.636 22.612 101.672 21.928C101.708 21.232 101.75 20.59 101.798 20.002C101.798 20.002 101.804 19.966 101.816 19.894C101.84 19.81 101.888 19.72 101.96 19.624C102.032 19.528 102.134 19.45 102.266 19.39C102.398 19.318 102.578 19.288 102.806 19.3C103.046 19.324 103.232 19.39 103.364 19.498C103.508 19.594 103.61 19.708 103.67 19.84C103.742 19.96 103.79 20.068 103.814 20.164C103.838 20.248 103.85 20.29 103.85 20.29C103.814 20.758 103.784 21.31 103.76 21.946C103.748 22.57 103.736 23.242 103.724 23.962C103.712 24.67 103.706 25.39 103.706 26.122C103.706 26.854 103.712 27.568 103.724 28.264C103.748 28.96 103.778 29.602 103.814 30.19C103.814 30.19 103.808 30.232 103.796 30.316C103.784 30.4 103.748 30.496 103.688 30.604C103.64 30.7 103.55 30.79 103.418 30.874C103.298 30.958 103.13 31 102.914 31ZM108.865 31.18C108.073 31.036 107.431 30.808 106.939 30.496C106.459 30.184 106.087 29.812 105.823 29.38C105.559 28.948 105.379 28.492 105.283 28.012C105.199 27.52 105.151 27.034 105.139 26.554C105.139 25.99 105.241 25.432 105.445 24.88C105.661 24.328 105.973 23.83 106.381 23.386C106.789 22.942 107.275 22.594 107.839 22.342C108.415 22.09 109.051 21.988 109.747 22.036C110.455 22.084 111.031 22.222 111.475 22.45C111.931 22.666 112.285 22.942 112.537 23.278C112.789 23.602 112.963 23.95 113.059 24.322C113.167 24.682 113.227 25.024 113.239 25.348C113.239 25.936 113.083 26.44 112.771 26.86C112.459 27.28 111.967 27.568 111.295 27.724C111.103 27.772 110.869 27.802 110.593 27.814C110.317 27.826 110.017 27.832 109.693 27.832C109.381 27.832 109.069 27.826 108.757 27.814C108.457 27.802 108.181 27.79 107.929 27.778C107.689 27.766 107.491 27.754 107.335 27.742C107.179 27.73 107.101 27.724 107.101 27.724C107.137 28.012 107.233 28.294 107.389 28.57C107.557 28.846 107.797 29.08 108.109 29.272C108.433 29.452 108.835 29.554 109.315 29.578C109.771 29.59 110.179 29.584 110.539 29.56C110.911 29.524 111.229 29.488 111.493 29.452C111.757 29.416 111.955 29.38 112.087 29.344C112.231 29.308 112.303 29.29 112.303 29.29C112.303 29.29 112.333 29.29 112.393 29.29C112.465 29.29 112.555 29.296 112.663 29.308C112.771 29.32 112.879 29.356 112.987 29.416C113.095 29.476 113.185 29.578 113.257 29.722C113.341 29.854 113.377 29.974 113.365 30.082C113.353 30.19 113.317 30.28 113.257 30.352C113.209 30.424 113.161 30.478 113.113 30.514C113.065 30.55 113.041 30.568 113.041 30.568C113.041 30.568 112.915 30.616 112.663 30.712C112.411 30.808 112.075 30.904 111.655 31C111.247 31.108 110.797 31.186 110.305 31.234C109.825 31.282 109.345 31.264 108.865 31.18ZM107.119 26.428L110.305 26.392C110.305 26.392 110.341 26.386 110.413 26.374C110.497 26.362 110.599 26.338 110.719 26.302C110.839 26.266 110.953 26.206 111.061 26.122C111.181 26.038 111.277 25.924 111.349 25.78C111.421 25.636 111.457 25.45 111.457 25.222C111.457 24.85 111.391 24.538 111.259 24.286C111.127 24.034 110.911 23.854 110.611 23.746C110.311 23.626 109.891 23.584 109.351 23.62C108.979 23.644 108.649 23.764 108.361 23.98C108.073 24.184 107.827 24.436 107.623 24.736C107.431 25.036 107.293 25.342 107.209 25.654C107.125 25.954 107.095 26.212 107.119 26.428ZM115.84 29.2C115.66 29.224 115.516 29.182 115.408 29.074C115.3 28.966 115.222 28.84 115.174 28.696C115.126 28.552 115.096 28.42 115.084 28.3C115.072 28.18 115.066 28.12 115.066 28.12C115.006 27.88 114.964 27.694 114.94 27.562C114.916 27.418 114.904 27.292 114.904 27.184C114.916 27.076 114.922 26.956 114.922 26.824C114.934 26.68 114.946 26.482 114.958 26.23C115.006 25.522 115.15 24.898 115.39 24.358C115.642 23.818 115.984 23.368 116.416 23.008C116.848 22.648 117.346 22.384 117.91 22.216C118.474 22.096 118.984 22.06 119.44 22.108C119.908 22.144 120.322 22.246 120.682 22.414C121.054 22.57 121.372 22.768 121.636 23.008C121.636 23.008 121.66 23.038 121.708 23.098C121.768 23.146 121.828 23.218 121.888 23.314C121.948 23.41 121.99 23.518 122.014 23.638C122.05 23.746 122.05 23.866 122.014 23.998C121.99 24.118 121.9 24.244 121.744 24.376C121.612 24.496 121.456 24.556 121.276 24.556C121.096 24.544 120.922 24.508 120.754 24.448C120.598 24.388 120.466 24.328 120.358 24.268C120.25 24.208 120.196 24.178 120.196 24.178C119.944 24.01 119.65 23.932 119.314 23.944C118.99 23.944 118.654 24.028 118.306 24.196C117.886 24.4 117.55 24.682 117.298 25.042C117.046 25.39 116.884 25.81 116.812 26.302C116.788 26.59 116.764 26.83 116.74 27.022C116.728 27.214 116.716 27.382 116.704 27.526C116.692 27.67 116.686 27.82 116.686 27.976C116.698 28.132 116.71 28.33 116.722 28.57C116.722 28.57 116.698 28.618 116.65 28.714C116.614 28.81 116.53 28.906 116.398 29.002C116.278 29.098 116.092 29.164 115.84 29.2ZM115.948 30.982C115.744 30.97 115.57 30.928 115.426 30.856C115.294 30.772 115.186 30.676 115.102 30.568C115.018 30.46 114.958 30.37 114.922 30.298C114.898 30.226 114.886 30.19 114.886 30.19C114.814 29.542 114.76 28.924 114.724 28.336C114.7 27.748 114.688 27.166 114.688 26.59C114.688 26.002 114.7 25.396 114.724 24.772C114.76 24.148 114.808 23.476 114.868 22.756C114.868 22.756 114.874 22.72 114.886 22.648C114.91 22.564 114.952 22.474 115.012 22.378C115.072 22.282 115.168 22.198 115.3 22.126C115.444 22.054 115.63 22.018 115.858 22.018C116.11 22.03 116.302 22.084 116.434 22.18C116.578 22.276 116.686 22.39 116.758 22.522C116.83 22.654 116.872 22.768 116.884 22.864C116.908 22.96 116.92 23.008 116.92 23.008C116.884 23.596 116.854 24.172 116.83 24.736C116.806 25.288 116.794 25.852 116.794 26.428C116.794 26.992 116.8 27.586 116.812 28.21C116.836 28.822 116.872 29.482 116.92 30.19C116.92 30.19 116.908 30.232 116.884 30.316C116.872 30.4 116.836 30.496 116.776 30.604C116.716 30.712 116.62 30.808 116.488 30.892C116.356 30.964 116.176 30.994 115.948 30.982Z" fill="#433DC3"/>
<rect y="72.1463" width="75" height="39.8537" rx="8" fill="#FFE266"/>
<rect x="3" y="70.0488" width="75" height="37.7561" rx="8" fill="#FFFCF2"/>
<rect x="4" y="70" width="73" height="37.8537" rx="7" stroke="#433DC3" stroke-width="2"/>
<rect x="9" y="75" width="29" height="28" rx="6" fill="#FFE266"/>
<rect x="97" y="72" width="45" height="40" rx="8" fill="#FFE266"/>
<rect x="100.731" y="70.0488" width="43.2692" height="37.7561" rx="8" fill="#FFFCF2"/>
<rect x="101.731" y="70" width="41.2692" height="37.8537" rx="7" stroke="#433DC3" stroke-width="2"/>
<rect x="107" y="75" width="31" height="28" rx="6" fill="#FFE266"/>
<rect x="163" y="73" width="121" height="39" rx="8" fill="#FFE266"/>
<rect x="169.177" y="69" width="119.824" height="39" rx="8" fill="#FFFCF2"/>
<rect x="169" y="69" width="119" height="38" rx="7" stroke="#433DC3" stroke-width="2"/>
<path d="M185.655 93.928C185.403 93.928 185.205 93.874 185.061 93.766C184.917 93.658 184.809 93.538 184.737 93.406C184.677 93.262 184.635 93.142 184.611 93.046C184.587 92.938 184.575 92.884 184.575 92.884C184.515 92.356 184.467 91.756 184.431 91.084C184.407 90.4 184.389 89.698 184.377 88.978C184.377 88.246 184.383 87.532 184.395 86.836C184.419 86.128 184.455 85.486 184.503 84.91L182.523 86.692C182.523 86.692 182.493 86.71 182.433 86.746C182.373 86.782 182.289 86.812 182.181 86.836C182.073 86.86 181.947 86.86 181.803 86.836C181.659 86.8 181.509 86.722 181.353 86.602C181.209 86.482 181.113 86.362 181.065 86.242C181.029 86.122 181.023 86.014 181.047 85.918C181.071 85.81 181.101 85.726 181.137 85.666C181.173 85.606 181.191 85.576 181.191 85.576L183.855 83.344C184.251 82.984 184.629 82.732 184.989 82.588C185.361 82.432 185.673 82.384 185.925 82.444C186.105 82.48 186.243 82.552 186.339 82.66C186.447 82.756 186.525 82.864 186.573 82.984C186.621 83.104 186.645 83.206 186.645 83.29C186.657 83.362 186.663 83.398 186.663 83.398C186.615 83.878 186.579 84.43 186.555 85.054C186.543 85.666 186.531 86.326 186.519 87.034C186.519 87.73 186.519 88.438 186.519 89.158C186.531 89.866 186.549 90.556 186.573 91.228C186.597 91.9 186.621 92.518 186.645 93.082C186.645 93.082 186.639 93.124 186.627 93.208C186.615 93.292 186.579 93.394 186.519 93.514C186.459 93.634 186.363 93.736 186.231 93.82C186.099 93.904 185.907 93.94 185.655 93.928ZM192.217 94.09C191.425 94.09 190.723 93.85 190.111 93.37C189.511 92.89 189.049 92.23 188.725 91.39C188.401 90.538 188.263 89.566 188.311 88.474C188.347 87.658 188.479 86.872 188.707 86.116C188.935 85.348 189.247 84.664 189.643 84.064C190.039 83.452 190.501 82.972 191.029 82.624C191.569 82.264 192.151 82.084 192.775 82.084C193.255 82.084 193.741 82.15 194.233 82.282C194.725 82.414 195.193 82.63 195.637 82.93C196.081 83.218 196.471 83.608 196.807 84.1C197.155 84.58 197.419 85.168 197.599 85.864C197.779 86.56 197.845 87.382 197.797 88.33C197.773 89.098 197.641 89.794 197.401 90.418C197.161 91.03 196.849 91.564 196.465 92.02C196.081 92.476 195.649 92.86 195.169 93.172C194.701 93.484 194.209 93.718 193.693 93.874C193.189 94.018 192.697 94.09 192.217 94.09ZM189.193 91.138L188.761 89.644C189.913 88.828 191.161 88.138 192.505 87.574C193.861 86.998 195.307 86.524 196.843 86.152L197.383 87.88C195.919 88.072 194.503 88.45 193.135 89.014C191.779 89.566 190.465 90.274 189.193 91.138ZM192.559 92.002C192.943 92.002 193.327 91.924 193.711 91.768C194.095 91.6 194.449 91.354 194.773 91.03C195.097 90.694 195.367 90.28 195.583 89.788C195.799 89.284 195.919 88.696 195.943 88.024C195.979 87.28 195.913 86.656 195.745 86.152C195.589 85.648 195.367 85.246 195.079 84.946C194.791 84.646 194.467 84.43 194.107 84.298C193.747 84.166 193.375 84.1 192.991 84.1C192.619 84.1 192.265 84.214 191.929 84.442C191.605 84.658 191.311 84.964 191.047 85.36C190.795 85.756 190.591 86.212 190.435 86.728C190.279 87.232 190.189 87.772 190.165 88.348C190.141 89.116 190.225 89.776 190.417 90.328C190.609 90.868 190.891 91.282 191.263 91.57C191.635 91.858 192.067 92.002 192.559 92.002ZM203.366 94.09C202.574 94.09 201.872 93.85 201.26 93.37C200.66 92.89 200.198 92.23 199.874 91.39C199.55 90.538 199.412 89.566 199.46 88.474C199.496 87.658 199.628 86.872 199.856 86.116C200.084 85.348 200.396 84.664 200.792 84.064C201.188 83.452 201.65 82.972 202.178 82.624C202.718 82.264 203.3 82.084 203.924 82.084C204.404 82.084 204.89 82.15 205.382 82.282C205.874 82.414 206.342 82.63 206.786 82.93C207.23 83.218 207.62 83.608 207.956 84.1C208.304 84.58 208.568 85.168 208.748 85.864C208.928 86.56 208.994 87.382 208.946 88.33C208.922 89.098 208.79 89.794 208.55 90.418C208.31 91.03 207.998 91.564 207.614 92.02C207.23 92.476 206.798 92.86 206.318 93.172C205.85 93.484 205.358 93.718 204.842 93.874C204.338 94.018 203.846 94.09 203.366 94.09ZM200.342 91.138L199.91 89.644C201.062 88.828 202.31 88.138 203.654 87.574C205.01 86.998 206.456 86.524 207.992 86.152L208.532 87.88C207.068 88.072 205.652 88.45 204.284 89.014C202.928 89.566 201.614 90.274 200.342 91.138ZM203.708 92.002C204.092 92.002 204.476 91.924 204.86 91.768C205.244 91.6 205.598 91.354 205.922 91.03C206.246 90.694 206.516 90.28 206.732 89.788C206.948 89.284 207.068 88.696 207.092 88.024C207.128 87.28 207.062 86.656 206.894 86.152C206.738 85.648 206.516 85.246 206.228 84.946C205.94 84.646 205.616 84.43 205.256 84.298C204.896 84.166 204.524 84.1 204.14 84.1C203.768 84.1 203.414 84.214 203.078 84.442C202.754 84.658 202.46 84.964 202.196 85.36C201.944 85.756 201.74 86.212 201.584 86.728C201.428 87.232 201.338 87.772 201.314 88.348C201.29 89.116 201.374 89.776 201.566 90.328C201.758 90.868 202.04 91.282 202.412 91.57C202.784 91.858 203.216 92.002 203.708 92.002Z" fill="#433DC3"/>
<path d="M270.806 96.9033C270.406 97.4472 269.594 97.4472 269.194 96.9033L265.108 91.3421C264.622 90.6817 265.094 89.75 265.914 89.75L274.086 89.75C274.906 89.75 275.378 90.6817 274.892 91.3421L270.806 96.9033Z" fill="#433DC3"/>
<path d="M269.194 78.0967C269.594 77.5528 270.406 77.5528 270.806 78.0967L274.892 83.6579C275.378 84.3183 274.906 85.25 274.086 85.25H265.914C265.094 85.25 264.622 84.3183 265.108 83.6579L269.194 78.0967Z" fill="#433DC3"/>
</svg>
