<svg width="1205" height="431" xmlns="http://www.w3.org/2000/svg" xmlns:xlink="http://www.w3.org/1999/xlink" xml:space="preserve" overflow="hidden"><g transform="translate(-880 -1232)"><g><path d="M1017.72 1581.78C996.741 1581.78 981.978 1576.27 973.443 1565.25 964.938 1554.24 960.698 1538.43 960.698 1517.8L960.698 1508.6C960.698 1506.83 960.932 1505.7 961.437 1505.2 961.923 1504.72 962.982 1504.47 964.588 1504.47L985.388 1504.47C988.741 1504.47 991.055 1504.79 992.36 1505.4 993.652 1505.99 994.311 1508.23 994.311 1512.13 994.311 1521.78 996.76 1528.33 1001.69 1531.79 1006.65 1535.23 1013.98 1537.04 1023.69 1537.26 1034.78 1537.26 1042.83 1534.46 1047.84 1528.86 1052.89 1523.23 1055.42 1517.26 1055.42 1511 1055.42 1505.5 1053.78 1500.64 1050.53 1496.4 1047.26 1492.14 1043.05 1490.01 1037.92 1490.01 1031.2 1490.01 1024.46 1490.52 1017.72 1491.54 1011.01 1492.52 1004.77 1493.01 999.006 1493.01 992.058 1493.01 985.738 1492.12 980.021 1490.34 974.28 1488.57 969.689 1485.12 966.2 1480.01 962.742 1474.91 960.914 1467.53 960.698 1457.89 960.698 1436.43 962.575 1419.16 966.335 1406.1 970.089 1393.04 977.099 1383.56 987.4 1377.64 997.732 1371.74 1012.69 1368.78 1032.28 1368.78 1052.89 1368.78 1067.45 1374.41 1075.95 1385.64 1084.44 1396.84 1088.7 1412.67 1088.7 1433.09L1088.7 1448.15C1088.7 1450.12 1088.5 1451.34 1088.1 1451.82 1087.73 1452.32 1086.65 1452.47 1084.88 1452.29L1064.08 1451.09C1059.68 1450.69 1057.05 1450 1056.16 1449.02 1055.31 1448.06 1054.89 1445.09 1054.89 1440.15 1054.89 1434.66 1054.03 1430.73 1052.34 1428.36 1050.62 1426.01 1047.66 1424.55 1043.41 1423.96 1039.15 1423.4 1033.09 1423.1 1025.17 1423.1L1021.88 1423.1C1015.74 1423.1 1010.56 1423.6 1006.32 1424.56 1002.06 1425.54 998.834 1428.09 996.655 1432.23 994.458 1436.36 993.271 1443.34 993.098 1453.15 993.098 1459.46 994.982 1463.66 998.735 1465.75 1002.5 1467.8 1007.22 1468.81 1012.96 1468.81 1018.14 1468.81 1023.89 1468.38 1030.2 1467.48 1036.54 1466.6 1042.69 1466.15 1048.65 1466.15 1055.57 1466.15 1062.1 1467.13 1068.24 1469.08 1074.36 1471.04 1079.31 1474.39 1083.06 1479.14 1086.82 1483.86 1088.7 1490.24 1088.7 1498.27 1088.7 1513.83 1087.76 1526.98 1085.88 1537.72 1084 1548.44 1080.53 1557.03 1075.48 1563.52 1070.42 1570.02 1063.24 1574.66 1053.95 1577.51 1044.64 1580.35 1032.56 1581.78 1017.72 1581.78Z" fill="#FFE266" fill-rule="evenodd" fill-opacity="1"/><path d="M1153.44 1578.78C1141.09 1578.78 1131.17 1577.84 1123.7 1575.98 1116.28 1574.11 1110.58 1570.63 1106.65 1565.52 1102.75 1560.42 1100.12 1553.18 1098.75 1543.85 1097.38 1534.53 1096.7 1522.38 1096.7 1507.4 1096.7 1495.59 1098.06 1486.34 1100.81 1479.67 1103.55 1472.98 1107.61 1468.11 1113.02 1465.08 1118.42 1462.01 1125.03 1460.05 1132.86 1459.15 1140.69 1458.27 1149.6 1457.82 1159.6 1457.82L1174 1457.82C1177.09 1457.82 1179.98 1457.53 1182.64 1456.95 1185.29 1456.38 1186.62 1454.52 1186.62 1451.35 1186.62 1448.6 1186.45 1445.56 1186.15 1442.22 1185.88 1438.86 1184.9 1435.66 1183.23 1432.62 1181.53 1429.56 1178.88 1427.01 1175.27 1424.96 1171.69 1422.88 1166.46 1421.83 1159.6 1421.83 1158.23 1421.83 1155.32 1421.89 1150.91 1422.03 1146.48 1422.13 1141.49 1422.21 1135.91 1422.3 1130.34 1422.4 1124.93 1422.49 1119.72 1422.63 1114.55 1422.73 1110.33 1422.81 1107.12 1422.9 1103.88 1422.99 1102.37 1423.03 1102.61 1423.03 1100.03 1423.03 1098.64 1422.35 1098.42 1420.96 1098.24 1419.59 1098.06 1416.34 1097.89 1411.23L1097.03 1379.98C1097.03 1378.96 1096.96 1378.02 1096.83 1377.17 1096.73 1376.29 1096.7 1375.55 1096.7 1374.91 1096.7 1372.16 1098.06 1370.78 1100.81 1370.78L1159.01 1375.25C1181.52 1377.03 1198.11 1386.42 1208.78 1403.44 1219.43 1420.41 1224.87 1445.42 1225.1 1478.48L1225.7 1561.98C1225.7 1569.28 1225.5 1573.65 1225.1 1575.11 1224.7 1576.58 1223.73 1577.31 1222.18 1577.31L1188.34 1578.78 1188.08 1578.78C1187.89 1578.78 1187.5 1578.61 1186.88 1578.31 1186.3 1578.05 1186.02 1577.51 1186.02 1576.71L1186.02 1555.52C1184.24 1557.88 1182.27 1560.92 1180.11 1564.65 1177.99 1568.38 1174.9 1571.68 1170.88 1574.51 1166.86 1577.34 1161.04 1578.78 1153.44 1578.78ZM1155.16 1528.93C1160.86 1528.93 1165.61 1527.51 1169.43 1524.66 1173.23 1521.83 1176.34 1518.33 1178.78 1514.2 1181.25 1510.07 1183.11 1505.94 1184.36 1501.8 1185.64 1497.67 1186.51 1494.19 1187.01 1491.34 1187.54 1488.51 1187.81 1487.08 1187.81 1487.08 1187.81 1485.08 1187.11 1483.74 1185.75 1483.08 1184.37 1482.38 1183.3 1482.01 1182.5 1482.01L1176.59 1482.01C1162.92 1482.01 1152.99 1482.66 1146.8 1483.94 1140.65 1485.24 1136.73 1487.21 1135.05 1489.87 1133.36 1492.5 1132.53 1496.07 1132.53 1500.6L1132.53 1508.6C1132.53 1515.1 1133.54 1519.76 1135.58 1522.6 1137.66 1525.45 1140.46 1527.23 1144.01 1527.93 1147.54 1528.6 1151.26 1528.93 1155.16 1528.93Z" fill="#FFE266" fill-rule="evenodd" fill-opacity="1"/><path d="M1304.71 1469.58C1320.54 1469.58 1333.6 1470.35 1343.91 1471.85 1354.19 1473.33 1362.19 1475.99 1367.93 1479.82 1373.7 1483.67 1377.76 1488.91 1380.15 1495.55 1382.51 1502.16 1383.7 1510.71 1383.7 1521.18 1383.7 1527.88 1382.4 1534.61 1379.81 1541.33 1377.26 1548.03 1373.17 1554.22 1367.52 1559.87 1361.89 1565.5 1354.31 1570.03 1344.78 1573.46 1335.28 1576.94 1323.7 1578.68 1310.01 1578.68 1299.94 1578.68 1291.89 1577.18 1285.85 1574.2 1279.81 1571.26 1275.28 1568.31 1272.29 1565.36 1269.34 1562.38 1267.36 1560.88 1266.39 1560.88 1265.75 1560.88 1265.35 1561.73 1265.18 1563.42 1265 1565.08 1264.91 1569.37 1264.91 1576.28 1264.91 1580.82 1263.65 1583.53 1261.15 1584.44 1258.68 1585.33 1254.58 1585.78 1248.8 1585.78L1239 1585.78C1237.61 1585.78 1236.75 1585.58 1236.45 1585.18 1236.18 1584.77 1236.05 1583.67 1236.05 1581.9L1236.05 1509.34C1236.05 1507.73 1236.25 1506.73 1236.66 1506.33 1237.06 1505.92 1238.23 1505.73 1240.21 1505.73L1258.33 1505.73C1267.23 1505.73 1273.26 1506.42 1276.45 1507.8 1279.63 1509.19 1281.22 1513.05 1281.22 1519.38 1281.22 1527.28 1283.59 1532.16 1288.33 1534.04 1293.11 1535.91 1299.96 1536.85 1308.87 1536.85 1314.59 1536.85 1319.37 1535.09 1323.23 1531.56 1327.12 1527.99 1329.07 1523.16 1329.07 1517.03 1329.07 1507.93 1326.74 1501.91 1322.09 1498.96 1317.43 1495.99 1309.44 1494.48 1298.13 1494.48 1294.37 1494.48 1289.81 1494.24 1284.44 1493.74 1279.1 1493.26 1273.47 1492.03 1267.53 1490.06 1261.62 1488.1 1256.07 1485.01 1250.88 1480.76 1245.73 1476.47 1241.57 1470.7 1238.4 1463.42 1235.26 1456.11 1233.7 1446.72 1233.7 1435.24 1233.7 1413.29 1238.68 1397.06 1248.67 1386.51 1258.68 1375.93 1273 1370.65 1291.62 1370.65 1303.52 1370.65 1313.27 1372.09 1320.88 1374.93 1328.48 1377.79 1334.32 1381.06 1338.4 1384.7 1342.46 1388.37 1345.33 1391.63 1346.99 1394.48 1348.68 1397.34 1349.54 1398.76 1349.54 1398.76 1349.54 1398.6 1349.29 1397.15 1348.81 1394.48 1348.3 1391.8 1348.06 1387.21 1348.06 1380.69L1348.4 1373.86C1348.4 1371.15 1349.96 1369.78 1353.1 1369.78L1376.32 1369.78C1378.06 1369.78 1379.17 1369.98 1379.67 1370.38 1380.21 1370.75 1380.48 1371.72 1380.48 1373.33L1380.48 1444.14C1380.48 1446.69 1380.31 1448.36 1380.01 1449.17 1379.69 1449.96 1379.04 1450.37 1378.06 1450.37 1378.47 1450.37 1377.36 1450.33 1374.78 1450.23 1372.23 1450.1 1369.15 1449.95 1365.58 1449.77 1362.04 1449.55 1358.73 1449.34 1355.65 1449.17 1352.56 1448.99 1350.51 1448.9 1349.54 1448.9 1342.19 1448.49 1337.06 1448.01 1334.11 1447.42 1331.15 1446.8 1329.35 1445.75 1328.73 1444.28 1328.15 1442.8 1327.76 1440.5 1327.6 1437.32 1327.19 1431.2 1324.66 1427.26 1320.01 1425.47 1315.34 1423.69 1307.48 1422.79 1296.39 1422.79 1287.48 1422.79 1280.78 1424.73 1276.32 1428.62 1271.84 1432.46 1269.61 1436.95 1269.61 1442.07 1269.61 1446.4 1271.03 1450.69 1273.9 1454.92 1276.81 1459.17 1280.88 1462.67 1286.12 1465.43 1291.35 1468.21 1297.54 1469.58 1304.71 1469.58Z" fill="#FFE266" fill-rule="evenodd" fill-opacity="1"/><path d="M1463.24 1469.58C1478.97 1469.58 1491.93 1470.35 1502.16 1471.85 1512.38 1473.33 1520.33 1475.99 1526.03 1479.82 1531.77 1483.67 1535.8 1488.91 1538.16 1495.55 1540.52 1502.16 1541.7 1510.71 1541.7 1521.18 1541.7 1527.88 1540.4 1534.61 1537.83 1541.33 1535.3 1548.03 1531.23 1554.22 1525.63 1559.87 1520.03 1565.5 1512.5 1570.03 1503.03 1573.46 1493.6 1576.94 1482.1 1578.68 1468.5 1578.68 1458.5 1578.68 1450.5 1577.18 1444.5 1574.2 1438.5 1571.26 1434 1568.31 1431.03 1565.36 1428.1 1562.38 1426.13 1560.88 1425.17 1560.88 1424.53 1560.88 1424.14 1561.73 1423.97 1563.42 1423.79 1565.08 1423.7 1569.37 1423.7 1576.28 1423.7 1580.82 1422.45 1583.53 1419.97 1584.44 1417.52 1585.33 1413.44 1585.78 1407.7 1585.78L1397.97 1585.78C1396.59 1585.78 1395.73 1585.58 1395.43 1585.18 1395.17 1584.77 1395.04 1583.67 1395.04 1581.9L1395.04 1509.34C1395.04 1507.73 1395.24 1506.73 1395.64 1506.33 1396.03 1505.92 1397.2 1505.73 1399.17 1505.73L1417.17 1505.73C1426 1505.73 1432 1506.42 1435.17 1507.8 1438.32 1509.19 1439.9 1513.05 1439.9 1519.38 1439.9 1527.28 1442.25 1532.16 1446.97 1534.04 1451.71 1535.91 1458.51 1536.85 1467.37 1536.85 1473.05 1536.85 1477.8 1535.09 1481.63 1531.56 1485.5 1527.99 1487.43 1523.16 1487.43 1517.03 1487.43 1507.93 1485.11 1501.91 1480.5 1498.96 1475.87 1495.99 1467.93 1494.48 1456.7 1494.48 1452.97 1494.48 1448.43 1494.24 1443.1 1493.74 1437.8 1493.26 1432.2 1492.03 1426.3 1490.06 1420.43 1488.1 1414.92 1485.01 1409.77 1480.76 1404.65 1476.47 1400.52 1470.7 1397.37 1463.42 1394.25 1456.11 1392.7 1446.72 1392.7 1435.24 1392.7 1413.29 1397.65 1397.06 1407.57 1386.51 1417.52 1375.93 1431.73 1370.65 1450.23 1370.65 1462.05 1370.65 1471.73 1372.09 1479.3 1374.93 1486.85 1377.79 1492.65 1381.06 1496.7 1384.7 1500.73 1388.37 1503.58 1391.63 1505.23 1394.48 1506.92 1397.34 1507.76 1398.76 1507.76 1398.76 1507.76 1398.6 1507.52 1397.15 1507.03 1394.48 1506.53 1391.8 1506.3 1387.21 1506.3 1380.69L1506.63 1373.86C1506.63 1371.15 1508.18 1369.78 1511.3 1369.78L1534.37 1369.78C1536.1 1369.78 1537.2 1369.98 1537.7 1370.38 1538.23 1370.75 1538.5 1371.72 1538.5 1373.33L1538.5 1444.14C1538.5 1446.69 1538.33 1448.36 1538.03 1449.17 1537.71 1449.96 1537.06 1450.37 1536.1 1450.37 1536.49 1450.37 1535.4 1450.33 1532.83 1450.23 1530.3 1450.1 1527.25 1449.95 1523.7 1449.77 1520.18 1449.55 1516.9 1449.34 1513.83 1449.17 1510.77 1448.99 1508.73 1448.9 1507.76 1448.9 1500.47 1448.49 1495.36 1448.01 1492.43 1447.42 1489.5 1446.8 1487.72 1445.75 1487.1 1444.28 1486.52 1442.8 1486.13 1440.5 1485.96 1437.32 1485.57 1431.2 1483.05 1427.26 1478.44 1425.47 1473.8 1423.69 1465.98 1422.79 1454.96 1422.79 1446.12 1422.79 1439.47 1424.73 1435.04 1428.62 1430.59 1432.46 1428.37 1436.95 1428.37 1442.07 1428.37 1446.4 1429.78 1450.69 1432.63 1454.92 1435.52 1459.17 1439.57 1462.67 1444.77 1465.43 1449.97 1468.21 1456.12 1469.58 1463.24 1469.58Z" fill="#FFE266" fill-rule="evenodd" fill-opacity="1"/><path d="M1600.9 1407.69 1560.37 1407.09C1557.84 1407.09 1556.12 1406.61 1555.23 1405.62 1554.33 1404.66 1553.9 1402.9 1553.9 1400.37L1553.56 1378.29 1553.56 1372.63C1553.56 1370.9 1554 1369.5 1554.9 1368.44 1555.78 1367.34 1557.52 1366.78 1560.11 1366.78L1597.89 1367.64C1599.89 1367.64 1601.51 1367.89 1602.76 1368.37 1604.05 1368.88 1604.7 1370.21 1604.7 1372.37L1604.7 1401.23C1604.7 1403.02 1604.45 1404.54 1603.97 1405.82 1603.46 1407.07 1602.44 1407.69 1600.9 1407.69ZM1597.89 1572.58 1561.58 1573.78 1557.1 1573.78C1555.14 1573.78 1553.92 1573.38 1553.43 1572.58 1552.93 1571.83 1552.7 1569.97 1552.7 1567L1552.7 1565.53C1552.7 1555.16 1552.93 1544.83 1553.43 1534.54 1553.92 1524.2 1554.17 1513.83 1554.17 1503.4 1554.17 1491.26 1554.05 1479.04 1553.83 1466.75 1553.65 1454.48 1553.37 1442.34 1552.96 1430.37 1552.96 1427.84 1553.2 1426.01 1553.7 1424.84 1554.24 1423.65 1555.87 1423.05 1558.64 1423.05L1597.62 1423.05C1600.78 1423.05 1602.73 1423.75 1603.49 1425.11 1604.3 1426.44 1604.7 1428.61 1604.7 1431.57L1604.7 1568.79C1604.7 1570.75 1604.33 1571.83 1603.63 1572.05 1602.96 1572.23 1601.04 1572.4 1597.89 1572.58Z" fill="#FFE266" fill-rule="evenodd" fill-opacity="1"/><path d="M1655.77 1577.78 1628 1577.78C1626.01 1577.78 1624.63 1577.53 1623.84 1577.05 1623.08 1576.55 1622.71 1575.11 1622.71 1572.72 1623.11 1565.5 1623.39 1557.42 1623.57 1548.5 1623.78 1539.55 1623.9 1529.97 1623.9 1519.76 1623.9 1505.22 1623.78 1490.05 1623.57 1474.25 1623.39 1458.41 1623.21 1442.94 1623.04 1427.81 1621.06 1427.41 1619.34 1426.88 1617.88 1426.21 1616.43 1425.51 1615.7 1424.66 1615.7 1423.68L1615.7 1381.9C1615.7 1379.73 1615.93 1378.41 1616.43 1377.91 1616.91 1377.42 1618.11 1377.17 1620.06 1377.17 1626.31 1377.17 1631.86 1377.14 1636.73 1377.04 1641.62 1376.91 1647.19 1376.76 1653.45 1376.57 1659.7 1376.41 1667.66 1376.16 1677.32 1375.84 1686.97 1375.55 1699.68 1375.18 1715.47 1374.78L1716.65 1374.78C1717.61 1374.78 1718.19 1374.98 1718.37 1375.38 1718.59 1375.78 1718.7 1376.77 1718.7 1378.37L1718.7 1426.07C1718.7 1426.26 1718.41 1426.46 1717.84 1426.67 1717.26 1426.86 1715.79 1426.94 1713.42 1426.94 1711.47 1426.94 1709.61 1426.91 1707.86 1426.81 1706.09 1426.73 1703.79 1426.67 1700.98 1426.67 1698.16 1426.67 1694.11 1426.64 1688.82 1426.55 1683.57 1426.41 1676.46 1426.34 1667.47 1426.34 1664.16 1426.34 1661.72 1426.59 1660.13 1427.08 1658.58 1427.57 1657.57 1428.94 1657.09 1431.2 1656.59 1433.46 1656.36 1437.15 1656.36 1442.25L1656.36 1460.21C1656.36 1462.97 1656.56 1464.65 1656.96 1465.27 1657.35 1465.85 1658.23 1466.13 1659.6 1466.13 1667.8 1466.13 1674.31 1466.1 1679.17 1466 1684.06 1465.87 1688.16 1465.8 1691.46 1465.8 1704.72 1465.8 1711.36 1466.8 1711.36 1468.79 1711.36 1468.97 1711.31 1469.26 1711.24 1469.66 1711.13 1470.06 1711.1 1470.45 1711.1 1470.86L1712.29 1497.94C1712.29 1500.51 1712.13 1501.99 1711.83 1502.4 1711.52 1502.76 1710.59 1502.93 1709.05 1502.93L1670.11 1502.66C1667.77 1502.66 1666.24 1502.71 1665.55 1502.79 1664.89 1502.89 1664.2 1502.93 1663.5 1502.93 1662.84 1502.93 1661.34 1503.04 1659 1503.26 1657.45 1503.26 1656.52 1503.46 1656.23 1503.86 1655.91 1504.22 1655.77 1505.77 1655.77 1508.52L1658.14 1573.65C1658.14 1575.2 1658.03 1576.26 1657.82 1576.85 1657.63 1577.46 1656.96 1577.78 1655.77 1577.78Z" fill="#FFE266" fill-rule="evenodd" fill-opacity="1"/><path d="M1815.88 1572.78 1792.74 1572.78C1789.75 1572.78 1787.55 1572.41 1786.17 1571.64 1784.78 1570.84 1784.1 1568.87 1784.1 1565.7 1784.1 1557.81 1784.25 1549.39 1784.57 1540.44 1784.87 1531.45 1785.12 1522 1785.3 1512.11 1771.84 1512.11 1761.19 1510.68 1753.38 1507.83 1745.55 1504.99 1739.8 1500.71 1736.15 1495 1732.52 1489.25 1730.2 1482.07 1729.18 1473.42 1728.18 1464.73 1727.7 1454.57 1727.7 1442.95L1727.7 1371.05C1727.7 1369.45 1727.93 1368.61 1728.44 1368.51 1728.92 1368.43 1730.46 1368.38 1733.06 1368.38L1777.32 1367.78C1778.07 1367.78 1778.46 1367.98 1778.46 1368.38 1778.46 1368.78 1778.57 1369.96 1778.8 1371.92L1776.12 1450.9C1776.12 1454.87 1776.4 1459.17 1776.98 1463.8 1777.56 1468.44 1779.03 1472.39 1781.42 1475.63 1783.83 1478.88 1787.8 1480.5 1793.35 1480.5 1802.02 1480.5 1808.32 1480.1 1812.26 1479.3 1816.23 1478.5 1818.77 1476.68 1819.84 1473.82 1820.95 1470.98 1821.51 1466.38 1821.51 1460.05 1821.51 1457.92 1821.46 1455.63 1821.38 1453.17 1821.28 1450.68 1821.25 1447.96 1821.25 1445.02 1821.25 1444.4 1821.13 1441.4 1820.91 1436 1820.73 1430.57 1820.44 1424.2 1820.04 1416.89 1819.64 1409.59 1819.27 1402.49 1818.97 1395.57 1818.7 1388.67 1818.57 1383.35 1818.57 1379.61 1818.57 1374.49 1819.84 1371.92 1822.39 1371.92 1825.37 1371.75 1828.36 1371.65 1831.3 1371.65 1834.29 1371.65 1837.08 1371.65 1839.62 1371.65 1847.13 1371.65 1852.52 1371.86 1855.78 1372.25 1859.09 1372.62 1861.11 1373.11 1861.89 1373.73 1862.69 1374.31 1863.1 1374.99 1863.1 1375.8L1863.7 1414.22C1863.7 1416.4 1863.5 1417.69 1863.1 1418.09 1862.69 1418.5 1861.59 1418.69 1859.81 1418.69L1853.91 1418.96C1853.27 1433.93 1852.77 1447.01 1852.36 1458.18 1851.99 1469.32 1850.72 1478.63 1848.54 1486.12 1846.34 1493.6 1842.47 1499.38 1836.94 1503.42 1831.39 1507.48 1823.19 1509.89 1812.33 1510.64L1820.65 1567.77C1820.65 1570.14 1820.39 1571.56 1819.91 1572.04 1819.4 1572.55 1818.06 1572.78 1815.88 1572.78Z" fill="#FFE266" fill-rule="evenodd" fill-opacity="1"/><path d="M1938.76 1577.78C1924.78 1577.78 1913.42 1576.14 1904.66 1572.88 1895.89 1569.63 1889.08 1563.83 1884.24 1555.52 1879.44 1547.21 1876.13 1535.51 1874.37 1520.4 1872.58 1505.25 1871.7 1485.71 1871.7 1461.74L1871.7 1381.31C1871.7 1379.53 1871.83 1378.46 1872.1 1378.09 1872.4 1377.69 1873.25 1377.48 1874.63 1377.48L1924.02 1376.55C1924.98 1376.55 1925.51 1376.92 1925.62 1377.62 1925.7 1378.29 1925.75 1380.01 1925.75 1382.78L1922.81 1498.54C1922.63 1502.89 1922.83 1507.83 1923.42 1513.36 1923.98 1518.91 1924.97 1524.2 1926.35 1529.24 1927.72 1534.31 1929.56 1538.5 1931.82 1541.85 1934.09 1545.2 1936.89 1546.88 1940.23 1546.88 1947.92 1546.88 1953.93 1546.54 1958.25 1545.87 1962.6 1545.16 1965.85 1543.17 1967.99 1539.9 1970.16 1536.65 1971.54 1531.46 1972.13 1524.35 1972.75 1517.25 1973.06 1507.36 1973.06 1494.66 1973.06 1493.9 1972.94 1490.67 1972.73 1484.94 1972.54 1479.18 1972.35 1472 1972.13 1463.42 1971.94 1454.81 1971.69 1445.69 1971.39 1436.07 1971.13 1426.47 1970.88 1417.34 1970.66 1408.65 1970.48 1399.94 1970.27 1392.62 1970.06 1386.67 1969.88 1380.74 1969.79 1377.27 1969.79 1376.28 1969.79 1373.11 1969.99 1371.24 1970.39 1370.65 1970.8 1370.08 1971.56 1369.78 1972.73 1369.78L1974.53 1369.78C1979.63 1369.78 1984.71 1369.95 1989.75 1370.25 1994.76 1370.51 1999.52 1370.65 2004.03 1370.65 2006.03 1370.65 2007.31 1370.95 2007.9 1371.52 2008.46 1372.11 2008.76 1373.5 2008.76 1375.67L2009.7 1418.71C2009.7 1422.06 2009.43 1424.06 2008.9 1424.68 2008.39 1425.26 2007.3 1425.65 2005.56 1425.82L2001.09 1426.15 2000.49 1465.56C2000.09 1486.58 1999.16 1503.96 1997.68 1517.72 1996.22 1531.44 1993.95 1542.37 1990.88 1550.49 1987.84 1558.59 1983.96 1564.57 1979.2 1568.46 1974.48 1572.32 1968.76 1574.8 1962.05 1575.97 1955.38 1577.18 1947.61 1577.78 1938.76 1577.78Z" fill="#FFE266" fill-rule="evenodd" fill-opacity="1"/><path d="M2067.82 1407.69 2026.51 1407.09C2023.93 1407.09 2022.18 1406.61 2021.28 1405.62 2020.36 1404.66 2019.92 1402.9 2019.92 1400.37L2019.57 1378.29 2019.57 1372.63C2019.57 1370.9 2020.02 1369.5 2020.94 1368.44 2021.84 1367.34 2023.61 1366.78 2026.25 1366.78L2064.75 1367.64C2066.79 1367.64 2068.45 1367.89 2069.72 1368.37 2071.03 1368.88 2071.69 1370.21 2071.69 1372.37L2071.69 1401.23C2071.69 1403.02 2071.44 1404.54 2070.95 1405.82 2070.44 1407.07 2069.39 1407.69 2067.82 1407.69ZM2064.75 1572.58 2027.74 1573.78 2023.18 1573.78C2021.18 1573.78 2019.93 1573.38 2019.44 1572.58 2018.93 1571.83 2018.69 1569.97 2018.69 1567L2018.69 1565.53C2018.69 1555.16 2018.93 1544.83 2019.44 1534.54 2019.93 1524.2 2020.19 1513.83 2020.19 1503.4 2020.19 1491.26 2020.07 1479.04 2019.85 1466.75 2019.66 1454.48 2019.37 1442.34 2018.96 1430.37 2018.96 1427.84 2019.2 1426.01 2019.71 1424.84 2020.26 1423.65 2021.92 1423.05 2024.75 1423.05L2064.48 1423.05C2067.7 1423.05 2069.69 1423.75 2070.47 1425.11 2071.28 1426.44 2071.69 1428.61 2071.69 1431.57L2071.69 1568.79C2071.69 1570.75 2071.32 1571.83 2070.6 1572.05 2069.92 1572.23 2067.97 1572.4 2064.75 1572.58Z" fill="#FFE266" fill-rule="evenodd" fill-opacity="1"/><path d="M1027.4 1573.95C1006.54 1573.95 991.875 1568.46 983.4 1557.46 974.937 1546.41 970.699 1530.56 970.699 1509.89L970.699 1500.74C970.699 1498.97 970.951 1497.83 971.435 1497.35 971.901 1496.87 972.938 1496.63 974.538 1496.63L995.23 1496.63C998.548 1496.63 1000.84 1496.92 1002.09 1497.5 1003.39 1498.07 1004.04 1500.34 1004.04 1504.27 1004.04 1513.92 1006.5 1520.49 1011.4 1523.94 1016.34 1527.36 1023.67 1529.16 1033.33 1529.34 1044.34 1529.34 1052.35 1526.55 1057.34 1520.99 1062.39 1515.37 1064.91 1509.41 1064.91 1503.12 1064.91 1497.59 1063.28 1492.72 1060.01 1488.49 1056.79 1484.27 1052.64 1482.15 1047.53 1482.15 1040.8 1482.15 1034.09 1482.65 1027.4 1483.67 1020.73 1484.62 1014.52 1485.1 1008.8 1485.1 1001.92 1485.1 995.616 1484.22 989.888 1482.44 984.167 1480.67 979.579 1477.22 976.121 1472.13 972.705 1467 970.902 1459.61 970.699 1450.01 970.699 1428.52 972.552 1411.26 976.255 1398.19 980.009 1385.09 987 1375.58 997.247 1369.73 1007.49 1363.82 1022.38 1360.87 1041.9 1360.87 1062.39 1360.87 1076.88 1366.48 1085.34 1377.73 1093.81 1388.92 1098.04 1404.75 1098.04 1425.23L1098.04 1440.21C1098.04 1442.18 1097.84 1443.43 1097.45 1443.96 1097.07 1444.43 1095.99 1444.58 1094.22 1444.39L1073.51 1443.16C1069.17 1442.78 1066.55 1442.11 1065.65 1441.14 1064.79 1440.14 1064.35 1437.17 1064.35 1432.27 1064.35 1426.76 1063.5 1422.82 1061.81 1420.46 1060.14 1418.11 1057.18 1416.64 1052.95 1416.08 1048.71 1415.44 1042.65 1415.12 1034.76 1415.12L1031.52 1415.12C1025.41 1415.12 1020.24 1415.64 1016.01 1416.64 1011.78 1417.6 1008.58 1420.16 1006.41 1424.27 1004.26 1428.41 1003.07 1435.41 1002.87 1445.24 1002.87 1451.54 1004.76 1455.73 1008.51 1457.8 1012.27 1459.86 1016.99 1460.9 1022.72 1460.9 1027.82 1460.9 1033.51 1460.46 1039.82 1459.59 1046.11 1458.68 1052.22 1458.23 1058.14 1458.23 1065.02 1458.23 1071.51 1459.21 1077.62 1461.18 1083.72 1463.15 1088.66 1466.51 1092.4 1471.27 1096.15 1475.98 1098.04 1482.37 1098.04 1490.44 1098.04 1505.95 1097.09 1519.09 1095.22 1529.86 1093.35 1540.56 1089.88 1549.16 1084.84 1555.65 1079.84 1562.15 1072.69 1566.79 1063.41 1569.63 1054.17 1572.51 1042.17 1573.95 1027.4 1573.95ZM1163.02 1571.3C1150.61 1571.3 1140.65 1570.35 1133.15 1568.48 1125.69 1566.62 1120 1563.13 1116.05 1558.03 1112.11 1552.9 1109.44 1545.66 1108.04 1536.34 1106.7 1526.98 1106.02 1514.82 1106.02 1499.87 1106.02 1488.05 1107.39 1478.81 1110.14 1472.13 1112.88 1465.45 1116.97 1460.6 1122.41 1457.58 1127.83 1454.5 1134.47 1452.53 1142.31 1451.66 1150.19 1450.75 1159.17 1450.3 1169.21 1450.3L1183.72 1450.3C1186.85 1450.3 1189.74 1450.01 1192.37 1449.43 1195.06 1448.81 1196.42 1446.93 1196.42 1443.81 1196.42 1441.03 1196.26 1437.98 1195.98 1434.66 1195.7 1431.3 1194.71 1428.11 1193.02 1425.07 1191.34 1422.01 1188.67 1419.42 1185.02 1417.36 1181.41 1415.29 1176.14 1414.27 1169.21 1414.27 1167.88 1414.27 1164.96 1414.31 1160.48 1414.41 1156.06 1414.51 1151.04 1414.61 1145.42 1414.69 1139.82 1414.79 1134.42 1414.89 1129.18 1414.99 1123.99 1415.09 1119.75 1415.18 1116.48 1415.27 1113.21 1415.37 1111.69 1415.42 1111.94 1415.42 1109.34 1415.42 1107.95 1414.74 1107.75 1413.41 1107.57 1412.01 1107.37 1408.77 1107.17 1403.67L1106.32 1372.32C1106.32 1371.36 1106.27 1370.45 1106.17 1369.58 1106.07 1368.67 1106.02 1367.93 1106.02 1367.35 1106.02 1364.57 1107.39 1363.17 1110.14 1363.17L1168.65 1367.63C1191.29 1369.42 1207.98 1378.81 1218.71 1395.82 1229.44 1412.82 1234.91 1437.86 1235.16 1470.9L1235.73 1554.49C1235.73 1561.75 1235.51 1566.13 1235.08 1567.61 1234.7 1569.09 1233.74 1569.85 1232.19 1569.85L1198.22 1571.3 1197.86 1571.3C1197.67 1571.3 1197.28 1571.15 1196.7 1570.86 1196.13 1570.56 1195.85 1570.01 1195.85 1569.2L1195.85 1548.01C1194.06 1550.36 1192.09 1553.41 1189.92 1557.16 1187.75 1560.86 1184.65 1564.13 1180.61 1566.97 1176.57 1569.85 1170.71 1571.3 1163.02 1571.3ZM1164.83 1521.42C1170.55 1521.42 1175.3 1520.01 1179.11 1517.17 1182.95 1514.29 1186.1 1510.79 1188.55 1506.65 1191.06 1502.52 1192.93 1498.38 1194.18 1494.25 1195.48 1490.12 1196.37 1486.63 1196.85 1483.8 1197.33 1480.92 1197.56 1479.48 1197.56 1479.48 1197.56 1477.52 1196.88 1476.18 1195.48 1475.52 1194.13 1474.85 1193.07 1474.51 1192.31 1474.51L1186.38 1474.51C1172.58 1474.51 1162.59 1475.17 1156.38 1476.45 1150.17 1477.7 1146.23 1479.65 1144.55 1482.3 1142.87 1484.93 1142.03 1488.54 1142.03 1493.1L1142.03 1501.04C1142.03 1507.52 1143.05 1512.2 1145.12 1515.09 1147.18 1517.92 1150 1519.69 1153.56 1520.41 1157.11 1521.09 1160.87 1521.42 1164.83 1521.42ZM1314.33 1462.11C1330.05 1462.11 1343.03 1462.87 1353.28 1464.35 1363.52 1465.8 1371.51 1468.43 1377.22 1472.28 1382.94 1476.12 1387 1481.34 1389.35 1487.92 1391.71 1494.5 1392.89 1503 1392.89 1513.42 1392.89 1520.16 1391.61 1526.86 1389.05 1533.53 1386.52 1540.21 1382.43 1546.36 1376.81 1551.98 1371.16 1557.59 1363.62 1562.11 1354.15 1565.53 1344.71 1568.98 1333.2 1570.72 1319.58 1570.72 1309.59 1570.72 1301.58 1569.23 1295.57 1566.25 1289.55 1563.31 1285.06 1560.38 1282.07 1557.46 1279.15 1554.48 1277.16 1552.98 1276.16 1552.98 1275.58 1552.98 1275.2 1553.83 1275.01 1555.51 1274.81 1557.2 1274.71 1561.46 1274.71 1568.33 1274.71 1572.85 1273.46 1575.55 1270.98 1576.4 1268.52 1577.32 1264.45 1577.78 1258.77 1577.78L1248.96 1577.78C1247.61 1577.78 1246.78 1577.58 1246.45 1577.2 1246.15 1576.81 1246.01 1575.73 1246.01 1573.95L1246.01 1501.6C1246.01 1500.07 1246.19 1499.11 1246.57 1498.72 1247.01 1498.29 1248.21 1498.07 1250.2 1498.07L1268.22 1498.07C1277.08 1498.07 1283.06 1498.77 1286.19 1500.17 1289.36 1501.55 1290.95 1505.41 1290.95 1511.69 1290.95 1519.57 1293.3 1524.46 1298.03 1526.32 1302.78 1528.14 1309.59 1529.06 1318.43 1529.06 1324.16 1529.06 1328.95 1527.31 1332.79 1523.81 1336.64 1520.24 1338.56 1515.42 1338.56 1509.32 1338.56 1500.29 1336.24 1494.3 1331.57 1491.37 1326.94 1488.4 1319.03 1486.9 1307.84 1486.9 1304.08 1486.9 1299.54 1486.67 1294.2 1486.19 1288.91 1485.65 1283.31 1484.4 1277.38 1482.44 1271.47 1480.47 1265.94 1477.37 1260.8 1473.13 1255.71 1468.92 1251.57 1463.17 1248.38 1455.91 1245.26 1448.61 1243.69 1439.24 1243.69 1427.81 1243.69 1406.01 1248.65 1389.84 1258.56 1379.32 1268.52 1368.8 1282.76 1363.53 1301.26 1363.53 1313.09 1363.53 1322.8 1364.95 1330.41 1367.79 1338.01 1370.62 1343.83 1373.87 1347.87 1377.52 1351.91 1381.17 1354.75 1384.44 1356.38 1387.32 1358.07 1390.15 1358.9 1391.57 1358.9 1391.57 1358.9 1391.37 1358.67 1389.95 1358.18 1387.32 1357.7 1384.62 1357.46 1380.03 1357.46 1373.55L1357.75 1366.78C1357.75 1363.98 1359.32 1362.6 1362.44 1362.6L1385.53 1362.6C1387.3 1362.6 1388.43 1362.82 1388.92 1363.25 1389.4 1363.63 1389.64 1364.58 1389.64 1366.13L1389.64 1436.68C1389.64 1439.28 1389.49 1440.96 1389.21 1441.73 1388.92 1442.5 1388.27 1442.88 1387.25 1442.88 1387.69 1442.88 1386.6 1442.83 1384.01 1442.73 1381.46 1442.63 1378.41 1442.5 1374.86 1442.29 1371.33 1442.11 1368.04 1441.91 1364.98 1441.73 1361.93 1441.53 1359.92 1441.43 1358.9 1441.43 1351.64 1441.05 1346.52 1440.56 1343.55 1439.99 1340.61 1439.36 1338.83 1438.32 1338.21 1436.89 1337.62 1435.41 1337.24 1433.08 1337.05 1429.91 1336.66 1423.81 1334.14 1419.86 1329.48 1418.09 1324.86 1416.31 1317.05 1415.42 1306.04 1415.42 1297.17 1415.42 1290.51 1417.34 1286.04 1421.19 1281.62 1425.03 1279.4 1429.53 1279.4 1434.66 1279.4 1438.98 1280.82 1443.26 1283.66 1447.48 1286.54 1451.71 1290.58 1455.21 1295.79 1458.02 1301.03 1460.74 1307.2 1462.11 1314.33 1462.11ZM1472.98 1462.11C1488.71 1462.11 1501.7 1462.87 1511.94 1464.35 1522.19 1465.8 1530.16 1468.43 1535.89 1472.28 1541.61 1476.12 1545.65 1481.34 1548 1487.92 1550.37 1494.5 1551.54 1503 1551.54 1513.42 1551.54 1520.16 1550.27 1526.86 1547.72 1533.53 1545.16 1540.21 1541.07 1546.36 1535.45 1551.98 1529.83 1557.59 1522.27 1562.11 1512.81 1565.53 1503.38 1568.98 1491.87 1570.72 1478.25 1570.72 1468.24 1570.72 1460.24 1569.23 1454.22 1566.25 1448.21 1563.31 1443.73 1560.38 1440.73 1557.46 1437.8 1554.48 1435.83 1552.98 1434.81 1552.98 1434.24 1552.98 1433.86 1553.83 1433.66 1555.51 1433.48 1557.2 1433.37 1561.46 1433.37 1568.33 1433.37 1572.85 1432.12 1575.55 1429.62 1576.4 1427.17 1577.32 1423.11 1577.78 1417.44 1577.78L1407.63 1577.78C1406.27 1577.78 1405.43 1577.58 1405.09 1577.2 1404.81 1576.81 1404.65 1575.73 1404.65 1573.95L1404.65 1501.6C1404.65 1500.07 1404.86 1499.11 1405.24 1498.72 1405.67 1498.29 1406.87 1498.07 1408.84 1498.07L1426.88 1498.07C1435.73 1498.07 1441.72 1498.77 1444.84 1500.17 1448.03 1501.55 1449.61 1505.41 1449.61 1511.69 1449.61 1519.57 1451.97 1524.46 1456.67 1526.32 1461.44 1528.14 1468.24 1529.06 1477.1 1529.06 1482.82 1529.06 1487.59 1527.31 1491.45 1523.81 1495.3 1520.24 1497.22 1515.42 1497.22 1509.32 1497.22 1500.29 1494.88 1494.3 1490.23 1491.37 1485.61 1488.4 1477.7 1486.9 1466.48 1486.9 1462.73 1486.9 1458.19 1486.67 1452.85 1486.19 1447.56 1485.65 1441.95 1484.4 1436.05 1482.44 1430.12 1480.47 1424.6 1477.37 1419.46 1473.13 1414.35 1468.92 1410.22 1463.17 1407.04 1455.91 1403.92 1448.61 1402.35 1439.24 1402.35 1427.81 1402.35 1406.01 1407.31 1389.84 1417.22 1379.32 1427.17 1368.8 1441.4 1363.53 1459.93 1363.53 1471.76 1363.53 1481.47 1364.95 1489.06 1367.79 1496.67 1370.62 1502.48 1373.87 1506.54 1377.52 1510.57 1381.17 1513.41 1384.44 1515.05 1387.32 1516.73 1390.15 1517.56 1391.57 1517.56 1391.57 1517.56 1391.37 1517.33 1389.95 1516.84 1387.32 1516.36 1384.62 1516.13 1380.03 1516.13 1373.55L1516.41 1366.78C1516.41 1363.98 1517.98 1362.6 1521.1 1362.6L1544.18 1362.6C1545.97 1362.6 1547.1 1362.82 1547.57 1363.25 1548.05 1363.63 1548.3 1364.58 1548.3 1366.13L1548.3 1436.68C1548.3 1439.28 1548.15 1440.96 1547.87 1441.73 1547.57 1442.5 1546.94 1442.88 1545.92 1442.88 1546.35 1442.88 1545.26 1442.83 1542.66 1442.73 1540.12 1442.63 1537.07 1442.5 1533.5 1442.29 1530 1442.11 1526.71 1441.91 1523.62 1441.73 1520.6 1441.53 1518.58 1441.43 1517.56 1441.43 1510.31 1441.05 1505.18 1440.56 1502.19 1439.99 1499.26 1439.36 1497.49 1438.32 1496.86 1436.89 1496.29 1435.41 1495.9 1433.08 1495.7 1429.91 1495.32 1423.81 1492.8 1419.86 1488.12 1418.09 1483.52 1416.31 1475.69 1415.42 1464.68 1415.42 1455.84 1415.42 1449.18 1417.34 1444.71 1421.19 1440.28 1425.03 1438.06 1429.53 1438.06 1434.66 1438.06 1438.98 1439.48 1443.26 1442.32 1447.48 1445.21 1451.71 1449.24 1455.21 1454.43 1458.02 1459.68 1460.74 1465.86 1462.11 1472.98 1462.11ZM1610.07 1399.79 1569.6 1399.2C1566.99 1399.2 1565.24 1398.72 1564.32 1397.77 1563.47 1396.76 1563.03 1394.97 1563.03 1392.44L1562.73 1370.3 1562.73 1364.68C1562.73 1362.92 1563.17 1361.5 1564.04 1360.43 1564.95 1359.33 1566.69 1358.78 1569.23 1358.78L1607.11 1359.65C1609.08 1359.65 1610.7 1359.9 1611.95 1360.43 1613.25 1360.92 1613.89 1362.23 1613.89 1364.4L1613.89 1393.29C1613.89 1395.07 1613.63 1396.6 1613.1 1397.91 1612.62 1399.15 1611.62 1399.79 1610.07 1399.79ZM1607.11 1565.1 1570.75 1566.25 1566.27 1566.25C1564.3 1566.25 1563.09 1565.86 1562.61 1565.1 1562.12 1564.33 1561.89 1562.44 1561.89 1559.48L1561.89 1558.03C1561.89 1547.61 1562.12 1537.22 1562.61 1526.91 1563.09 1516.57 1563.32 1506.19 1563.32 1495.77 1563.32 1483.57 1563.22 1471.31 1563.03 1459.01 1562.84 1446.71 1562.56 1434.56 1562.17 1422.56 1562.17 1419.96 1562.4 1418.09 1562.89 1416.93 1563.42 1415.72 1565.06 1415.12 1567.79 1415.12L1606.83 1415.12C1609.95 1415.12 1611.9 1415.82 1612.67 1417.23 1613.48 1418.61 1613.89 1420.77 1613.89 1423.71L1613.89 1561.28C1613.89 1563.25 1613.54 1564.33 1612.82 1564.51 1612.13 1564.71 1610.23 1564.9 1607.11 1565.1ZM1665.31 1570.13 1637.25 1570.13C1635.28 1570.13 1633.89 1569.88 1633.08 1569.35 1632.29 1568.86 1631.9 1567.45 1631.9 1565.1 1632.29 1557.84 1632.59 1549.75 1632.77 1540.81 1632.98 1531.83 1633.08 1522.22 1633.08 1511.99 1633.08 1497.42 1632.98 1482.22 1632.77 1466.37 1632.59 1450.51 1632.39 1435.03 1632.2 1419.89 1630.24 1419.51 1628.5 1418.97 1627 1418.31 1625.56 1417.57 1624.85 1416.74 1624.85 1415.78L1624.85 1373.84C1624.85 1371.68 1625.08 1370.35 1625.56 1369.87 1626.05 1369.35 1627.27 1369.08 1629.24 1369.08 1635.55 1369.08 1641.15 1369.03 1646.06 1368.94 1651.01 1368.85 1656.64 1368.7 1662.93 1368.5 1669.24 1368.32 1677.25 1368.07 1686.96 1367.79 1696.72 1367.5 1709.59 1367.17 1725.55 1366.78L1726.78 1366.78C1727.74 1366.78 1728.31 1366.97 1728.51 1367.35 1728.71 1367.73 1728.79 1368.72 1728.79 1370.3L1728.79 1418.09C1728.79 1418.27 1728.51 1418.49 1727.93 1418.74 1727.36 1418.93 1725.89 1419.02 1723.54 1419.02 1721.57 1419.02 1719.68 1418.97 1717.91 1418.88 1716.13 1418.74 1713.79 1418.66 1710.9 1418.66 1708.07 1418.66 1703.98 1418.61 1698.64 1418.52 1693.35 1418.42 1686.19 1418.38 1677.14 1418.38 1673.78 1418.38 1671.31 1418.64 1669.72 1419.16 1668.14 1419.64 1667.1 1421.01 1666.61 1423.28 1666.13 1425.53 1665.9 1429.23 1665.9 1434.38L1665.9 1452.31C1665.9 1455.1 1666.08 1456.78 1666.47 1457.36 1666.85 1457.93 1667.75 1458.23 1669.13 1458.23 1677.41 1458.23 1684.01 1458.18 1688.91 1458.08 1693.85 1457.98 1697.99 1457.93 1701.31 1457.93 1714.72 1457.93 1721.43 1458.92 1721.43 1460.9 1721.43 1461.08 1721.38 1461.4 1721.3 1461.83 1721.2 1462.21 1721.15 1462.6 1721.15 1462.98L1722.3 1490.15C1722.3 1492.68 1722.17 1494.15 1721.87 1494.54 1721.59 1494.93 1720.65 1495.12 1719.07 1495.12L1679.75 1494.84C1677.38 1494.84 1675.88 1494.89 1675.19 1494.97 1674.53 1495.07 1673.83 1495.12 1673.11 1495.12 1672.44 1495.12 1670.92 1495.22 1668.57 1495.41 1666.97 1495.41 1666.03 1495.62 1665.75 1496.05 1665.47 1496.44 1665.31 1498 1665.31 1500.74L1667.62 1565.96C1667.62 1567.55 1667.53 1568.63 1667.33 1569.2 1667.14 1569.83 1666.47 1570.13 1665.31 1570.13ZM1825.13 1564.79 1802.12 1564.79C1799.13 1564.79 1796.94 1564.41 1795.55 1563.64 1794.21 1562.83 1793.52 1560.86 1793.52 1557.75 1793.52 1549.86 1793.68 1541.46 1793.96 1532.52 1794.26 1523.54 1794.49 1514.12 1794.68 1504.27 1781.31 1504.27 1770.73 1502.86 1762.94 1500.02 1755.14 1497.19 1749.42 1492.9 1745.77 1487.18 1742.16 1481.48 1739.86 1474.3 1738.84 1465.65 1737.89 1456.99 1737.4 1446.86 1737.4 1435.24L1737.4 1363.53C1737.4 1361.95 1737.64 1361.12 1738.12 1361.01 1738.6 1360.92 1740.13 1360.87 1742.68 1360.87L1786.75 1360.21C1787.52 1360.21 1787.9 1360.43 1787.9 1360.87 1787.9 1361.25 1788 1362.43 1788.19 1364.4L1785.51 1443.16C1785.51 1447.1 1785.81 1451.4 1786.38 1456.06 1787.02 1460.68 1788.5 1464.62 1790.85 1467.88 1793.22 1471.1 1797.17 1472.72 1802.68 1472.72 1811.35 1472.72 1817.65 1472.32 1821.59 1471.55 1825.53 1470.73 1828.04 1468.92 1829.1 1466.08 1830.2 1463.2 1830.75 1458.62 1830.75 1452.31 1830.75 1450.14 1830.7 1447.84 1830.61 1445.4 1830.52 1442.94 1830.47 1440.26 1830.47 1437.33 1830.47 1436.69 1830.37 1433.69 1830.17 1428.33 1829.99 1422.89 1829.67 1416.54 1829.24 1409.29 1828.85 1401.99 1828.52 1394.9 1828.23 1388.03 1827.93 1381.12 1827.8 1375.79 1827.8 1372.03 1827.8 1366.95 1829.07 1364.4 1831.62 1364.4 1834.61 1364.2 1837.56 1364.11 1840.5 1364.11 1843.47 1364.11 1846.24 1364.11 1848.8 1364.11 1856.25 1364.11 1861.61 1364.3 1864.88 1364.68 1868.15 1365.06 1870.17 1365.58 1870.94 1366.2 1871.71 1366.78 1872.09 1367.45 1872.09 1368.21L1872.74 1406.62C1872.74 1408.79 1872.52 1410.06 1872.09 1410.44 1871.71 1410.82 1870.62 1411.02 1868.85 1411.02L1862.93 1411.3C1862.36 1426.26 1861.88 1439.3 1861.5 1450.45 1861.11 1461.53 1859.82 1470.83 1857.67 1478.33 1855.5 1485.82 1851.65 1491.59 1846.12 1495.62 1840.58 1499.62 1832.41 1502.02 1821.59 1502.84L1829.89 1559.77C1829.89 1562.16 1829.62 1563.59 1829.1 1564.08 1828.62 1564.56 1827.28 1564.79 1825.13 1564.79ZM1948.37 1569.57C1934.37 1569.57 1922.97 1567.93 1914.17 1564.67 1905.41 1561.4 1898.64 1555.63 1893.83 1547.36 1889.01 1539.11 1885.73 1527.46 1883.94 1512.42 1882.17 1497.37 1881.27 1477.95 1881.27 1454.11L1881.27 1374.14C1881.27 1372.35 1881.41 1371.27 1881.7 1370.88 1882 1370.5 1882.84 1370.3 1884.24 1370.3L1933.58 1369.36C1934.54 1369.36 1935.07 1369.73 1935.17 1370.45 1935.27 1371.12 1935.3 1372.83 1935.3 1375.57L1932.35 1490.72C1932.16 1495.05 1932.35 1499.97 1932.93 1505.5 1933.55 1510.97 1934.54 1516.24 1935.88 1521.28 1937.29 1526.27 1939.1 1530.46 1941.37 1533.83 1943.63 1537.17 1946.45 1538.86 1949.81 1538.86 1957.51 1538.86 1963.52 1538.53 1967.84 1537.86 1972.18 1537.13 1975.42 1535.16 1977.59 1531.94 1979.74 1528.68 1981.12 1523.51 1981.69 1516.45 1982.33 1509.34 1982.63 1499.49 1982.63 1486.9 1982.63 1486.08 1982.54 1482.85 1982.34 1477.18 1982.16 1471.47 1981.94 1464.33 1981.69 1455.78 1981.51 1447.18 1981.26 1438.11 1980.98 1428.61 1980.69 1419.04 1980.44 1409.94 1980.26 1401.29 1980.06 1392.65 1979.87 1385.37 1979.67 1379.45 1979.49 1373.55 1979.39 1370.09 1979.39 1369.08 1979.39 1365.97 1979.57 1364.11 1979.96 1363.53 1980.34 1362.92 1981.14 1362.6 1982.34 1362.6L1984.08 1362.6C1989.22 1362.6 1994.29 1362.76 1999.3 1363.1 2004.35 1363.38 2009.13 1363.53 2013.65 1363.53 2015.62 1363.53 2016.9 1363.82 2017.47 1364.4 2018.06 1364.98 2018.34 1366.35 2018.34 1368.5L2019.29 1411.3C2019.29 1414.67 2019.02 1416.64 2018.49 1417.23 2018.01 1417.79 2016.87 1418.17 2015.1 1418.38L2010.7 1418.66 2010.11 1457.93C2009.7 1478.78 2008.73 1496.05 2007.24 1509.76 2005.79 1523.44 2003.54 1534.32 2000.45 1542.39 1997.43 1550.46 1993.52 1556.43 1988.77 1560.26 1984.04 1564.07 1978.35 1566.56 1971.66 1567.77 1964.99 1568.97 1957.21 1569.57 1948.37 1569.57ZM2076.88 1399.79 2036.41 1399.2C2033.81 1399.2 2032.06 1398.72 2031.14 1397.77 2030.28 1396.76 2029.85 1394.97 2029.85 1392.44L2029.55 1370.3 2029.55 1364.68C2029.55 1362.92 2029.98 1361.5 2030.85 1360.43 2031.77 1359.33 2033.51 1358.78 2036.04 1358.78L2073.92 1359.65C2075.89 1359.65 2077.51 1359.9 2078.76 1360.43 2080.05 1360.92 2080.7 1362.23 2080.7 1364.4L2080.7 1393.29C2080.7 1395.07 2080.45 1396.6 2079.91 1397.91 2079.43 1399.15 2078.41 1399.79 2076.88 1399.79ZM2073.92 1565.1 2037.56 1566.25 2033.09 1566.25C2031.12 1566.25 2029.88 1565.86 2029.42 1565.1 2028.93 1564.33 2028.68 1562.44 2028.68 1559.48L2028.68 1558.03C2028.68 1547.61 2028.93 1537.22 2029.42 1526.91 2029.88 1516.57 2030.14 1506.19 2030.14 1495.77 2030.14 1483.57 2030.04 1471.31 2029.85 1459.01 2029.65 1446.71 2029.37 1434.56 2028.98 1422.56 2028.98 1419.96 2029.22 1418.09 2029.7 1416.93 2030.23 1415.72 2031.87 1415.12 2034.61 1415.12L2073.64 1415.12C2076.76 1415.12 2078.71 1415.82 2079.48 1417.23 2080.3 1418.61 2080.7 1420.77 2080.7 1423.71L2080.7 1561.28C2080.7 1563.25 2080.35 1564.33 2079.63 1564.51 2078.95 1564.71 2077.04 1564.9 2073.92 1565.1Z" stroke="#433DC3" stroke-width="4.34262" stroke-linecap="butt" stroke-linejoin="miter" stroke-miterlimit="8" stroke-opacity="1" fill="none" fill-rule="evenodd"/><path d="M900.664 1271.29C900.942 1271.53 905.309 1270.47 905.644 1270.33 909.195 1268.96 912.651 1267.19 915.764 1264.98 920.671 1261.5 924.695 1256.64 926.503 1250.85 926.883 1249.66 927.276 1244.04 928.887 1243.75 930.039 1243.53 931.089 1248.28 931.308 1248.88 933.174 1254.07 935.296 1258.97 938.927 1263.19 942.441 1267.29 947.304 1270.27 952.328 1272.16 953.137 1272.46 957.686 1273.14 957.825 1274.23 957.883 1274.61 953.975 1275.84 953.618 1276.02 949.608 1277.87 945.416 1279.69 942.164 1282.73 937.855 1286.73 934.122 1291.79 931.76 1297.18 931.228 1298.37 930.236 1303.57 928.924 1304.02 928.289 1304.24 927.356 1301.22 927.218 1300.86 925.847 1297.36 924.819 1293.77 923.091 1290.43 918.943 1282.37 910.784 1273.68 901.196 1272.68 900.92 1272.66 900.701 1271.55 900.664 1271.29ZM900.664 1271.29C900.643 1271.27 900.643 1271.25 900.643 1271.23 900.643 1271.23 900.643 1271.25 900.664 1271.29ZM997.32 1282.73C1001.05 1301.3 1011.27 1321.93 1030.11 1328.7 1041.26 1332.7 1053.72 1333.08 1065.44 1333.93 1070.3 1334.29 1075.22 1334.49 1080.06 1335.07 1080.46 1335.11 1083.99 1335.35 1083.61 1336.36 1083.08 1337.81 1079.31 1338.55 1078.1 1338.93 1072.23 1340.68 1066.19 1341.95 1060.23 1343.49 1041.95 1348.2 1019.85 1351.62 1006.63 1366.37 996.328 1377.85 993.309 1394.65 991.407 1409.43 990.889 1413.42 990.473 1417.4 989.401 1421.26 989.205 1421.94 988.629 1424.74 987.572 1424.74 986.026 1424.74 985.61 1420.7 985.472 1419.76 984.736 1414.53 984.48 1409.2 983.984 1403.95 982.672 1389.99 979.26 1375.71 969.177 1365.36 959.786 1355.7 936.703 1351.73 923.762 1349.2 918.585 1348.2 903.143 1346.01 903.442 1344.82 903.756 1343.6 917.492 1340.84 922.275 1339.7 937.542 1336.08 960.544 1327.82 970.329 1315.35 977.488 1306.17 982.118 1295.65 985.056 1284.44 985.968 1280.98 988.862 1268.32 990.911 1268.02 992.952 1267.75 996.226 1277.28 997.32 1282.73Z" fill="#FFE266" fill-rule="evenodd" fill-opacity="1"/><path d="M986.007 1245.92C986.007 1245.48 986.007 1245.26 986.007 1245.26 986.007 1244.51 986.388 1243.81 987.024 1243.44 987.668 1243.06 988.444 1243.06 989.08 1243.42L989.08 1243.44C989.322 1243.56 990.2 1244.29 990.317 1245.96 990.383 1246.89 990.383 1248.57 990.361 1250.76 990.72 1259.47 991.978 1277.04 996.31 1292.67 999.42 1304 1004.09 1314.36 1011.35 1319.3 1015.31 1321.97 1020.48 1324.18 1025.98 1325.94 1034.17 1328.6 1043.1 1330.33 1050.05 1331.24 1056.76 1332.15 1073.5 1332.85 1083.92 1333.68 1088.23 1334.02 1091.52 1334.39 1092.7 1334.79 1093.52 1335.07 1093.62 1335.71 1093.64 1336.02 1093.66 1336.3 1093.66 1337.03 1092.74 1337.37 1092.7 1337.39 1092.6 1337.43 1092.4 1337.45 1092.36 1337.45 1092.24 1337.47 1092.08 1337.47 1091.62 1337.51 1090.64 1337.57 1089.35 1337.67 1082.8 1338.08 1067.46 1339.08 1062.41 1340.01 1051.09 1342.07 1038.14 1343.88 1026.28 1347.61 1018.32 1350.12 1010.86 1353.54 1004.77 1358.5 997.744 1364.25 993.112 1374.45 990.083 1385.44 985.627 1401.55 984.595 1419.32 984.331 1427.49 984.273 1429.65 984.251 1431.14 984.251 1431.76 984.214 1434.44 983.373 1435.09 982.656 1434.58 982.136 1434.5 981.675 1433.84 981.639 1432.32 981.617 1432.21 981.617 1432.1 981.595 1432 981.536 1430.85 980.958 1420.37 980.241 1410.73 979.824 1405.06 979.363 1399.66 978.946 1396.7 978.083 1390.71 977.205 1384.53 975.434 1378.67 974.292 1374.89 972.756 1371.25 970.604 1367.88 965.995 1360.62 959.043 1356.11 951.221 1353.24 939.148 1348.82 924.923 1348.26 912.967 1348.42 911.006 1348.44 907.793 1348.46 904.281 1348.54 898.735 1348.99 893.503 1349.37 890.035 1349.59 888.176 1349.69 886.822 1349.75 886.186 1349.77 882.293 1349.81 883.888 1345.21 884.408 1344.91 885.081 1344.49 887.561 1343.99 890.949 1343.76 895.244 1343.48 901.23 1343.32 906.162 1343.24 914.299 1342.56 922.647 1341.73 926.599 1340.94 941.043 1338.08 954.06 1332.25 964.055 1323.4 974.051 1314.58 981.061 1302.73 983.512 1287.87 984.573 1281.41 985.949 1259.92 986.168 1250.14 986.088 1248.44 986.051 1247.11 986.029 1246.27 986.131 1246.39 986.271 1246.51 986.432 1246.61 986.432 1246.15 986.366 1245.86 986.131 1245.9 986.088 1245.9 986.051 1245.9 986.007 1245.92ZM986.029 1246.27C985.868 1246.12 985.832 1245.98 986.007 1245.92 986.007 1246.02 986.029 1246.15 986.029 1246.27ZM983.453 1408.55C984.412 1401.13 985.846 1392.81 988.063 1384.88 991.276 1373.46 996.09 1362.84 1003.39 1356.85 1009.66 1351.67 1017.36 1348.1 1025.59 1345.45 1037.5 1341.62 1050.53 1339.69 1061.92 1337.53 1064.62 1337.01 1070.23 1336.46 1075.9 1335.98 1066.2 1335.44 1054.88 1334.95 1049.65 1334.3 1042.55 1333.4 1033.36 1331.71 1024.96 1329.08 1019.1 1327.23 1013.61 1324.93 1009.4 1322.13 1001.51 1316.87 996.163 1305.86 992.673 1293.67 991.137 1288.31 989.958 1282.72 989.044 1277.32 988.7 1282.16 988.327 1286.29 987.946 1288.59 985.429 1304.58 977.966 1317.36 967.268 1326.94 958.385 1334.89 947.248 1340.62 934.816 1344.12 941.087 1344.89 947.328 1346.18 953.08 1348.36 961.919 1351.69 969.602 1357.07 974.673 1365.4 976.948 1369.19 978.522 1373.27 979.663 1377.48 981.302 1383.59 981.997 1390.02 982.678 1396.23 982.978 1398.91 983.234 1403.51 983.453 1408.55ZM925.26 1240.14C925.26 1240.1 925.238 1240.06 925.238 1240.03 925.238 1240.01 925.238 1239.98 925.238 1239.97 925.157 1238.83 926.013 1237.84 927.133 1237.74 928.274 1237.66 929.27 1238.5 929.386 1239.63 929.386 1239.65 929.386 1239.67 929.386 1239.69L929.408 1239.69C929.767 1245.94 930.206 1253.44 933.045 1259.35 934.838 1263.08 937.589 1266.15 942.002 1267.76 943.816 1268.43 945.616 1268.95 947.431 1269.36 950.226 1270 953.036 1270.44 955.992 1270.85 958.743 1271.23 965.636 1272 968.563 1272.48 969.287 1272.6 969.821 1272.72 970.041 1272.8 971.483 1273.31 971.102 1274.52 970.824 1274.92 970.524 1275.36 969.324 1275.91 967.568 1276.01 964.714 1276.19 960.002 1275.91 958.107 1275.95 954.397 1276.03 950.526 1275.93 946.75 1276.37 944.299 1276.65 941.906 1277.16 939.609 1278.07 935.797 1279.62 933.301 1282.42 931.684 1285.77 930.448 1288.31 929.687 1291.19 929.27 1294.12 928.911 1296.66 928.809 1299.22 928.794 1301.64 929.109 1305.61 929.211 1309.5 929.408 1312.99 929.43 1313.28 929.452 1313.5 929.452 1313.63 929.672 1317.47 926.357 1315.67 926.094 1313.9 925.355 1308.94 924.681 1303.13 923.46 1297.5 922.721 1293.98 921.726 1290.53 920.291 1287.44 917.994 1282.54 914.481 1278.51 908.496 1276.82 907.135 1276.45 905.737 1276.17 904.325 1275.97 900.754 1275.48 897.081 1275.38 893.605 1274.9 892.332 1274.74 891.871 1273.95 891.71 1273.65 891.308 1272.96 891.235 1272.22 891.527 1271.45 891.63 1271.21 891.93 1270.32 893.188 1269.94 893.247 1269.92 893.43 1269.88 893.708 1269.84 894.008 1269.78 894.644 1269.7 895.544 1269.58 899.657 1269.05 909.396 1267.84 912.367 1266.49 915.323 1265.12 917.496 1263.1 919.172 1260.7 921.886 1256.79 923.306 1251.95 924.36 1247.23 924.638 1246 924.96 1244.35 925.135 1242.78 925.238 1241.83 925.296 1240.92 925.26 1240.14ZM927.433 1292.48C927.952 1289.82 928.67 1287.22 929.789 1284.88 931.626 1281.05 934.421 1277.86 938.767 1276.07 941.226 1275.04 943.816 1274.44 946.45 1274.11 948.909 1273.79 951.382 1273.67 953.841 1273.59 951.426 1273.29 949.07 1272.96 946.736 1272.48 944.775 1272.08 942.843 1271.57 940.867 1270.91 935.474 1269.07 932.006 1265.44 929.731 1260.95 928.611 1258.77 927.791 1256.39 927.177 1253.91 926.196 1257.24 924.901 1260.46 923.021 1263.26 920.95 1266.37 918.177 1268.99 914.445 1270.79 913.603 1271.19 912.264 1271.61 910.647 1272 917.891 1274.27 922.406 1279.17 925.12 1285.3 926.116 1287.56 926.877 1289.98 927.433 1292.48Z" fill="#433DC3" fill-rule="evenodd" fill-opacity="1"/><path d="M1898.69 1629.78 1906.44 1629.78C1908.87 1629.78 1910.69 1630.41 1911.9 1631.65 1913.09 1632.9 1913.69 1634.75 1913.69 1637.18L1913.69 1652.38C1913.69 1654.78 1913.09 1656.63 1911.9 1657.91 1910.69 1659.16 1908.87 1659.78 1906.44 1659.78L1898.69 1659.78ZM1903.54 1634.05 1903.54 1655.51 1906.3 1655.51C1907.07 1655.51 1907.68 1655.3 1908.09 1654.85 1908.54 1654.41 1908.79 1653.65 1908.79 1652.58L1908.79 1636.98C1908.79 1635.88 1908.54 1635.11 1908.09 1634.72 1907.68 1634.28 1907.07 1634.05 1906.3 1634.05Z" fill="#433DC3" fill-rule="evenodd" fill-opacity="1"/><path d="M1929.41 1642.45 1936.01 1642.45 1936.01 1646.72 1929.41 1646.72 1929.41 1655.51 1937.7 1655.51 1937.7 1659.78 1924.7 1659.78 1924.7 1629.78 1937.7 1629.78 1937.7 1634.05 1929.41 1634.05Z" fill="#433DC3" fill-rule="evenodd" fill-opacity="1"/><path d="M1955.9 1654.25 1959.44 1629.78 1963.7 1629.78 1959.18 1659.78 1952.29 1659.78 1947.7 1629.78 1952.36 1629.78Z" fill="#433DC3" fill-rule="evenodd" fill-opacity="1"/><path d="M1974.84 1637.39C1974.84 1634.93 1975.4 1633.05 1976.56 1631.73 1977.7 1630.43 1979.43 1629.78 1981.73 1629.78 1984.03 1629.78 1985.75 1630.43 1986.91 1631.73 1988.06 1633.05 1988.64 1634.93 1988.64 1637.39L1988.64 1638.33 1984.19 1638.33 1984.19 1637.06C1984.19 1635.98 1983.99 1635.22 1983.59 1634.76 1983.19 1634.32 1982.61 1634.09 1981.87 1634.09 1981.1 1634.09 1980.51 1634.32 1980.08 1634.76 1979.68 1635.22 1979.48 1635.98 1979.48 1637.06 1979.48 1638.14 1979.69 1639.08 1980.14 1639.88 1980.62 1640.66 1981.2 1641.4 1981.87 1642.11 1982.57 1642.79 1983.3 1643.49 1984.06 1644.2 1984.85 1644.92 1985.59 1645.71 1986.25 1646.56 1986.94 1647.37 1987.53 1648.31 1987.97 1649.39 1988.45 1650.47 1988.7 1651.73 1988.7 1653.16 1988.7 1655.64 1988.11 1657.52 1986.91 1658.83 1985.72 1660.13 1983.96 1660.78 1981.67 1660.78 1979.36 1660.78 1977.62 1660.13 1976.42 1658.83 1975.27 1657.52 1974.7 1655.64 1974.7 1653.16L1974.7 1651.27 1979.15 1651.27 1979.15 1653.43C1979.15 1654.56 1979.36 1655.35 1979.81 1655.79 1980.24 1656.2 1980.83 1656.39 1981.54 1656.39 1982.28 1656.39 1982.88 1656.2 1983.33 1655.79 1983.76 1655.35 1983.99 1654.56 1983.99 1653.43 1983.99 1652.4 1983.74 1651.51 1983.26 1650.73 1982.82 1649.93 1982.27 1649.17 1981.6 1648.45 1980.94 1647.73 1980.21 1647.03 1979.41 1646.36 1978.62 1645.65 1977.85 1644.87 1977.15 1644.06 1976.49 1643.22 1975.93 1642.25 1975.5 1641.17 1975.05 1640.09 1974.84 1638.84 1974.84 1637.39Z" fill="#433DC3" fill-rule="evenodd" fill-opacity="1"/><path d="M2006.67 1629.78C2009.03 1629.78 2010.79 1630.41 2011.95 1631.65 2013.11 1632.9 2013.7 1634.75 2013.7 1637.18L2013.7 1641.11C2013.7 1643.51 2013.11 1645.36 2011.95 1646.65 2010.79 1647.9 2009.03 1648.52 2006.67 1648.52L2004.39 1648.52 2004.39 1659.78 1999.7 1659.78 1999.7 1629.78ZM2004.39 1634.05 2004.39 1644.25 2006.67 1644.25C2007.42 1644.25 2008 1644.05 2008.41 1643.65 2008.81 1643.24 2009.01 1642.5 2009.01 1641.38L2009.01 1636.91C2009.01 1635.81 2008.81 1635.05 2008.41 1634.65 2008 1634.24 2007.42 1634.05 2006.67 1634.05Z" fill="#433DC3" fill-rule="evenodd" fill-opacity="1"/><path d="M2028.34 1653.43C2028.34 1654.56 2028.55 1655.35 2028.99 1655.79 2029.41 1656.25 2029.98 1656.46 2030.68 1656.46 2031.41 1656.46 2032 1656.25 2032.44 1655.79 2032.86 1655.35 2033.09 1654.56 2033.09 1653.43L2033.09 1637.06C2033.09 1635.98 2032.86 1635.22 2032.44 1634.76 2032 1634.32 2031.41 1634.09 2030.68 1634.09 2029.98 1634.09 2029.41 1634.32 2028.99 1634.76 2028.55 1635.22 2028.34 1635.98 2028.34 1637.06ZM2023.71 1637.39C2023.71 1634.93 2024.3 1633.05 2025.47 1631.73 2026.68 1630.43 2028.42 1629.78 2030.68 1629.78 2032.93 1629.78 2034.67 1630.43 2035.89 1631.73 2037.1 1633.05 2037.71 1634.93 2037.71 1637.39L2037.71 1653.16C2037.71 1655.64 2037.1 1657.52 2035.89 1658.83 2034.67 1660.13 2032.93 1660.78 2030.68 1660.78 2028.42 1660.78 2026.68 1660.13 2025.47 1658.83 2024.3 1657.52 2023.71 1655.64 2023.71 1653.16Z" fill="#433DC3" fill-rule="evenodd" fill-opacity="1"/><path d="M2047.69 1629.78 2062.69 1629.78 2062.69 1634.05 2057.62 1634.05 2057.62 1659.78 2052.76 1659.78 2052.76 1634.05 2047.69 1634.05Z" fill="#433DC3" fill-rule="evenodd" fill-opacity="1"/><path d="M1021.2 1650.14 1809.2 1650.14" stroke="#433DC3" stroke-width="18.8324" stroke-linecap="round" stroke-linejoin="miter" stroke-miterlimit="8" stroke-opacity="1" fill="none" fill-rule="evenodd"/><path d="M1214.2 1311.14 2031.2 1311.14" stroke="#433DC3" stroke-width="18.8324" stroke-linecap="round" stroke-linejoin="miter" stroke-miterlimit="8" stroke-opacity="1" fill="none" fill-rule="evenodd"/></g></g></svg>
