<svg width="50" height="43" viewBox="0 0 50 43" fill="none" xmlns="http://www.w3.org/2000/svg">
<path d="M45 10.1316L28.0348 0.482456L23.3333 11.6667L20.9826 17.2588L18.6318 22.8509L19.4652 27.9167L27.0896 32.5H31.1194L45 10.1316Z" fill="#FFE266"/>
<path d="M24.1667 39.1667L28.3333 32.0833L19.5833 27.9167L16.25 34.1667L24.1667 39.1667Z" fill="#FFE266"/>
<path d="M15 35C14.6667 36.6667 17.3611 39.5833 18.75 40.8333L0 38.3333C0 36.3333 1.66667 35.2778 2.5 35H15Z" fill="#FFE266"/>
<path d="M26.0171 38.6766C25.8547 38.9822 25.476 39.0968 25.1722 38.9353L20.6073 36.5077C20.3034 36.3461 20.1877 35.9668 20.3489 35.6628L22.6675 31.3028L20.3946 30.0942L18.0761 34.4533C17.2466 36.0147 17.8381 37.9507 19.3986 38.781L23.9636 41.2085C25.5245 42.038 27.4601 41.4458 28.2904 39.886L30.6093 35.5261L28.3359 34.3174L26.0171 38.6766Z" fill="#433DC3"/>
<path d="M30.3359 0L29.7849 1.2887L20.1182 23.8753C19.0577 26.3609 20.0731 29.2425 22.4581 30.5121L29.1078 34.0485C31.4946 35.3159 34.4515 34.5459 35.918 32.2771L49.9999 10.4575L30.3359 0ZM33.7549 30.8802C33.015 32.0256 31.5206 32.415 30.3167 31.7744L23.667 28.2374C22.4635 27.599 21.9491 26.1405 22.4862 24.8871L23.9347 21.5028L35.7514 27.7864L33.7549 30.8802ZM39.2564 22.3552L26.4777 15.5603L30.3715 6.46273L44.6221 14.0408L39.2564 22.3552ZM30.8792 5.27466L31.6011 3.59061L46.3168 11.4148L45.3231 12.9542L30.8792 5.27466Z" fill="#433DC3"/>
<path d="M15.5188 36.7985C11.7613 36.7985 7.11744 36.7985 4.00035 36.7985C-0.262937 36.7985 -0.0123985 42.0651 3.4985 42.0651C6.29274 42.0651 15.852 42.0651 20.7674 42.0651L18.3388 40.7735C16.7672 39.9373 15.7771 38.4355 15.5188 36.7985Z" fill="#433DC3"/>
</svg>
