<svg width="513" height="170" viewBox="0 0 513 170" fill="none" xmlns="http://www.w3.org/2000/svg">
<path fill-rule="evenodd" clip-rule="evenodd" d="M24.1004 135.359C15.377 135.359 9.24025 133.06 5.69417 128.469C2.15975 123.878 0.392525 117.286 0.392525 108.686V104.851C0.392525 104.114 0.493524 103.645 0.699375 103.435C0.905226 103.234 1.34412 103.129 2.01216 103.129H10.6579C12.0522 103.129 13.0155 103.261 13.5592 103.517C14.0952 103.761 14.3671 104.699 14.3671 106.324C14.3671 110.345 15.3847 113.075 17.4355 114.521C19.4979 115.952 22.5429 116.708 26.5822 116.797C31.1886 116.797 34.5367 115.63 36.6224 113.3C38.7197 110.95 39.7723 108.464 39.7723 105.851C39.7723 103.559 39.0887 101.531 37.7371 99.7671C36.3777 97.9874 34.626 97.0994 32.4937 97.0994C29.705 97.0994 26.9007 97.3165 24.1004 97.7392C21.3117 98.1502 18.7172 98.3518 16.3169 98.3518C13.4311 98.3518 10.8055 97.9835 8.42458 97.239C6.0437 96.5022 4.13281 95.0637 2.6802 92.931C1.24312 90.8061 0.48574 87.7312 0.392525 83.7102C0.392525 74.7608 1.1771 67.568 2.73847 62.12C4.29983 56.6759 7.21279 52.7247 11.4929 50.2586C15.7886 47.7964 22.0069 46.5633 30.1516 46.5633C38.7197 46.5633 44.7709 48.9092 48.3054 53.5894C51.8359 58.258 53.607 64.8576 53.607 73.3727V79.6504C53.607 80.4725 53.5216 80.9804 53.3545 81.1782C53.1992 81.3876 52.7564 81.4496 52.0146 81.3759L43.3688 80.8757C41.5434 80.709 40.448 80.422 40.0791 80.0149C39.7256 79.6116 39.5508 78.3747 39.5508 76.3196C39.5508 74.0241 39.1935 72.3878 38.4905 71.399C37.7798 70.4219 36.5447 69.8092 34.7813 69.5649C33.0102 69.3323 30.4856 69.2043 27.1959 69.2043H25.8287C23.277 69.2043 21.1213 69.4137 19.358 69.817C17.5869 70.228 16.2469 71.2904 15.342 73.0121C14.4292 74.7337 13.936 77.6457 13.866 81.7366C13.866 84.3694 14.6467 86.1182 16.2081 86.9867C17.7695 87.8398 19.7347 88.2663 22.1195 88.2663C24.2751 88.2663 26.6638 88.0841 29.2855 87.7079C31.9227 87.3396 34.4823 87.1535 36.9564 87.1535C39.8344 87.1535 42.5493 87.5645 45.1011 88.3749C47.6451 89.197 49.6997 90.5929 51.2611 92.5704C52.8224 94.5363 53.607 97.1963 53.607 100.547C53.607 107.034 53.2147 112.513 52.434 116.991C51.6534 121.458 50.2085 125.045 48.1112 127.744C46.006 130.454 43.0231 132.393 39.1586 133.579C35.2901 134.762 30.2682 135.359 24.1004 135.359Z" fill="#FFE266"/>
<path fill-rule="evenodd" clip-rule="evenodd" d="M80.6318 134.196C75.4311 134.196 71.248 133.808 68.102 133.033C64.9676 132.253 62.5712 130.807 60.9128 128.682C59.2698 126.561 58.1551 123.556 57.5842 119.678C57.0016 115.797 56.7181 110.748 56.7181 104.521C56.7181 99.6121 57.289 95.7655 58.4503 92.9969C59.6039 90.2128 61.3167 88.1888 63.5966 86.9286C65.8687 85.6529 68.6613 84.8386 71.9627 84.4624C75.2602 84.0941 79.016 83.908 83.2341 83.908H89.3047C90.602 83.908 91.8215 83.7916 92.9401 83.5473C94.0587 83.3147 94.618 82.5353 94.618 81.2208C94.618 80.0769 94.5481 78.809 94.4199 77.4247C94.3112 76.0249 93.8956 74.6949 93.1926 73.4347C92.4779 72.1629 91.3593 71.1005 89.8329 70.2513C88.326 69.3827 86.1199 68.9484 83.2341 68.9484C82.6515 68.9484 81.428 68.9755 79.5675 69.0298C77.7032 69.0725 75.5981 69.1074 73.2483 69.1423C70.8985 69.1849 68.6186 69.2237 66.4242 69.2819C64.2414 69.3207 62.4663 69.3555 61.107 69.3904C59.7437 69.4331 59.1067 69.4447 59.2077 69.4447C58.124 69.4447 57.5337 69.1617 57.4444 68.5878C57.3667 68.0178 57.289 66.6684 57.2191 64.5435L56.8579 51.5498C56.8579 51.1272 56.8268 50.7394 56.7725 50.3866C56.7297 50.0182 56.7181 49.708 56.7181 49.4443C56.7181 48.3005 57.289 47.7266 58.4503 47.7266L82.9816 49.58C92.4702 50.3207 99.4652 54.2292 103.959 61.3019C108.449 68.359 110.744 78.7547 110.841 92.4968L111.094 127.212C111.094 130.245 111.008 132.059 110.841 132.672C110.674 133.281 110.259 133.583 109.61 133.583L95.3443 134.196H95.2316C95.1578 134.196 94.987 134.126 94.7306 134.002C94.4859 133.89 94.3655 133.669 94.3655 133.335V124.525C93.6159 125.51 92.7848 126.77 91.8759 128.321C90.9826 129.872 89.6815 131.245 87.988 132.42C86.2907 133.599 83.836 134.196 80.6318 134.196ZM81.3581 113.47C83.7661 113.47 85.7664 112.881 87.3743 111.698C88.9745 110.52 90.2873 109.065 91.3166 107.348C92.3575 105.63 93.1421 103.912 93.6664 102.195C94.2063 100.477 94.5753 99.0304 94.785 97.8439C95.0103 96.669 95.1229 96.0718 95.1229 96.0718C95.1229 95.242 94.8277 94.6875 94.2529 94.4084C93.6742 94.1175 93.2198 93.9663 92.8819 93.9663H90.3922C84.6323 93.9663 80.4415 94.2378 77.8353 94.769C75.2408 95.308 73.5901 96.1261 72.8832 97.2351C72.1725 98.3286 71.8229 99.8137 71.8229 101.694V105.021C71.8229 107.72 72.2462 109.663 73.1085 110.838C73.9824 112.024 75.1631 112.765 76.6584 113.056C78.1499 113.331 79.7151 113.47 81.3581 113.47Z" fill="#FFE266"/>
<path fill-rule="evenodd" clip-rule="evenodd" d="M143.622 88.7239C150.182 88.7239 155.593 89.0418 159.861 89.6661C164.122 90.2788 167.435 91.38 169.812 92.9698C172.204 94.5674 173.886 96.7388 174.873 99.4918C175.855 102.233 176.349 105.781 176.349 110.124C176.349 112.9 175.805 115.688 174.737 118.48C173.68 121.253 171.983 123.82 169.649 126.165C167.311 128.5 164.169 130.38 160.222 131.803C156.288 133.246 151.491 133.967 145.817 133.967C141.649 133.967 138.313 133.343 135.808 132.106C133.306 130.884 131.43 129.663 130.191 128.442C128.968 127.209 128.148 126.584 127.745 126.584C127.48 126.584 127.313 126.937 127.243 127.639C127.17 128.325 127.135 130.101 127.135 132.967C127.135 134.855 126.61 135.98 125.577 136.352C124.556 136.72 122.851 136.91 120.462 136.91H116.399C115.825 136.91 115.471 136.825 115.343 136.658C115.234 136.491 115.176 136.034 115.176 135.297V105.211C115.176 104.544 115.261 104.129 115.428 103.963C115.595 103.796 116.081 103.711 116.9 103.711H124.408C128.094 103.711 130.595 104.001 131.916 104.571C133.229 105.149 133.889 106.751 133.889 109.376C133.889 112.648 134.872 114.676 136.837 115.452C138.818 116.231 141.653 116.619 145.347 116.619C147.716 116.619 149.697 115.89 151.297 114.424C152.909 112.947 153.717 110.942 153.717 108.402C153.717 104.626 152.75 102.129 150.823 100.907C148.889 99.6741 145.584 99.0498 140.896 99.0498C139.338 99.0498 137.451 98.9529 135.225 98.7435C133.015 98.5418 130.677 98.0339 128.218 97.2157C125.771 96.4053 123.468 95.1218 121.32 93.3576C119.188 91.5816 117.464 89.1892 116.151 86.1686C114.85 83.1363 114.205 79.2433 114.205 74.4855C114.205 65.381 116.267 58.6496 120.404 54.2757C124.556 49.8902 130.483 47.6994 138.2 47.6994C143.129 47.6994 147.168 48.2966 150.322 49.4753C153.472 50.6619 155.892 52.0152 157.581 53.5274C159.263 55.0474 160.452 56.4006 161.139 57.5794C161.842 58.766 162.195 59.3553 162.195 59.3553C162.195 59.2855 162.091 58.6884 161.889 57.5794C161.683 56.4704 161.582 54.5666 161.582 51.86L161.722 49.0294C161.722 47.9049 162.37 47.3388 163.667 47.3388H173.288C174.011 47.3388 174.473 47.4202 174.679 47.587C174.904 47.7382 175.013 48.1415 175.013 48.8084V78.177C175.013 79.2316 174.943 79.9257 174.818 80.2553C174.686 80.5888 174.414 80.7555 174.011 80.7555C174.178 80.7555 173.719 80.7439 172.651 80.7012C171.595 80.647 170.321 80.5849 168.841 80.5074C167.373 80.4182 166.006 80.3329 164.724 80.2553C163.446 80.1894 162.599 80.1467 162.195 80.1467C159.15 79.98 157.022 79.7784 155.799 79.5341C154.575 79.2782 153.833 78.84 153.577 78.2312C153.332 77.6186 153.173 76.6609 153.103 75.3425C152.936 72.8105 151.887 71.1741 149.961 70.4296C148.031 69.6968 144.768 69.3206 140.173 69.3206C136.483 69.3206 133.71 70.1272 131.862 71.7364C130.005 73.33 129.081 75.1913 129.081 77.3161C129.081 79.1115 129.671 80.8874 130.859 82.6439C132.064 84.4082 133.749 85.8584 135.92 87.0023C138.088 88.1539 140.655 88.7239 143.622 88.7239Z" fill="#FFE266"/>
<path fill-rule="evenodd" clip-rule="evenodd" d="M209.654 88.7239C216.218 88.7239 221.624 89.0418 225.893 89.6661C230.154 90.2788 233.47 91.38 235.847 92.9698C238.24 94.5674 239.922 96.7388 240.908 99.4918C241.887 102.233 242.38 105.781 242.38 110.124C242.38 112.9 241.84 115.688 240.768 118.48C239.712 121.253 238.015 123.82 235.68 126.165C233.346 128.5 230.204 130.38 226.254 131.803C222.32 133.246 217.523 133.967 211.852 133.967C207.681 133.967 204.344 133.343 201.843 132.106C199.338 130.884 197.462 129.663 196.223 128.442C195 127.209 194.18 126.584 193.776 126.584C193.512 126.584 193.349 126.937 193.279 127.639C193.201 128.325 193.166 130.101 193.166 132.967C193.166 134.855 192.646 135.98 191.609 136.352C190.587 136.72 188.886 136.91 186.494 136.91H182.435C181.856 136.91 181.503 136.825 181.378 136.658C181.266 136.491 181.211 136.034 181.211 135.297V105.211C181.211 104.544 181.293 104.129 181.46 103.963C181.627 103.796 182.113 103.711 182.936 103.711H190.44C194.126 103.711 196.627 104.001 197.948 104.571C199.264 105.149 199.925 106.751 199.925 109.376C199.925 112.648 200.903 114.676 202.869 115.452C204.853 116.231 207.689 116.619 211.378 116.619C213.748 116.619 215.728 115.89 217.329 114.424C218.941 112.947 219.748 110.942 219.748 108.402C219.748 104.626 218.781 102.129 216.855 100.907C214.924 99.6741 211.615 99.0498 206.931 99.0498C205.374 99.0498 203.482 98.9529 201.257 98.7435C199.047 98.5418 196.712 98.0339 194.25 97.2157C191.803 96.4053 189.504 95.1218 187.356 93.3576C185.22 91.5816 183.495 89.1892 182.182 86.1686C180.885 83.1363 180.237 79.2433 180.237 74.4855C180.237 65.381 182.303 58.6496 186.439 54.2757C190.587 49.8902 196.518 47.6994 204.232 47.6994C209.161 47.6994 213.2 48.2966 216.354 49.4753C219.504 50.6619 221.923 52.0152 223.613 53.5274C225.295 55.0474 226.483 56.4006 227.171 57.5794C227.874 58.766 228.227 59.3553 228.227 59.3553C228.227 59.2855 228.122 58.6884 227.924 57.5794C227.714 56.4704 227.617 54.5666 227.617 51.86L227.757 49.0294C227.757 47.9049 228.402 47.3388 229.703 47.3388H239.324C240.046 47.3388 240.504 47.4202 240.714 47.587C240.936 47.7382 241.048 48.1415 241.048 48.8084V78.177C241.048 79.2316 240.978 79.9257 240.85 80.2553C240.718 80.5888 240.45 80.7555 240.046 80.7555C240.213 80.7555 239.755 80.7439 238.683 80.7012C237.626 80.647 236.352 80.5849 234.873 80.5074C233.408 80.4182 232.037 80.3329 230.759 80.2553C229.478 80.1894 228.631 80.1467 228.227 80.1467C225.182 79.98 223.057 79.7784 221.834 79.5341C220.611 79.2782 219.865 78.84 219.609 78.2312C219.364 77.6186 219.205 76.6609 219.135 75.3425C218.968 72.8105 217.919 71.1741 215.993 70.4296C214.062 69.6968 210.804 69.3206 206.209 69.3206C202.515 69.3206 199.742 70.1272 197.893 71.7364C196.037 73.33 195.112 75.1913 195.112 77.3161C195.112 79.1115 195.703 80.8874 196.891 82.6439C198.095 84.4082 199.785 85.8584 201.952 87.0023C204.123 88.1539 206.687 88.7239 209.654 88.7239Z" fill="#FFE266"/>
<path fill-rule="evenodd" clip-rule="evenodd" d="M266.818 62.8762L249.869 62.6241C248.808 62.6241 248.09 62.4225 247.721 62.0115C247.344 61.6121 247.162 60.8753 247.162 59.8168L247.022 50.5921V48.2307C247.022 47.5094 247.204 46.9239 247.581 46.4819C247.95 46.0243 248.676 45.7878 249.756 45.7878L265.56 46.1484C266.399 46.1484 267.075 46.2531 267.599 46.4548C268.135 46.6603 268.411 47.2186 268.411 48.1221V60.1812C268.411 60.9218 268.306 61.5617 268.1 62.0968C267.894 62.6164 267.467 62.8762 266.818 62.8762ZM265.56 131.757L250.374 132.257H248.502C247.678 132.257 247.169 132.09 246.967 131.757C246.758 131.443 246.657 130.663 246.657 129.423V128.81C246.657 124.475 246.758 120.163 246.967 115.863C247.169 111.547 247.274 107.212 247.274 102.858C247.274 97.7857 247.224 92.6829 247.134 87.549C247.057 82.4229 246.936 77.351 246.769 72.349C246.769 71.2943 246.866 70.5304 247.076 70.0419C247.301 69.5417 247.985 69.2935 249.142 69.2935H265.451C266.768 69.2935 267.584 69.5843 267.906 70.1543C268.24 70.7088 268.411 71.6123 268.411 72.8492V130.171C268.411 130.993 268.255 131.443 267.964 131.532C267.684 131.61 266.881 131.679 265.56 131.757Z" fill="#FFE266"/>
<path fill-rule="evenodd" clip-rule="evenodd" d="M289.99 133.808H278.264C277.429 133.808 276.843 133.703 276.505 133.502C276.187 133.292 276.031 132.695 276.031 131.691C276.198 128.67 276.319 125.289 276.396 121.559C276.486 117.817 276.532 113.808 276.532 109.535C276.532 103.455 276.486 97.111 276.396 90.4998C276.319 83.8731 276.241 77.4053 276.171 71.0733C275.332 70.9027 274.606 70.6817 273.992 70.4025C273.378 70.1117 273.072 69.7549 273.072 69.3439V51.8678C273.072 50.9605 273.169 50.406 273.378 50.1966C273.58 49.9949 274.089 49.8903 274.917 49.8903C277.554 49.8903 279.9 49.8748 281.95 49.836C284.017 49.7778 286.37 49.7158 289.015 49.6382C291.653 49.5723 295.016 49.4676 299.094 49.3358C303.169 49.2078 308.54 49.0566 315.205 48.8898H315.706C316.11 48.8898 316.355 48.9713 316.432 49.138C316.522 49.3047 316.572 49.7235 316.572 50.3904V70.3482C316.572 70.4258 316.448 70.5072 316.211 70.5964C315.966 70.6739 315.345 70.7088 314.339 70.7088C313.516 70.7088 312.735 70.6972 311.993 70.6545C311.247 70.6196 310.276 70.5964 309.088 70.5964C307.895 70.5964 306.186 70.5847 303.953 70.5421C301.732 70.4878 298.733 70.4606 294.935 70.4606C293.536 70.4606 292.503 70.5653 291.835 70.767C291.179 70.9725 290.752 71.5463 290.55 72.4925C290.34 73.4386 290.243 74.9819 290.243 77.1106V84.6253C290.243 85.7808 290.328 86.4826 290.495 86.7424C290.662 86.9867 291.031 87.1031 291.61 87.1031C295.074 87.1031 297.824 87.0876 299.875 87.0488C301.941 86.9906 303.674 86.9635 305.068 86.9635C310.669 86.9635 313.473 87.3823 313.473 88.2159C313.473 88.2935 313.453 88.4098 313.418 88.5766C313.376 88.7472 313.36 88.9139 313.36 89.0806L313.865 100.407C313.865 101.485 313.795 102.105 313.667 102.272C313.535 102.427 313.147 102.493 312.494 102.493L296.049 102.385C295.059 102.385 294.418 102.404 294.123 102.439C293.843 102.481 293.552 102.493 293.261 102.493C292.981 102.493 292.344 102.543 291.361 102.633C290.705 102.633 290.313 102.718 290.188 102.885C290.056 103.036 289.99 103.683 289.99 104.831L290.996 132.083C290.996 132.73 290.95 133.172 290.856 133.416C290.779 133.676 290.495 133.808 289.99 133.808Z" fill="#FFE266"/>
<path fill-rule="evenodd" clip-rule="evenodd" d="M356.589 131.482H347.007C345.764 131.482 344.855 131.327 344.288 131.009C343.71 130.675 343.426 129.853 343.426 128.535C343.426 125.25 343.488 121.749 343.62 118.023C343.745 114.281 343.849 110.349 343.927 106.235C338.35 106.235 333.941 105.642 330.706 104.455C327.467 103.272 325.086 101.493 323.571 99.1157C322.072 96.7233 321.105 93.7337 320.681 90.1353C320.274 86.5176 320.072 82.2949 320.072 77.4558V47.5366C320.072 46.8697 320.169 46.5207 320.379 46.478C320.577 46.447 321.218 46.4237 322.293 46.4237L340.622 46.1756C340.933 46.1756 341.092 46.257 341.092 46.4237C341.092 46.5905 341.135 47.0829 341.232 47.8972L340.121 80.7633C340.121 82.419 340.241 84.2066 340.482 86.1298C340.719 88.0608 341.329 89.705 342.315 91.0505C343.314 92.4076 344.96 93.0823 347.26 93.0823C350.848 93.0823 353.458 92.9155 355.09 92.5821C356.737 92.2486 357.785 91.4886 358.228 90.3021C358.686 89.1194 358.923 87.2078 358.923 84.5749C358.923 83.6831 358.9 82.7292 358.865 81.7094C358.826 80.6741 358.811 79.5419 358.811 78.3166C358.811 78.0606 358.764 76.8082 358.671 74.5631C358.597 72.3025 358.477 69.6541 358.31 66.6103C358.143 63.5741 357.991 60.6195 357.867 57.7423C357.754 54.8691 357.7 52.6511 357.7 51.0962C357.7 48.9674 358.228 47.8972 359.284 47.8972C360.52 47.8274 361.755 47.7886 362.978 47.7886C364.213 47.7886 365.363 47.7886 366.419 47.7886C369.53 47.7886 371.76 47.8701 373.111 48.0368C374.479 48.1919 375.321 48.3935 375.64 48.6494C375.974 48.8937 376.141 49.1768 376.141 49.5103L376.39 65.4974C376.39 66.4086 376.308 66.9437 376.141 67.1104C375.974 67.2772 375.516 67.3625 374.778 67.3625L372.335 67.4711C372.07 73.7023 371.865 79.1425 371.698 83.7955C371.542 88.4292 371.014 92.3029 370.113 95.4165C369.204 98.5302 367.6 100.938 365.309 102.617C363.013 104.308 359.615 105.308 355.117 105.622L358.562 129.395C358.562 130.38 358.457 130.974 358.255 131.175C358.045 131.385 357.49 131.482 356.589 131.482Z" fill="#FFE266"/>
<path fill-rule="evenodd" clip-rule="evenodd" d="M377.982 144.277C377.481 144.277 377.026 143.331 376.619 141.443C376.215 139.57 376.005 137.732 376.005 135.921C376.005 134.77 376.11 133.812 376.312 133.033C376.521 132.257 376.867 131.869 377.368 131.869C380.239 131.959 383.027 132.005 385.738 132.005C388.441 132.005 390.861 132.005 392.997 132.005H421.195C422.341 132.005 422.986 132.075 423.141 132.23C423.308 132.397 423.39 132.928 423.39 133.839L423.141 142.083C423.063 143.138 422.982 143.75 422.889 143.917C422.815 144.084 422.454 144.165 421.805 144.165C421.805 144.165 421.082 144.165 419.638 144.165C418.204 144.165 416.313 144.146 413.963 144.111C411.629 144.068 409.124 144.053 406.455 144.053C403.799 144.053 401.282 144.053 398.893 144.053C396.512 144.053 393.976 144.068 391.273 144.111C388.562 144.146 386.018 144.165 383.625 144.165C381.248 144.165 379.372 144.2 377.982 144.277Z" fill="#FFE266"/>
<path fill-rule="evenodd" clip-rule="evenodd" d="M452.496 133.42C446.67 133.42 441.939 132.738 438.289 131.392C434.634 130.047 431.798 127.651 429.787 124.207C427.782 120.768 426.407 115.929 425.669 109.674C424.928 103.404 424.559 95.3157 424.559 85.3969V52.1082C424.559 51.3754 424.613 50.9294 424.726 50.7782C424.85 50.6115 425.203 50.5262 425.782 50.5262L446.352 50.1384C446.756 50.1384 446.977 50.2935 447.02 50.5843C447.055 50.8596 447.074 51.5731 447.074 52.7208L445.851 100.628C445.773 102.423 445.858 104.471 446.099 106.758C446.336 109.054 446.748 111.249 447.323 113.335C447.894 115.429 448.659 117.162 449.603 118.55C450.55 119.938 451.716 120.628 453.106 120.628C456.31 120.628 458.812 120.493 460.61 120.213C462.424 119.923 463.779 119.097 464.669 117.743C465.574 116.398 466.148 114.25 466.393 111.311C466.649 108.368 466.782 104.277 466.782 99.0188C466.782 98.7086 466.735 97.3708 466.642 94.9978C466.568 92.6131 466.482 89.6429 466.393 86.091C466.315 82.5276 466.211 78.7547 466.086 74.7725C465.978 70.798 465.873 67.0212 465.779 63.4267C465.706 59.8206 465.62 56.7884 465.531 54.33C465.453 51.8717 465.418 50.437 465.418 50.0298C465.418 48.7192 465.504 47.9398 465.671 47.6994C465.838 47.4629 466.156 47.3388 466.642 47.3388H467.395C469.52 47.3388 471.633 47.4086 473.73 47.5327C475.823 47.6413 477.804 47.6994 479.68 47.6994C480.515 47.6994 481.047 47.8235 481.292 48.06C481.529 48.3004 481.653 48.8782 481.653 49.7778L482.042 67.5874C482.042 68.9756 481.929 69.8015 481.708 70.0574C481.502 70.3017 481.04 70.4606 480.317 70.5304L478.457 70.6661L478.208 86.979C478.041 95.6764 477.649 102.869 477.039 108.561C476.425 114.242 475.482 118.763 474.204 122.129C472.938 125.479 471.318 127.953 469.341 129.562C467.372 131.16 464.991 132.183 462.194 132.668C459.417 133.168 456.178 133.42 452.496 133.42Z" fill="#FFE266"/>
<path fill-rule="evenodd" clip-rule="evenodd" d="M506.091 62.8762L489.142 62.6241C488.081 62.6241 487.363 62.4225 486.994 62.0115C486.613 61.6121 486.434 60.8753 486.434 59.8168L486.295 50.5921V48.2307C486.295 47.5094 486.477 46.9239 486.854 46.4819C487.223 46.0243 487.949 45.7878 489.029 45.7878L504.833 46.1484C505.672 46.1484 506.348 46.2531 506.872 46.4548C507.408 46.6603 507.68 47.2186 507.68 48.1221V60.1812C507.68 60.9218 507.575 61.5617 507.373 62.0968C507.163 62.6164 506.74 62.8762 506.091 62.8762ZM504.833 131.757L489.643 132.257H487.774C486.951 132.257 486.442 132.09 486.236 131.757C486.03 131.443 485.93 130.663 485.93 129.423V128.81C485.93 124.475 486.03 120.163 486.236 115.863C486.442 111.547 486.547 107.212 486.547 102.858C486.547 97.7857 486.497 92.6829 486.407 87.549C486.33 82.4229 486.209 77.351 486.042 72.349C486.042 71.2943 486.139 70.5304 486.349 70.0419C486.574 69.5417 487.258 69.2935 488.415 69.2935H504.72C506.041 69.2935 506.856 69.5843 507.179 70.1543C507.513 70.7088 507.68 71.6123 507.68 72.8492V130.171C507.68 130.993 507.528 131.443 507.233 131.532C506.954 131.61 506.153 131.679 504.833 131.757Z" fill="#FFE266"/>
<path fill-rule="evenodd" clip-rule="evenodd" d="M28.0854 132.354C19.393 132.354 13.2835 130.062 9.75681 125.468C6.23403 120.853 4.47071 114.23 4.47071 105.595V101.772C4.47071 101.035 4.5717 100.562 4.77367 100.36C4.96787 100.159 5.39897 100.062 6.05924 100.062H14.6856C16.0683 100.062 17.0199 100.178 17.5442 100.422C18.0841 100.659 18.356 101.605 18.356 103.249C18.356 107.282 19.3774 110.023 21.4204 111.466C23.4789 112.893 26.5279 113.645 30.5517 113.722C35.1425 113.722 38.475 112.559 40.5568 110.233C42.6619 107.887 43.7106 105.393 43.7106 102.768C43.7106 100.457 43.0309 98.4255 41.6676 96.6574C40.3238 94.8931 38.5954 94.009 36.467 94.009C33.6666 94.009 30.8741 94.2184 28.0854 94.6449C25.3044 95.0404 22.7215 95.242 20.3368 95.242C17.4743 95.242 14.8448 94.8737 12.46 94.1292C10.0792 93.3886 8.16824 91.95 6.72728 89.8251C5.30186 87.6808 4.55227 84.5982 4.47071 80.5849C4.47071 71.6123 5.23972 64.3962 6.78555 58.9405C8.34691 53.4654 11.2599 49.4986 15.5284 47.0519C19.793 44.5819 25.9957 43.3489 34.1249 43.3489C42.6619 43.3489 48.6937 45.6947 52.2165 50.3943C55.7393 55.0668 57.5065 61.6819 57.5065 70.2319V76.4902C57.5065 77.3123 57.425 77.8358 57.2619 78.0568C57.1026 78.2545 56.652 78.3166 55.9063 78.239L47.2916 77.7233C45.4817 77.5643 44.3903 77.2851 44.0174 76.8819C43.6562 76.4631 43.4737 75.2261 43.4737 73.1788C43.4737 70.8717 43.1202 69.2315 42.4172 68.2427C41.722 67.2578 40.4869 66.6451 38.7274 66.4086C36.9602 66.1449 34.4395 66.0131 31.1498 66.0131H29.802C27.258 66.0131 25.1063 66.2302 23.3391 66.6451C21.5796 67.0523 20.2475 68.1147 19.3425 69.8364C18.4453 71.5619 17.952 74.4855 17.8705 78.5957C17.8705 81.2286 18.655 82.9735 20.2203 83.8382C21.7739 84.7029 23.7508 85.1333 26.1317 85.1333C28.2601 85.1333 30.6293 84.951 33.2588 84.5904C35.8766 84.2066 38.4206 84.0204 40.887 84.0204C43.7533 84.0204 46.4566 84.4276 49.0006 85.2496C51.5446 86.0716 53.5992 87.4792 55.1567 89.4645C56.722 91.4343 57.5065 94.102 57.5065 97.4716C57.5065 103.955 57.1104 109.438 56.3336 113.936C55.5529 118.406 54.108 122.001 52.0029 124.708C49.925 127.426 46.9499 129.368 43.0853 130.551C39.2324 131.757 34.2376 132.354 28.0854 132.354ZM84.5624 131.245C79.4005 131.245 75.2486 130.85 72.1297 130.07C69.0225 129.291 66.6455 127.837 65.0065 125.704C63.3675 123.56 62.2528 120.539 61.6702 116.646C61.1148 112.734 60.8273 107.658 60.8273 101.411C60.8273 96.4751 61.3983 92.617 62.5441 89.8251C63.686 87.0333 65.3871 85.0092 67.6554 83.749C69.9119 82.4578 72.6774 81.6357 75.9438 81.2751C79.2258 80.8912 82.966 80.7051 87.1491 80.7051H93.1887C94.4976 80.7051 95.69 80.5849 96.7969 80.3406C97.9155 80.0847 98.4787 79.2976 98.4787 77.9947C98.4787 76.8315 98.4165 75.5596 98.2961 74.1715C98.1796 72.7678 97.7679 71.4378 97.0688 70.1698C96.3658 68.8902 95.255 67.8084 93.7324 66.9476C92.2293 66.0829 90.0349 65.6563 87.1491 65.6563C86.5937 65.6563 85.378 65.6719 83.5137 65.7145C81.6727 65.7572 79.5792 65.796 77.2372 65.8309C74.9107 65.8735 72.6579 65.9162 70.4751 65.9588C68.3156 65.9976 66.5484 66.0325 65.1851 66.0752C63.8257 66.1178 63.1927 66.1372 63.2975 66.1372C62.21 66.1372 61.6352 65.8541 61.5497 65.2958C61.4682 64.7102 61.3905 63.3609 61.3089 61.2282L60.9555 48.1337C60.9555 47.7343 60.9322 47.3544 60.8895 46.9899C60.8506 46.6099 60.8273 46.3035 60.8273 46.0593C60.8273 44.896 61.3983 44.3105 62.5441 44.3105L86.9122 46.1756C96.3464 46.92 103.295 50.848 107.765 57.9517C112.232 65.0514 114.512 75.5092 114.617 89.3094L114.854 124.227C114.854 127.259 114.764 129.089 114.582 129.71C114.422 130.326 114.026 130.64 113.378 130.64L99.2283 131.245H99.0846C98.9991 131.245 98.8399 131.183 98.5952 131.067C98.3583 130.939 98.2417 130.71 98.2417 130.369V121.52C97.4999 122.501 96.6765 123.777 95.7754 125.343C94.8705 126.887 93.5771 128.252 91.8953 129.438C90.2136 130.64 87.7744 131.245 84.5624 131.245ZM85.3198 110.415C87.7045 110.415 89.6853 109.822 91.27 108.639C92.8702 107.433 94.183 105.971 95.2045 104.246C96.2454 102.52 97.0261 100.791 97.5465 99.0653C98.0903 97.3398 98.4593 95.8818 98.6574 94.6992C98.8593 93.4933 98.9564 92.8961 98.9564 92.8961C98.9564 92.0741 98.6651 91.5157 98.0903 91.2404C97.5271 90.9613 97.0882 90.8216 96.7697 90.8216H94.2995C88.5551 90.8216 84.3915 91.0931 81.8047 91.6282C79.218 92.1517 77.579 92.9659 76.876 94.071C76.173 95.1722 75.8195 96.6767 75.8195 98.5845V101.9C75.8195 104.606 76.2507 106.565 77.1129 107.77C77.9751 108.953 79.1481 109.69 80.6318 109.988C82.1116 110.275 83.6729 110.415 85.3198 110.415ZM147.588 85.6412C154.136 85.6412 159.543 85.9553 163.811 86.5757C168.08 87.1806 171.4 88.278 173.785 89.8872C176.166 91.4886 177.852 93.6678 178.838 96.4208C179.817 99.17 180.31 102.722 180.31 107.072C180.31 109.884 179.774 112.683 178.71 115.471C177.654 118.263 175.953 120.83 173.603 123.176C171.261 125.522 168.119 127.41 164.172 128.837C160.246 130.28 155.449 131.005 149.778 131.005C145.615 131.005 142.278 130.384 139.777 129.136C137.268 127.91 135.396 126.685 134.153 125.468C132.93 124.223 132.11 123.595 131.695 123.595C131.45 123.595 131.291 123.951 131.213 124.653C131.131 125.355 131.089 127.139 131.089 130.008C131.089 131.893 130.568 133.021 129.531 133.378C128.51 133.762 126.816 133.955 124.451 133.955H120.365C119.802 133.955 119.452 133.87 119.316 133.711C119.188 133.552 119.134 133.099 119.134 132.354V102.136C119.134 101.497 119.211 101.089 119.371 100.93C119.553 100.748 120.05 100.659 120.874 100.659H128.385C132.075 100.659 134.565 100.954 135.87 101.535C137.19 102.113 137.851 103.722 137.851 106.347C137.851 109.643 138.829 111.683 140.799 112.462C142.779 113.222 145.615 113.602 149.297 113.602C151.682 113.602 153.678 112.873 155.274 111.411C156.882 109.919 157.682 107.906 157.682 105.359C157.682 101.586 156.707 99.0847 154.769 97.8594C152.843 96.6225 149.549 95.9943 144.885 95.9943C143.323 95.9943 141.424 95.8974 139.206 95.6957C137.004 95.4708 134.67 94.9512 132.199 94.1292C129.741 93.3072 127.434 92.012 125.294 90.2439C123.165 88.4835 121.449 86.0794 120.12 83.0511C118.823 79.9994 118.167 76.087 118.167 71.3098C118.167 62.2054 120.233 55.4507 124.362 51.0574C128.51 46.6642 134.44 44.4617 142.146 44.4617C147.075 44.4617 151.118 45.055 154.288 46.2376C157.449 47.4241 159.877 48.7813 161.558 50.3051C163.24 51.829 164.421 53.1939 165.105 54.3999C165.804 55.5825 166.153 56.1758 166.153 56.1758C166.153 56.0905 166.056 55.5011 165.854 54.3999C165.652 53.2715 165.555 51.356 165.555 48.6494L165.672 45.8227C165.672 44.6517 166.328 44.074 167.625 44.074H177.246C177.98 44.074 178.454 44.1631 178.656 44.3454C178.858 44.5043 178.955 44.9037 178.955 45.5513V75.0167C178.955 76.1025 178.893 76.8043 178.776 77.1262C178.656 77.4441 178.384 77.607 177.961 77.607C178.143 77.607 177.689 77.5837 176.613 77.5449C175.549 77.5023 174.279 77.4441 172.799 77.3627C171.331 77.2851 169.96 77.2037 168.682 77.1262C167.419 77.0409 166.577 77.0021 166.153 77.0021C163.128 76.8392 160.995 76.6376 159.76 76.4011C158.537 76.1374 157.791 75.7069 157.535 75.1059C157.29 74.4855 157.131 73.5123 157.049 72.19C156.89 69.6425 155.837 67.9906 153.899 67.2539C151.973 66.5055 148.722 66.1372 144.135 66.1372C140.445 66.1372 137.672 66.9398 135.808 68.549C133.967 70.1505 133.042 72.0272 133.042 74.1715C133.042 75.9784 133.633 77.7659 134.813 79.5263C136.017 81.2945 137.699 82.7602 139.866 83.9273C142.049 85.0712 144.62 85.6412 147.588 85.6412ZM213.666 85.6412C220.218 85.6412 225.625 85.9553 229.893 86.5757C234.162 87.1806 237.483 88.278 239.867 89.8872C242.252 91.4886 243.934 93.6678 244.913 96.4208C245.899 99.17 246.385 102.722 246.385 107.072C246.385 109.884 245.857 112.683 244.796 115.471C243.732 118.263 242.027 120.83 239.685 123.176C237.343 125.522 234.197 127.41 230.255 128.837C226.328 130.28 221.531 131.005 215.86 131.005C211.689 131.005 208.361 130.384 205.851 129.136C203.35 127.91 201.482 126.685 200.235 125.468C199.012 124.223 198.192 123.595 197.769 123.595C197.532 123.595 197.373 123.951 197.291 124.653C197.213 125.355 197.171 127.139 197.171 130.008C197.171 131.893 196.65 133.021 195.609 133.378C194.588 133.762 192.898 133.955 190.533 133.955H186.447C185.884 133.955 185.53 133.87 185.391 133.711C185.274 133.552 185.212 133.099 185.212 132.354V102.136C185.212 101.497 185.294 101.089 185.453 100.93C185.635 100.748 186.136 100.659 186.956 100.659H194.467C198.153 100.659 200.647 100.954 201.948 101.535C203.272 102.113 203.933 103.722 203.933 106.347C203.933 109.643 204.915 111.683 206.873 112.462C208.862 113.222 211.689 113.602 215.383 113.602C217.764 113.602 219.752 112.873 221.36 111.411C222.964 109.919 223.764 107.906 223.764 105.359C223.764 101.586 222.79 99.0847 220.851 97.8594C218.925 96.6225 215.631 95.9943 210.963 95.9943C209.397 95.9943 207.506 95.8974 205.284 95.6957C203.078 95.4708 200.744 94.9512 198.285 94.1292C195.815 93.3072 193.516 92.012 191.376 90.2439C189.247 88.4835 187.523 86.0794 186.202 83.0511C184.905 79.9994 184.253 76.087 184.253 71.3098C184.253 62.2054 186.315 55.4507 190.444 51.0574C194.588 46.6642 200.515 44.4617 208.229 44.4617C213.157 44.4617 217.201 45.055 220.366 46.2376C223.535 47.4241 225.951 48.7813 227.641 50.3051C229.322 51.829 230.503 53.1939 231.187 54.3999C231.89 55.5825 232.235 56.1758 232.235 56.1758C232.235 56.0905 232.138 55.5011 231.936 54.3999C231.734 53.2715 231.637 51.356 231.637 48.6494L231.758 45.8227C231.758 44.6517 232.402 44.074 233.707 44.074H243.32C244.066 44.074 244.536 44.1631 244.73 44.3454C244.932 44.5043 245.037 44.9037 245.037 45.5513V75.0167C245.037 76.1025 244.975 76.8043 244.858 77.1262C244.73 77.4441 244.462 77.607 244.043 77.607C244.225 77.607 243.775 77.5837 242.687 77.5449C241.631 77.5023 240.361 77.4441 238.873 77.3627C237.413 77.2851 236.046 77.2037 234.76 77.1262C233.502 77.0409 232.651 77.0021 232.235 77.0021C229.214 76.8392 227.077 76.6376 225.835 76.4011C224.611 76.1374 223.873 75.7069 223.609 75.1059C223.372 74.4855 223.213 73.5123 223.131 72.19C222.972 69.6425 221.923 67.9906 219.974 67.2539C218.051 66.5055 214.796 66.1372 210.209 66.1372C206.527 66.1372 203.754 66.9398 201.89 68.549C200.041 70.1505 199.124 72.0272 199.124 74.1715C199.124 75.9784 199.715 77.7659 200.895 79.5263C202.1 81.2945 203.781 82.7602 205.945 83.9273C208.124 85.0712 210.703 85.6412 213.666 85.6412ZM270.761 59.6074L253.908 59.3631C252.82 59.3631 252.094 59.1615 251.71 58.766C251.356 58.3395 251.174 57.595 251.174 56.5364L251.049 47.2923V44.9425C251.049 44.2058 251.232 43.6125 251.593 43.1666C251.974 42.709 252.696 42.4803 253.753 42.4803L269.529 42.8409C270.349 42.8409 271.025 42.9456 271.545 43.1666C272.089 43.3721 272.353 43.9188 272.353 44.8262V56.8931C272.353 57.6376 272.248 58.2774 272.027 58.8202C271.825 59.3437 271.405 59.6074 270.761 59.6074ZM269.529 128.655L254.386 129.136H252.521C251.702 129.136 251.197 128.977 250.995 128.655C250.793 128.337 250.688 127.55 250.688 126.309V125.704C250.688 121.353 250.793 117.014 250.995 112.707C251.197 108.387 251.294 104.052 251.294 99.6973C251.294 94.6022 251.251 89.4839 251.174 84.3462C251.092 79.2084 250.972 74.1327 250.812 69.119C250.812 68.0333 250.91 67.2539 251.112 66.7654C251.333 66.2652 252.017 66.0131 253.155 66.0131H269.413C270.714 66.0131 271.526 66.3039 271.844 66.8894C272.186 67.4672 272.353 68.3745 272.353 69.5998V127.061C272.353 127.883 272.205 128.337 271.906 128.414C271.623 128.496 270.831 128.573 269.529 128.655ZM293.773 130.76H282.082C281.263 130.76 280.684 130.656 280.346 130.431C280.02 130.229 279.857 129.64 279.857 128.655C280.02 125.627 280.144 122.245 280.218 118.511C280.304 114.758 280.346 110.748 280.346 106.475C280.346 100.388 280.304 94.0361 280.218 87.4171C280.144 80.7943 280.059 74.3266 279.985 68.0062C279.158 67.8433 278.439 67.6223 277.814 67.3431C277.216 67.0368 276.921 66.6878 276.921 66.2845V48.7658C276.921 47.8701 277.018 47.3117 277.216 47.1101C277.418 46.8929 277.927 46.7805 278.746 46.7805C281.376 46.7805 283.71 46.7611 285.753 46.7184C287.815 46.6835 290.157 46.6215 292.779 46.5401C295.405 46.4625 298.741 46.3578 302.788 46.2376C306.855 46.1213 312.211 45.9817 318.864 45.8227H319.373C319.773 45.8227 320.01 45.8964 320.095 46.0593C320.169 46.2182 320.211 46.6292 320.211 47.2923V67.2539C320.211 67.3276 320.095 67.4207 319.85 67.5253C319.613 67.599 319.004 67.6416 318.021 67.6416C317.201 67.6416 316.417 67.6223 315.675 67.5796C314.937 67.5254 313.962 67.4905 312.762 67.4905C311.581 67.4905 309.876 67.4672 307.651 67.4323C305.449 67.3935 302.47 67.3702 298.702 67.3702C297.296 67.3702 296.267 67.4827 295.606 67.6998C294.946 67.9015 294.515 68.4715 294.317 69.4176C294.115 70.356 294.018 71.9031 294.018 74.0551V81.5466C294.018 82.7098 294.092 83.4116 294.251 83.6559C294.414 83.8925 294.779 84.0204 295.366 84.0204C298.811 84.0204 301.557 83.9972 303.6 83.9545C305.658 83.9157 307.383 83.8925 308.765 83.8925C314.354 83.8925 317.147 84.3035 317.147 85.1333C317.147 85.2109 317.128 85.3427 317.093 85.5211C317.05 85.6839 317.027 85.8429 317.027 86.0019L317.508 97.3515C317.508 98.41 317.454 99.0227 317.326 99.1816C317.209 99.3523 316.821 99.4259 316.161 99.4259L299.786 99.3096C298.799 99.3096 298.174 99.329 297.886 99.3639C297.611 99.4065 297.319 99.4259 297.02 99.4259C296.733 99.4259 296.108 99.4686 295.121 99.5461C294.461 99.5461 294.072 99.6353 293.952 99.8176C293.835 99.9766 293.773 100.632 293.773 101.772L294.733 129.019C294.733 129.679 294.698 130.132 294.612 130.369C294.531 130.632 294.251 130.76 293.773 130.76ZM360.337 128.531H350.751C349.508 128.531 348.596 128.372 348.013 128.05C347.458 127.709 347.17 126.887 347.17 125.588C347.17 122.292 347.232 118.783 347.353 115.052C347.469 111.299 347.574 107.363 347.652 103.249C342.082 103.249 337.678 102.656 334.431 101.473C331.188 100.291 328.803 98.5031 327.28 96.1145C325.777 93.7298 324.818 90.7325 324.395 87.1186C323.998 83.5047 323.796 79.2704 323.796 74.4158V44.4617C323.796 43.8025 323.894 43.4535 324.095 43.4109C324.297 43.3721 324.931 43.3489 325.987 43.3489L344.351 43.0774C344.669 43.0774 344.828 43.1666 344.828 43.3489C344.828 43.5078 344.871 44.0041 344.949 44.8262L343.834 77.7233C343.834 79.3673 343.962 81.1627 344.195 83.1131C344.463 85.0441 345.081 86.6843 346.059 88.0492C347.046 89.3947 348.685 90.0694 350.988 90.0694C354.596 90.0694 357.222 89.9027 358.861 89.5808C360.504 89.2396 361.545 88.4835 361.992 87.297C362.45 86.0949 362.679 84.1794 362.679 81.5466C362.679 80.6431 362.656 79.6814 362.617 78.6578C362.582 77.6341 362.559 76.5135 362.559 75.2882C362.559 75.0245 362.516 73.7682 362.434 71.527C362.357 69.2586 362.225 66.6063 362.046 63.578C361.887 60.5264 361.747 57.5678 361.626 54.6984C361.502 51.8097 361.448 49.58 361.448 48.0135C361.448 45.8925 361.976 44.8262 363.04 44.8262C364.283 44.7409 365.514 44.706 366.738 44.706C367.973 44.706 369.126 44.706 370.191 44.706C373.29 44.706 375.527 44.7835 376.891 44.9425C378.254 45.1054 379.093 45.3186 379.415 45.5784C379.734 45.8227 379.893 46.098 379.893 46.4198L380.165 62.4613C380.165 63.3686 380.075 63.8959 379.893 64.0549C379.734 64.2178 379.283 64.2992 378.545 64.2992L376.079 64.4194C375.834 70.6623 375.64 76.1102 375.481 80.7672C375.321 85.397 374.785 89.2822 373.88 92.4153C372.983 95.5406 371.379 97.9524 369.08 99.6353C366.773 101.307 363.366 102.311 358.861 102.652L362.318 126.429C362.318 127.43 362.205 128.031 361.992 128.232C361.79 128.434 361.23 128.531 360.337 128.531ZM381.854 141.358C381.373 141.358 380.938 140.415 380.534 138.531C380.114 136.643 379.901 134.785 379.901 132.959C379.901 131.819 380.005 130.85 380.207 130.07C380.402 129.291 380.755 128.895 381.256 128.895C384.119 128.977 386.907 129.019 389.611 129.019C392.333 129.019 394.753 129.019 396.881 129.019H425.064C426.202 129.019 426.858 129.097 427.017 129.256C427.196 129.438 427.285 129.981 427.285 130.884L427.044 139.128C426.967 140.214 426.877 140.834 426.773 140.993C426.695 141.156 426.334 141.238 425.697 141.238C425.697 141.238 424.974 141.238 423.526 141.238C422.088 141.238 420.197 141.218 417.847 141.175C415.528 141.133 413.027 141.121 410.343 141.121C407.675 141.121 405.166 141.121 402.801 141.121C400.416 141.121 397.876 141.133 395.165 141.175C392.458 141.218 389.917 141.238 387.533 141.238C385.148 141.238 383.256 141.28 381.854 141.358ZM456.205 130.524C450.376 130.524 445.629 129.841 441.967 128.476C438.316 127.112 435.496 124.704 433.492 121.249C431.492 117.802 430.117 112.935 429.379 106.654C428.637 100.368 428.268 92.2563 428.268 82.2988V48.8937C428.268 48.1453 428.322 47.6956 428.447 47.5327C428.567 47.3737 428.913 47.2923 429.499 47.2923L450.049 46.9007C450.445 46.9007 450.667 47.0519 450.71 47.3543C450.752 47.6296 450.772 48.347 450.772 49.4909L449.537 97.588C449.459 99.3988 449.537 101.454 449.777 103.765C450.034 106.049 450.445 108.247 451.009 110.353C451.591 112.439 452.349 114.188 453.296 115.595C454.232 116.995 455.409 117.697 456.811 117.697C460.016 117.697 462.517 117.557 464.319 117.278C466.125 116.972 467.473 116.15 468.378 114.808C469.279 113.443 469.85 111.283 470.087 108.34C470.351 105.366 470.483 101.252 470.483 95.9943C470.483 95.6531 470.44 94.3037 470.359 91.9345C470.281 89.5459 470.192 86.568 470.087 82.9968C470.009 79.4023 469.904 75.6139 469.788 71.6472C469.671 67.6494 469.566 63.8494 469.489 60.2355C469.407 56.6255 469.329 53.5856 469.244 51.1117C469.17 48.6495 469.127 47.1992 469.127 46.7805C469.127 45.4815 469.213 44.706 469.372 44.4617C469.531 44.2058 469.858 44.074 470.359 44.074H471.081C473.221 44.074 475.334 44.1437 477.42 44.2833C479.525 44.3996 481.521 44.4617 483.397 44.4617C484.224 44.4617 484.753 44.5819 484.993 44.8262C485.23 45.0705 485.351 45.6405 485.351 46.5401L485.747 64.4194C485.747 65.827 485.634 66.6451 485.413 66.8894C485.211 67.126 484.745 67.2888 483.999 67.3702L482.166 67.4905L481.929 83.8925C481.75 92.6053 481.346 99.8176 480.729 105.541C480.123 111.256 479.183 115.805 477.897 119.174C476.639 122.544 475.015 125.037 473.035 126.639C471.073 128.224 468.696 129.268 465.911 129.772C463.131 130.272 459.891 130.524 456.205 130.524ZM509.731 59.6074L492.878 59.3631C491.798 59.3631 491.064 59.1615 490.687 58.766C490.326 58.3395 490.144 57.595 490.144 56.5364L490.019 47.2923V44.9425C490.019 44.2058 490.202 43.6125 490.563 43.1666C490.944 42.709 491.666 42.4803 492.73 42.4803L508.499 42.8409C509.319 42.8409 509.995 42.9456 510.515 43.1666C511.059 43.3721 511.331 43.9188 511.331 44.8262V56.8931C511.331 57.6376 511.218 58.2774 510.997 58.8202C510.795 59.3437 510.375 59.6074 509.731 59.6074ZM508.499 128.655L493.356 129.136H491.495C490.672 129.136 490.167 128.977 489.965 128.655C489.763 128.337 489.666 127.55 489.666 126.309V125.704C489.666 121.353 489.763 117.014 489.965 112.707C490.167 108.387 490.264 104.052 490.264 99.6973C490.264 94.6022 490.221 89.4839 490.144 84.3462C490.062 79.2084 489.946 74.1327 489.782 69.119C489.782 68.0333 489.88 67.2539 490.082 66.7654C490.307 66.2652 490.986 66.0131 492.124 66.0131H508.383C509.684 66.0131 510.496 66.3039 510.814 66.8894C511.156 67.4672 511.331 68.3745 511.331 69.5998V127.061C511.331 127.883 511.175 128.337 510.876 128.414C510.593 128.496 509.801 128.573 508.499 128.655Z" stroke="#433DC3" stroke-width="2.2" stroke-miterlimit="8"/>
<path fill-rule="evenodd" clip-rule="evenodd" d="M5.0572 11.173C5.1543 11.2544 6.68458 10.886 6.8011 10.8395C8.04398 10.3587 9.25578 9.74215 10.3472 8.97052C12.0639 7.75297 13.4738 6.05849 14.1069 4.03441C14.2389 3.61951 14.3787 1.66134 14.938 1.55665C15.342 1.4791 15.711 3.13869 15.7887 3.34807C16.4412 5.16277 17.183 6.87277 18.4569 8.34624C19.6882 9.77705 21.3893 10.8201 23.1488 11.4793C23.4323 11.584 25.0248 11.8205 25.0753 12.2005C25.0947 12.3323 23.7236 12.7627 23.5993 12.8248C22.1972 13.4723 20.729 14.1044 19.591 15.1668C18.0802 16.5666 16.7752 18.3309 15.9479 20.2115C15.7615 20.6303 15.4119 22.445 14.9536 22.604C14.7322 22.6815 14.4059 21.6229 14.3554 21.4988C13.8777 20.2774 13.5165 19.025 12.9106 17.8579C11.458 15.0428 8.59939 12.0067 5.24362 11.6577C5.14652 11.6538 5.06885 11.2622 5.0572 11.173ZM5.0572 11.173C5.04943 11.1652 5.04942 11.1575 5.04942 11.1536C5.04942 11.1536 5.04943 11.1575 5.0572 11.173ZM38.9061 15.1668C40.2112 21.6501 43.7922 28.8585 50.3872 31.2199C54.2945 32.6158 58.6562 32.7515 62.7577 33.0501C64.4627 33.1742 66.1834 33.244 67.8807 33.4456C68.0205 33.4572 69.2556 33.5425 69.1235 33.8954C68.9371 34.4034 67.6165 34.6593 67.1932 34.7911C65.1347 35.4037 63.0218 35.8497 60.9361 36.3848C54.5353 38.0327 46.7945 39.227 42.1648 44.3764C38.5566 48.3858 37.5001 54.2486 36.8321 59.4135C36.6534 60.8017 36.5058 62.1937 36.133 63.5392C36.0631 63.7758 35.8611 64.7568 35.4921 64.7568C34.9483 64.7568 34.8046 63.3454 34.7541 63.0197C34.4978 61.1933 34.4085 59.3282 34.2337 57.4942C33.7754 52.624 32.5791 47.6335 29.0486 44.0197C25.7627 40.6501 17.6801 39.2619 13.1475 38.3778C11.3337 38.0327 5.92333 37.265 6.0282 36.8501C6.14083 36.4274 10.9492 35.4581 12.6271 35.0625C17.9714 33.7985 26.0268 30.9136 29.4525 26.5591C31.9615 23.3562 33.5812 19.6803 34.6104 15.7679C34.9289 14.5581 35.9426 10.1377 36.6612 10.033C37.3758 9.93602 38.5216 13.263 38.9061 15.1668Z" fill="#FFE266"/>
<path fill-rule="evenodd" clip-rule="evenodd" d="M35.5931 2.86725C35.5931 2.71602 35.5931 2.63846 35.5931 2.63846C35.5931 2.37479 35.7252 2.13052 35.9465 1.99868C36.1718 1.86684 36.4398 1.86684 36.6612 1.99092V1.99868C36.7466 2.04133 37.0535 2.29724 37.0923 2.88275C37.1156 3.20846 37.1156 3.79786 37.1079 4.56173C37.2321 7.61336 37.671 13.7709 39.1741 19.2499C40.2577 23.2166 41.8812 26.846 44.4058 28.5754C45.7808 29.5137 47.5791 30.2854 49.4939 30.9058C52.337 31.8364 55.448 32.4413 57.8639 32.7592C60.1942 33.0811 66.0164 33.3254 69.6362 33.6162C71.1355 33.7325 72.2812 33.8643 72.6929 34.0039C72.9765 34.1009 73.0114 34.3258 73.0192 34.4344C73.0231 34.5313 73.023 34.7911 72.7045 34.9074C72.6929 34.9152 72.658 34.9307 72.5881 34.9345C72.5725 34.9345 72.5337 34.9423 72.4754 34.9423C72.3162 34.9578 71.9783 34.9772 71.5238 35.0121C69.2478 35.1595 63.9151 35.5046 62.1596 35.8342C58.2212 36.5554 53.7196 37.1874 49.5987 38.4942C46.8294 39.3782 44.2349 40.5725 42.1182 42.3096C39.6751 44.326 38.0633 47.8972 37.0108 51.7476C35.461 57.3933 35.0998 63.6206 35.0105 66.4823C34.9911 67.2423 34.9833 67.7619 34.9833 67.979C34.9716 68.9174 34.6765 69.1461 34.4279 68.9639C34.2492 68.9368 34.09 68.708 34.0744 68.1729C34.0667 68.138 34.0667 68.0953 34.0589 68.0604C34.0395 67.6572 33.8375 63.989 33.5889 60.6117C33.4414 58.6225 33.2821 56.7341 33.1384 55.6988C32.8393 53.5972 32.5325 51.4296 31.915 49.3784C31.5227 48.0523 30.9867 46.7804 30.2371 45.5978C28.633 43.0541 26.221 41.476 23.4984 40.4678C19.2998 38.9168 14.3516 38.7229 10.1957 38.7811C9.51601 38.785 8.4013 38.7927 7.17784 38.8199C5.2475 38.9827 3.42979 39.1146 2.22187 39.1882C1.57713 39.2231 1.10719 39.2464 0.885804 39.2541C-0.469707 39.2658 0.085669 37.6527 0.268216 37.548C0.501255 37.4045 1.36354 37.2301 2.54427 37.1448C4.03572 37.0478 6.11753 36.9935 7.83037 36.9664C10.6618 36.7298 13.5631 36.439 14.938 36.1599C19.96 35.1595 24.4849 33.116 27.9611 30.014C31.4372 26.9236 33.8725 22.7746 34.727 17.567C35.0959 15.3026 35.5737 7.77235 35.6514 4.34847C35.6203 3.75133 35.6086 3.28602 35.6009 2.99133C35.6358 3.03398 35.6863 3.07664 35.7407 3.11153C35.7407 2.94868 35.7174 2.84785 35.6358 2.85948C35.6203 2.85948 35.6086 2.85949 35.5931 2.86725ZM35.6009 2.99133C35.5465 2.93705 35.5309 2.88663 35.5931 2.86725C35.5931 2.90214 35.6009 2.94868 35.6009 2.99133ZM34.7075 59.8478C35.0377 57.2459 35.5387 54.3339 36.3077 51.5537C37.4263 47.5521 39.1003 43.8335 41.6365 41.7319C43.8155 39.9211 46.4954 38.6686 49.354 37.738C53.4982 36.3964 58.027 35.7217 61.9925 34.9656C62.9286 34.7833 64.8783 34.5895 66.8475 34.4227C63.4762 34.2327 59.5417 34.0621 57.724 33.8295C55.2538 33.5192 52.0612 32.926 49.1404 32.0031C47.1013 31.3556 45.1904 30.5491 43.7261 29.5719C40.9879 27.7301 39.1275 23.8719 37.9118 19.595C37.3758 17.7183 36.968 15.7601 36.6495 13.8678C36.533 15.5662 36.401 17.0125 36.2689 17.819C35.3911 23.4182 32.7966 27.8968 29.0796 31.2509C25.9919 34.0388 22.1195 36.0474 17.7966 37.2727C19.9756 37.5441 22.1467 37.9939 24.1431 38.7578C27.2192 39.9249 29.8914 41.8094 31.6547 44.7292C32.4432 46.0554 32.9908 47.4901 33.387 48.9635C33.9579 51.1039 34.1987 53.3529 34.4357 55.5282C34.5405 56.4666 34.6299 58.0796 34.7075 59.8478ZM14.472 0.843155C14.472 0.831522 14.4642 0.816021 14.4642 0.804389C14.4642 0.796634 14.4642 0.78888 14.4642 0.781125C14.437 0.385615 14.7361 0.0366317 15.1245 0.00173376C15.5206 -0.0254091 15.8663 0.269293 15.909 0.664803C15.909 0.672558 15.909 0.676431 15.909 0.684186H15.9129C16.0411 2.875 16.1926 5.5001 17.1791 7.57071C17.8005 8.87745 18.7599 9.9554 20.2941 10.5176C20.9233 10.7542 21.5486 10.9364 22.1817 11.0837C23.1527 11.3048 24.1315 11.456 25.1568 11.6034C26.1162 11.7352 28.5087 12.0066 29.5302 12.1734C29.7788 12.216 29.9652 12.2587 30.0429 12.2858C30.5439 12.4642 30.4119 12.8907 30.3148 13.0303C30.2099 13.1815 29.7943 13.3754 29.1806 13.4103C28.1902 13.4723 26.5512 13.3754 25.8948 13.3909C24.6014 13.4181 23.2576 13.3832 21.9448 13.5344C21.0903 13.6313 20.2591 13.8135 19.459 14.1354C18.1346 14.6744 17.2684 15.6554 16.7053 16.8303C16.2741 17.7183 16.01 18.7264 15.8663 19.7578C15.742 20.6458 15.7071 21.5415 15.6993 22.3907C15.812 23.7827 15.8469 25.1437 15.9129 26.3652C15.9207 26.4699 15.9285 26.5474 15.9285 26.5901C16.0062 27.9356 14.8526 27.3035 14.7633 26.687C14.5069 24.9499 14.27 22.9103 13.8467 20.9366C13.5903 19.7074 13.2447 18.4976 12.7436 17.4158C11.9474 15.6981 10.7239 14.2866 8.64211 13.6972C8.17215 13.5654 7.68666 13.4646 7.19339 13.3987C5.95052 13.2242 4.6727 13.1893 3.46478 13.0225C3.022 12.9644 2.86273 12.689 2.80836 12.5844C2.66853 12.3401 2.64138 12.0842 2.74236 11.8127C2.77732 11.7274 2.88218 11.4172 3.32107 11.2854C3.34049 11.2776 3.40262 11.2621 3.49972 11.2505C3.60459 11.2272 3.82598 11.2001 4.14059 11.1574C5.56989 10.9713 8.95282 10.5487 9.98984 10.0756C11.0152 9.59478 11.7726 8.88519 12.3552 8.04376C13.299 6.67499 13.7923 4.98051 14.1574 3.32479C14.2545 2.89439 14.3671 2.31663 14.4293 1.76989C14.4642 1.43643 14.4836 1.11458 14.472 0.843155ZM15.2293 19.1801C15.408 18.2495 15.6566 17.3382 16.045 16.5162C16.6859 15.1746 17.6568 14.0578 19.1677 13.4336C20.0222 13.0691 20.9233 12.8636 21.8399 12.7433C22.6944 12.6309 23.5566 12.5921 24.4072 12.5611C23.5683 12.4603 22.7487 12.3401 21.937 12.1734C21.2573 12.0338 20.5854 11.8554 19.8979 11.6227C18.0258 10.9791 16.8179 9.70723 16.0256 8.13682C15.6372 7.36907 15.3536 6.53539 15.1361 5.66682C14.7982 6.83397 14.3477 7.96236 13.6952 8.94338C12.9728 10.033 12.0095 10.9519 10.7123 11.584C10.4171 11.7236 9.95492 11.867 9.39174 12.0066C11.9124 12.7976 13.4777 14.5154 14.4215 16.6635C14.771 17.4546 15.0351 18.3037 15.2293 19.1801Z" fill="#433DC3"/>
<path fill-rule="evenodd" clip-rule="evenodd" d="M404.362 156.302H407.57C408.58 156.302 409.33 156.569 409.831 157.097C410.328 157.628 410.576 158.419 410.576 159.458V165.941C410.576 166.965 410.328 167.752 409.831 168.299C409.33 168.834 408.58 169.098 407.57 169.098H404.362V156.302ZM406.366 158.12V167.275H407.512C407.834 167.275 408.087 167.182 408.258 166.992C408.444 166.806 408.541 166.48 408.541 166.027V159.373C408.541 158.904 408.444 158.574 408.258 158.403C408.087 158.221 407.834 158.12 407.512 158.12H406.366Z" fill="#433DC3"/>
<path fill-rule="evenodd" clip-rule="evenodd" d="M418.764 161.703H421.525V163.522H418.764V167.275H422.228V169.098H416.791V156.302H422.228V158.12H418.764V161.703Z" fill="#433DC3"/>
<path fill-rule="evenodd" clip-rule="evenodd" d="M431.437 166.736L432.898 156.302H434.657L432.789 169.098H429.95L428.054 156.302H429.977L431.437 166.736Z" fill="#433DC3"/>
<path fill-rule="evenodd" clip-rule="evenodd" d="M440.541 159.443C440.541 158.427 440.774 157.647 441.256 157.104C441.734 156.569 442.452 156.298 443.411 156.298C444.363 156.298 445.082 156.569 445.563 157.104C446.041 157.647 446.282 158.427 446.282 159.443V159.834H444.433V159.303C444.433 158.857 444.351 158.547 444.184 158.357C444.017 158.179 443.777 158.082 443.466 158.082C443.147 158.082 442.899 158.179 442.72 158.357C442.557 158.547 442.472 158.857 442.472 159.303C442.472 159.749 442.561 160.137 442.747 160.47C442.949 160.792 443.19 161.098 443.466 161.389C443.757 161.668 444.06 161.959 444.379 162.254C444.709 162.552 445.012 162.878 445.287 163.227C445.579 163.561 445.82 163.948 446.006 164.394C446.208 164.84 446.309 165.36 446.309 165.953C446.309 166.973 446.06 167.752 445.563 168.287C445.066 168.83 444.336 169.094 443.384 169.094C442.425 169.094 441.699 168.83 441.202 168.287C440.72 167.752 440.483 166.973 440.483 165.953V165.174H442.336V166.062C442.336 166.531 442.425 166.856 442.611 167.039C442.79 167.205 443.031 167.287 443.33 167.287C443.641 167.287 443.889 167.205 444.076 167.039C444.254 166.856 444.351 166.531 444.351 166.062C444.351 165.639 444.247 165.271 444.045 164.953C443.858 164.615 443.633 164.305 443.357 164.006C443.081 163.712 442.775 163.421 442.444 163.142C442.114 162.851 441.796 162.529 441.504 162.196C441.229 161.851 440.996 161.447 440.817 161.001C440.631 160.555 440.541 160.04 440.541 159.443Z" fill="#433DC3"/>
<path fill-rule="evenodd" clip-rule="evenodd" d="M455.425 156.302C456.407 156.302 457.141 156.569 457.627 157.097C458.109 157.628 458.353 158.419 458.353 159.458V161.133C458.353 162.157 458.109 162.948 457.627 163.495C457.141 164.026 456.407 164.289 455.425 164.289H454.477V169.098H452.527V156.302H455.425ZM454.477 158.12V162.471H455.425C455.739 162.471 455.984 162.386 456.151 162.215C456.318 162.044 456.4 161.723 456.4 161.25V159.342C456.4 158.873 456.318 158.547 456.151 158.376C455.984 158.206 455.739 158.12 455.425 158.12H454.477Z" fill="#433DC3"/>
<path fill-rule="evenodd" clip-rule="evenodd" d="M465.845 166.062C465.845 166.531 465.939 166.856 466.133 167.039C466.323 167.225 466.576 167.314 466.886 167.314C467.209 167.314 467.469 167.225 467.667 167.039C467.854 166.856 467.955 166.531 467.955 166.062V159.303C467.955 158.857 467.854 158.547 467.667 158.357C467.469 158.179 467.209 158.082 466.886 158.082C466.576 158.082 466.323 158.179 466.133 158.357C465.939 158.547 465.845 158.857 465.845 159.303V166.062ZM463.791 159.443C463.791 158.427 464.051 157.647 464.572 157.104C465.108 156.569 465.88 156.298 466.886 156.298C467.881 156.298 468.654 156.569 469.197 157.104C469.733 157.647 470.005 158.427 470.005 159.443V165.953C470.005 166.973 469.733 167.752 469.197 168.287C468.654 168.83 467.881 169.094 466.886 169.094C465.88 169.094 465.108 168.83 464.572 168.287C464.051 167.752 463.791 166.973 463.791 165.953V159.443Z" fill="#433DC3"/>
<path fill-rule="evenodd" clip-rule="evenodd" d="M475.831 156.302H481.657V158.12H479.688V169.098H477.8V158.12H475.831V156.302Z" fill="#433DC3"/>
<path d="M47.9713 166.57H375.78" stroke="#433DC3" stroke-width="5" stroke-miterlimit="8" stroke-linecap="round"/>
<path d="M127.989 18.4434H468.226" stroke="#433DC3" stroke-width="5" stroke-miterlimit="8" stroke-linecap="round"/>
</svg>
