<svg width="170" height="128" viewBox="0 0 170 128" fill="none" xmlns="http://www.w3.org/2000/svg">
<rect x="126" y="4" width="42" height="123" rx="8" fill="#FFE266"/>
<rect x="129" y="1" width="40" height="121" rx="7" fill="#FFFCF2" stroke="#433DC3" stroke-width="2"/>
<line x1="128" y1="37" x2="168" y2="37" stroke="#433DC3" stroke-width="2"/>
<path d="M142 26V24.1667H158V26H142ZM142 21.4167V19.5833H158V21.4167H142ZM142 16.8333V15H158V16.8333H142Z" fill="#433DC3"/>
<path d="M154.963 103.625L150.628 99.2906L152.291 97.6281L156.625 101.963L154.963 103.625ZM144.038 103.625L142.375 101.963L147.838 96.5L146.492 95.1542L145.938 95.7083L144.928 94.699V96.3219L144.374 96.8761L141.979 94.4813L142.533 93.9271H144.156L143.167 92.9375L145.977 90.1271C146.241 89.8632 146.525 89.6719 146.828 89.5531C147.132 89.4344 147.442 89.375 147.758 89.375C148.075 89.375 148.385 89.4344 148.689 89.5531C148.992 89.6719 149.276 89.8632 149.54 90.1271L147.719 91.9479L148.708 92.9375L148.154 93.4917L149.5 94.8375L151.281 93.0563C151.229 92.9111 151.186 92.7594 151.153 92.6011C151.12 92.4427 151.103 92.2844 151.103 92.1261C151.103 91.3476 151.37 90.6912 151.905 90.1568C152.439 89.6224 153.096 89.3552 153.874 89.3552C154.072 89.3552 154.26 89.375 154.438 89.4146C154.616 89.4542 154.798 89.5136 154.982 89.5927L153.023 91.5521L154.448 92.9771L156.407 91.0177C156.5 91.2024 156.562 91.3839 156.595 91.562C156.628 91.7401 156.645 91.9281 156.645 92.1261C156.645 92.9045 156.378 93.561 155.843 94.0953C155.309 94.6297 154.653 94.8969 153.874 94.8969C153.716 94.8969 153.557 94.8837 153.399 94.8573C153.241 94.8309 153.089 94.7847 152.944 94.7188L144.038 103.625Z" fill="#433DC3"/>
<path d="M144.25 69.625H146.875V64.375H152.125V69.625H154.75V61.75L149.5 57.8125L144.25 61.75V69.625ZM142.5 71.375V60.875L149.5 55.625L156.5 60.875V71.375H150.375V66.125H148.625V71.375H142.5Z" fill="#433DC3"/>
<rect y="5" width="101" height="123" rx="8" fill="#FFE266"/>
<rect x="5" y="2" width="100" height="121" rx="7" fill="#FFFCF2" stroke="#433DC3" stroke-width="2"/>
<line x1="6" y1="38" x2="106" y2="38" stroke="#433DC3" stroke-width="2"/>
<path d="M20 27V25.1667H36V27H20ZM20 22.4167V20.5833H36V22.4167H20ZM20 17.8333V16H36V17.8333H20Z" fill="#433DC3"/>
<path d="M49.554 70.986C49.3767 70.986 49.232 70.9487 49.12 70.874C49.008 70.7993 48.9193 70.7153 48.854 70.622C48.798 70.5287 48.7607 70.4493 48.742 70.384C48.7233 70.3093 48.714 70.272 48.714 70.272C48.6767 69.8707 48.644 69.418 48.616 68.914C48.5973 68.41 48.5833 67.878 48.574 67.318C48.5647 66.758 48.5647 66.198 48.574 65.638C48.5927 65.0687 48.616 64.518 48.644 63.986C48.672 63.454 48.7047 62.964 48.742 62.516C48.742 62.516 48.7467 62.488 48.756 62.432C48.7653 62.3667 48.7933 62.2967 48.84 62.222C48.8867 62.138 48.9567 62.068 49.05 62.012C49.1527 61.9467 49.2973 61.914 49.484 61.914C49.6613 61.9233 49.806 61.9607 49.918 62.026C50.0393 62.082 50.128 62.1613 50.184 62.264C50.24 62.3573 50.2773 62.4507 50.296 62.544C50.324 62.628 50.338 62.7027 50.338 62.768C50.338 62.824 50.338 62.852 50.338 62.852C50.3007 63.2347 50.2727 63.6687 50.254 64.154C50.2353 64.63 50.2213 65.1387 50.212 65.68C50.212 66.212 50.212 66.7533 50.212 67.304C50.2213 67.8547 50.2353 68.3913 50.254 68.914C50.2727 69.4367 50.2913 69.922 50.31 70.37C50.31 70.37 50.3053 70.4027 50.296 70.468C50.2867 70.524 50.2587 70.594 50.212 70.678C50.1653 70.762 50.0907 70.8367 49.988 70.902C49.8853 70.958 49.7407 70.986 49.554 70.986ZM49.274 67.948L49.484 66.464L54.692 66.086L54.72 67.612L49.274 67.948ZM55.028 70.986C54.8507 70.986 54.706 70.9487 54.594 70.874C54.482 70.7993 54.398 70.7153 54.342 70.622C54.286 70.5287 54.244 70.4493 54.216 70.384C54.1973 70.3093 54.188 70.272 54.188 70.272C54.1507 69.8707 54.118 69.418 54.09 68.914C54.0713 68.41 54.0573 67.878 54.048 67.318C54.048 66.758 54.0527 66.198 54.062 65.638C54.0713 65.0687 54.09 64.518 54.118 63.986C54.146 63.454 54.1787 62.964 54.216 62.516C54.216 62.516 54.2207 62.488 54.23 62.432C54.2487 62.3667 54.2767 62.2967 54.314 62.222C54.3607 62.138 54.4353 62.068 54.538 62.012C54.6407 61.9467 54.7807 61.914 54.958 61.914C55.1447 61.9233 55.294 61.9607 55.406 62.026C55.518 62.082 55.602 62.1567 55.658 62.25C55.7233 62.3433 55.7653 62.4367 55.784 62.53C55.812 62.6233 55.826 62.7027 55.826 62.768C55.826 62.824 55.826 62.852 55.826 62.852C55.7887 63.2347 55.7607 63.6687 55.742 64.154C55.7233 64.63 55.7093 65.1387 55.7 65.68C55.7 66.212 55.7 66.7533 55.7 67.304C55.7093 67.8547 55.7187 68.3913 55.728 68.914C55.7467 69.4367 55.77 69.922 55.798 70.37C55.798 70.37 55.7933 70.4027 55.784 70.468C55.7747 70.524 55.7467 70.594 55.7 70.678C55.6533 70.762 55.5787 70.8367 55.476 70.902C55.3733 70.958 55.224 70.986 55.028 70.986ZM60.1954 70.972C59.7008 70.972 59.2434 70.888 58.8234 70.72C58.4128 70.5427 58.0581 70.3 57.7594 69.992C57.4608 69.684 57.2274 69.3247 57.0594 68.914C56.8914 68.5033 56.8074 68.0647 56.8074 67.598C56.8074 67.1313 56.8961 66.6833 57.0734 66.254C57.2508 65.8153 57.4981 65.428 57.8154 65.092C58.1328 64.756 58.5061 64.49 58.9354 64.294C59.3648 64.098 59.8268 64 60.3214 64C60.8254 64 61.2921 64.07 61.7214 64.21C62.1508 64.35 62.5241 64.5647 62.8414 64.854C63.1681 65.134 63.4201 65.498 63.5974 65.946C63.7841 66.3847 63.8774 66.9027 63.8774 67.5C63.8774 67.9667 63.7794 68.41 63.5834 68.83C63.3968 69.25 63.1308 69.6233 62.7854 69.95C62.4494 70.2673 62.0574 70.5193 61.6094 70.706C61.1708 70.8833 60.6994 70.972 60.1954 70.972ZM60.1814 69.516C60.4521 69.516 60.7088 69.46 60.9514 69.348C61.1941 69.236 61.4088 69.082 61.5954 68.886C61.7821 68.69 61.9268 68.466 62.0294 68.214C62.1414 67.962 62.1974 67.696 62.1974 67.416C62.1974 66.94 62.1181 66.548 61.9594 66.24C61.8101 65.932 61.6001 65.708 61.3294 65.568C61.0588 65.4187 60.7461 65.344 60.3914 65.344C60.1301 65.344 59.8828 65.4093 59.6494 65.54C59.4161 65.6707 59.2108 65.848 59.0334 66.072C58.8654 66.2867 58.7301 66.5293 58.6274 66.8C58.5341 67.0613 58.4874 67.332 58.4874 67.612C58.4874 67.9853 58.5574 68.3167 58.6974 68.606C58.8374 68.886 59.0334 69.11 59.2854 69.278C59.5468 69.4367 59.8454 69.516 60.1814 69.516ZM70.5614 70.762C70.3748 70.7153 70.2348 70.6407 70.1414 70.538C70.0481 70.4353 69.9828 70.328 69.9454 70.216C69.9174 70.104 69.8988 70.0107 69.8894 69.936C69.8894 69.852 69.8894 69.81 69.8894 69.81C69.9828 69.082 70.0201 68.4147 70.0014 67.808C69.9828 67.192 69.8708 66.7113 69.6654 66.366C69.4974 66.0487 69.2921 65.8247 69.0494 65.694C68.8068 65.554 68.5501 65.498 68.2794 65.526C68.0181 65.554 67.7568 65.6567 67.4954 65.834C67.2061 66.0393 66.9821 66.2913 66.8234 66.59C66.6741 66.8793 66.5714 67.1827 66.5154 67.5C66.4594 67.808 66.4268 68.1067 66.4174 68.396C66.4174 68.676 66.4174 68.9233 66.4174 69.138C66.4174 69.3433 66.4221 69.5253 66.4314 69.684C66.4408 69.8427 66.4454 69.9827 66.4454 70.104C66.4454 70.104 66.4454 70.1273 66.4454 70.174C66.4454 70.2207 66.4314 70.2767 66.4034 70.342C66.3754 70.4073 66.3241 70.468 66.2494 70.524C66.1748 70.58 66.0628 70.6127 65.9134 70.622C65.7828 70.6313 65.6661 70.6033 65.5634 70.538C65.4608 70.4727 65.3768 70.4073 65.3114 70.342C65.2554 70.2673 65.2274 70.23 65.2274 70.23C65.1341 70.0713 65.0828 69.9173 65.0734 69.768C65.0641 69.6187 65.0641 69.446 65.0734 69.25C65.0828 69.054 65.0688 68.816 65.0314 68.536C65.0034 68.1907 64.9894 67.878 64.9894 67.598C64.9988 67.318 65.0221 67.0613 65.0594 66.828C65.0968 66.5947 65.1574 66.3707 65.2414 66.156C65.3254 65.9413 65.4421 65.7267 65.5914 65.512C65.7781 65.2693 66.0114 65.0453 66.2914 64.84C66.5714 64.6253 66.8794 64.4527 67.2154 64.322C67.5514 64.1913 67.8968 64.1167 68.2514 64.098C68.6154 64.07 68.9701 64.112 69.3154 64.224C69.5394 64.3173 69.7634 64.4387 69.9874 64.588C70.2208 64.7373 70.4354 64.924 70.6314 65.148C70.8368 65.372 71.0188 65.6427 71.1774 65.96C71.3361 66.2773 71.4668 66.646 71.5694 67.066C71.6628 67.5513 71.7048 68.0413 71.6954 68.536C71.6861 69.0307 71.6348 69.5813 71.5414 70.188C71.5414 70.188 71.5321 70.2253 71.5134 70.3C71.4948 70.3747 71.4528 70.4587 71.3874 70.552C71.3314 70.6453 71.2381 70.72 71.1074 70.776C70.9768 70.8227 70.7948 70.818 70.5614 70.762ZM65.8574 70.986C65.6988 70.9767 65.5634 70.944 65.4514 70.888C65.3488 70.8227 65.2648 70.748 65.1994 70.664C65.1341 70.58 65.0874 70.51 65.0594 70.454C65.0408 70.398 65.0314 70.37 65.0314 70.37C64.9754 69.866 64.9334 69.3853 64.9054 68.928C64.8868 68.4707 64.8774 68.018 64.8774 67.57C64.8774 67.1127 64.8868 66.6413 64.9054 66.156C64.9334 65.6707 64.9708 65.148 65.0174 64.588C65.0174 64.588 65.0221 64.56 65.0314 64.504C65.0501 64.4387 65.0828 64.3687 65.1294 64.294C65.1761 64.2193 65.2508 64.154 65.3534 64.098C65.4654 64.042 65.6101 64.014 65.7874 64.014C65.9834 64.0233 66.1328 64.0653 66.2354 64.14C66.3474 64.2147 66.4314 64.3033 66.4874 64.406C66.5434 64.5087 66.5761 64.5973 66.5854 64.672C66.6041 64.7467 66.6134 64.784 66.6134 64.784C66.5854 65.2413 66.5621 65.6893 66.5434 66.128C66.5248 66.5573 66.5154 66.996 66.5154 67.444C66.5154 67.8827 66.5201 68.3447 66.5294 68.83C66.5481 69.306 66.5761 69.8193 66.6134 70.37C66.6134 70.37 66.6041 70.4027 66.5854 70.468C66.5761 70.5333 66.5481 70.608 66.5014 70.692C66.4548 70.776 66.3801 70.8507 66.2774 70.916C66.1748 70.972 66.0348 70.9953 65.8574 70.986ZM75.6714 70.762C75.4848 70.7153 75.3448 70.6407 75.2514 70.538C75.1581 70.4353 75.0928 70.328 75.0554 70.216C75.0274 70.104 75.0088 70.0107 74.9994 69.936C74.9994 69.852 74.9994 69.81 74.9994 69.81C75.0928 69.082 75.1301 68.4147 75.1114 67.808C75.0928 67.192 74.9808 66.7113 74.7754 66.366C74.6074 66.0487 74.4021 65.8247 74.1594 65.694C73.9168 65.554 73.6601 65.498 73.3894 65.526C73.1281 65.554 72.8668 65.6567 72.6054 65.834C72.3161 66.0393 72.0921 66.2913 71.9334 66.59C71.7841 66.8793 71.6814 67.1827 71.6254 67.5C71.5694 67.808 71.5368 68.1067 71.5274 68.396C71.5274 68.676 71.5228 68.9047 71.5134 69.082C71.5134 69.2593 71.5088 69.4133 71.4994 69.544C71.4901 69.6653 71.4808 69.796 71.4714 69.936C71.4714 69.936 71.4668 69.964 71.4574 70.02C71.4574 70.076 71.4434 70.1413 71.4154 70.216C71.3968 70.2907 71.3501 70.3607 71.2754 70.426C71.2101 70.482 71.1074 70.5147 70.9674 70.524C70.8274 70.5333 70.7061 70.5053 70.6034 70.44C70.5101 70.3747 70.4401 70.3093 70.3934 70.244C70.3468 70.1787 70.3234 70.146 70.3234 70.146C70.2674 70.0247 70.2301 69.8893 70.2114 69.74C70.2021 69.5813 70.1974 69.404 70.1974 69.208C70.2068 69.0027 70.2068 68.774 70.1974 68.522C70.1694 68.1767 70.1508 67.8687 70.1414 67.598C70.1414 67.318 70.1554 67.0613 70.1834 66.828C70.2114 66.5947 70.2674 66.3707 70.3514 66.156C70.4354 65.9413 70.5521 65.7267 70.7014 65.512C70.8881 65.2693 71.1214 65.0453 71.4014 64.84C71.6814 64.6253 71.9894 64.4527 72.3254 64.322C72.6614 64.1913 73.0068 64.1167 73.3614 64.098C73.7254 64.07 74.0801 64.112 74.4254 64.224C74.6494 64.3173 74.8734 64.4387 75.0974 64.588C75.3308 64.7373 75.5454 64.924 75.7414 65.148C75.9468 65.372 76.1288 65.6427 76.2874 65.96C76.4461 66.2773 76.5768 66.646 76.6794 67.066C76.7728 67.5513 76.8148 68.0413 76.8054 68.536C76.7961 69.0307 76.7448 69.5813 76.6514 70.188C76.6514 70.188 76.6421 70.2253 76.6234 70.3C76.6048 70.3747 76.5628 70.4587 76.4974 70.552C76.4414 70.6453 76.3481 70.72 76.2174 70.776C76.0868 70.8227 75.9048 70.818 75.6714 70.762ZM80.6986 71.14C80.0826 71.028 79.5833 70.8507 79.2006 70.608C78.8273 70.3653 78.538 70.076 78.3326 69.74C78.1273 69.404 77.9873 69.0493 77.9126 68.676C77.8473 68.2933 77.81 67.9153 77.8006 67.542C77.8006 67.1033 77.88 66.6693 78.0386 66.24C78.2066 65.8107 78.4493 65.4233 78.7666 65.078C79.084 64.7327 79.462 64.462 79.9006 64.266C80.3486 64.07 80.8433 63.9907 81.3846 64.028C81.9353 64.0653 82.3833 64.1727 82.7286 64.35C83.0833 64.518 83.3586 64.7327 83.5546 64.994C83.7506 65.246 83.886 65.5167 83.9606 65.806C84.0446 66.086 84.0913 66.352 84.1006 66.604C84.1006 67.0613 83.9793 67.4533 83.7366 67.78C83.494 68.1067 83.1113 68.3307 82.5886 68.452C82.4393 68.4893 82.2573 68.5127 82.0426 68.522C81.828 68.5313 81.5946 68.536 81.3426 68.536C81.1 68.536 80.8573 68.5313 80.6146 68.522C80.3813 68.5127 80.1666 68.5033 79.9706 68.494C79.784 68.4847 79.63 68.4753 79.5086 68.466C79.3873 68.4567 79.3266 68.452 79.3266 68.452C79.3546 68.676 79.4293 68.8953 79.5506 69.11C79.6813 69.3247 79.868 69.5067 80.1106 69.656C80.3626 69.796 80.6753 69.8753 81.0486 69.894C81.4033 69.9033 81.7206 69.8987 82.0006 69.88C82.29 69.852 82.5373 69.824 82.7426 69.796C82.948 69.768 83.102 69.74 83.2046 69.712C83.3166 69.684 83.3726 69.67 83.3726 69.67C83.3726 69.67 83.396 69.67 83.4426 69.67C83.4986 69.67 83.5686 69.6747 83.6526 69.684C83.7366 69.6933 83.8206 69.7213 83.9046 69.768C83.9886 69.8147 84.0586 69.894 84.1146 70.006C84.18 70.1087 84.208 70.202 84.1986 70.286C84.1893 70.37 84.1613 70.44 84.1146 70.496C84.0773 70.552 84.04 70.594 84.0026 70.622C83.9653 70.65 83.9466 70.664 83.9466 70.664C83.9466 70.664 83.8486 70.7013 83.6526 70.776C83.4566 70.8507 83.1953 70.9253 82.8686 71C82.5513 71.084 82.2013 71.1447 81.8186 71.182C81.4453 71.2193 81.072 71.2053 80.6986 71.14ZM79.3406 67.444L81.8186 67.416C81.8186 67.416 81.8466 67.4113 81.9026 67.402C81.968 67.3927 82.0473 67.374 82.1406 67.346C82.234 67.318 82.3226 67.2713 82.4066 67.206C82.5 67.1407 82.5746 67.052 82.6306 66.94C82.6866 66.828 82.7146 66.6833 82.7146 66.506C82.7146 66.2167 82.6633 65.974 82.5606 65.778C82.458 65.582 82.29 65.442 82.0566 65.358C81.8233 65.2647 81.4966 65.232 81.0766 65.26C80.7873 65.2787 80.5306 65.372 80.3066 65.54C80.0826 65.6987 79.8913 65.8947 79.7326 66.128C79.5833 66.3613 79.476 66.5993 79.4106 66.842C79.3453 67.0753 79.322 67.276 79.3406 67.444Z" fill="#494949"/>
<path d="M51.046 101.986C50.8687 101.986 50.724 101.949 50.612 101.874C50.5 101.799 50.4113 101.715 50.346 101.622C50.29 101.529 50.2527 101.449 50.234 101.384C50.2153 101.309 50.206 101.272 50.206 101.272C50.15 100.768 50.108 100.203 50.08 99.578C50.0613 98.9527 50.052 98.304 50.052 97.632C50.0613 96.9507 50.08 96.2833 50.108 95.63C50.136 94.9767 50.1733 94.3653 50.22 93.796C50.22 93.796 50.2247 93.768 50.234 93.712C50.2527 93.6467 50.2807 93.5767 50.318 93.502C50.3647 93.418 50.4393 93.348 50.542 93.292C50.6447 93.2267 50.7847 93.194 50.962 93.194C51.1953 93.2033 51.368 93.2453 51.48 93.32C51.6013 93.3947 51.6853 93.4833 51.732 93.586C51.7787 93.6887 51.8067 93.782 51.816 93.866C51.8253 93.9407 51.83 93.978 51.83 93.978C51.7927 94.3513 51.7647 94.776 51.746 95.252C51.7273 95.728 51.7133 96.2273 51.704 96.75C51.704 97.2727 51.7087 97.8047 51.718 98.346C51.7273 98.8873 51.7367 99.4147 51.746 99.928C51.7647 100.441 51.788 100.922 51.816 101.37C51.816 101.37 51.8113 101.403 51.802 101.468C51.7927 101.524 51.7647 101.594 51.718 101.678C51.6713 101.762 51.592 101.837 51.48 101.902C51.3773 101.958 51.2327 101.986 51.046 101.986ZM53.65 94.482C53.2767 94.4353 52.8707 94.398 52.432 94.37C52.0027 94.342 51.564 94.328 51.116 94.328C50.668 94.3187 50.2247 94.3187 49.786 94.328C49.3473 94.3373 48.932 94.3513 48.54 94.37C48.54 94.37 48.512 94.37 48.456 94.37C48.4 94.37 48.3253 94.3653 48.232 94.356C48.1387 94.3373 48.0453 94.3093 47.952 94.272C47.8587 94.2347 47.7793 94.1787 47.714 94.104C47.6487 94.02 47.602 93.9173 47.574 93.796C47.5553 93.6653 47.5693 93.558 47.616 93.474C47.6627 93.39 47.7233 93.3247 47.798 93.278C47.8727 93.222 47.952 93.1847 48.036 93.166C48.12 93.138 48.19 93.1193 48.246 93.11C48.302 93.1007 48.33 93.096 48.33 93.096C49.198 93.0027 50.0613 92.942 50.92 92.914C51.788 92.886 52.6467 92.928 53.496 93.04C53.496 93.04 53.524 93.0493 53.58 93.068C53.6453 93.0773 53.72 93.1007 53.804 93.138C53.8973 93.1753 53.986 93.2267 54.07 93.292C54.154 93.3573 54.224 93.4413 54.28 93.544C54.3453 93.6373 54.3733 93.7493 54.364 93.88C54.364 94.0387 54.3267 94.16 54.252 94.244C54.1773 94.328 54.0933 94.3887 54 94.426C53.9067 94.454 53.8227 94.4727 53.748 94.482C53.6827 94.482 53.65 94.482 53.65 94.482ZM57.2814 101.972C56.7867 101.972 56.3294 101.888 55.9094 101.72C55.4987 101.543 55.144 101.3 54.8454 100.992C54.5467 100.684 54.3134 100.325 54.1454 99.914C53.9774 99.5033 53.8934 99.0647 53.8934 98.598C53.8934 98.1313 53.982 97.6833 54.1594 97.254C54.3367 96.8153 54.584 96.428 54.9014 96.092C55.2187 95.756 55.592 95.49 56.0214 95.294C56.4507 95.098 56.9127 95 57.4074 95C57.9114 95 58.378 95.07 58.8074 95.21C59.2367 95.35 59.61 95.5647 59.9274 95.854C60.254 96.134 60.506 96.498 60.6834 96.946C60.87 97.3847 60.9634 97.9027 60.9634 98.5C60.9634 98.9667 60.8654 99.41 60.6694 99.83C60.4827 100.25 60.2167 100.623 59.8714 100.95C59.5354 101.267 59.1434 101.519 58.6954 101.706C58.2567 101.883 57.7854 101.972 57.2814 101.972ZM57.2674 100.516C57.538 100.516 57.7947 100.46 58.0374 100.348C58.28 100.236 58.4947 100.082 58.6814 99.886C58.868 99.69 59.0127 99.466 59.1154 99.214C59.2274 98.962 59.2834 98.696 59.2834 98.416C59.2834 97.94 59.204 97.548 59.0454 97.24C58.896 96.932 58.686 96.708 58.4154 96.568C58.1447 96.4187 57.832 96.344 57.4774 96.344C57.216 96.344 56.9687 96.4093 56.7354 96.54C56.502 96.6707 56.2967 96.848 56.1194 97.072C55.9514 97.2867 55.816 97.5293 55.7134 97.8C55.62 98.0613 55.5734 98.332 55.5734 98.612C55.5734 98.9853 55.6434 99.3167 55.7834 99.606C55.9234 99.886 56.1194 100.11 56.3714 100.278C56.6327 100.437 56.9314 100.516 57.2674 100.516ZM65.0639 101.972C64.5693 101.972 64.1119 101.888 63.6919 101.72C63.2813 101.543 62.9266 101.3 62.6279 100.992C62.3293 100.684 62.0959 100.325 61.9279 99.914C61.7599 99.5033 61.6759 99.0647 61.6759 98.598C61.6759 98.1313 61.7646 97.6833 61.9419 97.254C62.1193 96.8153 62.3666 96.428 62.6839 96.092C63.0013 95.756 63.3746 95.49 63.8039 95.294C64.2333 95.098 64.6953 95 65.1899 95C65.6939 95 66.1606 95.07 66.5899 95.21C67.0193 95.35 67.3926 95.5647 67.7099 95.854C68.0366 96.134 68.2886 96.498 68.4659 96.946C68.6526 97.3847 68.7459 97.9027 68.7459 98.5C68.7459 98.9667 68.6479 99.41 68.4519 99.83C68.2653 100.25 67.9993 100.623 67.6539 100.95C67.3179 101.267 66.9259 101.519 66.4779 101.706C66.0393 101.883 65.5679 101.972 65.0639 101.972ZM65.0499 100.516C65.3206 100.516 65.5773 100.46 65.8199 100.348C66.0626 100.236 66.2773 100.082 66.4639 99.886C66.6506 99.69 66.7953 99.466 66.8979 99.214C67.0099 98.962 67.0659 98.696 67.0659 98.416C67.0659 97.94 66.9866 97.548 66.8279 97.24C66.6786 96.932 66.4686 96.708 66.1979 96.568C65.9273 96.4187 65.6146 96.344 65.2599 96.344C64.9986 96.344 64.7513 96.4093 64.5179 96.54C64.2846 96.6707 64.0793 96.848 63.9019 97.072C63.7339 97.2867 63.5986 97.5293 63.4959 97.8C63.4026 98.0613 63.3559 98.332 63.3559 98.612C63.3559 98.9853 63.4259 99.3167 63.5659 99.606C63.7059 99.886 63.9019 100.11 64.1539 100.278C64.4153 100.437 64.7139 100.516 65.0499 100.516ZM70.6592 102C70.4726 102 70.3186 101.967 70.1972 101.902C70.0852 101.827 69.9966 101.743 69.9312 101.65C69.8659 101.547 69.8192 101.463 69.7912 101.398C69.7632 101.323 69.7492 101.286 69.7492 101.286C69.7119 100.885 69.6792 100.432 69.6512 99.928C69.6326 99.4147 69.6186 98.878 69.6092 98.318C69.5999 97.7487 69.5999 97.1793 69.6092 96.61C69.6279 96.0313 69.6512 95.476 69.6792 94.944C69.7072 94.4027 69.7399 93.9033 69.7772 93.446C69.7772 93.446 69.7819 93.418 69.7912 93.362C69.8099 93.2967 69.8472 93.2267 69.9032 93.152C69.9592 93.0773 70.0386 93.0167 70.1412 92.97C70.2439 92.914 70.3839 92.8907 70.5612 92.9C70.7479 92.9187 70.8926 92.97 70.9952 93.054C71.1072 93.1287 71.1866 93.2173 71.2332 93.32C71.2892 93.4133 71.3266 93.4973 71.3452 93.572C71.3639 93.6373 71.3732 93.67 71.3732 93.67C71.3452 94.034 71.3219 94.4633 71.3032 94.958C71.2939 95.4433 71.2846 95.966 71.2752 96.526C71.2659 97.0767 71.2612 97.6367 71.2612 98.206C71.2706 98.7753 71.2799 99.3307 71.2892 99.872C71.2986 100.413 71.3172 100.913 71.3452 101.37C71.3452 101.37 71.3359 101.403 71.3172 101.468C71.3079 101.533 71.2846 101.608 71.2472 101.692C71.2099 101.776 71.1446 101.851 71.0512 101.916C70.9579 101.972 70.8272 102 70.6592 102ZM75.0622 100.81C75.5942 100.81 75.9116 100.74 76.0142 100.6C76.1262 100.451 76.0516 100.236 75.7902 99.956C75.6782 99.8347 75.5242 99.704 75.3282 99.564C75.1322 99.424 74.9176 99.2747 74.6842 99.116C74.4602 98.948 74.2409 98.766 74.0262 98.57C73.8209 98.374 73.6389 98.1593 73.4802 97.926C73.3309 97.6927 73.2329 97.4313 73.1862 97.142C73.1209 96.7407 73.1816 96.3813 73.3682 96.064C73.5549 95.7467 73.8536 95.4947 74.2642 95.308C74.6842 95.1213 75.2022 95.0327 75.8182 95.042C76.4436 95.0513 77.1576 95.1913 77.9602 95.462C77.9602 95.462 77.9789 95.476 78.0162 95.504C78.0629 95.5227 78.1049 95.56 78.1422 95.616C78.1889 95.672 78.2262 95.742 78.2542 95.826C78.2916 95.9007 78.3009 95.9893 78.2822 96.092C78.2636 96.176 78.2262 96.2413 78.1702 96.288C78.1236 96.3347 78.0676 96.372 78.0022 96.4C77.9462 96.4187 77.8949 96.4327 77.8482 96.442C77.8109 96.442 77.7922 96.442 77.7922 96.442C77.7922 96.442 77.7456 96.4373 77.6522 96.428C77.5682 96.4187 77.4516 96.414 77.3022 96.414C77.1529 96.4047 76.9849 96.4 76.7982 96.4C76.6116 96.3907 76.4202 96.3953 76.2242 96.414C76.0376 96.4233 75.8556 96.442 75.6782 96.47C75.5102 96.498 75.3609 96.5447 75.2302 96.61C75.0622 96.7033 74.9409 96.806 74.8662 96.918C74.8009 97.0207 74.7869 97.142 74.8242 97.282C74.8709 97.4127 74.9782 97.562 75.1462 97.73C75.3236 97.8887 75.5756 98.066 75.9022 98.262C76.3689 98.542 76.7562 98.8453 77.0642 99.172C77.3722 99.4987 77.5776 99.83 77.6802 100.166C77.7922 100.493 77.7782 100.819 77.6382 101.146C77.5356 101.379 77.3442 101.566 77.0642 101.706C76.7842 101.846 76.4482 101.939 76.0562 101.986C75.6736 102.033 75.2676 102.028 74.8382 101.972C74.4089 101.907 73.9889 101.785 73.5782 101.608C73.1769 101.431 72.8269 101.188 72.5282 100.88C72.5282 100.88 72.5142 100.861 72.4862 100.824C72.4582 100.787 72.4302 100.74 72.4022 100.684C72.3742 100.619 72.3602 100.549 72.3602 100.474C72.3696 100.399 72.4069 100.325 72.4722 100.25C72.5376 100.185 72.6122 100.143 72.6962 100.124C72.7802 100.105 72.8596 100.105 72.9342 100.124C73.0089 100.133 73.0696 100.147 73.1162 100.166C73.1722 100.185 73.2002 100.194 73.2002 100.194C73.2002 100.194 73.2516 100.227 73.3542 100.292C73.4569 100.348 73.5922 100.423 73.7602 100.516C73.9376 100.6 74.1382 100.675 74.3622 100.74C74.5862 100.796 74.8196 100.819 75.0622 100.81Z" fill="#494949"/>
<path d="M34.9625 104.625L30.6281 100.291L32.2906 98.6281L36.625 102.963L34.9625 104.625ZM24.0375 104.625L22.375 102.963L27.8375 97.5L26.4916 96.1542L25.9375 96.7083L24.9281 95.699V97.3219L24.3739 97.8761L21.9791 95.4813L22.5333 94.9271H24.1562L23.1666 93.9375L25.977 91.1271C26.2409 90.8632 26.5246 90.6719 26.8281 90.5531C27.1316 90.4344 27.4416 90.375 27.7583 90.375C28.075 90.375 28.385 90.4344 28.6885 90.5531C28.992 90.6719 29.2757 90.8632 29.5395 91.1271L27.7187 92.9479L28.7083 93.9375L28.1541 94.4917L29.5 95.8375L31.2812 94.0563C31.2284 93.9111 31.1855 93.7594 31.1526 93.6011C31.1196 93.4427 31.1031 93.2844 31.1031 93.1261C31.1031 92.3476 31.3703 91.6912 31.9046 91.1568C32.439 90.6224 33.0954 90.3552 33.8739 90.3552C34.0718 90.3552 34.2599 90.375 34.438 90.4146C34.6161 90.4542 34.7975 90.5136 34.9823 90.5927L33.0229 92.5521L34.4479 93.9771L36.4073 92.0177C36.4996 92.2024 36.5623 92.3839 36.5953 92.562C36.6283 92.7401 36.6448 92.9281 36.6448 93.1261C36.6448 93.9045 36.3776 94.561 35.8432 95.0953C35.3088 95.6297 34.6524 95.8969 33.8739 95.8969C33.7156 95.8969 33.5573 95.8837 33.3989 95.8573C33.2406 95.8309 33.0888 95.7847 32.9437 95.7188L24.0375 104.625Z" fill="#433DC3"/>
<path d="M24.25 70.625H26.875V65.375H32.125V70.625H34.75V62.75L29.5 58.8125L24.25 62.75V70.625ZM22.5 72.375V61.875L29.5 56.625L36.5 61.875V72.375H30.375V67.125H28.625V72.375H22.5Z" fill="#433DC3"/>
<path d="M45.98 26.982C45.752 26.97 45.566 26.922 45.422 26.838C45.29 26.754 45.182 26.658 45.098 26.55C45.026 26.43 44.972 26.328 44.936 26.244C44.912 26.16 44.9 26.118 44.9 26.118C44.828 25.47 44.78 24.774 44.756 24.03C44.732 23.286 44.72 22.524 44.72 21.744C44.732 20.964 44.75 20.196 44.774 19.44C44.81 18.672 44.846 17.946 44.882 17.262C44.882 17.262 44.894 17.208 44.918 17.1C44.942 16.992 45.002 16.878 45.098 16.758C45.206 16.638 45.38 16.548 45.62 16.488C45.764 16.452 45.902 16.452 46.034 16.488C46.178 16.524 46.298 16.566 46.394 16.614C46.502 16.662 46.562 16.698 46.574 16.722C47.102 17.31 47.648 17.952 48.212 18.648C48.788 19.332 49.376 20.058 49.976 20.826C50.588 21.594 51.206 22.38 51.83 23.184C51.818 22.668 51.806 22.122 51.794 21.546C51.782 20.958 51.782 20.358 51.794 19.746C51.806 19.122 51.824 18.498 51.848 17.874C51.884 17.25 51.926 16.632 51.974 16.02C51.974 16.02 51.98 15.984 51.992 15.912C52.016 15.84 52.058 15.762 52.118 15.678C52.178 15.582 52.274 15.504 52.406 15.444C52.538 15.372 52.712 15.336 52.928 15.336C53.168 15.348 53.36 15.396 53.504 15.48C53.648 15.552 53.756 15.648 53.828 15.768C53.912 15.888 53.966 16.008 53.99 16.128C54.026 16.248 54.044 16.35 54.044 16.434C54.044 16.506 54.044 16.542 54.044 16.542C53.996 17.034 53.96 17.586 53.936 18.198C53.912 18.81 53.894 19.458 53.882 20.142C53.882 20.814 53.882 21.504 53.882 22.212C53.894 22.908 53.906 23.592 53.918 24.264C53.942 24.936 53.972 25.566 54.008 26.154C54.008 26.154 54.002 26.196 53.99 26.28C53.978 26.352 53.948 26.442 53.9 26.55C53.852 26.646 53.774 26.736 53.666 26.82C53.558 26.904 53.402 26.958 53.198 26.982C52.994 27.006 52.808 26.97 52.64 26.874C52.472 26.778 52.34 26.682 52.244 26.586C52.148 26.478 52.1 26.424 52.1 26.424C52.1 26.424 52.028 26.34 51.884 26.172C51.74 25.992 51.542 25.752 51.29 25.452C51.038 25.14 50.756 24.792 50.444 24.408C50.132 24.024 49.802 23.622 49.454 23.202C49.118 22.782 48.782 22.368 48.446 21.96C48.122 21.54 47.822 21.156 47.546 20.808C47.282 20.448 47.054 20.136 46.862 19.872C46.85 20.472 46.844 21.114 46.844 21.798C46.844 22.47 46.85 23.178 46.862 23.922C46.886 24.654 46.916 25.404 46.952 26.172C46.952 26.172 46.94 26.214 46.916 26.298C46.904 26.382 46.868 26.478 46.808 26.586C46.748 26.694 46.652 26.79 46.52 26.874C46.388 26.958 46.208 26.994 45.98 26.982ZM59.6083 26.964C58.9843 26.976 58.4083 26.874 57.8803 26.658C57.3643 26.43 56.9143 26.118 56.5303 25.722C56.1463 25.314 55.8463 24.846 55.6303 24.318C55.4263 23.79 55.3243 23.226 55.3243 22.626C55.3243 21.978 55.4383 21.372 55.6663 20.808C55.9063 20.244 56.2303 19.758 56.6383 19.35C57.0463 18.93 57.5203 18.606 58.0603 18.378C58.6123 18.138 59.2003 18.012 59.8243 18C60.7243 18 61.4983 18.162 62.1463 18.486C62.7943 18.798 63.2863 19.29 63.6223 19.962C63.9703 20.622 64.1443 21.468 64.1443 22.5C64.1443 23.1 64.0423 23.67 63.8383 24.21C63.6343 24.738 63.3403 25.206 62.9563 25.614C62.5723 26.022 62.0983 26.346 61.5343 26.586C60.9703 26.826 60.3283 26.952 59.6083 26.964ZM59.6983 25.074C60.0343 25.074 60.3523 25.002 60.6523 24.858C60.9643 24.702 61.2403 24.498 61.4803 24.246C61.7203 23.994 61.9063 23.706 62.0383 23.382C62.1823 23.046 62.2543 22.692 62.2543 22.32C62.2543 21.708 62.1523 21.204 61.9483 20.808C61.7563 20.412 61.4863 20.118 61.1383 19.926C60.8023 19.734 60.4063 19.638 59.9503 19.638C59.6263 19.638 59.3143 19.722 59.0143 19.89C58.7143 20.058 58.4503 20.286 58.2223 20.574C58.0063 20.862 57.8323 21.18 57.7003 21.528C57.5803 21.876 57.5203 22.236 57.5203 22.608C57.5203 23.076 57.6103 23.502 57.7903 23.886C57.9703 24.258 58.2223 24.552 58.5463 24.768C58.8703 24.972 59.2543 25.074 59.6983 25.074ZM64.1083 26.982C63.8803 26.982 63.6943 26.946 63.5503 26.874C63.4063 26.79 63.2983 26.712 63.2263 26.64C63.1543 26.556 63.1183 26.514 63.1183 26.514C63.0343 25.638 62.9683 24.768 62.9203 23.904C62.8723 23.04 62.8543 22.158 62.8663 21.258C62.8903 20.358 62.9443 19.422 63.0283 18.45C63.0283 18.45 63.0583 18.414 63.1183 18.342C63.1783 18.258 63.2803 18.18 63.4243 18.108C63.5683 18.036 63.7663 18.006 64.0183 18.018C64.2703 18.042 64.4623 18.114 64.5943 18.234C64.7383 18.342 64.8343 18.474 64.8823 18.63C64.9303 18.774 64.9603 18.9 64.9723 19.008C64.9843 19.116 64.9903 19.17 64.9903 19.17C64.9423 19.782 64.9003 20.352 64.8643 20.88C64.8403 21.408 64.8283 21.942 64.8283 22.482C64.8403 23.01 64.8583 23.574 64.8823 24.174C64.9063 24.774 64.9363 25.44 64.9723 26.172C64.9723 26.172 64.9663 26.214 64.9543 26.298C64.9423 26.382 64.9063 26.478 64.8463 26.586C64.7983 26.682 64.7143 26.772 64.5943 26.856C64.4863 26.94 64.3243 26.982 64.1083 26.982ZM70.0416 27C69.8736 26.988 69.6876 26.952 69.4836 26.892C69.2916 26.82 69.0936 26.718 68.8896 26.586C68.6976 26.442 68.5116 26.256 68.3316 26.028C68.1636 25.8 68.0196 25.518 67.8996 25.182L66.2976 19.422C66.2976 19.422 66.2916 19.374 66.2796 19.278C66.2676 19.182 66.2736 19.074 66.2976 18.954C66.3336 18.822 66.4056 18.702 66.5136 18.594C66.6216 18.474 66.7896 18.402 67.0176 18.378C67.2456 18.342 67.4376 18.354 67.5936 18.414C67.7616 18.474 67.8996 18.552 68.0076 18.648C68.1156 18.744 68.1936 18.834 68.2416 18.918C68.3016 18.99 68.3316 19.026 68.3316 19.026L69.1776 22.158C69.3696 22.818 69.5316 23.37 69.6636 23.814C69.7956 24.246 69.9216 24.522 70.0416 24.642C70.1496 24.642 70.3056 24.468 70.5096 24.12C70.7136 23.772 70.9416 23.286 71.1936 22.662C71.3736 22.182 71.5176 21.744 71.6256 21.348C71.7456 20.94 71.8416 20.556 71.9136 20.196C71.9856 19.824 72.0456 19.464 72.0936 19.116C72.0936 19.116 72.0996 19.074 72.1116 18.99C72.1356 18.894 72.1836 18.792 72.2556 18.684C72.3276 18.576 72.4356 18.486 72.5796 18.414C72.7356 18.33 72.9456 18.3 73.2096 18.324C73.4736 18.36 73.6776 18.438 73.8216 18.558C73.9656 18.666 74.0616 18.792 74.1096 18.936C74.1576 19.068 74.1816 19.188 74.1816 19.296C74.1936 19.392 74.1996 19.44 74.1996 19.44C74.1756 19.812 74.1276 20.196 74.0556 20.592C73.9956 20.976 73.9116 21.354 73.8036 21.726C73.7076 22.086 73.6056 22.428 73.4976 22.752C73.3896 23.076 73.2816 23.364 73.1736 23.616C72.8496 24.456 72.5076 25.128 72.1476 25.632C71.7996 26.136 71.4456 26.496 71.0856 26.712C70.7256 26.928 70.3776 27.024 70.0416 27Z" fill="#433DC3"/>
</svg>
