<svg width="293" height="130" viewBox="0 0 293 130" fill="none" xmlns="http://www.w3.org/2000/svg">
<rect y="4" width="287" height="126" rx="8" fill="#FFE266"/>
<path d="M5 43H291V115C291 119.418 287.418 123 283 123H13C8.58173 123 5 119.418 5 115V43Z" fill="#FFFCF2"/>
<rect x="6" y="1" width="286" height="121" rx="7" stroke="#433DC3" stroke-width="2"/>
<path d="M42.5607 27.928C41.9607 27.964 41.4147 27.952 40.9227 27.892C40.4427 27.82 40.0347 27.73 39.6987 27.622C39.3627 27.514 39.1047 27.418 38.9247 27.334C38.7447 27.238 38.6547 27.19 38.6547 27.19C38.6547 27.19 38.6307 27.178 38.5827 27.154C38.5347 27.118 38.4747 27.07 38.4027 27.01C38.3427 26.95 38.2827 26.878 38.2227 26.794C38.1747 26.71 38.1447 26.614 38.1327 26.506C38.1327 26.398 38.1627 26.29 38.2227 26.182C38.2947 26.05 38.3787 25.96 38.4747 25.912C38.5707 25.852 38.6667 25.822 38.7627 25.822C38.8587 25.81 38.9367 25.816 38.9967 25.84C39.0687 25.852 39.1047 25.858 39.1047 25.858C39.5727 26.05 40.0587 26.188 40.5627 26.272C41.0667 26.356 41.5407 26.386 41.9847 26.362C42.4287 26.326 42.8007 26.224 43.1007 26.056C43.4127 25.888 43.6047 25.642 43.6767 25.318C43.7367 25.018 43.6947 24.754 43.5507 24.526C43.4187 24.286 43.2147 24.07 42.9387 23.878C42.6627 23.686 42.3447 23.512 41.9847 23.356C41.6367 23.188 41.2887 23.032 40.9407 22.888C40.7127 22.792 40.4667 22.66 40.2027 22.492C39.9387 22.324 39.6867 22.12 39.4467 21.88C39.2187 21.64 39.0207 21.376 38.8527 21.088C38.6847 20.788 38.5767 20.47 38.5287 20.134C38.4807 19.786 38.5107 19.42 38.6187 19.036C38.7387 18.652 38.9727 18.256 39.3207 17.848C39.6687 17.428 40.0347 17.11 40.4187 16.894C40.8147 16.666 41.2107 16.504 41.6067 16.408C42.0027 16.312 42.3747 16.264 42.7227 16.264C43.0827 16.264 43.4007 16.288 43.6767 16.336C43.9647 16.384 44.1867 16.432 44.3427 16.48C44.5107 16.528 44.5947 16.552 44.5947 16.552C44.5947 16.552 44.6247 16.564 44.6847 16.588C44.7567 16.612 44.8407 16.654 44.9367 16.714C45.0327 16.774 45.1287 16.846 45.2247 16.93C45.3207 17.002 45.3927 17.098 45.4407 17.218C45.4887 17.326 45.5007 17.452 45.4768 17.596C45.4407 17.752 45.3687 17.872 45.2607 17.956C45.1647 18.028 45.0567 18.07 44.9367 18.082C44.8287 18.094 44.7327 18.1 44.6487 18.1C44.5647 18.088 44.5227 18.082 44.5227 18.082C43.9227 17.902 43.3587 17.86 42.8307 17.956C42.3027 18.04 41.8407 18.214 41.4447 18.478C41.0607 18.742 40.7667 19.048 40.5627 19.396C40.3707 19.732 40.3227 20.056 40.4187 20.368C40.4907 20.632 40.6587 20.866 40.9227 21.07C41.1987 21.262 41.5227 21.448 41.8947 21.628C42.2787 21.796 42.6747 21.976 43.0827 22.168C43.4907 22.348 43.8687 22.558 44.2167 22.798C44.5647 23.026 44.8407 23.302 45.0447 23.626C45.3207 24.07 45.4827 24.496 45.5307 24.904C45.5787 25.312 45.5367 25.696 45.4047 26.056C45.2727 26.404 45.0687 26.71 44.7927 26.974C44.5167 27.238 44.1867 27.454 43.8027 27.622C43.4187 27.79 43.0047 27.892 42.5607 27.928ZM48.1998 28C48.0078 28 47.8518 27.964 47.7318 27.892C47.6118 27.808 47.5158 27.718 47.4438 27.622C47.3838 27.514 47.3418 27.424 47.3178 27.352C47.2938 27.268 47.2818 27.226 47.2818 27.226C47.2338 26.71 47.1918 26.122 47.1558 25.462C47.1318 24.79 47.1138 24.082 47.1018 23.338C47.1018 22.594 47.1078 21.85 47.1198 21.106C47.1318 20.35 47.1558 19.624 47.1918 18.928C47.2278 18.22 47.2698 17.578 47.3178 17.002C47.3178 17.002 47.3238 16.972 47.3358 16.912C47.3478 16.84 47.3778 16.762 47.4258 16.678C47.4738 16.582 47.5518 16.504 47.6598 16.444C47.7798 16.372 47.9358 16.336 48.1278 16.336C48.3318 16.348 48.4938 16.39 48.6138 16.462C48.7338 16.522 48.8238 16.606 48.8838 16.714C48.9558 16.81 49.0038 16.906 49.0278 17.002C49.0518 17.098 49.0638 17.182 49.0638 17.254C49.0638 17.314 49.0638 17.344 49.0638 17.344C49.0158 17.836 48.9798 18.406 48.9558 19.054C48.9318 19.69 48.9138 20.368 48.9018 21.088C48.9018 21.808 48.9018 22.54 48.9018 23.284C48.9138 24.016 48.9258 24.73 48.9378 25.426C48.9618 26.11 48.9918 26.74 49.0278 27.316C49.0278 27.316 49.0218 27.352 49.0098 27.424C48.9978 27.496 48.9678 27.58 48.9198 27.676C48.8718 27.76 48.7878 27.838 48.6678 27.91C48.5598 27.97 48.4038 28 48.1998 28ZM51.8234 28.036C51.6314 28.036 51.4574 28 51.3014 27.928C51.1454 27.844 51.0194 27.736 50.9234 27.604C50.8394 27.46 50.7974 27.304 50.7974 27.136C50.7974 26.968 50.8394 26.818 50.9234 26.686C51.0194 26.542 51.1454 26.428 51.3014 26.344C51.4574 26.26 51.6314 26.218 51.8234 26.218C52.0274 26.218 52.2074 26.26 52.3634 26.344C52.5314 26.428 52.6574 26.542 52.7414 26.686C52.8374 26.818 52.8854 26.968 52.8854 27.136C52.8854 27.448 52.7834 27.676 52.5794 27.82C52.3754 27.964 52.1234 28.036 51.8234 28.036ZM55.6961 28C55.5161 27.988 55.3661 27.946 55.2461 27.874C55.1261 27.802 55.0301 27.718 54.9581 27.622C54.8981 27.526 54.8561 27.448 54.8321 27.388C54.8081 27.316 54.7961 27.28 54.7961 27.28C54.7241 26.632 54.6761 25.924 54.6521 25.156C54.6281 24.388 54.6161 23.602 54.6161 22.798C54.6161 21.994 54.6281 21.202 54.6521 20.422C54.6881 19.63 54.7301 18.886 54.7781 18.19C54.7781 18.19 54.7841 18.142 54.7961 18.046C54.8201 17.95 54.8801 17.854 54.9761 17.758C55.0721 17.65 55.2281 17.572 55.4441 17.524C55.5641 17.5 55.6781 17.506 55.7861 17.542C55.9061 17.566 56.0081 17.602 56.0921 17.65C56.1761 17.698 56.2241 17.734 56.2361 17.758C56.8001 18.43 57.3821 19.144 57.9821 19.9C58.5941 20.656 59.2121 21.436 59.8361 22.24C60.4601 23.044 61.0901 23.866 61.7261 24.706C61.7021 24.142 61.6841 23.536 61.6721 22.888C61.6601 22.24 61.6601 21.574 61.6721 20.89C61.6841 20.206 61.7081 19.534 61.7441 18.874C61.7801 18.202 61.8221 17.56 61.8701 16.948C61.8701 16.948 61.8761 16.918 61.8881 16.858C61.9001 16.798 61.9301 16.732 61.9781 16.66C62.0381 16.576 62.1221 16.504 62.2301 16.444C62.3501 16.372 62.5061 16.342 62.6981 16.354C62.8901 16.354 63.0461 16.39 63.1661 16.462C63.2861 16.534 63.3761 16.618 63.4361 16.714C63.5081 16.81 63.5561 16.912 63.5801 17.02C63.6041 17.116 63.6161 17.2 63.6161 17.272C63.6161 17.332 63.6161 17.362 63.6161 17.362C63.5681 17.854 63.5321 18.418 63.5081 19.054C63.4841 19.678 63.4661 20.35 63.4541 21.07C63.4541 21.778 63.4541 22.498 63.4541 23.23C63.4661 23.962 63.4781 24.676 63.4901 25.372C63.5141 26.068 63.5441 26.71 63.5801 27.298C63.5801 27.298 63.5741 27.334 63.5621 27.406C63.5621 27.466 63.5381 27.544 63.4901 27.64C63.4421 27.724 63.3701 27.802 63.2741 27.874C63.1901 27.934 63.0641 27.976 62.8961 28C62.7161 28.012 62.5541 27.982 62.4101 27.91C62.2661 27.826 62.1521 27.736 62.0681 27.64C61.9961 27.544 61.9601 27.496 61.9601 27.496C61.9601 27.496 61.8821 27.406 61.7261 27.226C61.5701 27.034 61.3601 26.776 61.0961 26.452C60.8321 26.128 60.5321 25.756 60.1961 25.336C59.8601 24.916 59.5121 24.484 59.1521 24.04C58.8041 23.584 58.4561 23.134 58.1081 22.69C57.7601 22.246 57.4421 21.838 57.1541 21.466C56.8781 21.082 56.6441 20.752 56.4521 20.476C56.4281 21.136 56.4161 21.844 56.4161 22.6C56.4161 23.356 56.4221 24.136 56.4341 24.94C56.4581 25.732 56.4881 26.524 56.5241 27.316C56.5241 27.316 56.5181 27.352 56.5061 27.424C56.4941 27.496 56.4581 27.58 56.3981 27.676C56.3501 27.76 56.2661 27.838 56.1461 27.91C56.0381 27.982 55.8881 28.012 55.6961 28ZM69.2214 27.964C68.5974 27.964 68.0214 27.85 67.4934 27.622C66.9774 27.394 66.5334 27.088 66.1614 26.704C65.7894 26.308 65.5014 25.846 65.2974 25.318C65.0934 24.79 64.9914 24.226 64.9914 23.626C64.9914 23.026 65.0994 22.45 65.3154 21.898C65.5434 21.334 65.8614 20.836 66.2694 20.404C66.6774 19.972 67.1514 19.63 67.6914 19.378C68.2314 19.126 68.8134 19 69.4374 19C70.0614 19 70.6434 19.09 71.1834 19.27C71.7234 19.45 72.1914 19.726 72.5874 20.098C72.9954 20.458 73.3074 20.926 73.5234 21.502C73.7514 22.066 73.8654 22.732 73.8654 23.5C73.8654 24.1 73.7454 24.67 73.5054 25.21C73.2654 25.75 72.9234 26.224 72.4794 26.632C72.0474 27.04 71.5494 27.364 70.9854 27.604C70.4334 27.844 69.8454 27.964 69.2214 27.964ZM69.2034 26.362C69.5874 26.362 69.9474 26.284 70.2834 26.128C70.6314 25.96 70.9374 25.738 71.2014 25.462C71.4654 25.186 71.6754 24.874 71.8314 24.526C71.9874 24.166 72.0654 23.788 72.0654 23.392C72.0654 22.72 71.9514 22.168 71.7234 21.736C71.5074 21.304 71.2074 20.986 70.8234 20.782C70.4394 20.566 69.9954 20.458 69.4914 20.458C69.1194 20.458 68.7714 20.554 68.4474 20.746C68.1234 20.926 67.8354 21.172 67.5834 21.484C67.3434 21.784 67.1514 22.126 67.0074 22.51C66.8634 22.894 66.7914 23.284 66.7914 23.68C66.7914 24.196 66.8874 24.658 67.0794 25.066C67.2834 25.474 67.5654 25.792 67.9254 26.02C68.2974 26.248 68.7234 26.362 69.2034 26.362Z" fill="#433DC3"/>
<path d="M58.3107 70.946C58.1067 70.934 57.9387 70.886 57.8067 70.802C57.6867 70.718 57.5967 70.622 57.5367 70.514C57.4767 70.394 57.4347 70.292 57.4107 70.208C57.3867 70.124 57.3747 70.082 57.3747 70.082C57.3267 69.53 57.2847 68.894 57.2487 68.174C57.2127 67.442 57.1947 66.686 57.1947 65.906C57.1947 65.126 57.2007 64.358 57.2127 63.602C57.2367 62.846 57.2727 62.162 57.3207 61.55L55.0887 63.602C55.0887 63.602 55.0587 63.62 54.9987 63.656C54.9507 63.68 54.8787 63.704 54.7827 63.728C54.6987 63.74 54.5967 63.734 54.4767 63.71C54.3567 63.686 54.2307 63.626 54.0987 63.53C53.9667 63.422 53.8827 63.32 53.8467 63.224C53.8227 63.116 53.8167 63.02 53.8287 62.936C53.8527 62.852 53.8827 62.786 53.9187 62.738C53.9547 62.678 53.9727 62.648 53.9727 62.648L56.5647 60.416C56.9367 60.068 57.2907 59.81 57.6267 59.642C57.9747 59.462 58.2687 59.396 58.5087 59.444C58.6767 59.48 58.8027 59.546 58.8867 59.642C58.9707 59.726 59.0307 59.822 59.0667 59.93C59.1147 60.026 59.1447 60.11 59.1567 60.182C59.1687 60.254 59.1747 60.29 59.1747 60.29C59.1267 60.77 59.0907 61.328 59.0667 61.964C59.0427 62.588 59.0247 63.266 59.0127 63.998C59.0127 64.718 59.0127 65.45 59.0127 66.194C59.0247 66.926 59.0427 67.64 59.0667 68.336C59.0907 69.02 59.1147 69.65 59.1387 70.226C59.1387 70.226 59.1327 70.262 59.1207 70.334C59.1087 70.406 59.0787 70.49 59.0307 70.586C58.9827 70.682 58.8987 70.766 58.7787 70.838C58.6707 70.91 58.5147 70.946 58.3107 70.946Z" fill="#494949"/>
<path d="M54.5983 102.964C54.4543 102.964 54.3103 102.94 54.1663 102.892C54.0223 102.832 53.9023 102.748 53.8063 102.64C53.7103 102.532 53.6503 102.406 53.6263 102.262C53.6143 102.118 53.6563 101.962 53.7523 101.794C54.6403 100.426 55.3723 99.22 55.9483 98.176C56.5243 97.132 56.9323 96.256 57.1723 95.548C57.4243 94.828 57.5023 94.288 57.4063 93.928C57.2863 93.52 57.1003 93.214 56.8483 93.01C56.6083 92.806 56.3203 92.692 55.9843 92.668C55.6003 92.692 55.2523 92.782 54.9403 92.938C54.6283 93.094 54.3463 93.286 54.0943 93.514C54.0943 93.514 54.0643 93.532 54.0043 93.568C53.9563 93.592 53.8843 93.622 53.7883 93.658C53.7043 93.682 53.6023 93.688 53.4823 93.676C53.3743 93.652 53.2603 93.586 53.1403 93.478C53.0443 93.394 52.9783 93.316 52.9423 93.244C52.9063 93.172 52.8883 93.1 52.8883 93.028C52.9003 92.956 52.9183 92.89 52.9423 92.83C52.9663 92.77 52.9963 92.722 53.0323 92.686C53.3083 92.386 53.5903 92.14 53.8783 91.948C54.1783 91.744 54.5083 91.588 54.8683 91.48C55.2283 91.372 55.6243 91.312 56.0563 91.3C56.6323 91.324 57.1363 91.462 57.5683 91.714C58.0003 91.966 58.3543 92.296 58.6303 92.704C58.9183 93.112 59.1103 93.568 59.2063 94.072C59.3023 94.564 59.2903 95.056 59.1703 95.548C59.0503 96.052 58.8823 96.568 58.6663 97.096C58.4503 97.612 58.2043 98.134 57.9283 98.662C57.6523 99.178 57.3523 99.682 57.0283 100.174C56.7163 100.666 56.3803 101.146 56.0203 101.614H59.3683C59.3683 101.614 59.4043 101.626 59.4763 101.65C59.5483 101.662 59.6323 101.692 59.7283 101.74C59.8243 101.776 59.9083 101.836 59.9803 101.92C60.0643 102.004 60.1123 102.112 60.1243 102.244C60.1243 102.388 60.0943 102.502 60.0343 102.586C59.9863 102.658 59.9323 102.718 59.8723 102.766C59.8123 102.802 59.7523 102.826 59.6923 102.838C59.6443 102.85 59.6203 102.856 59.6203 102.856L54.5983 102.964Z" fill="#494949"/>
<path d="M127.221 28C127.041 27.988 126.891 27.946 126.771 27.874C126.651 27.802 126.555 27.718 126.483 27.622C126.423 27.526 126.381 27.448 126.357 27.388C126.333 27.316 126.321 27.28 126.321 27.28C126.249 26.632 126.201 25.924 126.177 25.156C126.153 24.388 126.141 23.602 126.141 22.798C126.141 21.994 126.153 21.202 126.177 20.422C126.213 19.63 126.255 18.886 126.303 18.19C126.303 18.19 126.309 18.142 126.321 18.046C126.345 17.95 126.405 17.854 126.501 17.758C126.597 17.65 126.753 17.572 126.969 17.524C127.089 17.5 127.203 17.506 127.311 17.542C127.431 17.566 127.533 17.602 127.617 17.65C127.701 17.698 127.749 17.734 127.761 17.758C128.325 18.43 128.907 19.144 129.507 19.9C130.119 20.656 130.737 21.436 131.361 22.24C131.985 23.044 132.615 23.866 133.251 24.706C133.227 24.142 133.209 23.536 133.197 22.888C133.185 22.24 133.185 21.574 133.197 20.89C133.209 20.206 133.233 19.534 133.269 18.874C133.305 18.202 133.347 17.56 133.395 16.948C133.395 16.948 133.401 16.918 133.413 16.858C133.425 16.798 133.455 16.732 133.503 16.66C133.563 16.576 133.647 16.504 133.755 16.444C133.875 16.372 134.031 16.342 134.223 16.354C134.415 16.354 134.571 16.39 134.691 16.462C134.811 16.534 134.901 16.618 134.961 16.714C135.033 16.81 135.081 16.912 135.105 17.02C135.129 17.116 135.141 17.2 135.141 17.272C135.141 17.332 135.141 17.362 135.141 17.362C135.093 17.854 135.057 18.418 135.033 19.054C135.009 19.678 134.991 20.35 134.979 21.07C134.979 21.778 134.979 22.498 134.979 23.23C134.991 23.962 135.003 24.676 135.015 25.372C135.039 26.068 135.069 26.71 135.105 27.298C135.105 27.298 135.099 27.334 135.087 27.406C135.087 27.466 135.063 27.544 135.015 27.64C134.967 27.724 134.895 27.802 134.799 27.874C134.715 27.934 134.589 27.976 134.421 28C134.241 28.012 134.079 27.982 133.935 27.91C133.791 27.826 133.677 27.736 133.593 27.64C133.521 27.544 133.485 27.496 133.485 27.496C133.485 27.496 133.407 27.406 133.251 27.226C133.095 27.034 132.885 26.776 132.621 26.452C132.357 26.128 132.057 25.756 131.721 25.336C131.385 24.916 131.037 24.484 130.677 24.04C130.329 23.584 129.981 23.134 129.633 22.69C129.285 22.246 128.967 21.838 128.679 21.466C128.403 21.082 128.169 20.752 127.977 20.476C127.953 21.136 127.941 21.844 127.941 22.6C127.941 23.356 127.947 24.136 127.959 24.94C127.983 25.732 128.013 26.524 128.049 27.316C128.049 27.316 128.043 27.352 128.031 27.424C128.019 27.496 127.983 27.58 127.923 27.676C127.875 27.76 127.791 27.838 127.671 27.91C127.563 27.982 127.413 28.012 127.221 28ZM140.692 27.964C140.08 27.964 139.516 27.856 139 27.64C138.496 27.412 138.058 27.1 137.686 26.704C137.314 26.308 137.026 25.846 136.822 25.318C136.618 24.79 136.516 24.226 136.516 23.626C136.516 22.99 136.63 22.396 136.858 21.844C137.098 21.28 137.416 20.788 137.812 20.368C138.22 19.936 138.688 19.606 139.216 19.378C139.756 19.138 140.338 19.012 140.962 19C141.838 19 142.594 19.162 143.23 19.486C143.866 19.798 144.352 20.29 144.688 20.962C145.036 21.622 145.21 22.468 145.21 23.5C145.21 24.1 145.102 24.67 144.886 25.21C144.682 25.738 144.382 26.206 143.986 26.614C143.59 27.022 143.116 27.346 142.564 27.586C142.012 27.826 141.388 27.952 140.692 27.964ZM140.764 26.344C141.136 26.344 141.49 26.266 141.826 26.11C142.174 25.942 142.474 25.72 142.726 25.444C142.99 25.168 143.2 24.85 143.356 24.49C143.512 24.118 143.59 23.734 143.59 23.338C143.59 22.666 143.476 22.114 143.248 21.682C143.032 21.238 142.732 20.914 142.348 20.71C141.976 20.494 141.544 20.386 141.052 20.386C140.692 20.386 140.344 20.482 140.008 20.674C139.684 20.854 139.396 21.1 139.144 21.412C138.904 21.724 138.712 22.078 138.568 22.474C138.436 22.858 138.37 23.248 138.37 23.644C138.37 24.16 138.466 24.628 138.658 25.048C138.862 25.456 139.144 25.774 139.504 26.002C139.864 26.23 140.284 26.344 140.764 26.344ZM145.264 27.982C145.06 27.982 144.892 27.946 144.76 27.874C144.64 27.802 144.55 27.73 144.49 27.658C144.43 27.586 144.4 27.55 144.4 27.55C144.316 26.674 144.25 25.804 144.202 24.94C144.154 24.064 144.142 23.17 144.166 22.258C144.19 21.346 144.244 20.404 144.328 19.432C144.328 19.432 144.352 19.396 144.4 19.324C144.448 19.252 144.532 19.186 144.652 19.126C144.784 19.054 144.964 19.024 145.192 19.036C145.396 19.048 145.552 19.102 145.66 19.198C145.78 19.294 145.864 19.408 145.912 19.54C145.96 19.66 145.984 19.768 145.984 19.864C145.996 19.948 146.002 19.99 146.002 19.99C145.954 20.602 145.912 21.19 145.876 21.754C145.852 22.318 145.84 22.888 145.84 23.464C145.852 24.028 145.87 24.622 145.894 25.246C145.918 25.87 145.948 26.554 145.984 27.298C145.984 27.298 145.978 27.334 145.966 27.406C145.954 27.466 145.924 27.544 145.876 27.64C145.84 27.724 145.768 27.802 145.66 27.874C145.564 27.946 145.432 27.982 145.264 27.982ZM154.583 27.658C154.379 27.598 154.223 27.514 154.115 27.406C154.007 27.298 153.935 27.19 153.899 27.082C153.863 26.962 153.839 26.86 153.827 26.776C153.827 26.68 153.827 26.632 153.827 26.632C153.959 25.624 154.007 24.706 153.971 23.878C153.947 23.038 153.803 22.384 153.539 21.916C153.299 21.472 153.017 21.154 152.693 20.962C152.369 20.758 152.033 20.668 151.685 20.692C151.337 20.704 150.989 20.818 150.641 21.034C150.233 21.298 149.915 21.622 149.687 22.006C149.459 22.39 149.297 22.798 149.201 23.23C149.117 23.662 149.069 24.082 149.057 24.49C149.069 24.874 149.075 25.222 149.075 25.534C149.075 25.846 149.081 26.122 149.093 26.362C149.105 26.602 149.117 26.8 149.129 26.956C149.129 26.956 149.123 26.98 149.111 27.028C149.111 27.076 149.099 27.136 149.075 27.208C149.051 27.28 148.997 27.346 148.913 27.406C148.841 27.466 148.721 27.502 148.553 27.514C148.409 27.526 148.283 27.496 148.175 27.424C148.067 27.352 147.977 27.28 147.905 27.208C147.845 27.136 147.815 27.1 147.815 27.1C147.683 26.884 147.611 26.674 147.599 26.47C147.599 26.266 147.605 26.038 147.617 25.786C147.641 25.534 147.623 25.228 147.563 24.868C147.539 24.424 147.527 24.022 147.527 23.662C147.539 23.29 147.569 22.942 147.617 22.618C147.665 22.282 147.743 21.97 147.851 21.682C147.959 21.394 148.109 21.112 148.301 20.836C148.541 20.524 148.835 20.242 149.183 19.99C149.531 19.738 149.909 19.534 150.317 19.378C150.737 19.222 151.169 19.132 151.613 19.108C152.057 19.084 152.501 19.144 152.945 19.288C153.245 19.42 153.533 19.594 153.809 19.81C154.097 20.014 154.361 20.26 154.601 20.548C154.841 20.836 155.051 21.178 155.231 21.574C155.411 21.958 155.561 22.408 155.681 22.924C155.801 23.56 155.855 24.208 155.843 24.868C155.831 25.528 155.765 26.248 155.645 27.028C155.645 27.028 155.633 27.07 155.609 27.154C155.585 27.238 155.537 27.328 155.465 27.424C155.405 27.52 155.303 27.598 155.159 27.658C155.015 27.706 154.823 27.706 154.583 27.658ZM148.481 27.982C148.313 27.97 148.169 27.934 148.049 27.874C147.941 27.802 147.851 27.724 147.779 27.64C147.707 27.544 147.653 27.466 147.617 27.406C147.593 27.346 147.581 27.316 147.581 27.316C147.509 26.668 147.455 26.038 147.419 25.426C147.395 24.814 147.383 24.208 147.383 23.608C147.383 22.996 147.401 22.366 147.437 21.718C147.473 21.07 147.521 20.386 147.581 19.666C147.581 19.666 147.587 19.636 147.599 19.576C147.611 19.504 147.641 19.426 147.689 19.342C147.749 19.258 147.833 19.186 147.941 19.126C148.061 19.054 148.223 19.024 148.427 19.036C148.631 19.036 148.793 19.078 148.913 19.162C149.033 19.246 149.117 19.348 149.165 19.468C149.225 19.576 149.261 19.672 149.273 19.756C149.297 19.84 149.309 19.882 149.309 19.882C149.273 20.482 149.243 21.07 149.219 21.646C149.195 22.222 149.183 22.81 149.183 23.41C149.183 24.01 149.189 24.634 149.201 25.282C149.225 25.918 149.261 26.59 149.309 27.298C149.309 27.298 149.303 27.334 149.291 27.406C149.279 27.478 149.243 27.562 149.183 27.658C149.135 27.742 149.057 27.82 148.949 27.892C148.841 27.964 148.685 27.994 148.481 27.982ZM161.135 27.658C160.931 27.598 160.775 27.514 160.667 27.406C160.559 27.298 160.487 27.19 160.451 27.082C160.415 26.962 160.391 26.86 160.379 26.776C160.379 26.68 160.379 26.632 160.379 26.632C160.511 25.624 160.559 24.706 160.523 23.878C160.499 23.038 160.349 22.384 160.073 21.916C159.833 21.472 159.551 21.154 159.227 20.962C158.915 20.758 158.585 20.668 158.237 20.692C157.889 20.704 157.541 20.818 157.193 21.034C156.785 21.298 156.467 21.622 156.239 22.006C156.011 22.39 155.849 22.798 155.753 23.23C155.657 23.662 155.609 24.082 155.609 24.49C155.621 24.874 155.621 25.198 155.609 25.462C155.597 25.714 155.585 25.93 155.573 26.11C155.561 26.29 155.543 26.476 155.519 26.668C155.519 26.668 155.519 26.704 155.519 26.776C155.519 26.836 155.507 26.908 155.483 26.992C155.459 27.076 155.411 27.154 155.339 27.226C155.267 27.298 155.159 27.34 155.015 27.352C154.859 27.364 154.727 27.34 154.619 27.28C154.523 27.208 154.451 27.136 154.403 27.064C154.355 26.992 154.331 26.956 154.331 26.956C154.271 26.8 154.235 26.62 154.223 26.416C154.211 26.212 154.205 25.978 154.205 25.714C154.205 25.45 154.205 25.162 154.205 24.85C154.181 24.418 154.163 24.016 154.151 23.644C154.151 23.272 154.169 22.924 154.205 22.6C154.241 22.276 154.307 21.97 154.403 21.682C154.511 21.394 154.661 21.112 154.853 20.836C155.093 20.524 155.387 20.242 155.735 19.99C156.083 19.738 156.461 19.534 156.869 19.378C157.277 19.222 157.703 19.132 158.147 19.108C158.603 19.084 159.053 19.144 159.497 19.288C159.797 19.42 160.085 19.594 160.361 19.81C160.637 20.014 160.895 20.26 161.135 20.548C161.387 20.836 161.603 21.178 161.783 21.574C161.963 21.958 162.107 22.408 162.215 22.924C162.347 23.56 162.401 24.208 162.377 24.868C162.365 25.528 162.299 26.248 162.179 27.028C162.179 27.028 162.167 27.07 162.143 27.154C162.131 27.238 162.089 27.328 162.017 27.424C161.945 27.52 161.837 27.598 161.693 27.658C161.561 27.706 161.375 27.706 161.135 27.658ZM167.461 28.18C166.669 28.048 166.027 27.826 165.535 27.514C165.055 27.19 164.683 26.818 164.419 26.398C164.167 25.966 163.993 25.504 163.897 25.012C163.813 24.52 163.771 24.034 163.771 23.554C163.759 23.014 163.855 22.474 164.059 21.934C164.275 21.382 164.581 20.878 164.977 20.422C165.385 19.966 165.871 19.612 166.435 19.36C167.011 19.108 167.647 19.006 168.343 19.054C169.051 19.102 169.627 19.24 170.071 19.468C170.515 19.684 170.857 19.954 171.097 20.278C171.349 20.602 171.517 20.944 171.601 21.304C171.697 21.664 171.751 22.006 171.763 22.33C171.751 22.93 171.589 23.434 171.277 23.842C170.977 24.238 170.503 24.508 169.855 24.652C169.663 24.688 169.417 24.718 169.117 24.742C168.829 24.754 168.517 24.76 168.181 24.76C167.857 24.76 167.533 24.754 167.209 24.742C166.897 24.73 166.603 24.718 166.327 24.706C166.063 24.694 165.847 24.688 165.679 24.688C165.523 24.676 165.445 24.67 165.445 24.67C165.481 25.006 165.589 25.336 165.769 25.66C165.949 25.972 166.207 26.23 166.543 26.434C166.891 26.638 167.323 26.758 167.839 26.794C168.283 26.806 168.697 26.8 169.081 26.776C169.465 26.752 169.801 26.716 170.089 26.668C170.389 26.62 170.617 26.578 170.773 26.542C170.929 26.506 171.007 26.488 171.007 26.488C171.007 26.488 171.037 26.488 171.097 26.488C171.169 26.476 171.247 26.476 171.331 26.488C171.427 26.5 171.523 26.536 171.619 26.596C171.715 26.644 171.793 26.734 171.853 26.866C171.925 26.986 171.949 27.094 171.925 27.19C171.913 27.274 171.883 27.352 171.835 27.424C171.787 27.484 171.739 27.532 171.691 27.568C171.655 27.592 171.637 27.604 171.637 27.604C171.637 27.604 171.511 27.646 171.259 27.73C171.007 27.814 170.671 27.904 170.251 28C169.843 28.108 169.393 28.186 168.901 28.234C168.409 28.282 167.929 28.264 167.461 28.18ZM165.445 23.554L168.973 23.518C168.973 23.518 169.015 23.512 169.099 23.5C169.183 23.476 169.285 23.446 169.405 23.41C169.537 23.374 169.663 23.308 169.783 23.212C169.915 23.116 170.023 22.99 170.107 22.834C170.191 22.666 170.233 22.456 170.233 22.204C170.233 21.784 170.161 21.436 170.017 21.16C169.873 20.884 169.633 20.686 169.297 20.566C168.961 20.434 168.493 20.386 167.893 20.422C167.473 20.446 167.101 20.578 166.777 20.818C166.465 21.046 166.201 21.328 165.985 21.664C165.781 22 165.631 22.342 165.535 22.69C165.439 23.026 165.409 23.314 165.445 23.554ZM176.848 26.704C177.568 26.68 178.012 26.566 178.18 26.362C178.36 26.146 178.294 25.846 177.982 25.462C177.85 25.294 177.652 25.114 177.388 24.922C177.124 24.73 176.836 24.526 176.524 24.31C176.224 24.082 175.924 23.842 175.624 23.59C175.336 23.326 175.084 23.038 174.868 22.726C174.652 22.414 174.514 22.072 174.454 21.7C174.382 21.208 174.454 20.764 174.67 20.368C174.898 19.96 175.27 19.642 175.786 19.414C176.302 19.174 176.956 19.06 177.748 19.072C178.54 19.072 179.464 19.234 180.52 19.558C180.52 19.558 180.538 19.576 180.574 19.612C180.622 19.636 180.67 19.678 180.718 19.738C180.766 19.798 180.808 19.87 180.844 19.954C180.88 20.038 180.886 20.134 180.862 20.242C180.838 20.338 180.796 20.416 180.736 20.476C180.688 20.524 180.628 20.566 180.556 20.602C180.496 20.626 180.442 20.638 180.394 20.638C180.346 20.638 180.322 20.638 180.322 20.638C180.322 20.638 180.256 20.632 180.124 20.62C179.992 20.608 179.818 20.596 179.602 20.584C179.386 20.572 179.146 20.566 178.882 20.566C178.618 20.554 178.348 20.56 178.072 20.584C177.808 20.596 177.556 20.626 177.316 20.674C177.076 20.722 176.878 20.794 176.722 20.89C176.506 21.034 176.356 21.19 176.272 21.358C176.2 21.526 176.194 21.712 176.254 21.916C176.326 22.108 176.476 22.318 176.704 22.546C176.944 22.774 177.274 23.014 177.694 23.266C178.294 23.626 178.798 24.01 179.206 24.418C179.614 24.826 179.89 25.246 180.034 25.678C180.178 26.098 180.16 26.518 179.98 26.938C179.86 27.214 179.62 27.442 179.26 27.622C178.9 27.802 178.474 27.922 177.982 27.982C177.49 28.03 176.974 28.018 176.434 27.946C175.894 27.862 175.36 27.706 174.832 27.478C174.316 27.25 173.866 26.938 173.482 26.542C173.482 26.542 173.464 26.524 173.428 26.488C173.404 26.452 173.38 26.404 173.356 26.344C173.332 26.272 173.32 26.2 173.32 26.128C173.332 26.044 173.368 25.966 173.428 25.894C173.5 25.81 173.578 25.762 173.662 25.75C173.758 25.726 173.848 25.72 173.932 25.732C174.016 25.744 174.082 25.762 174.13 25.786C174.19 25.798 174.22 25.804 174.22 25.804C174.22 25.804 174.292 25.852 174.436 25.948C174.58 26.044 174.772 26.158 175.012 26.29C175.264 26.41 175.546 26.512 175.858 26.596C176.182 26.68 176.512 26.716 176.848 26.704Z" fill="#433DC3"/>
<path d="M123.692 71.018C123.452 70.982 123.272 70.916 123.152 70.82C123.032 70.724 122.942 70.616 122.882 70.496C122.822 70.376 122.786 70.28 122.774 70.208C122.774 70.124 122.774 70.082 122.774 70.082C122.822 69.026 122.96 67.946 123.188 66.842C123.416 65.738 123.692 64.622 124.016 63.494C124.268 62.774 124.508 62.162 124.736 61.658C124.976 61.142 125.21 60.722 125.438 60.398C125.666 60.062 125.9 59.816 126.14 59.66C126.392 59.504 126.656 59.426 126.932 59.426C127.136 59.39 127.346 59.438 127.562 59.57C127.778 59.69 127.994 59.882 128.21 60.146C128.426 60.41 128.63 60.74 128.822 61.136C129.026 61.52 129.194 61.958 129.326 62.45C129.446 62.786 129.584 63.242 129.74 63.818C129.908 64.394 130.07 65.042 130.226 65.762C130.394 66.47 130.544 67.22 130.676 68.012C130.82 68.804 130.928 69.59 131 70.37C131 70.37 130.994 70.406 130.982 70.478C130.982 70.538 130.958 70.616 130.91 70.712C130.862 70.796 130.784 70.874 130.676 70.946C130.568 71.006 130.412 71.036 130.208 71.036C130.004 71.036 129.836 71.006 129.704 70.946C129.572 70.874 129.47 70.79 129.398 70.694C129.326 70.586 129.272 70.496 129.236 70.424C129.212 70.352 129.2 70.316 129.2 70.316C129.02 69.224 128.846 68.204 128.678 67.256C128.51 66.296 128.324 65.45 128.12 64.718C127.952 64.046 127.778 63.452 127.598 62.936C127.418 62.42 127.226 61.946 127.022 61.514C126.842 61.79 126.662 62.108 126.482 62.468C126.314 62.816 126.158 63.176 126.014 63.548C125.882 63.92 125.768 64.292 125.672 64.664C125.528 65.24 125.396 65.774 125.276 66.266C125.156 66.746 125.054 67.208 124.97 67.652C124.898 68.096 124.832 68.546 124.772 69.002C124.712 69.446 124.67 69.92 124.646 70.424C124.646 70.424 124.634 70.46 124.61 70.532C124.586 70.604 124.544 70.682 124.484 70.766C124.424 70.85 124.328 70.922 124.196 70.982C124.076 71.03 123.908 71.042 123.692 71.018ZM124.034 69.344L124.214 68.102C124.778 67.97 125.336 67.868 125.888 67.796C126.452 67.724 127.028 67.688 127.616 67.688C128.204 67.676 128.816 67.694 129.452 67.742L129.632 69.236C129.212 69.164 128.756 69.11 128.264 69.074C127.772 69.038 127.268 69.026 126.752 69.038C126.248 69.038 125.762 69.068 125.294 69.128C124.826 69.176 124.406 69.248 124.034 69.344ZM133.317 71C133.113 71 132.945 70.964 132.813 70.892C132.693 70.808 132.597 70.718 132.525 70.622C132.453 70.514 132.399 70.424 132.363 70.352C132.339 70.28 132.327 70.244 132.327 70.244C132.279 69.728 132.237 69.134 132.201 68.462C132.177 67.778 132.159 67.064 132.147 66.32C132.147 65.564 132.153 64.808 132.165 64.052C132.177 63.296 132.201 62.564 132.237 61.856C132.273 61.148 132.315 60.5 132.363 59.912C132.363 59.912 132.369 59.882 132.381 59.822C132.405 59.75 132.441 59.672 132.489 59.588C132.549 59.504 132.639 59.432 132.759 59.372C132.879 59.312 133.035 59.294 133.227 59.318C133.431 59.33 133.593 59.378 133.713 59.462C133.833 59.546 133.917 59.642 133.965 59.75C134.025 59.858 134.061 59.954 134.073 60.038C134.097 60.122 134.109 60.164 134.109 60.164C134.073 60.632 134.043 61.19 134.019 61.838C133.995 62.486 133.977 63.182 133.965 63.926C133.965 64.658 133.965 65.402 133.965 66.158C133.965 66.914 133.971 67.652 133.983 68.372C134.007 69.08 134.037 69.728 134.073 70.316C134.073 70.316 134.067 70.352 134.055 70.424C134.043 70.484 134.013 70.562 133.965 70.658C133.917 70.742 133.839 70.82 133.731 70.892C133.635 70.964 133.497 71 133.317 71ZM139.182 71.18C138.39 71.048 137.748 70.826 137.256 70.514C136.776 70.19 136.404 69.818 136.14 69.398C135.888 68.966 135.714 68.504 135.618 68.012C135.534 67.52 135.492 67.034 135.492 66.554C135.48 66.014 135.576 65.474 135.78 64.934C135.996 64.382 136.302 63.878 136.698 63.422C137.106 62.966 137.592 62.612 138.156 62.36C138.732 62.108 139.368 62.006 140.064 62.054C140.772 62.102 141.348 62.24 141.792 62.468C142.236 62.684 142.578 62.954 142.818 63.278C143.07 63.602 143.238 63.944 143.322 64.304C143.418 64.664 143.472 65.006 143.484 65.33C143.472 65.93 143.31 66.434 142.998 66.842C142.698 67.238 142.224 67.508 141.576 67.652C141.384 67.688 141.138 67.718 140.838 67.742C140.55 67.754 140.238 67.76 139.902 67.76C139.578 67.76 139.254 67.754 138.93 67.742C138.618 67.73 138.324 67.718 138.048 67.706C137.784 67.694 137.568 67.688 137.4 67.688C137.244 67.676 137.166 67.67 137.166 67.67C137.202 68.006 137.31 68.336 137.49 68.66C137.67 68.972 137.928 69.23 138.264 69.434C138.612 69.638 139.044 69.758 139.56 69.794C140.004 69.806 140.418 69.8 140.802 69.776C141.186 69.752 141.522 69.716 141.81 69.668C142.11 69.62 142.338 69.578 142.494 69.542C142.65 69.506 142.728 69.488 142.728 69.488C142.728 69.488 142.758 69.488 142.818 69.488C142.89 69.476 142.968 69.476 143.052 69.488C143.148 69.5 143.244 69.536 143.34 69.596C143.436 69.644 143.514 69.734 143.574 69.866C143.646 69.986 143.67 70.094 143.646 70.19C143.634 70.274 143.604 70.352 143.556 70.424C143.508 70.484 143.46 70.532 143.412 70.568C143.376 70.592 143.358 70.604 143.358 70.604C143.358 70.604 143.232 70.646 142.98 70.73C142.728 70.814 142.392 70.904 141.972 71C141.564 71.108 141.114 71.186 140.622 71.234C140.13 71.282 139.65 71.264 139.182 71.18ZM137.166 66.554L140.694 66.518C140.694 66.518 140.736 66.512 140.82 66.5C140.904 66.476 141.006 66.446 141.126 66.41C141.258 66.374 141.384 66.308 141.504 66.212C141.636 66.116 141.744 65.99 141.828 65.834C141.912 65.666 141.954 65.456 141.954 65.204C141.954 64.784 141.882 64.436 141.738 64.16C141.594 63.884 141.354 63.686 141.018 63.566C140.682 63.434 140.214 63.386 139.614 63.422C139.194 63.446 138.822 63.578 138.498 63.818C138.186 64.046 137.922 64.328 137.706 64.664C137.502 65 137.352 65.342 137.256 65.69C137.16 66.026 137.13 66.314 137.166 66.554ZM145.419 70.928C145.275 70.832 145.173 70.73 145.113 70.622C145.065 70.514 145.041 70.406 145.041 70.298C145.053 70.19 145.071 70.094 145.095 70.01C145.131 69.926 145.161 69.86 145.185 69.812C145.221 69.764 145.239 69.74 145.239 69.74C145.587 69.356 145.911 68.996 146.211 68.66C146.511 68.324 146.805 67.988 147.093 67.652C147.381 67.316 147.675 66.962 147.975 66.59C147.747 66.29 147.531 66.008 147.327 65.744C147.123 65.468 146.919 65.198 146.715 64.934C146.523 64.67 146.325 64.4 146.121 64.124C145.917 63.836 145.695 63.524 145.455 63.188C145.455 63.188 145.443 63.158 145.419 63.098C145.407 63.038 145.395 62.966 145.383 62.882C145.383 62.798 145.407 62.708 145.455 62.612C145.503 62.516 145.593 62.432 145.725 62.36C145.857 62.288 145.983 62.252 146.103 62.252C146.223 62.24 146.331 62.252 146.427 62.288C146.535 62.324 146.619 62.36 146.679 62.396C146.739 62.42 146.769 62.432 146.769 62.432C146.997 62.696 147.237 62.99 147.489 63.314C147.753 63.638 148.017 63.974 148.281 64.322C148.545 64.658 148.797 64.994 149.037 65.33C149.373 64.898 149.673 64.508 149.937 64.16C150.201 63.812 150.447 63.488 150.675 63.188C150.903 62.876 151.119 62.576 151.323 62.288C151.323 62.288 151.347 62.264 151.395 62.216C151.455 62.168 151.533 62.12 151.629 62.072C151.737 62.024 151.857 62 151.989 62C152.133 61.988 152.289 62.024 152.457 62.108C152.649 62.204 152.781 62.318 152.853 62.45C152.925 62.57 152.955 62.696 152.943 62.828C152.943 62.948 152.931 63.05 152.907 63.134C152.883 63.206 152.871 63.242 152.871 63.242C152.583 63.65 152.319 64.028 152.079 64.376C151.839 64.712 151.611 65.024 151.395 65.312C151.179 65.6 150.975 65.87 150.783 66.122C150.603 66.362 150.423 66.59 150.243 66.806C150.615 67.298 150.957 67.754 151.269 68.174C151.593 68.594 151.875 68.966 152.115 69.29C152.367 69.602 152.553 69.86 152.673 70.064C152.673 70.064 152.685 70.088 152.709 70.136C152.733 70.184 152.745 70.25 152.745 70.334C152.757 70.406 152.751 70.484 152.727 70.568C152.715 70.652 152.673 70.736 152.601 70.82C152.529 70.892 152.415 70.958 152.259 71.018C152.055 71.09 151.869 71.096 151.701 71.036C151.533 70.988 151.401 70.928 151.305 70.856C151.209 70.784 151.161 70.748 151.161 70.748L149.145 68.066C148.713 68.582 148.281 69.092 147.849 69.596C147.429 70.088 147.021 70.532 146.625 70.928C146.625 70.928 146.589 70.946 146.517 70.982C146.457 71.018 146.367 71.054 146.247 71.09C146.127 71.126 145.995 71.132 145.851 71.108C145.719 71.096 145.575 71.036 145.419 70.928ZM158.326 70.964C157.714 70.964 157.15 70.856 156.634 70.64C156.13 70.412 155.692 70.1 155.32 69.704C154.948 69.308 154.66 68.846 154.456 68.318C154.252 67.79 154.15 67.226 154.15 66.626C154.15 65.99 154.264 65.396 154.492 64.844C154.732 64.28 155.05 63.788 155.446 63.368C155.854 62.936 156.322 62.606 156.85 62.378C157.39 62.138 157.972 62.012 158.596 62C159.472 62 160.228 62.162 160.864 62.486C161.5 62.798 161.986 63.29 162.322 63.962C162.67 64.622 162.844 65.468 162.844 66.5C162.844 67.1 162.736 67.67 162.52 68.21C162.316 68.738 162.016 69.206 161.62 69.614C161.224 70.022 160.75 70.346 160.198 70.586C159.646 70.826 159.022 70.952 158.326 70.964ZM158.398 69.344C158.77 69.344 159.124 69.266 159.46 69.11C159.808 68.942 160.108 68.72 160.36 68.444C160.624 68.168 160.834 67.85 160.99 67.49C161.146 67.118 161.224 66.734 161.224 66.338C161.224 65.666 161.11 65.114 160.882 64.682C160.666 64.238 160.366 63.914 159.982 63.71C159.61 63.494 159.178 63.386 158.686 63.386C158.326 63.386 157.978 63.482 157.642 63.674C157.318 63.854 157.03 64.1 156.778 64.412C156.538 64.724 156.346 65.078 156.202 65.474C156.07 65.858 156.004 66.248 156.004 66.644C156.004 67.16 156.1 67.628 156.292 68.048C156.496 68.456 156.778 68.774 157.138 69.002C157.498 69.23 157.918 69.344 158.398 69.344ZM162.898 70.982C162.694 70.982 162.526 70.946 162.394 70.874C162.274 70.802 162.184 70.73 162.124 70.658C162.064 70.586 162.034 70.55 162.034 70.55C161.95 69.674 161.884 68.804 161.836 67.94C161.788 67.064 161.776 66.17 161.8 65.258C161.824 64.346 161.878 63.404 161.962 62.432C161.962 62.432 161.986 62.396 162.034 62.324C162.082 62.252 162.166 62.186 162.286 62.126C162.418 62.054 162.598 62.024 162.826 62.036C163.03 62.048 163.186 62.102 163.294 62.198C163.414 62.294 163.498 62.408 163.546 62.54C163.594 62.66 163.618 62.768 163.618 62.864C163.63 62.948 163.636 62.99 163.636 62.99C163.588 63.602 163.546 64.19 163.51 64.754C163.486 65.318 163.474 65.888 163.474 66.464C163.486 67.028 163.504 67.622 163.528 68.246C163.552 68.87 163.582 69.554 163.618 70.298C163.618 70.298 163.612 70.334 163.6 70.406C163.588 70.466 163.558 70.544 163.51 70.64C163.474 70.724 163.402 70.802 163.294 70.874C163.198 70.946 163.066 70.982 162.898 70.982ZM172.218 70.658C172.014 70.598 171.858 70.514 171.75 70.406C171.642 70.298 171.57 70.19 171.534 70.082C171.498 69.962 171.474 69.86 171.462 69.776C171.462 69.68 171.462 69.632 171.462 69.632C171.594 68.624 171.642 67.706 171.606 66.878C171.582 66.038 171.438 65.384 171.174 64.916C170.934 64.472 170.652 64.154 170.328 63.962C170.004 63.758 169.668 63.668 169.32 63.692C168.972 63.704 168.624 63.818 168.276 64.034C167.868 64.298 167.55 64.622 167.322 65.006C167.094 65.39 166.932 65.798 166.836 66.23C166.752 66.662 166.704 67.082 166.692 67.49C166.704 67.874 166.71 68.222 166.71 68.534C166.71 68.846 166.716 69.122 166.728 69.362C166.74 69.602 166.752 69.8 166.764 69.956C166.764 69.956 166.758 69.98 166.746 70.028C166.746 70.076 166.734 70.136 166.71 70.208C166.686 70.28 166.632 70.346 166.548 70.406C166.476 70.466 166.356 70.502 166.188 70.514C166.044 70.526 165.918 70.496 165.81 70.424C165.702 70.352 165.612 70.28 165.54 70.208C165.48 70.136 165.45 70.1 165.45 70.1C165.318 69.884 165.246 69.674 165.234 69.47C165.234 69.266 165.24 69.038 165.252 68.786C165.276 68.534 165.258 68.228 165.198 67.868C165.174 67.424 165.162 67.022 165.162 66.662C165.174 66.29 165.204 65.942 165.252 65.618C165.3 65.282 165.378 64.97 165.486 64.682C165.594 64.394 165.744 64.112 165.936 63.836C166.176 63.524 166.47 63.242 166.818 62.99C167.166 62.738 167.544 62.534 167.952 62.378C168.372 62.222 168.804 62.132 169.248 62.108C169.692 62.084 170.136 62.144 170.58 62.288C170.88 62.42 171.168 62.594 171.444 62.81C171.732 63.014 171.996 63.26 172.236 63.548C172.476 63.836 172.686 64.178 172.866 64.574C173.046 64.958 173.196 65.408 173.316 65.924C173.436 66.56 173.49 67.208 173.478 67.868C173.466 68.528 173.4 69.248 173.28 70.028C173.28 70.028 173.268 70.07 173.244 70.154C173.22 70.238 173.172 70.328 173.1 70.424C173.04 70.52 172.938 70.598 172.794 70.658C172.65 70.706 172.458 70.706 172.218 70.658ZM166.116 70.982C165.948 70.97 165.804 70.934 165.684 70.874C165.576 70.802 165.486 70.724 165.414 70.64C165.342 70.544 165.288 70.466 165.252 70.406C165.228 70.346 165.216 70.316 165.216 70.316C165.144 69.668 165.09 69.038 165.054 68.426C165.03 67.814 165.018 67.208 165.018 66.608C165.018 65.996 165.036 65.366 165.072 64.718C165.108 64.07 165.156 63.386 165.216 62.666C165.216 62.666 165.222 62.636 165.234 62.576C165.246 62.504 165.276 62.426 165.324 62.342C165.384 62.258 165.468 62.186 165.576 62.126C165.696 62.054 165.858 62.024 166.062 62.036C166.266 62.036 166.428 62.078 166.548 62.162C166.668 62.246 166.752 62.348 166.8 62.468C166.86 62.576 166.896 62.672 166.908 62.756C166.932 62.84 166.944 62.882 166.944 62.882C166.908 63.482 166.878 64.07 166.854 64.646C166.83 65.222 166.818 65.81 166.818 66.41C166.818 67.01 166.824 67.634 166.836 68.282C166.86 68.918 166.896 69.59 166.944 70.298C166.944 70.298 166.938 70.334 166.926 70.406C166.914 70.478 166.878 70.562 166.818 70.658C166.77 70.742 166.692 70.82 166.584 70.892C166.476 70.964 166.32 70.994 166.116 70.982ZM179.007 70.964C178.395 70.964 177.831 70.856 177.315 70.64C176.811 70.412 176.373 70.1 176.001 69.704C175.629 69.308 175.341 68.846 175.137 68.318C174.933 67.79 174.831 67.226 174.831 66.626C174.831 65.99 174.945 65.396 175.173 64.844C175.413 64.28 175.731 63.788 176.127 63.368C176.535 62.936 177.003 62.606 177.531 62.378C178.071 62.138 178.653 62.012 179.277 62C180.153 62 180.909 62.162 181.545 62.486C182.181 62.798 182.667 63.29 183.003 63.962C183.351 64.622 183.525 65.468 183.525 66.5C183.525 67.1 183.417 67.67 183.201 68.21C182.997 68.738 182.697 69.206 182.301 69.614C181.905 70.022 181.431 70.346 180.879 70.586C180.327 70.826 179.703 70.952 179.007 70.964ZM179.079 69.344C179.451 69.344 179.805 69.266 180.141 69.11C180.489 68.942 180.789 68.72 181.041 68.444C181.305 68.168 181.515 67.85 181.671 67.49C181.827 67.118 181.905 66.734 181.905 66.338C181.905 65.666 181.791 65.114 181.563 64.682C181.347 64.238 181.047 63.914 180.663 63.71C180.291 63.494 179.859 63.386 179.367 63.386C179.007 63.386 178.659 63.482 178.323 63.674C177.999 63.854 177.711 64.1 177.459 64.412C177.219 64.724 177.027 65.078 176.883 65.474C176.751 65.858 176.685 66.248 176.685 66.644C176.685 67.16 176.781 67.628 176.973 68.048C177.177 68.456 177.459 68.774 177.819 69.002C178.179 69.23 178.599 69.344 179.079 69.344ZM183.525 71C183.321 71 183.153 70.964 183.021 70.892C182.901 70.808 182.805 70.718 182.733 70.622C182.661 70.514 182.607 70.424 182.571 70.352C182.547 70.28 182.535 70.244 182.535 70.244C182.487 69.728 182.445 69.134 182.409 68.462C182.385 67.778 182.367 67.064 182.355 66.32C182.343 65.564 182.343 64.808 182.355 64.052C182.379 63.296 182.409 62.564 182.445 61.856C182.481 61.148 182.523 60.5 182.571 59.912C182.571 59.912 182.577 59.882 182.589 59.822C182.613 59.75 182.655 59.672 182.715 59.588C182.775 59.504 182.859 59.432 182.967 59.372C183.087 59.312 183.249 59.294 183.453 59.318C183.657 59.33 183.813 59.378 183.921 59.462C184.041 59.546 184.125 59.642 184.173 59.75C184.233 59.858 184.269 59.954 184.281 60.038C184.305 60.122 184.317 60.164 184.317 60.164C184.281 60.632 184.251 61.19 184.227 61.838C184.215 62.486 184.203 63.182 184.191 63.926C184.179 64.658 184.173 65.402 184.173 66.158C184.173 66.914 184.185 67.652 184.209 68.372C184.233 69.08 184.263 69.728 184.299 70.316C184.299 70.316 184.287 70.352 184.263 70.424C184.251 70.484 184.221 70.562 184.173 70.658C184.137 70.742 184.065 70.82 183.957 70.892C183.849 70.964 183.705 71 183.525 71ZM189.406 71.18C188.614 71.048 187.972 70.826 187.48 70.514C187 70.19 186.628 69.818 186.364 69.398C186.112 68.966 185.938 68.504 185.842 68.012C185.758 67.52 185.716 67.034 185.716 66.554C185.704 66.014 185.8 65.474 186.004 64.934C186.22 64.382 186.526 63.878 186.922 63.422C187.33 62.966 187.816 62.612 188.38 62.36C188.956 62.108 189.592 62.006 190.288 62.054C190.996 62.102 191.572 62.24 192.016 62.468C192.46 62.684 192.802 62.954 193.042 63.278C193.294 63.602 193.462 63.944 193.546 64.304C193.642 64.664 193.696 65.006 193.708 65.33C193.696 65.93 193.534 66.434 193.222 66.842C192.922 67.238 192.448 67.508 191.8 67.652C191.608 67.688 191.362 67.718 191.062 67.742C190.774 67.754 190.462 67.76 190.126 67.76C189.802 67.76 189.478 67.754 189.154 67.742C188.842 67.73 188.548 67.718 188.272 67.706C188.008 67.694 187.792 67.688 187.624 67.688C187.468 67.676 187.39 67.67 187.39 67.67C187.426 68.006 187.534 68.336 187.714 68.66C187.894 68.972 188.152 69.23 188.488 69.434C188.836 69.638 189.268 69.758 189.784 69.794C190.228 69.806 190.642 69.8 191.026 69.776C191.41 69.752 191.746 69.716 192.034 69.668C192.334 69.62 192.562 69.578 192.718 69.542C192.874 69.506 192.952 69.488 192.952 69.488C192.952 69.488 192.982 69.488 193.042 69.488C193.114 69.476 193.192 69.476 193.276 69.488C193.372 69.5 193.468 69.536 193.564 69.596C193.66 69.644 193.738 69.734 193.798 69.866C193.87 69.986 193.894 70.094 193.87 70.19C193.858 70.274 193.828 70.352 193.78 70.424C193.732 70.484 193.684 70.532 193.636 70.568C193.6 70.592 193.582 70.604 193.582 70.604C193.582 70.604 193.456 70.646 193.204 70.73C192.952 70.814 192.616 70.904 192.196 71C191.788 71.108 191.338 71.186 190.846 71.234C190.354 71.282 189.874 71.264 189.406 71.18ZM187.39 66.554L190.918 66.518C190.918 66.518 190.96 66.512 191.044 66.5C191.128 66.476 191.23 66.446 191.35 66.41C191.482 66.374 191.608 66.308 191.728 66.212C191.86 66.116 191.968 65.99 192.052 65.834C192.136 65.666 192.178 65.456 192.178 65.204C192.178 64.784 192.106 64.436 191.962 64.16C191.818 63.884 191.578 63.686 191.242 63.566C190.906 63.434 190.438 63.386 189.838 63.422C189.418 63.446 189.046 63.578 188.722 63.818C188.41 64.046 188.146 64.328 187.93 64.664C187.726 65 187.576 65.342 187.48 65.69C187.384 66.026 187.354 66.314 187.39 66.554ZM196.291 68.948C196.135 68.96 196.009 68.924 195.913 68.84C195.829 68.756 195.763 68.66 195.715 68.552C195.679 68.432 195.649 68.324 195.625 68.228C195.613 68.132 195.607 68.084 195.607 68.084C195.571 67.88 195.541 67.724 195.517 67.616C195.493 67.496 195.481 67.388 195.481 67.292C195.481 67.184 195.481 67.052 195.481 66.896C195.493 66.74 195.505 66.524 195.517 66.248C195.565 65.54 195.703 64.916 195.931 64.376C196.171 63.836 196.501 63.386 196.921 63.026C197.341 62.666 197.839 62.402 198.415 62.234C198.919 62.114 199.387 62.072 199.819 62.108C200.251 62.144 200.641 62.24 200.989 62.396C201.349 62.54 201.667 62.732 201.943 62.972C201.943 62.972 201.967 62.996 202.015 63.044C202.063 63.092 202.111 63.158 202.159 63.242C202.219 63.326 202.261 63.422 202.285 63.53C202.321 63.626 202.321 63.728 202.285 63.836C202.261 63.944 202.189 64.052 202.069 64.16C201.937 64.268 201.793 64.322 201.637 64.322C201.481 64.31 201.331 64.274 201.187 64.214C201.043 64.154 200.923 64.1 200.827 64.052C200.743 63.992 200.701 63.962 200.701 63.962C200.425 63.77 200.113 63.674 199.765 63.674C199.429 63.662 199.087 63.74 198.739 63.908C198.247 64.124 197.863 64.436 197.587 64.844C197.323 65.24 197.155 65.714 197.083 66.266C197.059 66.566 197.035 66.812 197.011 67.004C196.999 67.184 196.987 67.34 196.975 67.472C196.975 67.592 196.975 67.718 196.975 67.85C196.975 67.982 196.981 68.156 196.993 68.372C196.993 68.372 196.981 68.414 196.957 68.498C196.933 68.582 196.867 68.672 196.759 68.768C196.663 68.852 196.507 68.912 196.291 68.948ZM196.363 70.982C196.195 70.97 196.051 70.934 195.931 70.874C195.823 70.802 195.733 70.724 195.661 70.64C195.589 70.544 195.535 70.466 195.499 70.406C195.475 70.346 195.463 70.316 195.463 70.316C195.391 69.668 195.337 69.038 195.301 68.426C195.277 67.814 195.265 67.208 195.265 66.608C195.265 65.996 195.283 65.366 195.319 64.718C195.355 64.07 195.403 63.386 195.463 62.666C195.463 62.666 195.469 62.636 195.481 62.576C195.493 62.504 195.523 62.426 195.571 62.342C195.631 62.258 195.715 62.186 195.823 62.126C195.943 62.054 196.105 62.024 196.309 62.036C196.513 62.036 196.675 62.078 196.795 62.162C196.915 62.246 196.999 62.348 197.047 62.468C197.107 62.576 197.143 62.672 197.155 62.756C197.179 62.84 197.191 62.882 197.191 62.882C197.155 63.482 197.125 64.07 197.101 64.646C197.077 65.222 197.065 65.81 197.065 66.41C197.065 67.01 197.071 67.634 197.083 68.282C197.107 68.918 197.143 69.59 197.191 70.298C197.191 70.298 197.185 70.334 197.173 70.406C197.161 70.478 197.125 70.562 197.065 70.658C197.017 70.742 196.939 70.82 196.831 70.892C196.723 70.964 196.567 70.994 196.363 70.982Z" fill="#494949"/>
<path d="M123.872 103C123.668 102.988 123.5 102.946 123.368 102.874C123.248 102.79 123.158 102.7 123.098 102.604C123.038 102.496 122.99 102.406 122.954 102.334C122.93 102.25 122.918 102.208 122.918 102.208C122.882 101.764 122.852 101.224 122.828 100.588C122.804 99.94 122.786 99.244 122.774 98.5C122.774 97.756 122.774 97 122.774 96.232C122.786 95.464 122.804 94.72 122.828 94C122.864 93.28 122.906 92.632 122.954 92.056C122.954 92.056 122.96 92.026 122.972 91.966C122.984 91.894 123.014 91.816 123.062 91.732C123.11 91.636 123.188 91.552 123.296 91.48C123.416 91.396 123.578 91.342 123.782 91.318C125.258 91.198 126.542 91.204 127.634 91.336C128.726 91.456 129.56 91.804 130.136 92.38C130.712 92.944 131.084 93.562 131.252 94.234C131.432 94.894 131.414 95.542 131.198 96.178C130.994 96.802 130.604 97.366 130.028 97.87C129.788 98.086 129.464 98.272 129.056 98.428C128.648 98.584 128.192 98.704 127.688 98.788C127.184 98.86 126.662 98.902 126.122 98.914C125.582 98.914 125.06 98.878 124.556 98.806L124.664 102.334C124.664 102.334 124.658 102.37 124.646 102.442C124.634 102.514 124.598 102.592 124.538 102.676C124.478 102.76 124.394 102.838 124.286 102.91C124.19 102.97 124.052 103 123.872 103ZM124.556 97.312C125.456 97.384 126.218 97.384 126.842 97.312C127.466 97.24 127.97 97.102 128.354 96.898C128.738 96.694 129.014 96.442 129.182 96.142C129.362 95.83 129.464 95.476 129.488 95.08C129.488 94.54 129.368 94.096 129.128 93.748C128.9 93.4 128.57 93.136 128.138 92.956C127.718 92.776 127.22 92.668 126.644 92.632C126.068 92.584 125.426 92.596 124.718 92.668C124.646 93.46 124.598 94.246 124.574 95.026C124.55 95.794 124.544 96.556 124.556 97.312ZM135.926 103.18C135.134 103.048 134.492 102.826 134 102.514C133.52 102.19 133.148 101.818 132.884 101.398C132.632 100.966 132.458 100.504 132.362 100.012C132.278 99.52 132.236 99.034 132.236 98.554C132.224 98.014 132.32 97.474 132.524 96.934C132.74 96.382 133.046 95.878 133.442 95.422C133.85 94.966 134.336 94.612 134.9 94.36C135.476 94.108 136.112 94.006 136.808 94.054C137.516 94.102 138.092 94.24 138.536 94.468C138.98 94.684 139.322 94.954 139.562 95.278C139.814 95.602 139.982 95.944 140.066 96.304C140.162 96.664 140.216 97.006 140.228 97.33C140.216 97.93 140.054 98.434 139.742 98.842C139.442 99.238 138.968 99.508 138.32 99.652C138.128 99.688 137.882 99.718 137.582 99.742C137.294 99.754 136.982 99.76 136.646 99.76C136.322 99.76 135.998 99.754 135.674 99.742C135.362 99.73 135.068 99.718 134.792 99.706C134.528 99.694 134.312 99.688 134.144 99.688C133.988 99.676 133.91 99.67 133.91 99.67C133.946 100.006 134.054 100.336 134.234 100.66C134.414 100.972 134.672 101.23 135.008 101.434C135.356 101.638 135.788 101.758 136.304 101.794C136.748 101.806 137.162 101.8 137.546 101.776C137.93 101.752 138.266 101.716 138.554 101.668C138.854 101.62 139.082 101.578 139.238 101.542C139.394 101.506 139.472 101.488 139.472 101.488C139.472 101.488 139.502 101.488 139.562 101.488C139.634 101.476 139.712 101.476 139.796 101.488C139.892 101.5 139.988 101.536 140.084 101.596C140.18 101.644 140.258 101.734 140.318 101.866C140.39 101.986 140.414 102.094 140.39 102.19C140.378 102.274 140.348 102.352 140.3 102.424C140.252 102.484 140.204 102.532 140.156 102.568C140.12 102.592 140.102 102.604 140.102 102.604C140.102 102.604 139.976 102.646 139.724 102.73C139.472 102.814 139.136 102.904 138.716 103C138.308 103.108 137.858 103.186 137.366 103.234C136.874 103.282 136.394 103.264 135.926 103.18ZM133.91 98.554L137.438 98.518C137.438 98.518 137.48 98.512 137.564 98.5C137.648 98.476 137.75 98.446 137.87 98.41C138.002 98.374 138.128 98.308 138.248 98.212C138.38 98.116 138.488 97.99 138.572 97.834C138.656 97.666 138.698 97.456 138.698 97.204C138.698 96.784 138.626 96.436 138.482 96.16C138.338 95.884 138.098 95.686 137.762 95.566C137.426 95.434 136.958 95.386 136.358 95.422C135.938 95.446 135.566 95.578 135.242 95.818C134.93 96.046 134.666 96.328 134.45 96.664C134.246 97 134.096 97.342 134 97.69C133.904 98.026 133.874 98.314 133.91 98.554ZM144.853 103C144.661 103 144.499 102.964 144.367 102.892C144.235 102.808 144.133 102.718 144.061 102.622C144.001 102.514 143.953 102.424 143.917 102.352C143.893 102.28 143.881 102.244 143.881 102.244C143.833 101.728 143.791 101.134 143.755 100.462C143.719 99.778 143.695 99.064 143.683 98.32C143.683 97.564 143.689 96.808 143.701 96.052C143.713 95.296 143.737 94.564 143.773 93.856C143.809 93.148 143.851 92.5 143.899 91.912C143.899 91.912 143.905 91.882 143.917 91.822C143.941 91.75 143.983 91.672 144.043 91.588C144.103 91.504 144.187 91.432 144.295 91.372C144.415 91.312 144.571 91.294 144.763 91.318C144.979 91.33 145.141 91.378 145.249 91.462C145.369 91.546 145.453 91.642 145.501 91.75C145.561 91.858 145.597 91.954 145.609 92.038C145.633 92.122 145.645 92.164 145.645 92.164C145.609 92.632 145.579 93.19 145.555 93.838C145.543 94.486 145.531 95.182 145.519 95.926C145.507 96.658 145.501 97.402 145.501 98.158C145.501 98.914 145.513 99.652 145.537 100.372C145.561 101.08 145.591 101.728 145.627 102.316C145.627 102.316 145.615 102.352 145.591 102.424C145.579 102.484 145.549 102.562 145.501 102.658C145.465 102.742 145.393 102.82 145.285 102.892C145.177 102.964 145.033 103 144.853 103ZM147.319 95.818C146.371 95.806 145.471 95.794 144.619 95.782C143.767 95.758 143.011 95.74 142.351 95.728C142.351 95.728 142.303 95.722 142.207 95.71C142.123 95.698 142.021 95.668 141.901 95.62C141.781 95.572 141.673 95.506 141.577 95.422C141.481 95.326 141.427 95.194 141.415 95.026C141.403 94.882 141.421 94.768 141.469 94.684C141.517 94.6 141.583 94.54 141.667 94.504C141.751 94.456 141.817 94.426 141.865 94.414C141.925 94.39 141.955 94.378 141.955 94.378C142.051 94.366 142.231 94.354 142.495 94.342C142.759 94.33 143.077 94.324 143.449 94.324C143.821 94.312 144.217 94.306 144.637 94.306C145.069 94.294 145.501 94.288 145.933 94.288C146.365 94.288 146.773 94.288 147.157 94.288C147.157 94.288 147.187 94.294 147.247 94.306C147.319 94.318 147.403 94.342 147.499 94.378C147.595 94.402 147.691 94.444 147.787 94.504C147.883 94.564 147.961 94.642 148.021 94.738C148.081 94.834 148.111 94.96 148.111 95.116C148.099 95.296 148.051 95.44 147.967 95.548C147.883 95.644 147.793 95.71 147.697 95.746C147.601 95.782 147.511 95.806 147.427 95.818C147.355 95.818 147.319 95.818 147.319 95.818ZM152.651 103.18C151.859 103.048 151.217 102.826 150.725 102.514C150.245 102.19 149.873 101.818 149.609 101.398C149.357 100.966 149.183 100.504 149.087 100.012C149.003 99.52 148.961 99.034 148.961 98.554C148.949 98.014 149.045 97.474 149.249 96.934C149.465 96.382 149.771 95.878 150.167 95.422C150.575 94.966 151.061 94.612 151.625 94.36C152.201 94.108 152.837 94.006 153.533 94.054C154.241 94.102 154.817 94.24 155.261 94.468C155.705 94.684 156.047 94.954 156.287 95.278C156.539 95.602 156.707 95.944 156.791 96.304C156.887 96.664 156.941 97.006 156.953 97.33C156.941 97.93 156.779 98.434 156.467 98.842C156.167 99.238 155.693 99.508 155.045 99.652C154.853 99.688 154.607 99.718 154.307 99.742C154.019 99.754 153.707 99.76 153.371 99.76C153.047 99.76 152.723 99.754 152.399 99.742C152.087 99.73 151.793 99.718 151.517 99.706C151.253 99.694 151.037 99.688 150.869 99.688C150.713 99.676 150.635 99.67 150.635 99.67C150.671 100.006 150.779 100.336 150.959 100.66C151.139 100.972 151.397 101.23 151.733 101.434C152.081 101.638 152.513 101.758 153.029 101.794C153.473 101.806 153.887 101.8 154.271 101.776C154.655 101.752 154.991 101.716 155.279 101.668C155.579 101.62 155.807 101.578 155.963 101.542C156.119 101.506 156.197 101.488 156.197 101.488C156.197 101.488 156.227 101.488 156.287 101.488C156.359 101.476 156.437 101.476 156.521 101.488C156.617 101.5 156.713 101.536 156.809 101.596C156.905 101.644 156.983 101.734 157.043 101.866C157.115 101.986 157.139 102.094 157.115 102.19C157.103 102.274 157.073 102.352 157.025 102.424C156.977 102.484 156.929 102.532 156.881 102.568C156.845 102.592 156.827 102.604 156.827 102.604C156.827 102.604 156.701 102.646 156.449 102.73C156.197 102.814 155.861 102.904 155.441 103C155.033 103.108 154.583 103.186 154.091 103.234C153.599 103.282 153.119 103.264 152.651 103.18ZM150.635 98.554L154.163 98.518C154.163 98.518 154.205 98.512 154.289 98.5C154.373 98.476 154.475 98.446 154.595 98.41C154.727 98.374 154.853 98.308 154.973 98.212C155.105 98.116 155.213 97.99 155.297 97.834C155.381 97.666 155.423 97.456 155.423 97.204C155.423 96.784 155.351 96.436 155.207 96.16C155.063 95.884 154.823 95.686 154.487 95.566C154.151 95.434 153.683 95.386 153.083 95.422C152.663 95.446 152.291 95.578 151.967 95.818C151.655 96.046 151.391 96.328 151.175 96.664C150.971 97 150.821 97.342 150.725 97.69C150.629 98.026 150.599 98.314 150.635 98.554ZM159.536 100.948C159.38 100.96 159.254 100.924 159.158 100.84C159.074 100.756 159.008 100.66 158.96 100.552C158.924 100.432 158.894 100.324 158.87 100.228C158.858 100.132 158.852 100.084 158.852 100.084C158.816 99.88 158.786 99.724 158.762 99.616C158.738 99.496 158.726 99.388 158.726 99.292C158.726 99.184 158.726 99.052 158.726 98.896C158.738 98.74 158.75 98.524 158.762 98.248C158.81 97.54 158.948 96.916 159.176 96.376C159.416 95.836 159.746 95.386 160.166 95.026C160.586 94.666 161.084 94.402 161.66 94.234C162.164 94.114 162.632 94.072 163.064 94.108C163.496 94.144 163.886 94.24 164.234 94.396C164.594 94.54 164.912 94.732 165.188 94.972C165.188 94.972 165.212 94.996 165.26 95.044C165.308 95.092 165.356 95.158 165.404 95.242C165.464 95.326 165.506 95.422 165.53 95.53C165.566 95.626 165.566 95.728 165.53 95.836C165.506 95.944 165.434 96.052 165.314 96.16C165.182 96.268 165.038 96.322 164.882 96.322C164.726 96.31 164.576 96.274 164.432 96.214C164.288 96.154 164.168 96.1 164.072 96.052C163.988 95.992 163.946 95.962 163.946 95.962C163.67 95.77 163.358 95.674 163.01 95.674C162.674 95.662 162.332 95.74 161.984 95.908C161.492 96.124 161.108 96.436 160.832 96.844C160.568 97.24 160.4 97.714 160.328 98.266C160.304 98.566 160.28 98.812 160.256 99.004C160.244 99.184 160.232 99.34 160.22 99.472C160.22 99.592 160.22 99.718 160.22 99.85C160.22 99.982 160.226 100.156 160.238 100.372C160.238 100.372 160.226 100.414 160.202 100.498C160.178 100.582 160.112 100.672 160.004 100.768C159.908 100.852 159.752 100.912 159.536 100.948ZM159.608 102.982C159.44 102.97 159.296 102.934 159.176 102.874C159.068 102.802 158.978 102.724 158.906 102.64C158.834 102.544 158.78 102.466 158.744 102.406C158.72 102.346 158.708 102.316 158.708 102.316C158.636 101.668 158.582 101.038 158.546 100.426C158.522 99.814 158.51 99.208 158.51 98.608C158.51 97.996 158.528 97.366 158.564 96.718C158.6 96.07 158.648 95.386 158.708 94.666C158.708 94.666 158.714 94.636 158.726 94.576C158.738 94.504 158.768 94.426 158.816 94.342C158.876 94.258 158.96 94.186 159.068 94.126C159.188 94.054 159.35 94.024 159.554 94.036C159.758 94.036 159.92 94.078 160.04 94.162C160.16 94.246 160.244 94.348 160.292 94.468C160.352 94.576 160.388 94.672 160.4 94.756C160.424 94.84 160.436 94.882 160.436 94.882C160.4 95.482 160.37 96.07 160.346 96.646C160.322 97.222 160.31 97.81 160.31 98.41C160.31 99.01 160.316 99.634 160.328 100.282C160.352 100.918 160.388 101.59 160.436 102.298C160.436 102.298 160.43 102.334 160.418 102.406C160.406 102.478 160.37 102.562 160.31 102.658C160.262 102.742 160.184 102.82 160.076 102.892C159.968 102.964 159.812 102.994 159.608 102.982Z" fill="#494949"/>
<line x1="5" y1="42" x2="293" y2="42" stroke="#433DC3" stroke-width="2"/>
</svg>
